<svg width="40" height="40" viewBox="0 0 40 40" fill="none" xmlns="http://www.w3.org/2000/svg">
<path d="M40 20C40 8.95431 31.0456 0 20 0C8.95431 0 0 8.95431 0 20C0 31.0456 8.95431 40 20 40C31.0456 40 40 31.0456 40 20Z" fill="#0052FF"/>
<path d="M20.0263 27.0394C16.1515 27.0394 13.0131 23.9011 13.0131 20.0263C13.0131 16.1515 16.1515 13.0131 20.0263 13.0131C23.4978 13.0131 26.3791 15.5437 26.9342 18.8574H34C33.4039 11.6573 27.3784 6 20.0263 6C12.2826 6 6 12.2826 6 20.0263C6 27.7699 12.2826 34.0525 20.0263 34.0525C27.3784 34.0525 33.4039 28.3952 34 21.1951H26.9284C26.3732 24.5088 23.4978 27.0394 20.0263 27.0394Z" fill="white"/>
</svg>
