<svg width="14" height="20" viewBox="0 0 14 20" fill="none" xmlns="http://www.w3.org/2000/svg">
<path d="M7.02901 0.108323V0.118175C7.03887 0.167436 7.03887 0.226549 7.03887 0.285662V7.38911C7.02901 7.42852 6.99946 7.43837 6.9699 7.45808C6.763 7.5566 6.56596 7.64527 6.35906 7.73394C6.07335 7.86202 5.77778 7.99995 5.49207 8.12803L4.45758 8.60093C4.17187 8.72901 3.88616 8.85709 3.61029 8.98517C3.27532 9.14281 2.93049 9.29059 2.59552 9.44823C2.3098 9.5763 2.02409 9.71423 1.72852 9.84231C1.49207 9.95069 1.25561 10.0492 1.02901 10.1576C1.00931 10.1674 0.989604 10.1773 0.9699 10.1773C0.960048 10.1773 0.960048 10.1773 0.950195 10.1674L1.21621 9.72409C1.72852 8.8768 2.23098 8.03936 2.7433 7.19207C3.28517 6.28566 3.83689 5.37926 4.37877 4.47286C4.88123 3.63542 5.39355 2.79798 5.89601 1.96054C6.26054 1.3497 6.63492 0.738864 6.99946 0.128027C7.00931 0.108323 7.01916 0.0984703 7.01916 0.0787659H7.02901C7.01916 0.0886181 7.02901 0.0984703 7.02901 0.108323Z" fill="#8C8C8C"/>
<path d="M13.0787 10.1675L13.0886 10.1773L11.6403 11.0345L7.08858 13.7241C7.06888 13.734 7.04917 13.7438 7.03932 13.7537C7.00977 13.7537 7.00977 13.7241 7.00977 13.7143V13.6256V7.53695C7.00977 7.50739 7.00977 7.46799 7.01962 7.43843C7.02947 7.39902 7.05903 7.40887 7.08858 7.41872C7.21666 7.47784 7.35459 7.53695 7.48267 7.59606C7.86691 7.7734 8.25115 7.95074 8.63538 8.11823C8.97036 8.26601 9.29548 8.42365 9.63046 8.57143C9.96543 8.71922 10.3004 8.87685 10.6354 9.02464C10.9211 9.15271 11.2167 9.29065 11.5024 9.41872C11.7881 9.5468 12.0837 9.68473 12.3694 9.81281C12.596 9.91133 12.8226 10.0197 13.0492 10.1182C13.0492 10.1478 13.059 10.1576 13.0787 10.1675Z" fill="#141414"/>
<path d="M7.02901 19.8719C7.02901 19.8818 7.01916 19.8916 7.01916 19.9015H7.00931C7.00931 19.8818 6.9896 19.8719 6.97975 19.8522C6.36891 18.9951 5.75808 18.1281 5.14724 17.2709C4.52655 16.3941 3.89601 15.5074 3.27532 14.6305C2.67433 13.7832 2.0635 12.9261 1.46251 12.0788C1.30488 11.8522 1.14724 11.6354 0.989604 11.4088C0.979752 11.3891 0.9699 11.3793 0.950195 11.3497C0.979752 11.3497 0.999456 11.3694 1.00931 11.3793C1.86645 11.8818 2.71374 12.3842 3.57088 12.8867C4.55611 13.468 5.53148 14.0492 6.5167 14.6305L7.01916 14.9261C7.03887 14.9458 7.03887 14.9655 7.03887 14.9852V19.734C7.03887 19.7832 7.03887 19.8325 7.02901 19.8719Z" fill="#8C8C8C"/>
<path d="M0.94043 10.1872V10.1773C1.2557 10.0394 1.56112 9.8916 1.87639 9.75367C2.28033 9.56648 2.68427 9.38914 3.08821 9.20195C3.39363 9.06402 3.7089 8.91623 4.01432 8.7783C4.46752 8.57141 4.91087 8.37436 5.36408 8.16746C5.66949 8.02953 5.97491 7.8916 6.29018 7.74382C6.50693 7.6453 6.73353 7.54677 6.95028 7.44825C6.96999 7.4384 6.99954 7.42855 7.0094 7.40884C7.01925 7.40884 7.01925 7.4187 7.0094 7.42855V13.6847C7.0094 13.7143 6.99954 13.7438 7.01925 13.7635C6.99954 13.7931 6.97984 13.7635 6.96999 13.7537C6.88132 13.7044 6.79265 13.6551 6.70398 13.596C4.8025 12.4729 2.89117 11.3399 0.989691 10.2167C0.979839 10.2069 0.960134 10.197 0.94043 10.1872Z" fill="#393939"/>
<path d="M13.0589 11.3497H13.0688C13.0688 11.3694 13.0491 11.3891 13.0392 11.4088C11.2264 13.9606 9.41362 16.5221 7.60081 19.0739C7.41362 19.3399 7.21658 19.6059 7.02938 19.8719C7.01953 19.862 7.01953 19.8522 7.01953 19.8423V19.7832V15.0049V14.9162C7.43332 14.6699 7.83727 14.4335 8.25106 14.1872C9.84712 13.2414 11.4432 12.3054 13.0294 11.3596C13.0392 11.3694 13.0491 11.3596 13.0589 11.3497Z" fill="#3C3C3B"/>
<path d="M7.0197 7.42854V7.40883V7.34972V0.197012C7.0197 0.167456 7.00985 0.147751 7.02956 0.118195C9.02956 3.43839 11.0296 6.74874 13.0197 10.0689C13.0394 10.0985 13.069 10.1379 13.0788 10.1773C12.9409 10.128 12.8128 10.0591 12.6847 9.99997C12.5271 9.931 12.3596 9.85218 12.202 9.78322C12.1035 9.73396 11.9951 9.69455 11.8966 9.64529C11.7291 9.56647 11.5616 9.4975 11.3941 9.41869C11.2956 9.37928 11.197 9.33002 11.0985 9.28076L10.4483 8.98519C10.3399 8.93593 10.2315 8.88667 10.1133 8.83741L9.6404 8.63051C9.54187 8.5911 9.44335 8.54184 9.34483 8.49258L8.69458 8.19701C8.58621 8.14775 8.47783 8.09849 8.35961 8.04923L7.8867 7.84233C7.77833 7.79307 7.6798 7.74381 7.57143 7.69455C7.38424 7.60588 7.19704 7.51721 7 7.43839C7.02956 7.42854 7.0197 7.42854 7.0197 7.42854Z" fill="#343434"/>
</svg>
