<svg width="200" height="160" viewBox="0 0 200 160" fill="none" xmlns="http://www.w3.org/2000/svg">
<g clip-path="url(#clip0_1767_21294)">
<g clip-path="url(#clip1_1767_21294)">
<rect width="200" height="160" fill="#F0F0F0"/>
<path d="M176.747 22.701V215.612" stroke="black" stroke-opacity="0.1" stroke-linecap="round"/>
<path d="M176.747 -170.21V22.7012" stroke="black" stroke-opacity="0.1" stroke-linecap="round"/>
<path d="M-52.8882 22.701H252.889" stroke="black" stroke-opacity="0.1" stroke-linecap="round"/>
<path d="M23.2539 22.701V215.612" stroke="black" stroke-opacity="0.1" stroke-linecap="round"/>
<path d="M23.2539 -170.21V22.7012" stroke="black" stroke-opacity="0.1" stroke-linecap="round"/>
<path d="M61.9292 22.701V215.612" stroke="black" stroke-opacity="0.1" stroke-linecap="round"/>
<path d="M61.9292 -170.21V22.7012" stroke="black" stroke-opacity="0.1" stroke-linecap="round"/>
<path d="M99.396 22.701V215.612" stroke="black" stroke-opacity="0.1" stroke-linecap="round"/>
<path d="M99.396 -170.21V22.7012" stroke="black" stroke-opacity="0.1" stroke-linecap="round"/>
<path d="M139.28 22.701V215.612" stroke="black" stroke-opacity="0.1" stroke-linecap="round"/>
<path d="M139.28 -170.21V22.7012" stroke="black" stroke-opacity="0.1" stroke-linecap="round"/>
<path d="M-52.8882 22.701H252.889" stroke="black" stroke-opacity="0.1" stroke-linecap="round"/>
<path d="M-52.8882 99.8655H252.889" stroke="black" stroke-opacity="0.1" stroke-linecap="round"/>
<path d="M-52.8882 61.2833H252.889" stroke="black" stroke-opacity="0.1" stroke-linecap="round"/>
<path d="M-52.8882 138.448H252.889" stroke="black" stroke-opacity="0.1" stroke-linecap="round"/>
<rect width="200" height="160" fill="url(#paint0_radial_1767_21294)"/>
</g>
<g clip-path="url(#clip2_1767_21294)">
<path d="M164 9H36V151H164V9Z" fill="url(#paint1_radial_1767_21294)"/>
<rect x="34.5" y="16.5" width="129" height="39" rx="19.5" fill="white" fill-opacity="0.8" stroke="#FAE76C"/>
<rect x="38.5" y="20.5" width="31" height="31" rx="15.5" fill="white" fill-opacity="0.8" stroke="#FAE76C"/>
<rect x="142.5" y="30.5" width="11" height="11" rx="5.5" fill="white" fill-opacity="0.8" stroke="#FAE76C"/>
<rect x="76.5" y="30.5" width="44" height="11" rx="5.5" fill="white" fill-opacity="0.8" stroke="#FAE76C"/>
<rect x="34.5" y="60.5" width="129" height="39" rx="19.5" fill="white" fill-opacity="0.8" stroke="#FAE76C"/>
<rect x="38.5" y="64.5" width="31" height="31" rx="15.5" fill="white" fill-opacity="0.8" stroke="#FAE76C"/>
<rect x="142.5" y="74.5" width="11" height="11" rx="5.5" fill="white" fill-opacity="0.8" stroke="#FAE76C"/>
<rect x="76.5" y="74.5" width="44" height="11" rx="5.5" fill="white" fill-opacity="0.8" stroke="#FAE76C"/>
<rect x="34.5" y="104.5" width="129" height="39" rx="19.5" fill="white" fill-opacity="0.8" stroke="#FAE76C"/>
<rect x="38.5" y="108.5" width="31" height="31" rx="15.5" fill="white" fill-opacity="0.8" stroke="#FAE76C"/>
<rect x="142.5" y="118.5" width="11" height="11" rx="5.5" fill="white" fill-opacity="0.8" stroke="#FAE76C"/>
<rect x="76.5" y="118.5" width="44" height="11" rx="5.5" fill="white" fill-opacity="0.8" stroke="#FAE76C"/>
<g filter="url(#filter0_d_1767_21294)">
<path d="M180 29C180 17.9543 171.046 9 160 9C148.954 9 140 17.9543 140 29C140 40.0457 148.954 49 160 49C171.046 49 180 40.0457 180 29Z" fill="white"/>
<path d="M160 9.15C170.963 9.15 179.85 18.0371 179.85 29C179.85 39.9629 170.963 48.85 160 48.85C149.037 48.85 140.15 39.9629 140.15 29C140.15 18.0371 149.037 9.15 160 9.15Z" stroke="black" stroke-opacity="0.2" stroke-width="0.3"/>
</g>
<path d="M154.167 23.1666H152.5C152.113 23.1666 151.919 23.1666 151.76 23.2092C151.329 23.3248 150.992 23.6617 150.876 24.0931C150.833 24.2521 150.833 24.4458 150.833 24.8333V24.8333C150.833 25.6083 150.833 25.9958 150.919 26.3137C151.15 27.1764 151.824 27.8503 152.686 28.0814C153.004 28.1666 153.392 28.1666 154.167 28.1666V28.1666M165.833 23.1666H167.5C167.888 23.1666 168.081 23.1666 168.24 23.2092C168.672 23.3248 169.009 23.6617 169.124 24.0931C169.167 24.2521 169.167 24.4458 169.167 24.8333V24.8333C169.167 25.6083 169.167 25.9958 169.082 26.3137C168.85 27.1764 168.177 27.8503 167.314 28.0814C166.996 28.1666 166.608 28.1666 165.833 28.1666V28.1666M160 30.6666V34M157.576 37.3333H162.424C162.926 37.3333 163.333 36.9263 163.333 36.4242V36.4242C163.333 35.0853 162.248 34 160.909 34H159.091C157.752 34 156.667 35.0853 156.667 36.4242V36.4242C156.667 36.9263 157.074 37.3333 157.576 37.3333ZM160 30.6666V30.6666C161.551 30.6666 162.327 30.6666 162.954 30.4627C164.223 30.0505 165.217 29.056 165.63 27.7875C165.833 27.1599 165.833 26.3844 165.833 24.8333V24.4166C165.833 23.2518 165.833 22.6693 165.643 22.2099C165.389 21.5973 164.903 21.1107 164.29 20.8569C163.831 20.6666 163.248 20.6666 162.083 20.6666H157.917C156.752 20.6666 156.17 20.6666 155.71 20.8569C155.098 21.1107 154.611 21.5973 154.357 22.2099C154.167 22.6693 154.167 23.2518 154.167 24.4166V24.8333C154.167 26.3844 154.167 27.1599 154.371 27.7875C154.783 29.056 155.777 30.0505 157.046 30.4627C157.674 30.6666 158.449 30.6666 160 30.6666Z" stroke="black" stroke-opacity="0.8" stroke-width="1.25" stroke-linecap="round" stroke-linejoin="round"/>
</g>
</g>
<defs>
<filter id="filter0_d_1767_21294" x="138" y="8" width="44" height="44" filterUnits="userSpaceOnUse" color-interpolation-filters="sRGB">
<feFlood flood-opacity="0" result="BackgroundImageFix"/>
<feColorMatrix in="SourceAlpha" type="matrix" values="0 0 0 0 0 0 0 0 0 0 0 0 0 0 0 0 0 0 127 0" result="hardAlpha"/>
<feOffset dy="1"/>
<feGaussianBlur stdDeviation="1"/>
<feColorMatrix type="matrix" values="0 0 0 0 0.0627451 0 0 0 0 0.0941176 0 0 0 0 0.156863 0 0 0 0.05 0"/>
<feBlend mode="normal" in2="BackgroundImageFix" result="effect1_dropShadow_1767_21294"/>
<feBlend mode="normal" in="SourceGraphic" in2="effect1_dropShadow_1767_21294" result="shape"/>
</filter>
<radialGradient id="paint0_radial_1767_21294" cx="0" cy="0" r="1" gradientUnits="userSpaceOnUse" gradientTransform="translate(100 80) rotate(90) scale(90.5 120.126)">
<stop stop-color="#F0F0F0" stop-opacity="0"/>
<stop offset="1" stop-color="#F0F0F0"/>
</radialGradient>
<radialGradient id="paint1_radial_1767_21294" cx="0" cy="0" r="1" gradientUnits="userSpaceOnUse" gradientTransform="translate(99.5688 79.6204) scale(64.8153 65.5762)">
<stop stop-color="#FFE600"/>
<stop offset="1" stop-color="#FFC700" stop-opacity="0"/>
<stop offset="1" stop-color="#FFE600" stop-opacity="0"/>
</radialGradient>
<clipPath id="clip0_1767_21294">
<rect width="200" height="160" fill="white"/>
</clipPath>
<clipPath id="clip1_1767_21294">
<rect width="306" height="232" fill="white" transform="translate(-53 -16)"/>
</clipPath>
<clipPath id="clip2_1767_21294">
<rect width="160" height="160" fill="white" transform="translate(20)"/>
</clipPath>
</defs>
</svg>
