<svg width="200" height="160" viewBox="0 0 200 160" fill="none" xmlns="http://www.w3.org/2000/svg">
<g clip-path="url(#clip0_1886_32157)">
<g clip-path="url(#clip1_1886_32157)">
<rect width="200" height="160" fill="#F0F0F0"/>
<path d="M176.747 22.701V215.612" stroke="black" stroke-opacity="0.1" stroke-linecap="round"/>
<path d="M176.747 -170.21V22.7012" stroke="black" stroke-opacity="0.1" stroke-linecap="round"/>
<path d="M-52.8882 22.701H252.889" stroke="black" stroke-opacity="0.1" stroke-linecap="round"/>
<path d="M23.2539 22.701V215.612" stroke="black" stroke-opacity="0.1" stroke-linecap="round"/>
<path d="M23.2539 -170.21V22.7012" stroke="black" stroke-opacity="0.1" stroke-linecap="round"/>
<path d="M61.9292 22.701V215.612" stroke="black" stroke-opacity="0.1" stroke-linecap="round"/>
<path d="M61.9292 -170.21V22.7012" stroke="black" stroke-opacity="0.1" stroke-linecap="round"/>
<path d="M99.396 22.701V215.612" stroke="black" stroke-opacity="0.1" stroke-linecap="round"/>
<path d="M99.396 -170.21V22.7012" stroke="black" stroke-opacity="0.1" stroke-linecap="round"/>
<path d="M139.28 22.701V215.612" stroke="black" stroke-opacity="0.1" stroke-linecap="round"/>
<path d="M139.28 -170.21V22.7012" stroke="black" stroke-opacity="0.1" stroke-linecap="round"/>
<path d="M-52.8882 22.701H252.889" stroke="black" stroke-opacity="0.1" stroke-linecap="round"/>
<path d="M-52.8882 99.8655H252.889" stroke="black" stroke-opacity="0.1" stroke-linecap="round"/>
<path d="M-52.8882 61.2833H252.889" stroke="black" stroke-opacity="0.1" stroke-linecap="round"/>
<path d="M-52.8882 138.448H252.889" stroke="black" stroke-opacity="0.1" stroke-linecap="round"/>
<rect width="200" height="160" fill="url(#paint0_radial_1886_32157)"/>
</g>
<path d="M164 18H36V160H164V18Z" fill="url(#paint1_radial_1886_32157)"/>
<rect x="36.5" y="10.5" width="127" height="140" rx="7.5" fill="white" fill-opacity="0.8" stroke="#FAE76C"/>
<rect x="88.5" y="91.5" width="23" height="9" rx="4.5" fill="white" stroke="#FAE76C"/>
<rect x="64.5" y="105.5" width="71" height="9" rx="4.5" fill="white" fill-opacity="0.8" stroke="#FAE76C"/>
<rect x="76.5" y="33.5" width="47" height="47" rx="23.5" fill="white" fill-opacity="0.8" stroke="#FAE76C"/>
<g filter="url(#filter0_d_1886_32157)">
<path d="M132 48C132 36.9543 123.046 28 112 28C100.954 28 92 36.9543 92 48C92 59.0457 100.954 68 112 68C123.046 68 132 59.0457 132 48Z" fill="white"/>
<path d="M112 28.15C122.963 28.15 131.85 37.0371 131.85 48C131.85 58.9629 122.963 67.85 112 67.85C101.037 67.85 92.15 58.9629 92.15 48C92.15 37.0371 101.037 28.15 112 28.15Z" stroke="black" stroke-opacity="0.2" stroke-width="0.3"/>
</g>
<path d="M120.333 48C120.333 52.6023 116.602 56.3333 112 56.3333C107.397 56.3333 103.667 52.6023 103.667 48C103.667 43.3976 107.397 39.6666 112 39.6666C116.602 39.6666 120.333 43.3976 120.333 48Z" stroke="black" stroke-opacity="0.8" stroke-width="1.25" stroke-linecap="round" stroke-linejoin="round"/>
<path d="M113.667 44.6666C113.667 45.5871 112.92 46.3333 112 46.3333C111.079 46.3333 110.333 45.5871 110.333 44.6666C110.333 43.7462 111.079 43 112 43C112.92 43 113.667 43.7462 113.667 44.6666Z" stroke="black" stroke-opacity="0.8" stroke-width="1.25" stroke-linecap="round" stroke-linejoin="round"/>
</g>
<defs>
<filter id="filter0_d_1886_32157" x="90" y="27" width="44" height="44" filterUnits="userSpaceOnUse" color-interpolation-filters="sRGB">
<feFlood flood-opacity="0" result="BackgroundImageFix"/>
<feColorMatrix in="SourceAlpha" type="matrix" values="0 0 0 0 0 0 0 0 0 0 0 0 0 0 0 0 0 0 127 0" result="hardAlpha"/>
<feOffset dy="1"/>
<feGaussianBlur stdDeviation="1"/>
<feColorMatrix type="matrix" values="0 0 0 0 0.0627451 0 0 0 0 0.0941176 0 0 0 0 0.156863 0 0 0 0.05 0"/>
<feBlend mode="normal" in2="BackgroundImageFix" result="effect1_dropShadow_1886_32157"/>
<feBlend mode="normal" in="SourceGraphic" in2="effect1_dropShadow_1886_32157" result="shape"/>
</filter>
<radialGradient id="paint0_radial_1886_32157" cx="0" cy="0" r="1" gradientUnits="userSpaceOnUse" gradientTransform="translate(100 80) rotate(90) scale(90.5 120.126)">
<stop stop-color="#F0F0F0" stop-opacity="0"/>
<stop offset="1" stop-color="#F0F0F0"/>
</radialGradient>
<radialGradient id="paint1_radial_1886_32157" cx="0" cy="0" r="1" gradientUnits="userSpaceOnUse" gradientTransform="translate(99.5688 88.6204) scale(64.8153 65.5762)">
<stop stop-color="#FFE600"/>
<stop offset="1" stop-color="#FFC700" stop-opacity="0"/>
<stop offset="1" stop-color="#FFE600" stop-opacity="0"/>
</radialGradient>
<clipPath id="clip0_1886_32157">
<rect width="200" height="160" fill="white"/>
</clipPath>
<clipPath id="clip1_1886_32157">
<rect width="306" height="232" fill="white" transform="translate(-53 -16)"/>
</clipPath>
</defs>
</svg>
