<svg width="80" height="80" viewBox="0 0 80 80" fill="none" xmlns="http://www.w3.org/2000/svg">
<rect x="0.5" y="0.5" width="79" height="79" rx="15.5" fill="#F0F0F0"/>
<g filter="url(#filter0_d_1393_36350)">
<path fill-rule="evenodd" clip-rule="evenodd" d="M58.6706 30.7848L58.8002 48.9998L58.6817 49.3855L40.1975 60H39.8603L21.4299 49.3974L21.3202 49.0198L21.2002 30.8197L21.368 30.5573L39.7745 20H40.1119L58.5028 30.5573L58.6706 30.7848ZM58.0101 48.0796L58.0066 48.3964L58.0118 48.3994L58.0101 48.0796Z" fill="#131313"/>
</g>
<path d="M39.8798 38.5001L58.2001 48.7885L39.8798 59.6001L21.7 48.7885L39.8798 38.5001Z" fill="#FAE76C"/>
<path d="M40.0002 38.4004V20.4004L58.2002 30.8004L58.0002 49.0004L40.0002 38.4004Z" fill="#EAECF0"/>
<path d="M39.8001 38.4004V20.4004L21.6001 30.8004L21.8001 49.0004L39.8001 38.4004Z" fill="white"/>
<path d="M58.8002 48.9998L58.6706 30.7848L58.5028 30.5573L40.112 20H39.7745L21.368 30.5573L21.2002 30.8197L21.3202 49.0198L21.4299 49.3974L39.8603 60H40.1975L58.6817 49.3854L58.8002 48.9998ZM57.917 30.9813L58.0118 48.3994L40.1164 38.1859V20.7529L57.917 30.9813ZM39.698 20.7529V38.194L26.4549 45.8555L22.0124 48.3913L21.9321 30.9807L39.698 20.7529ZM40.0287 59.2312L22.3172 49.0028L22.5755 48.8531L39.9874 38.7981L55.8997 47.9156L57.7881 49.0032L40.0287 59.2312Z" fill="#131313"/>
<path d="M28.2973 39.2346L27.9814 39.0422V32.283L28.0696 32.09L34.7795 28.1504L35.095 28.3431V35.1023L35.0072 35.2953L28.2973 39.2346ZM28.3997 32.4109V38.6516L34.6764 34.9744V28.7337L28.3997 32.4109Z" fill="#131313"/>
<path d="M53.2983 46.184C53.1745 46.184 53.089 46.084 53.089 45.9602L53.0893 32.5398L44.7203 27.8349V40.8215C44.7203 40.9447 44.6351 41.0447 44.511 41.0447C44.3867 41.0447 44.3018 40.9447 44.3018 40.8215V27.451L44.6456 27.2568L53.3957 32.2155L53.5077 32.4097V45.9602C53.5077 46.0846 53.4228 46.1846 53.2985 46.1846L53.2983 46.184Z" fill="#131313"/>
<path d="M52.2765 52.6298C52.2575 52.6298 52.2386 52.6249 52.2205 52.6147L33.7617 42.0031C33.7079 41.9726 33.6896 41.9043 33.7208 41.8505C33.7517 41.797 33.8203 41.7793 33.874 41.8098L52.3328 52.4214C52.3865 52.4519 52.4049 52.5202 52.3737 52.574C52.353 52.6097 52.315 52.6298 52.2765 52.6298Z" fill="#131313"/>
<path d="M46.1782 56.2421C46.1589 56.2421 46.1397 56.2372 46.1216 56.227L27.6635 45.6154C27.6098 45.5849 27.5914 45.5166 27.6226 45.4628C27.6536 45.4093 27.7222 45.3916 27.7759 45.4221L46.2347 56.0337C46.2884 56.0642 46.3068 56.1325 46.2756 56.1863C46.2548 56.2223 46.2169 56.2418 46.1784 56.2418L46.1782 56.2421Z" fill="#131313"/>
<path d="M27.8584 52.6301C27.8199 52.6301 27.7819 52.61 27.7612 52.5743C27.7302 52.5214 27.7483 52.4525 27.8021 52.4217L46.1391 41.8071C46.1922 41.7763 46.2608 41.7938 46.2923 41.8478C46.3232 41.9007 46.3051 41.9696 46.2514 42.0004L27.9144 52.615C27.8963 52.6254 27.8774 52.6304 27.8584 52.6304V52.6301Z" fill="#131313"/>
<path d="M34.1811 56.2619C34.1426 56.2619 34.105 56.2419 34.0839 56.2061C34.053 56.1526 34.0711 56.0843 34.1248 56.0535L52.4618 45.439C52.5149 45.4082 52.5835 45.4256 52.6151 45.4797C52.646 45.5326 52.6279 45.6015 52.5742 45.6323L34.2379 56.2468C34.2204 56.2573 34.2012 56.2619 34.1813 56.2619H34.1811Z" fill="#131313"/>
<path d="M48.6956 43.7245C48.5713 43.7245 48.4863 43.6245 48.4863 43.5013V30.0943C48.4863 29.9711 48.5713 29.8711 48.6956 29.8711C48.8194 29.8711 48.9049 29.9711 48.9049 30.0943V43.502C48.9049 43.6249 48.8194 43.7249 48.6956 43.7249V43.7245Z" fill="#131313"/>
<rect x="0.5" y="0.5" width="79" height="79" rx="15.5" stroke="#1C1C1C"/>
<defs>
<filter id="filter0_d_1393_36350" x="21.2002" y="20" width="39.6001" height="42" filterUnits="userSpaceOnUse" color-interpolation-filters="sRGB">
<feFlood flood-opacity="0" result="BackgroundImageFix"/>
<feColorMatrix in="SourceAlpha" type="matrix" values="0 0 0 0 0 0 0 0 0 0 0 0 0 0 0 0 0 0 127 0" result="hardAlpha"/>
<feOffset dx="2" dy="2"/>
<feComposite in2="hardAlpha" operator="out"/>
<feColorMatrix type="matrix" values="0 0 0 0 0 0 0 0 0 0 0 0 0 0 0 0 0 0 0.2 0"/>
<feBlend mode="normal" in2="BackgroundImageFix" result="effect1_dropShadow_1393_36350"/>
<feBlend mode="normal" in="SourceGraphic" in2="effect1_dropShadow_1393_36350" result="shape"/>
</filter>
</defs>
</svg>
