<svg width="80" height="80" viewBox="0 0 80 80" fill="none" xmlns="http://www.w3.org/2000/svg">
<rect x="0.5" y="0.5" width="79" height="79" rx="15.5" fill="#F0F0F0"/>
<g filter="url(#filter0_d_1393_36343)">
<path fill-rule="evenodd" clip-rule="evenodd" d="M59.9343 28.2225C59.9995 28.3333 59.9995 28.3333 59.9972 28.3559L57.6318 30.7213C57.5001 30.787 57.3684 30.787 57.3028 30.7213L55.5926 29.0111L52.3035 32.3002L54.0137 34.0104C54.0742 34.0712 54.0793 34.0765 54.0793 34.1421C54.0793 34.1703 54.0793 34.1864 54.0742 34.2008C54.0674 34.2201 54.0513 34.2362 54.0137 34.2738L52.5009 35.7866C52.3692 35.8523 52.2375 35.8523 52.1719 35.7866L50.7247 34.3395L50.264 34.8001L51.7112 36.2473C51.7768 36.379 51.7768 36.5107 51.7112 36.5763L48.8167 39.4708C48.685 39.5364 48.5533 39.5364 48.4877 39.4708L47.5012 38.4843L44.2121 41.7734L45.1986 42.7599C45.2642 42.8916 45.2642 43.0233 45.1986 43.0889L42.9622 45.3253C43.4229 47.2328 43.3573 49.1406 42.8966 50.9825C42.3703 52.8901 41.3837 54.6663 39.9365 56.1135C37.7656 58.2844 34.9373 59.4682 31.8455 59.4682C28.7538 59.4682 25.9254 58.2842 23.7546 56.1135C19.2817 51.7061 19.2817 44.4699 23.7546 39.9971C25.2019 38.5499 26.9781 37.5633 28.8855 37.037C30.7274 36.5768 32.7008 36.5107 34.5427 36.9714L51.5142 20.0656C51.5799 20 51.6459 20 51.7116 20L58.3554 21.3155C58.487 21.3811 58.5527 21.4472 58.5527 21.5128L59.9343 28.2225Z" fill="#FAE76C"/>
</g>
<path d="M29.0825 50.8516C28.096 49.8651 26.517 49.8651 25.5306 50.8516C24.544 51.8381 24.544 53.4171 25.5306 54.4036C25.9912 54.8642 26.6488 55.1272 27.3068 55.1272C27.9648 55.1272 28.6223 54.8642 29.083 54.4036C30.0695 53.417 30.0695 51.8381 29.0825 50.8516H29.0825ZM28.7535 54.0746C27.9643 54.8639 26.6483 54.8639 25.7935 54.0746C25.0042 53.2854 25.0042 51.9694 25.7935 51.1146C26.1881 50.72 26.7144 50.5227 27.2407 50.5227C27.767 50.5227 28.2933 50.72 28.6878 51.1146C29.6088 51.9699 29.6088 53.2854 28.7535 54.0746H28.7535ZM59.9338 28.2226L58.5522 21.5128C58.5522 21.4472 58.4866 21.3811 58.3549 21.3155L51.7111 20C51.6455 20 51.5794 20 51.5138 20.0656L34.5422 36.9714C32.7003 36.5107 30.7269 36.5768 28.885 37.037C26.9776 37.5633 25.2014 38.5499 23.7541 39.997C19.2812 44.4699 19.2812 51.7061 23.7541 56.1135C25.9249 58.2842 28.7533 59.4682 31.8451 59.4682C34.9368 59.4682 37.7651 58.2844 39.936 56.1135C41.3832 54.6663 42.3698 52.8901 42.8961 50.9825C43.3568 49.1406 43.4224 47.2328 42.9617 45.3253L45.1981 43.0889C45.2637 43.0233 45.2637 42.8916 45.1981 42.7599L44.2116 41.7734L47.5007 38.4843L48.4872 39.4708C48.5528 39.5364 48.6845 39.5364 48.8162 39.4708L51.7107 36.5763C51.7763 36.5107 51.7763 36.379 51.7107 36.2473L50.2635 34.8001L50.7242 34.3395L52.1714 35.7866C52.237 35.8523 52.3687 35.8523 52.5004 35.7866L54.0132 34.2738C54.0788 34.2082 54.0788 34.2082 54.0788 34.1421C54.0788 34.0765 54.0788 34.0104 54.0132 34.0104L52.303 32.3002L55.5921 29.0111L57.3023 30.7213C57.3679 30.787 57.4996 30.787 57.6313 30.7213L59.9994 28.3532C59.9338 28.4198 59.9338 28.3541 59.9338 28.2224L59.9338 28.2226ZM56.1185 21.3816L39.739 37.7611C39.6734 37.8268 39.5417 37.8928 39.476 37.8928C39.3444 37.8928 39.2787 37.8272 39.2131 37.7611L39.1475 37.6955C39.0819 37.6299 39.0158 37.4982 39.0158 37.4326C39.0158 37.367 39.0814 37.2353 39.1475 37.1697L55.1323 21.1848L56.1185 21.3816ZM57.3028 30.3935L55.5926 28.6833C55.527 28.6177 55.3953 28.6177 55.2636 28.6833L51.7116 32.2353C51.646 32.3009 51.646 32.4326 51.7116 32.5643L53.4218 34.2745L52.1719 35.5244L50.7247 34.0772C50.6591 34.0116 50.5274 34.0116 50.3957 34.0772L49.6721 34.8009C49.6065 34.8665 49.6065 34.9982 49.6721 35.1299L51.1193 36.577L48.6195 39.0764L47.6329 38.0899C47.5673 38.0242 47.4356 38.0242 47.3039 38.0899L43.7515 41.7079C43.6859 41.7736 43.6859 41.9052 43.7515 42.0369L44.738 43.0235L42.5673 45.1943C42.5016 45.2599 42.5016 45.3259 42.5016 45.3916C43.4226 49.1413 42.3699 53.1535 39.6071 55.8507C37.5019 57.9559 34.8052 59.0741 31.8452 59.0741C28.8852 59.0741 26.188 57.9558 24.0832 55.8507C19.8072 51.5751 19.8072 44.6023 24.0832 40.3263C26.188 38.2215 29.0168 37.1032 31.9113 37.1032C32.8322 37.1032 33.6875 37.2349 34.6085 37.4322C34.6741 37.4322 34.7402 37.4322 34.8058 37.3666L51.7116 20.4608L54.6716 21.0528L38.8841 36.8403C38.7524 36.972 38.6212 37.2349 38.6212 37.4322C38.6212 37.6295 38.6868 37.8929 38.8841 38.0241L38.9497 38.0897C39.0814 38.2214 39.3443 38.3527 39.5417 38.3527C39.739 38.3527 39.9363 38.287 40.1336 38.0897L56.6447 21.4471L58.1575 21.7761L59.473 28.2225L57.3028 30.3935Z" fill="#131313"/>
<path d="M39.7998 38L56.5998 21.2L54.9998 21L38.9998 37L38.7998 37.6L39.1998 38H39.7998Z" fill="white"/>
<circle cx="27.3997" cy="52.5994" r="2.2" fill="white"/>
<rect x="0.5" y="0.5" width="79" height="79" rx="15.5" stroke="#1C1C1C"/>
<defs>
<filter id="filter0_d_1393_36343" x="20.3999" y="20" width="41.5981" height="41.4678" filterUnits="userSpaceOnUse" color-interpolation-filters="sRGB">
<feFlood flood-opacity="0" result="BackgroundImageFix"/>
<feColorMatrix in="SourceAlpha" type="matrix" values="0 0 0 0 0 0 0 0 0 0 0 0 0 0 0 0 0 0 127 0" result="hardAlpha"/>
<feOffset dx="2" dy="2"/>
<feComposite in2="hardAlpha" operator="out"/>
<feColorMatrix type="matrix" values="0 0 0 0 0 0 0 0 0 0 0 0 0 0 0 0 0 0 0.2 0"/>
<feBlend mode="normal" in2="BackgroundImageFix" result="effect1_dropShadow_1393_36343"/>
<feBlend mode="normal" in="SourceGraphic" in2="effect1_dropShadow_1393_36343" result="shape"/>
</filter>
</defs>
</svg>
