<svg width="80" height="80" viewBox="0 0 80 80" fill="none" xmlns="http://www.w3.org/2000/svg">
<rect x="0.5" y="0.5" width="79" height="79" rx="15.5" fill="#F0F0F0"/>
<g filter="url(#filter0_d_1393_36371)">
<path fill-rule="evenodd" clip-rule="evenodd" d="M52.3148 39.3107C57.1649 35.8927 59.8544 32.684 58.9847 30.8731C58.3254 29.4998 55.7189 29.1859 51.6425 29.9828C50.5688 30.1936 49.4219 30.4792 48.227 30.8233C49.2431 24.9691 48.8775 20.7912 46.981 20.1263C45.5389 19.6187 43.4751 21.2428 41.1595 24.6882C40.5498 25.596 39.9407 26.6087 39.3393 27.697C35.9188 22.8384 32.706 20.1422 30.8937 21.0157C29.5204 21.6756 29.2049 24.2827 30.0034 28.3579C30.2151 29.4357 30.5019 30.5872 30.8486 31.7874C29.6173 31.5754 28.4411 31.4169 27.3468 31.3253C23.2078 30.9797 20.6515 31.581 20.1476 33.0197C19.6428 34.4572 21.2633 36.5253 24.7094 38.8412C25.6206 39.4537 26.6386 40.0653 27.7317 40.6688C26.7111 41.3895 25.7672 42.1091 24.9283 42.8185C21.7578 45.4995 20.3752 47.7332 21.036 49.1068C21.5695 50.2177 23.3763 50.6365 26.2029 50.3338C26.8718 50.2625 27.5977 50.1498 28.3775 49.9975C29.4506 49.7867 30.5975 49.5014 31.7927 49.157C30.7766 55.0112 31.1422 59.1883 33.0387 59.854C33.2713 59.9355 33.5204 59.962 33.7842 59.934C35.1522 59.7876 36.9185 58.1814 38.8602 55.2924C39.4727 54.3809 40.0843 53.3629 40.6885 52.2695C41.4091 53.29 42.1291 54.2343 42.8382 55.0732C45.1949 57.8593 47.2051 59.2644 48.5897 59.1162C48.7809 59.0957 48.9596 59.0455 49.1262 58.9658C50.4996 58.3059 50.8159 55.6982 50.0172 51.6237C49.8064 50.5499 49.5208 49.4021 49.176 48.2066C52.0918 48.7123 54.5961 48.8792 56.4524 48.6802C58.3221 48.4797 59.5395 47.9132 59.8736 46.9618C60.5387 45.066 57.5117 42.1735 52.3148 39.3107ZM45.8992 20.4149L45.3161 20.6648C45.5182 20.5546 45.7129 20.471 45.8992 20.4149Z" fill="#131313"/>
</g>
<path d="M54.2002 40.6002L52.2002 39.4002L53.0002 38.6002L54.6002 37.4002L56.4002 35.8002L57.8002 34.2002L58.8002 32.8002L59.0002 31.8002L58.8002 31.0002L58.4002 30.4002L57.0002 29.8002L55.2002 29.6002L53.2002 29.8002L50.4002 30.4002L48.0002 31.0002L48.6002 26.4002V24.0002L48.4002 22.6002L48.0002 21.4002L47.2002 20.4002L46.4002 20.2002L45.0002 20.8002L43.2002 22.2002L41.8002 24.0002L40.4002 26.2002L39.4002 28.0002L35.8002 23.6002L33.8002 21.8002L32.2002 21.0002H31.4002L30.4002 21.6002L29.8002 23.2002V25.2002L30.2002 28.4002L30.6002 30.6002L31.0002 32.0002L26.6002 31.4002H23.8002L21.6002 32.0002L20.6002 32.6002L20.2002 33.4002L20.6002 34.8002L21.6002 36.0002L23.6002 37.8002L25.6002 39.2002L28.0002 40.6002L23.8002 44.0002L22.0002 46.0002L21.2002 47.6002L21.0002 48.6002L21.4002 49.4002L22.6002 50.0002L24.4002 50.2002L27.2002 50.0002L29.6002 49.6002L31.2002 49.2002L32.0002 49.0002L31.6002 51.2002L31.4002 53.4002V55.2002L31.6002 56.8002L31.8002 58.4002L32.6002 59.4002L33.8002 59.8002L34.8002 59.4002L36.0002 58.4002L37.2002 57.2002L38.2002 55.8002L39.2002 54.4002L40.0002 53.0002L40.6002 52.0002L41.4002 53.0002L42.6002 54.6002L43.8002 56.0002L45.2002 57.2002L46.8002 58.4002L47.8002 58.8002L48.8002 59.0002L49.6002 58.4002L50.0002 57.4002L50.2002 56.0002V54.9543V53.8002L50.0002 52.8002L49.8002 51.6002L49.6002 50.4002L49.2002 49.2002L49.0002 48.0002L50.4002 48.2002L54.2002 48.6002H56.4002L58.2002 48.2002L59.4002 47.4002L59.8002 46.6002L59.6002 45.6002L58.8002 44.4002L57.6002 43.0002L55.8002 41.6002L54.2002 40.6002Z" fill="#FAE76C"/>
<path d="M52.3141 39.3108C57.1643 35.8928 59.8539 32.684 58.9842 30.8731C58.3249 29.4998 55.7184 29.1859 51.642 29.9828C50.5683 30.1936 49.4214 30.4792 48.2265 30.8233C49.2426 24.9691 48.877 20.7912 46.9805 20.1263C45.5384 19.6187 43.4746 21.2428 41.159 24.6882C40.5493 25.596 39.9402 26.6087 39.3389 27.697C35.9184 22.8385 32.7055 20.1422 30.8932 21.0157C29.5199 21.6756 29.2044 24.2827 30.0029 28.3579C30.2146 29.4357 30.5015 30.5872 30.8481 31.7874C29.6168 31.5754 28.4406 31.4169 27.3463 31.3253C23.2073 30.9797 20.651 31.581 20.1471 33.0197C19.6423 34.4572 21.2628 36.5253 24.7089 38.8412C25.6202 39.4537 26.6381 40.0653 27.7312 40.6689C26.7107 41.3895 25.7668 42.1091 24.9279 42.8185C21.7574 45.4995 20.3748 47.7332 21.0356 49.1068C21.569 50.2177 23.3758 50.6365 26.2024 50.3338C26.8713 50.2625 27.5972 50.1498 28.377 49.9975C29.4501 49.7867 30.5971 49.5014 31.7922 49.157C30.7761 55.0112 31.1417 59.1883 33.0382 59.854C33.2708 59.9355 33.5199 59.962 33.7837 59.934C35.1517 59.7876 36.918 58.1814 38.8597 55.2924C39.4722 54.3809 40.0838 53.3629 40.688 52.2695C41.4086 53.29 42.1286 54.2343 42.8377 55.0732C45.1944 57.8593 47.2046 59.2644 48.5892 59.1162C48.7804 59.0957 48.9591 59.0455 49.1257 58.9658C50.4991 58.3059 50.8154 55.6982 50.0167 51.6237C49.8059 50.5499 49.5203 49.4021 49.1756 48.2066C52.0913 48.7123 54.5956 48.8792 56.4519 48.6802C58.3216 48.4797 59.539 47.9132 59.8731 46.9619C60.5383 45.066 57.511 42.1733 52.3139 39.3105L52.3141 39.3108ZM51.6984 30.2704C52.4654 30.1203 53.1801 30.0101 53.8391 29.9397C56.5088 29.6535 58.2489 30.0188 58.7207 31.0013C59.5282 32.6826 56.7978 35.8157 52.0254 39.1528C50.4843 38.317 48.7606 37.4858 46.8918 36.6845C47.433 34.7292 47.86 32.8685 48.1708 31.147C49.4068 30.7861 50.5929 30.4875 51.6984 30.2707V30.2704ZM45.0377 37.5749C44.7658 37.0093 44.4902 36.4557 44.213 35.9097C45.0081 36.2177 45.7859 36.5326 46.5393 36.853C46.3188 37.6424 46.0781 38.4468 45.8215 39.2605C45.5674 38.7003 45.3083 38.1382 45.0377 37.5748L45.0377 37.5749ZM45.6904 39.6775C45.4718 40.3589 45.2407 41.0471 44.9972 41.7406C44.7543 42.4326 44.5033 43.114 44.2473 43.7866C43.6108 44.1132 42.9612 44.4365 42.2991 44.7548C41.6383 45.0721 40.979 45.3767 40.3222 45.6709C39.6409 45.4523 38.953 45.2213 38.2598 44.9781C37.5688 44.7358 36.888 44.4851 36.2163 44.2288C35.8878 43.5892 35.5633 42.9396 35.2456 42.2787C34.9283 41.6179 34.6237 40.9586 34.3295 40.3019C34.5481 39.6205 34.7791 38.9333 35.0223 38.2398C35.2646 37.5487 35.5156 36.8674 35.7719 36.1956C36.4112 35.8671 37.0608 35.5429 37.721 35.2256C38.3812 34.9083 39.0401 34.604 39.6966 34.3101C40.381 34.5296 41.0693 34.7598 41.7606 35.0027C42.4544 35.2459 43.1355 35.4959 43.8048 35.751C44.1324 36.3884 44.4562 37.0386 44.7748 37.702C45.0921 38.3625 45.3961 39.0214 45.6903 39.6775L45.6904 39.6775ZM44.0141 35.5183C43.5765 34.6682 43.1337 33.8454 42.6871 33.0504C44.4737 32.3397 46.2076 31.7328 47.8528 31.2423C47.547 32.9049 47.1331 34.695 46.6181 36.5674C45.777 36.2106 44.9085 35.8602 44.0141 35.5183ZM43.6033 35.3632C43.03 35.1477 42.4492 34.935 41.8573 34.727C41.2693 34.5209 40.6836 34.3253 40.1 34.135C40.8773 33.7922 41.6477 33.4686 42.4122 33.1609C42.8127 33.8734 43.2104 34.6083 43.6033 35.3632V35.3632ZM39.6795 33.9996C38.7734 33.71 37.878 33.4459 36.9924 33.1977C37.7544 31.4288 38.5525 29.771 39.37 28.2587C40.3307 29.6529 41.3057 31.2134 42.2664 32.9046C41.4116 33.2494 40.5499 33.6109 39.6795 33.9995V33.9996ZM39.276 34.1808C38.7167 34.434 38.1558 34.6928 37.5937 34.9631C37.0322 35.2328 36.4797 35.5087 35.9329 35.7871C36.2391 34.997 36.5545 34.225 36.8768 33.4693C37.6681 33.6901 38.4672 33.9261 39.276 34.1809V34.1808ZM35.5397 35.9883C34.6942 36.4246 33.8749 36.8705 33.073 37.3214C32.3633 35.5371 31.757 33.805 31.2659 32.162C32.9531 32.469 34.741 32.8807 36.5929 33.3895C36.2329 34.2359 35.8797 35.0995 35.5397 35.9883ZM35.383 36.4012C35.1666 36.9758 34.953 37.5553 34.7468 38.1433C34.5397 38.7334 34.3432 39.3179 34.1539 39.8978C33.8123 39.1233 33.4897 38.3553 33.1832 37.5942C33.8995 37.191 34.6316 36.793 35.383 36.4012ZM34.0178 40.3175C33.7257 41.2296 33.4567 42.1262 33.2097 43.005C31.4483 42.2461 29.7979 41.4514 28.2916 40.6377C29.7014 39.6617 31.2572 38.6886 32.927 37.7391C33.2702 38.5908 33.6308 39.45 34.0179 40.3176L34.0178 40.3175ZM34.1981 40.7192C34.4522 41.2801 34.7116 41.8425 34.9826 42.4058C35.2526 42.9679 35.5285 43.5201 35.8072 44.0675C35.0143 43.7604 34.2402 43.4437 33.4822 43.1211C33.7027 42.3336 33.9425 41.5314 34.1981 40.7192H34.1981ZM36.0083 44.4614C36.444 45.3068 36.89 46.1256 37.3409 46.9275C35.5512 47.6397 33.8142 48.2476 32.1668 48.7393C32.4729 47.0745 32.8874 45.2811 33.4041 43.4058C34.2521 43.7661 35.1178 44.1202 36.0084 44.4615L36.0083 44.4614ZM36.4213 44.618C36.9955 44.8342 37.5744 45.0475 38.1624 45.2536C38.7534 45.4613 39.338 45.6563 39.9187 45.8456C39.1436 46.1876 38.3757 46.5099 37.6143 46.8166C37.211 46.1016 36.813 45.3692 36.4213 44.6181V44.618ZM40.34 45.9814C41.2509 46.2729 42.1462 46.5426 43.0244 46.7889C42.2655 48.5503 41.4705 50.2011 40.6571 51.7083C39.6812 50.2985 38.708 48.743 37.7588 47.0732C38.6118 46.73 39.4719 46.3688 40.3401 45.9814H40.34ZM40.739 45.8024C41.2998 45.5483 41.8622 45.2888 42.4262 45.0179C42.9901 44.747 43.542 44.473 44.086 44.1964C43.7792 44.988 43.4631 45.7612 43.1406 46.5183C42.3527 46.2984 41.5505 46.058 40.739 45.8023V45.8024ZM44.478 43.9965C45.3295 43.5587 46.1535 43.1143 46.95 42.6674C47.6607 44.4546 48.267 46.1885 48.7581 47.8331C47.093 47.527 45.2996 47.1125 43.424 46.5958C43.7846 45.7498 44.1377 44.8859 44.4781 43.9965H44.478ZM44.6344 43.5845C44.8514 43.0087 45.065 42.4273 45.2724 41.8375C45.4795 41.2468 45.676 40.6626 45.8654 40.0821C46.2082 40.8593 46.5315 41.6295 46.8392 42.3927C46.127 42.7938 45.3898 43.1915 44.6344 43.5844L44.6344 43.5845ZM46.0024 39.663C46.2951 38.7496 46.5645 37.8512 46.8117 36.9706C48.601 37.7407 50.2618 38.5395 51.7547 39.3416C50.3574 40.3051 48.7923 41.2832 47.0957 42.247C46.7513 41.3935 46.3904 40.5327 46.0024 39.663ZM41.4022 24.8516C43.6048 21.5744 45.6041 19.9547 46.884 20.4025C48.646 21.0212 48.929 25.1758 47.9098 30.9201C46.2045 31.4236 44.4011 32.0536 42.5433 32.7938C41.5418 31.0256 40.5266 29.4044 39.5276 27.9651C40.1464 26.8369 40.7736 25.7871 41.4023 24.8519L41.4022 24.8516ZM30.2899 28.3011C29.5304 24.4265 29.796 21.8671 31.0202 21.2785C31.1662 21.2085 31.3226 21.1652 31.4889 21.1474C33.2483 20.959 36.131 23.6204 39.1829 27.9884C38.3315 29.5533 37.5004 31.2769 36.7087 33.118C34.7814 32.587 32.921 32.1595 31.1712 31.8465C30.8088 30.6043 30.5079 29.4126 30.2899 28.3011L30.2899 28.3011ZM24.8717 38.5979C21.5944 36.3956 19.9729 34.3973 20.4225 33.1161C20.7065 32.3086 21.8095 31.7929 23.5718 31.6039C24.6057 31.493 25.8669 31.4946 27.3218 31.616C28.4504 31.7101 29.6687 31.8783 30.9432 32.1012C31.4474 33.8056 32.0768 35.608 32.817 37.4652C31.0787 38.4527 29.4606 39.4661 28.0022 40.4819C26.8672 39.86 25.8112 39.2297 24.8716 38.5978L24.8717 38.5979ZM28.3212 49.7102C24.4457 50.4666 21.8872 50.2041 21.2986 48.9799C20.7103 47.7558 22.102 45.5912 25.1165 43.0414C25.9813 42.3102 26.9613 41.5672 28.0201 40.8239C29.5791 41.6715 31.2962 42.4993 33.1291 43.288C32.5872 45.2465 32.1584 47.1103 31.848 48.8345C30.613 49.1942 29.4268 49.4932 28.3213 49.7102L28.3212 49.7102ZM38.618 55.1281C36.4157 58.4051 34.4195 60.0241 33.1356 59.5773C31.3736 58.9585 31.0906 54.8043 32.1098 49.0597C33.8179 48.5552 35.6247 47.924 37.4857 47.1825C38.4729 48.9205 39.4862 50.5383 40.5017 51.9969C39.8798 53.132 39.2495 54.1883 38.618 55.1278V55.1281ZM49.7295 51.6789C50.4896 55.5535 50.2237 58.113 48.9992 58.7015C47.7751 59.2854 45.6104 57.8981 43.0613 54.8827C42.3301 54.0179 41.5871 53.0379 40.8438 51.9785C41.6914 50.419 42.5197 48.7016 43.3086 46.8682C45.267 47.4101 47.1305 47.8392 48.8541 48.15C49.2138 49.386 49.5125 50.5728 49.7295 51.6789H49.7295ZM59.5974 46.8639C58.9783 48.6256 54.8241 48.9089 49.0798 47.8903C48.5762 46.185 47.9462 44.3817 47.206 42.5238C48.9788 41.5198 50.6028 40.5025 52.045 39.5007C57.1558 42.2909 60.2148 45.1039 59.597 46.8639H59.5974Z" fill="#131313"/>
<circle cx="40.0001" cy="39.9996" r="4.4" fill="#F0F0F0"/>
<path d="M42.8863 36.4237C40.9166 34.8352 38.0317 35.1441 36.4432 37.1138C34.8547 39.0834 35.1636 41.9684 37.1333 43.5568C39.103 45.1453 41.9879 44.8364 43.5764 42.8668C45.1649 40.8968 44.856 38.0125 42.8863 36.4237ZM40.4367 43.9729C38.2372 44.2086 36.2629 42.6167 36.0272 40.4169C35.7914 38.2174 37.3834 36.2431 39.5831 36.0074C41.7826 35.7717 43.7569 37.3636 43.9927 39.5634C44.2281 41.7629 42.6361 43.7375 40.4367 43.9729Z" fill="#131313"/>
<rect x="0.5" y="0.5" width="79" height="79" rx="15.5" stroke="#1C1C1C"/>
<defs>
<filter id="filter0_d_1393_36371" x="20.0571" y="20.0352" width="41.9072" height="41.9092" filterUnits="userSpaceOnUse" color-interpolation-filters="sRGB">
<feFlood flood-opacity="0" result="BackgroundImageFix"/>
<feColorMatrix in="SourceAlpha" type="matrix" values="0 0 0 0 0 0 0 0 0 0 0 0 0 0 0 0 0 0 127 0" result="hardAlpha"/>
<feOffset dx="2" dy="2"/>
<feComposite in2="hardAlpha" operator="out"/>
<feColorMatrix type="matrix" values="0 0 0 0 0 0 0 0 0 0 0 0 0 0 0 0 0 0 0.2 0"/>
<feBlend mode="normal" in2="BackgroundImageFix" result="effect1_dropShadow_1393_36371"/>
<feBlend mode="normal" in="SourceGraphic" in2="effect1_dropShadow_1393_36371" result="shape"/>
</filter>
</defs>
</svg>
