<svg width="41" height="40" viewBox="0 0 41 40" fill="none" xmlns="http://www.w3.org/2000/svg">
<g clip-path="url(#clip0_3416_5993)">
<path d="M40.3713 24.8667C37.7001 35.5811 26.8482 42.1016 16.1325 39.4298C5.42134 36.7586 -1.09923 25.906 1.57309 15.1925C4.24306 4.47695 15.095 -2.04411 25.8073 0.627033C36.5222 3.29818 43.0424 14.152 40.371 24.8669L40.3712 24.8667H40.3713Z" fill="#F7931A"/>
<path d="M29.8187 17.1493C30.2168 14.4878 28.1905 13.0571 25.4196 12.1027L26.3185 8.49735L24.1238 7.95049L23.2488 11.4609C22.6718 11.317 22.0793 11.1814 21.4904 11.047L22.3718 7.51341L20.1785 6.96655L19.2791 10.5707C18.8017 10.462 18.3327 10.3546 17.8778 10.2414L17.8803 10.23L14.8538 9.47425L14.27 11.8183C14.27 11.8183 15.8983 12.1915 15.8639 12.2145C16.7527 12.4363 16.9134 13.0246 16.8867 13.4909L15.8628 17.5982C15.924 17.6138 16.0033 17.6363 16.0909 17.6715C16.0177 17.6533 15.9398 17.6334 15.859 17.6141L14.4238 23.3678C14.3152 23.6378 14.0395 24.043 13.4181 23.8892C13.4401 23.921 11.823 23.4911 11.823 23.4911L10.7334 26.0033L13.5894 26.7153C14.1207 26.8485 14.6414 26.9879 15.1541 27.119L14.2459 30.7657L16.4381 31.3125L17.3375 27.7046C17.9363 27.8672 18.5175 28.0171 19.0864 28.1585L18.1901 31.7494L20.3849 32.2963L21.2929 28.6565C25.0353 29.3647 27.8493 29.0792 29.0337 25.6942C29.9881 22.9689 28.9862 21.3969 27.0174 20.3718C28.4514 20.0411 29.5315 19.098 29.8195 17.1496L29.8188 17.1491L29.8187 17.1493ZM24.8044 24.1807C24.1262 26.906 19.5376 25.4328 18.0499 25.0633L19.2551 20.2321C20.7427 20.6035 25.5133 21.3385 24.8045 24.1807H24.8044ZM25.4832 17.1098C24.8644 19.5888 21.0453 18.3294 19.8064 18.0206L20.8991 13.6389C22.138 13.9478 26.1277 14.5241 25.4833 17.1098H25.4832Z" fill="white"/>
</g>
<defs>
<clipPath id="clip0_3416_5993">
<rect width="40" height="40" fill="white" transform="translate(0.998047)"/>
</clipPath>
</defs>
</svg>
