<svg width="41" height="40" viewBox="0 0 41 40" fill="none" xmlns="http://www.w3.org/2000/svg">
<g clip-path="url(#clip0_3416_6158)">
<mask id="mask0_3416_6158" style="mask-type:alpha" maskUnits="userSpaceOnUse" x="0" y="0" width="41" height="40">
<path d="M0.998047 0H40.998V39.9999H0.998047V0Z" fill="white"/>
</mask>
<g mask="url(#mask0_3416_6158)">
<path fill-rule="evenodd" clip-rule="evenodd" d="M20.998 0C32.044 0 40.998 8.95409 40.998 20C40.998 31.045 32.044 40 20.998 40C9.95214 40 0.998047 31.045 0.998047 20C0.998047 8.95409 9.95214 0 20.998 0Z" fill="#2775CA"/>
</g>
<path fill-rule="evenodd" clip-rule="evenodd" d="M17.2489 33.9054C17.2489 34.3759 16.8805 34.6432 16.4255 34.5011C10.3785 32.572 5.99414 26.9018 5.99414 20.2114C5.99414 13.5211 10.3785 7.85067 16.4255 5.92158C16.8805 5.78045 17.2489 6.04681 17.2489 6.51726V7.67863C17.2489 7.99181 17.0062 8.36045 16.7078 8.46249C11.9235 10.2193 8.49619 14.8154 8.49619 20.2034C8.49619 25.5914 11.9235 30.1884 16.7078 31.9443C17.0062 32.0543 17.2489 32.4148 17.2489 32.7291V33.9054Z" fill="white"/>
<path fill-rule="evenodd" clip-rule="evenodd" d="M22.2451 29.5837C22.2451 29.9292 21.9628 30.2115 21.6178 30.2115H20.3705C20.0255 30.2115 19.7433 29.9292 19.7433 29.5837V27.6076C17.0137 27.2392 15.6808 25.7094 15.3199 23.6312C15.2569 23.2778 15.5392 22.9565 15.9001 22.9565H17.3276C17.6255 22.9565 17.8767 23.1685 17.9394 23.466C18.2062 24.7053 18.9199 25.6544 21.1078 25.6544C22.7235 25.6544 23.8689 24.7524 23.8689 23.404C23.8689 22.0544 23.1942 21.5449 20.8255 21.1524C17.3276 20.6819 15.6728 19.6228 15.6728 16.8778C15.6728 14.7603 17.273 13.1135 19.7512 12.7603V10.823C19.7512 10.4778 20.0337 10.1953 20.3785 10.1953H21.6258C21.9708 10.1953 22.253 10.4778 22.253 10.823V12.8153C24.2687 13.1767 25.5471 14.321 25.963 16.2189C26.0412 16.5803 25.759 16.9169 25.3905 16.9169H24.0726C23.7903 16.9169 23.5551 16.7285 23.469 16.4542C23.116 15.2469 22.253 14.7294 20.7549 14.7294C19.1001 14.7294 18.2451 15.5292 18.2451 16.6505C18.2451 17.8349 18.7317 18.4305 21.273 18.7999C24.7078 19.2703 26.4808 20.2505 26.4808 23.1767C26.4808 25.396 24.8335 27.1921 22.253 27.6076V29.5837H22.2451Z" fill="white"/>
<path fill-rule="evenodd" clip-rule="evenodd" d="M25.5705 34.5011C25.1159 34.6431 24.7471 34.3759 24.7471 33.9054V32.7449C24.7471 32.3997 24.9589 32.0784 25.2882 31.9602C30.0725 30.2034 33.4998 25.6072 33.4998 20.2193C33.4998 14.8313 30.0725 10.2352 25.2882 8.47835C24.9903 8.36835 24.7471 8.0079 24.7471 7.69358V6.53313C24.7471 6.06267 25.1159 5.78835 25.5705 5.93653C31.6175 7.86676 36.0018 13.537 36.0018 20.2272C35.9943 26.9015 31.6175 32.564 25.5705 34.5011Z" fill="white"/>
</g>
<defs>
<clipPath id="clip0_3416_6158">
<rect width="40" height="40" fill="white" transform="translate(0.998047)"/>
</clipPath>
</defs>
</svg>
