<svg width="41" height="40" viewBox="0 0 41 40" fill="none" xmlns="http://www.w3.org/2000/svg">
<g clip-path="url(#clip0_3416_6193)">
<path d="M40.9626 19.993C40.9626 30.9841 32.0532 39.8935 21.0621 39.8935C10.0715 39.8935 1.16162 30.9841 1.16162 19.993C1.16162 9.00218 10.0715 0.0925293 21.0621 0.0925293C32.0532 0.0925293 40.9626 9.00218 40.9626 19.993Z" fill="#1BA27A"/>
<path d="M30.4019 10.1274H11.5581V14.6767H18.7054V21.3633H23.2546V14.6767H30.4019V10.1274Z" fill="white"/>
<path d="M21.0235 22.0757C15.1111 22.0757 10.3177 21.14 10.3177 19.9856C10.3177 18.8314 15.1109 17.8954 21.0235 17.8954C26.936 17.8954 31.7292 18.8314 31.7292 19.9856C31.7292 21.14 26.936 22.0757 21.0235 22.0757ZM33.0444 20.334C33.0444 18.8455 27.6625 17.6389 21.0235 17.6389C14.3847 17.6389 9.00244 18.8455 9.00244 20.334C9.00244 21.6449 13.1758 22.737 18.7059 22.979V32.5778H23.2548V22.9828C28.8275 22.7484 33.0444 21.6517 33.0444 20.334Z" fill="white"/>
</g>
<defs>
<clipPath id="clip0_3416_6193">
<rect width="40" height="40" fill="white" transform="translate(0.998047)"/>
</clipPath>
</defs>
</svg>
