<svg width="952" height="952" viewBox="0 0 952 952" fill="none" xmlns="http://www.w3.org/2000/svg">
<path d="M0.773438 0.773193V951.227H951.227V0.773193H0.773438ZM947.44 506.975L912.527 505.157V446.843L947.44 445.025V506.975ZM911.58 505.081L875.257 503.188V448.793L911.58 446.899V505.081ZM874.31 503.188L837.987 501.295V450.743L874.31 448.849V503.188ZM837.04 501.238L800.707 499.345V452.683L837.04 450.79V501.238ZM799.76 499.259L763.427 497.366V454.634L799.76 452.74V499.259ZM762.48 497.319L726.157 495.425V456.612L762.48 454.719V497.319ZM725.21 495.369L688.886 493.475V458.543L725.21 456.65V495.369ZM4.5601 445.025L39.4732 446.843V505.157L4.5601 506.975V445.025ZM40.4198 446.918L76.7434 448.812V503.226L40.4198 505.119V446.918ZM77.6901 448.868L114.014 450.762V501.295L77.6901 503.188V448.868ZM114.96 450.819L151.293 452.712V499.345L114.96 501.238V450.819ZM152.24 452.712L188.573 454.605V497.338L152.24 499.231V452.712ZM189.52 454.662L225.843 456.555V495.369L189.52 497.262V454.662ZM226.79 456.612L263.114 458.505V493.437L226.79 495.331V456.612ZM264.06 458.562L300.393 460.456V491.487L264.06 493.381V458.562ZM339.188 685.308L339.093 685.204V266.787L339.188 266.692H612.774L612.869 266.787V685.213L612.774 685.317L339.188 685.308ZM614.8 406.145L650.66 396.773V427.72L614.8 433.343V406.145ZM614.8 405.199V378.039L650.66 364.909V395.798L614.8 405.199ZM614.8 377.064V349.913L650.66 333.053V363.914L614.8 377.064ZM614.8 348.9V321.788L650.66 301.179V331.993L614.8 348.9ZM614.8 320.737V293.691L650.66 269.324V300.09L614.8 320.737ZM614.8 292.593V266.787L650.66 238.671V268.178C634.927 278.875 622.459 287.339 614.8 292.555V292.593ZM612.983 264.638C612.918 264.693 612.858 264.753 612.803 264.817H597.221L627.959 237.004H648.227L612.983 264.638ZM595.81 264.817H578.619L604.624 237.004H626.52L595.81 264.817ZM577.322 264.817H560.036L581.317 237.004H603.327L577.322 264.817ZM558.843 264.817H541.443L557.991 237.004H580.133L558.843 264.817ZM540.336 264.817H522.851L534.693 236.967H556.912L540.336 264.817ZM521.828 264.817H504.305L511.396 237.004H533.643L521.828 264.817ZM503.321 264.817H485.741L488.099 237.004H510.421L503.321 264.817ZM484.785 264.817H467.187L464.82 237.004H487.152L484.785 264.817ZM466.24 264.817H448.679L441.579 237.004H463.873L466.24 264.817ZM447.695 264.817H430.153L418.329 236.967H440.604L447.695 264.817ZM429.121 264.817H411.627L395.089 236.967H417.307L429.121 264.817ZM410.538 264.817H393.157L371.867 236.967H393.981L410.538 264.817ZM391.964 264.817H374.707L348.654 236.967H370.683L391.964 264.817ZM373.363 264.817H356.171L325.48 236.967H347.405L373.363 264.817ZM354.751 264.817H339.197C339.142 264.753 339.082 264.693 339.017 264.638L303.773 236.967H324.022L354.751 264.817ZM337.2 266.787V292.555L301.34 268.178V238.671L337.2 266.787ZM337.2 293.691V320.747L301.34 300.09V269.324L337.2 293.691ZM337.2 321.788V348.863L301.34 331.993V301.179L337.2 321.788ZM337.2 349.913V377.026L301.34 363.905V333.053L337.2 349.913ZM337.2 378.039V405.161L301.34 395.798V364.909L337.2 378.039ZM337.2 406.145V433.315L301.34 427.72V396.773L337.2 406.145ZM337.2 434.271V461.469L301.34 459.575V428.667L337.2 434.271ZM337.2 462.415V489.585L301.34 491.478V460.531L337.2 462.415ZM337.2 490.531V517.729L301.34 523.333V492.415L337.2 490.531ZM337.2 518.685V545.854L301.34 555.226V524.28L337.2 518.685ZM337.2 546.839V573.961L301.34 587.091V556.201L337.2 546.839ZM337.2 574.974V602.086L301.34 618.947V588.104L337.2 574.974ZM337.2 603.137V630.212L301.34 650.821V620.007L337.2 603.137ZM337.2 631.301V658.299L301.34 682.667V651.909L337.2 631.301ZM337.2 659.445V685.213L301.34 713.329V683.812L337.2 659.445ZM339.017 687.4C339.082 687.345 339.142 687.285 339.197 687.22H354.751L324.022 715.033H303.773L339.017 687.4ZM356.171 687.22H373.363L347.358 715.033H325.48L356.171 687.22ZM374.659 687.22H391.964L370.683 715.033H348.654L374.659 687.22ZM393.157 687.22H410.538L393.99 715.033H371.867L393.157 687.22ZM411.636 687.22H429.121L417.307 715.033H395.089L411.636 687.22ZM430.153 687.22H447.695L440.604 715.033H418.329L430.153 687.22ZM448.679 687.22H466.24L463.873 715.033H441.579L448.679 687.22ZM467.187 687.22H484.785L487.152 715.033H464.82L467.187 687.22ZM485.741 687.22H503.321L510.421 715.033H488.099L485.741 687.22ZM504.305 687.22H521.828L533.643 715.033H511.396L504.305 687.22ZM522.851 687.22H540.373L556.931 715.033H534.693L522.851 687.22ZM541.443 687.22H558.843L580.133 715.033H557.991L541.443 687.22ZM560.036 687.22H577.293L603.298 715.033H581.317L560.036 687.22ZM578.619 687.22H595.81L626.52 715.033H604.624L578.619 687.22ZM597.221 687.22H612.803C612.858 687.285 612.918 687.345 612.983 687.4L648.227 715.033H627.959L597.221 687.22ZM614.8 685.213V659.445L650.66 683.822V713.329L614.8 685.213ZM614.8 658.309V631.301L650.66 651.919V682.676C634.093 671.439 621.531 662.872 614.8 658.309ZM614.8 630.212V603.137L650.66 620.007V650.821L614.8 630.212ZM614.8 602.086V574.974L650.66 588.095V618.947L614.8 602.086ZM614.8 573.961V546.839L650.66 556.201V587.091L614.8 573.961ZM614.8 545.854V518.685L650.66 524.28V555.198L614.8 545.854ZM614.8 517.729V490.531L650.66 492.424V523.333L614.8 517.729ZM614.8 489.585V462.415L650.66 460.522V491.459L614.8 489.585ZM614.8 461.469V434.271L650.66 428.667V459.604L614.8 461.469ZM651.607 428.506L687.94 422.826V457.634L651.607 459.528V428.506ZM651.607 427.559V396.527L687.94 387.061V421.851L651.607 427.559ZM651.607 395.562V364.568L687.94 351.314V386.067L651.607 395.562ZM651.607 363.564V332.608L687.94 315.511V350.273L651.607 363.564ZM651.607 331.557V300.639L687.94 279.746V314.461L651.607 331.557ZM651.607 299.551V268.68L687.94 243.991V278.658L651.607 299.551ZM651.607 267.544V237.923L687.94 209.437V242.845L651.607 267.544ZM649.439 236.029H629L660.24 207.743H685.488L649.439 236.029ZM627.59 236.029H605.504L631.954 207.743H658.849L627.59 236.029ZM604.207 236.029H582.027L603.668 207.743H630.648L604.207 236.029ZM580.843 236.029H558.559L575.4 207.733H602.503L580.843 236.029ZM557.451 236.029H535.082L547.104 207.743H574.283L557.451 236.029ZM534.05 236.029H511.633L518.846 207.743H546.053L534.05 236.029ZM510.658 236.029H488.184L490.588 207.743H517.871L510.658 236.029ZM487.237 236.029H464.744L462.34 207.743H489.642L487.237 236.029ZM463.798 236.029H441.343L434.129 207.743H461.393L463.798 236.029ZM440.368 236.029H417.932L405.947 207.733H433.192L440.368 236.029ZM416.9 236.029H394.521L377.698 207.743H404.877L416.9 236.029ZM393.422 236.029H371.157L349.516 207.743H376.6L393.422 236.029ZM369.964 236.029H347.765L321.315 207.733H348.323L369.964 236.029ZM346.468 236.029H324.382L293.142 207.743H320.037L346.468 236.029ZM322.971 236.029H302.561L266.493 207.743H291.713L322.971 236.029ZM300.393 237.923V267.534L264.06 242.845V209.437L300.393 237.923ZM300.393 268.68V299.541L264.06 278.658V243.991L300.393 268.68ZM300.393 300.639V331.548L264.06 314.508V279.746L300.393 300.639ZM300.393 332.599V363.555L264.06 350.301V315.502L300.393 332.599ZM300.393 364.568V395.533L264.06 386.067V351.267L300.393 364.568ZM300.393 396.527V427.549L264.06 421.869V387.013L300.393 396.527ZM300.393 428.506V459.537L264.06 457.644V422.807L300.393 428.506ZM300.393 492.462V523.494L264.06 529.174V494.365L300.393 492.462ZM300.393 524.45V555.52L264.06 564.987V530.149L300.393 524.45ZM300.393 556.448V587.441L264.06 600.695V565.933L300.393 556.448ZM300.393 588.445V619.401L264.06 636.498V601.746L300.393 588.445ZM300.393 620.452V651.36L264.06 672.253V637.539L300.393 620.452ZM300.393 652.459V683.32L264.06 708.009V673.342L300.393 652.459ZM300.393 684.456V714.077L264.06 742.562V709.145L300.393 684.456ZM302.561 715.98H322.971L291.731 744.266H266.493L302.561 715.98ZM324.382 715.98H346.468L320.018 744.266H293.123L324.382 715.98ZM347.765 715.98H369.973L348.333 744.266H321.315L347.765 715.98ZM371.157 715.98H393.422L376.6 744.266H349.525L371.157 715.98ZM394.521 715.98H416.9L404.877 744.266H377.689L394.521 715.98ZM417.932 715.98H440.368L433.154 744.266H405.947L417.932 715.98ZM441.343 715.98H463.798L461.393 744.266H434.129L441.343 715.98ZM464.744 715.98H487.237L489.642 744.266H462.34L464.744 715.98ZM488.184 715.98H510.658L517.871 744.266H490.588L488.184 715.98ZM511.633 715.98H534.05L546.072 744.266H518.846L511.633 715.98ZM535.082 715.98H557.413L574.245 744.266H547.104L535.082 715.98ZM558.559 715.98H580.843L602.484 744.266H575.4L558.559 715.98ZM582.036 715.98H604.207L630.657 744.266H603.677L582.036 715.98ZM605.504 715.98H627.59L658.83 744.266H631.954L605.504 715.98ZM629 715.98H649.439L685.507 744.266H660.259L629 715.98ZM651.607 714.087V684.465L687.94 709.154V742.562L651.607 714.087ZM651.607 683.329V652.459L687.94 673.342V708.009L651.607 683.329ZM651.607 651.379V620.452L687.94 637.492V672.206L651.607 651.379ZM651.607 619.41V588.454L687.94 601.755V636.507L651.607 619.41ZM651.607 587.451V556.466L687.94 565.933V600.723L651.607 587.451ZM651.607 555.482V524.45L687.94 530.13V564.987L651.607 555.482ZM651.607 523.504V492.462L687.94 494.356V529.184L651.607 523.504ZM651.607 491.525V460.484L687.94 458.591V493.428L651.607 491.525ZM688.886 457.597V422.665L725.21 416.985V455.713L688.886 457.597ZM688.886 421.709V386.786L725.21 377.319V416.029L688.886 421.709ZM688.886 385.82V350.917L725.21 337.663V376.316L688.886 385.82ZM688.886 349.923V315.067L725.21 298.027V336.669L688.886 349.923ZM688.886 314.025V279.207L725.21 258.314V296.919L688.886 314.025ZM688.886 278.118V243.347L725.21 218.658V257.225L688.886 278.118ZM688.886 242.211V208.699L725.21 180.214V217.56L688.886 242.211ZM686.709 206.796H661.31L692.55 178.519H722.758L686.709 206.796ZM659.9 206.796H632.844L659.294 178.519H691.159L659.9 206.796ZM631.5 206.796H604.406L626.047 178.519H657.997L631.5 206.796ZM603.166 206.796H575.902L592.734 178.519H624.807L603.166 206.796ZM574.766 206.796H547.502L559.524 178.519H591.711L574.766 206.796ZM546.366 206.796H519.092L526.306 178.519H558.493L546.366 206.796ZM517.966 206.796H490.513L493.04 178.51H525.302L517.966 206.796ZM489.566 206.796H462.113L459.708 178.519H492.093L489.566 206.796ZM461.166 206.796H433.713L426.499 178.519H458.733L461.166 206.796ZM432.766 206.796H405.313L393.29 178.519H425.477L432.766 206.796ZM404.366 206.796H377.13L360.299 178.519H392.485L404.366 206.796ZM375.966 206.796H348.787L327.146 178.519H359.2L375.966 206.796ZM347.566 206.796H320.434L293.984 178.519H325.953L347.566 206.796ZM319.109 206.796H292.082L260.842 178.519H292.707L319.109 206.796ZM290.643 206.796H265.291L229.223 178.519H259.412L290.643 206.796ZM263.085 208.69V242.173L226.79 217.56V180.261L263.085 208.69ZM263.085 243.338V278.147L226.79 257.225V218.658L263.085 243.338ZM263.085 279.197V314.006L226.762 296.909V258.323L263.085 279.197ZM263.085 315.048V349.904L226.762 336.651V297.97L263.085 315.048ZM263.085 350.907V385.801L226.762 376.335V337.626L263.085 350.907ZM263.085 386.777V421.69L226.762 416.01V377.291L263.085 386.777ZM263.085 422.646V457.578L226.762 455.684V416.956L263.085 422.646ZM225.815 455.628L189.491 453.734V411.134L225.815 416.814V455.628ZM188.545 453.677L152.212 451.784V405.265L188.545 410.945V453.677ZM151.293 451.737L114.96 449.843V399.424L151.293 405.104V451.737ZM114.014 449.787L77.6901 447.893V393.574L114.014 399.254V449.787ZM76.7434 447.893L40.4198 446V387.733L76.7434 393.413V447.893ZM39.4732 445.943L4.5601 444.078V382.109L39.4732 387.581V445.943ZM4.5601 507.921L39.4732 506.104V564.419L4.5601 569.89V507.921ZM40.4198 506.028L76.7434 504.135V558.54L40.4198 564.22V506.028ZM77.6901 504.078L114.014 502.185V552.699L77.6901 558.379V504.078ZM114.96 502.137L151.293 500.244V546.858L114.96 552.538V502.137ZM152.24 500.216L188.573 498.322V541.036L152.24 546.716V500.216ZM189.52 498.265L225.843 496.372V535.185L189.52 540.865V498.265ZM226.79 496.315L263.114 494.422V529.354L226.79 535.034V496.315ZM263.114 530.301V565.214L226.79 574.68V536L263.114 530.301ZM263.114 566.189V601.083L226.79 614.336V575.684L263.114 566.189ZM263.114 602.096V636.933L226.79 653.973V615.387L263.114 602.096ZM263.114 637.984V672.793L226.79 693.733V655.081L263.114 637.984ZM263.114 673.891V708.643L226.79 733.332V694.774L263.114 673.891ZM263.114 709.789V743.301L226.79 771.786V734.44L263.114 709.789ZM265.291 745.213H290.671L259.431 773.49H229.223L265.291 745.213ZM292.082 745.213H319.137L292.688 773.49H260.823L292.082 745.213ZM320.434 745.213H347.594L325.953 773.49H293.984L320.434 745.213ZM348.834 745.213H376.032L359.2 773.49H327.146L348.834 745.213ZM377.178 745.213H404.517L392.495 773.49H360.308L377.178 745.213ZM405.578 745.213H433.031L425.817 773.49H393.631L405.578 745.213ZM433.978 745.213H461.431L459.026 773.49H426.669L433.978 745.213ZM462.378 745.213H489.831L492.235 773.49H459.85L462.378 745.213ZM490.778 745.213H518.231L525.444 773.49H493.04L490.778 745.213ZM519.178 745.213H546.565L558.578 773.49H526.391L519.178 745.213ZM547.578 745.213H574.927L591.759 773.49H559.572L547.578 745.213ZM576.025 745.213H603.289L624.93 773.49H592.781L576.025 745.213ZM604.482 745.213H631.623L658.073 773.49H626.047L604.482 745.213ZM632.882 745.213H659.937L691.177 773.49H659.294L632.882 745.213ZM661.348 745.213H686.747L722.815 773.49H692.569L661.348 745.213ZM688.924 743.32V709.827L725.248 734.516V771.814L688.924 743.32ZM688.924 708.672V673.853L725.248 694.737V733.304L688.924 708.672ZM688.924 672.821V637.984L725.248 655.081V693.733L688.924 672.821ZM688.924 636.962V602.086L725.248 615.34V653.992L688.924 636.962ZM688.924 601.102V566.189L725.248 575.655V614.346L688.924 601.102ZM688.924 565.233V530.301L725.248 535.981V574.69L688.924 565.233ZM688.924 529.363V494.431L725.248 496.325V535.053L688.924 529.363ZM726.195 496.382L762.518 498.275V540.875L726.195 535.195V496.382ZM763.465 498.332L799.798 500.225V546.744L763.465 541.064V498.332ZM800.745 500.282L837.078 502.175V552.595L800.745 546.915V500.282ZM838.024 502.232L874.348 504.125V558.445L838.024 552.765V502.232ZM875.295 504.125L911.618 506.019V564.229L875.295 558.549V504.125ZM912.565 506.075L947.478 507.893V569.862L912.565 564.39V506.075ZM947.44 444.078L912.527 445.896V387.581L947.44 382.109V444.078ZM911.58 445.972L875.257 447.865V393.432L911.58 387.752V445.972ZM874.31 447.922L837.987 449.815V399.32L874.31 393.64V447.922ZM837.04 449.872L800.707 451.765V405.123L837.04 399.443V449.872ZM799.76 451.794L763.427 453.687V410.964L799.76 405.284V451.794ZM762.48 453.734L726.157 455.628V416.814L762.48 411.134V453.734ZM726.157 415.868V377.054L762.48 367.588V410.188L726.157 415.868ZM726.157 376.108V337.294L762.48 324.041V366.641L726.157 376.108ZM726.157 336.348V297.525L762.48 280.428V323.028L726.157 336.348ZM726.157 296.588V257.774L762.48 236.881V279.387L726.157 296.588ZM726.157 256.828V218.014L762.48 193.325V235.793L726.157 256.828ZM726.157 217.02V179.466L762.48 150.981V192.18L726.157 217.02ZM724.027 177.563H693.61L724.85 149.286H760.038L724.027 177.563ZM692.238 177.563H660.174L686.624 149.286H723.459L692.238 177.563ZM658.915 177.563H626.766L648.407 149.286H685.327L658.915 177.563ZM625.611 177.563H593.387L610.209 149.286H647.252L625.611 177.563ZM592.279 177.563H559.932L571.954 149.286H609.073L592.279 177.563ZM558.938 177.563H526.543L533.747 149.286H570.913L558.938 177.563ZM525.605 177.563H493.154L495.558 149.286H532.8L525.605 177.563ZM492.245 177.563H459.774L457.37 149.286H494.612L492.245 177.563ZM458.865 177.563H426.433L419.2 149.286H456.404L458.865 177.563ZM425.495 177.563H393.119L381.097 149.286H418.253L425.495 177.563ZM392.088 177.563H359.73L342.908 149.286H380.027L392.088 177.563ZM358.67 177.563H326.427L304.786 149.286H341.801L358.67 177.563ZM325.272 177.563H293.085L266.635 149.286H303.555L325.272 177.563ZM291.836 177.563H259.772L228.532 149.286H265.367L291.836 177.563ZM258.399 177.563H227.973L191.905 149.286H227.065L258.399 177.563ZM225.881 179.457V216.859L189.558 192.17V150.981L225.881 179.457ZM225.881 218.005V256.676L189.558 235.783V193.325L225.881 218.005ZM225.881 257.765V296.465L189.558 279.377V236.872L225.881 257.765ZM225.881 297.525V336.272L189.558 323.019V280.419L225.881 297.525ZM225.881 337.285V376.098L189.558 366.631V324.031L225.881 337.285ZM225.881 377.045V415.858L189.558 410.178V367.578L225.881 377.045ZM188.611 410.008L152.278 404.328V357.809L188.611 367.275V410.008ZM151.293 404.167L114.96 398.487V348.067L151.293 357.534V404.167ZM114.014 398.316L77.6901 392.636V338.326L114.014 347.793V398.316ZM76.7434 392.475L40.4198 386.795V328.575L76.7434 338.042V392.475ZM39.4732 386.625L4.5601 381.153V319.203L39.4732 328.32V386.625ZM4.5601 570.846L39.4732 565.375V623.68L4.5601 632.806V570.846ZM40.4198 565.223L76.7434 559.543V613.929L40.4198 623.396V565.223ZM77.6901 559.382L114.014 553.702V604.179L77.6901 613.645V559.382ZM114.96 553.532L151.293 547.852V594.456L114.96 603.923V553.532ZM152.24 547.691L188.573 542.011V584.715L152.24 594.182V547.691ZM189.52 541.841L225.843 536.161V574.974L189.52 584.44V541.841ZM225.843 575.921V614.734L189.52 627.987V585.387L225.843 575.921ZM225.843 615.728V654.465L189.52 671.562V629.029L225.843 615.728ZM225.843 655.488V694.188L189.52 715.081V672.575L225.843 655.488ZM225.843 695.248V733.9L189.52 758.589V716.131L225.843 695.248ZM225.843 735.008V772.42L189.52 800.905V759.811L225.843 735.008ZM228.011 774.323H258.361L227.121 802.6H191.943L228.011 774.323ZM259.772 774.323H291.798L265.348 802.6H228.513L259.772 774.323ZM293.095 774.323H325.281L303.641 802.6H266.72L293.095 774.323ZM326.427 774.323H358.613L341.782 802.6H304.767L326.427 774.323ZM359.73 774.323H392.05L380.027 802.6H342.899L359.73 774.323ZM393.082 774.323H425.458L418.253 802.713H381.059L393.082 774.323ZM426.433 774.323H458.828L456.423 802.6H419.2L426.433 774.323ZM459.774 774.323H492.207L494.612 802.6H457.37L459.774 774.323ZM493.154 774.323H525.568L532.781 802.6H495.558L493.154 774.323ZM526.543 774.323H558.9L570.922 802.6H533.747L526.543 774.323ZM559.932 774.323H592.241L609.073 802.6H571.954L559.932 774.323ZM593.349 774.323H625.536L647.176 802.6H610.171L593.349 774.323ZM626.766 774.323H658.877L685.327 802.6H648.407L626.766 774.323ZM660.174 774.323H692.2L723.44 802.6H686.624L660.174 774.323ZM693.61 774.323H724.027L760.095 802.6H724.907L693.61 774.323ZM726.157 772.43V735.027L762.48 759.716V800.915L726.157 772.43ZM726.157 733.881V695.324L762.48 716.216V758.674L726.157 733.881ZM726.157 694.121V655.526L762.48 672.613V715.118L726.157 694.121ZM726.157 654.361V615.728L762.48 628.981V671.581L726.157 654.361ZM726.157 614.601V575.788L762.48 585.255V627.855L726.157 614.601ZM726.157 574.841V536.028L762.48 541.708V584.308L726.157 574.841ZM763.427 541.878L799.76 547.558V594.059L763.427 584.592V541.878ZM800.707 547.719L837.04 553.399V603.8L800.707 594.333V547.719ZM837.987 553.57L874.31 559.25V613.551L837.987 604.084V553.57ZM875.257 559.411L911.58 565.091V623.292L875.257 613.825V559.411ZM912.527 565.261L947.44 570.733V632.692L912.527 623.68V565.261ZM947.44 381.153L912.527 386.625V328.32L947.44 319.194V381.153ZM911.58 386.777L875.257 392.457V338.071L911.58 328.604V386.777ZM874.31 392.617L837.987 398.297V347.821L874.31 338.354V392.617ZM837.04 398.468L800.707 404.148V357.562L837.04 348.096V398.468ZM799.76 404.309L763.427 409.989V367.304L799.76 357.837V404.309ZM763.427 366.329V323.634L799.76 310.333V356.824L763.427 366.329ZM763.427 322.63V280.03L799.76 262.896V309.387L763.427 322.63ZM763.427 278.942V236.342L799.76 215.449V261.835L763.427 278.942ZM763.427 235.244V192.644L799.76 167.992V214.379L763.427 235.244ZM763.427 191.536V150.242L799.76 121.757V166.847L763.427 191.536ZM761.259 148.34H725.92L757.16 120.053H797.308L761.259 148.34ZM724.51 148.34H687.514L713.964 120.053H755.769L724.51 148.34ZM686.217 148.34H649.136L670.777 120.053H712.667L686.217 148.34ZM647.943 148.34H610.739L627.571 120.053H669.584L647.943 148.34ZM609.641 148.34H572.352L584.374 120.053H626.52L609.641 148.34ZM571.329 148.34H534.002L541.216 120.053H583.343L571.329 148.34ZM533.027 148.34H495.634L498.039 120.053H540.241L533.027 148.34ZM494.687 148.34H457.284L454.88 120.053H497.092L494.687 148.34ZM456.338 148.34H418.973L411.759 120.053H453.933L456.338 148.34ZM417.998 148.34H380.652L368.629 120.053H410.784L417.998 148.34ZM379.62 148.34H342.34L325.48 120.053H367.569L379.62 148.34ZM341.242 148.34H304.057L282.416 120.053H324.41L341.242 148.34ZM302.864 148.34H265.764L239.333 120.053H281.242L302.864 148.34ZM264.467 148.34H227.472L196.232 120.053H238.036L264.467 148.34ZM226.061 148.34H190.741L154.673 120.053H194.84L226.061 148.34ZM188.573 150.233V191.527L152.24 166.847V121.757L188.573 150.233ZM188.573 192.672V235.272L152.24 214.36V167.973L188.573 192.672ZM188.573 236.332V278.932L152.24 261.845V215.458L188.573 236.332ZM188.573 279.974V322.574L152.24 309.387V262.896L188.573 279.974ZM188.573 323.624V366.319L152.24 356.852V310.333L188.573 323.624ZM151.293 356.587L114.96 347.121V296.701L151.293 309.954V356.587ZM114.014 346.837L77.6901 337.37V283.069L114.014 296.323V346.837ZM76.7434 337.095L40.4198 327.629V269.428L76.7434 282.681V337.095ZM39.4732 327.373L4.5601 318.219V256.316L39.4732 269.087V327.373ZM4.5601 633.781L39.4732 624.627V682.884L4.5601 695.683V633.781ZM40.4198 624.399L76.7434 614.933V669.309L40.4198 682.563V624.399ZM77.6901 614.658L114.014 605.191V655.668L77.6901 668.921V614.658ZM114.96 604.917L151.293 595.45V642.045L114.96 655.299V604.917ZM152.24 595.166L188.573 585.7V628.413L152.24 641.667V595.166ZM188.573 629.36V671.96L152.24 689.104V642.67L188.573 629.36ZM188.573 673.039V715.639L152.24 736.551V690.164L188.573 673.039ZM188.573 716.737V759.29L152.24 783.998V737.611L188.573 716.737ZM188.573 760.435V801.738L152.24 830.242V785.143L188.573 760.435ZM190.741 803.641H226.08L194.84 831.947H154.673L190.741 803.641ZM227.472 803.641H264.467L238.018 831.947H196.213L227.472 803.641ZM265.764 803.641H302.864L281.223 831.947H239.333L265.764 803.641ZM304.057 803.641H341.242L324.41 831.947H282.416L304.057 803.641ZM342.34 803.641H379.62L367.597 831.947H325.48L342.34 803.641ZM380.652 803.641H417.998L410.784 831.947H368.629L380.652 803.641ZM418.973 803.641H456.338L453.933 831.947H411.759L418.973 803.641ZM457.284 803.641H494.687L497.092 831.928H454.88L457.284 803.641ZM495.634 803.641H533.027L540.241 831.928H498.039L495.634 803.641ZM534.002 803.641H571.329L583.343 831.947H541.216L534.002 803.641ZM572.352 803.641H609.641L626.52 831.947H584.374L572.352 803.641ZM610.739 803.641H647.943L669.584 831.947H627.571L610.739 803.641ZM649.136 803.641H686.217L712.667 831.947H670.777L649.136 803.641ZM687.514 803.641H724.51L755.75 831.928H713.945L687.514 803.641ZM725.92 803.641H761.259L797.327 831.928H757.16L725.92 803.641ZM763.427 801.748V760.454L799.76 785.143V830.233L763.427 801.748ZM763.427 759.309V716.709L799.76 737.602V783.988L763.427 759.309ZM763.427 715.658V673.058L799.76 690.155V736.541L763.427 715.658ZM763.427 672.007V629.36L799.76 642.613V689.057L763.427 672.007ZM763.427 628.347V585.671L799.76 595.138V641.667L763.427 628.347ZM800.707 595.403L837.04 604.87V655.242L800.707 641.988V595.403ZM837.987 605.154L874.31 614.62V668.93L837.987 655.677V605.154ZM875.257 614.895L911.58 624.361V682.534L875.257 669.281V614.895ZM912.527 624.645L947.44 633.771V695.674L912.527 682.903V624.645ZM947.44 318.219L912.527 327.373V269.087L947.44 256.316V318.219ZM911.58 327.6L875.257 337.067V282.719L911.58 269.466V327.6ZM874.31 337.342L837.987 346.808V296.36L874.31 283.107V337.342ZM837.04 347.083L800.707 356.549V309.973L837.04 296.72V347.083ZM800.707 308.989V262.451L837.04 245.354V295.698L800.707 308.989ZM800.707 261.4V214.9L837.04 194.007V244.313L800.707 261.4ZM800.707 213.811V167.387L837.04 142.697V192.947L800.707 213.811ZM800.707 166.203V121L837.04 92.5147V141.514L800.707 166.203ZM798.539 119.107H758.22L789.46 90.8201H834.588L798.539 119.107ZM756.81 119.107H714.844L741.294 90.8201H788.069L756.81 119.107ZM713.547 119.107H671.496L693.137 90.8201H739.997L713.547 119.107ZM670.303 119.107H628.139L644.961 90.8201H691.944L670.303 119.107ZM627.031 119.107H584.782L596.804 90.8201H643.863L627.031 119.107ZM583.75 119.107H541.453L548.666 90.8201H595.772L583.75 119.107ZM540.478 119.107H498.124L500.528 90.8201H547.691L540.478 119.107ZM497.177 119.107H454.804L452.4 90.8201H499.582L497.177 119.107ZM453.858 119.107H411.523L404.309 90.8201H451.453L453.858 119.107ZM410.548 119.107H368.232L356.209 90.8201H403.334L410.548 119.107ZM367.2 119.107H324.94L308.118 90.8201H355.177L367.2 119.107ZM323.842 119.107H281.697L260.056 90.8201H307.011L323.842 119.107ZM280.504 119.107H238.387L211.975 90.8201H258.863L280.504 119.107ZM237.128 119.107H195.162L163.922 90.8201H210.697L237.128 119.107ZM193.751 119.107H153.461L117.393 90.8201H162.492L193.751 119.107ZM151.293 121V166.194L114.96 141.505V92.5241L151.293 121ZM151.293 167.387V213.773L114.96 192.947V142.66L151.293 167.387ZM151.293 214.947V261.438L114.96 244.398V194.016L151.293 214.947ZM151.293 262.489V309.027L114.96 295.773V245.354L151.293 262.489ZM114.014 295.385L77.6901 282.132V227.822L114.014 244.909V295.385ZM76.7434 281.753L40.4198 268.5V210.28L76.7434 227.377V281.753ZM39.4732 268.112L4.5601 255.303V193.41L39.4732 209.835V268.112ZM4.5601 696.696L39.4732 683.926V742.165L4.5601 758.589V696.696ZM40.4198 683.576L76.7434 670.322V724.661L40.4198 741.758V683.576ZM77.6901 669.943L114.014 656.69V707.129L77.6901 724.169V669.943ZM114.96 656.302L151.293 643.049V689.587L114.96 706.684V656.302ZM151.293 690.6V737.1L114.96 757.993V707.687L151.293 690.6ZM151.293 738.189V784.613L114.96 809.302V759.053L151.293 738.189ZM151.293 785.787V831L114.96 859.485V810.476L151.293 785.787ZM153.461 832.893H193.751L162.511 861.18H117.393L153.461 832.893ZM195.115 832.893H237.08L210.63 861.18H163.903L195.115 832.893ZM238.377 832.893H280.457L258.816 861.18H211.975L238.377 832.893ZM281.649 832.893H323.795L306.963 861.18H260.009L281.649 832.893ZM324.893 832.893H367.152L355.13 861.18H308.109L324.893 832.893ZM368.184 832.893H410.5L403.287 861.18H356.209L368.184 832.893ZM411.475 832.893H453.81L451.406 861.18H404.262L411.475 832.893ZM454.757 832.893H497.13L499.534 861.18H452.4L454.757 832.893ZM498.076 832.893H540.43L547.644 861.18H500.528L498.076 832.893ZM541.405 832.893H583.702L595.725 861.18H548.666L541.405 832.893ZM584.734 832.893H626.984L643.816 861.18H596.804L584.734 832.893ZM628.092 832.893H670.256L691.897 861.18H644.961L628.092 832.893ZM671.449 832.893H713.5L739.95 861.18H693.09L671.449 832.893ZM714.797 832.893H756.762L788.002 861.18H741.228L714.797 832.893ZM758.173 832.893H798.492L834.56 861.18H789.432L758.173 832.893ZM800.659 831V785.806L836.992 810.486V859.485L800.659 831ZM800.659 784.613V738.227L836.992 759.119V809.369L800.659 784.613ZM800.659 737.062V690.6L836.992 707.64V757.946L800.659 737.062ZM800.659 689.511V643.011L836.992 656.264V706.608L800.659 689.511ZM837.939 656.605L874.263 669.858V724.102L837.939 707.062V656.605ZM875.209 670.246L911.533 683.5V741.644L875.209 724.547V670.246ZM912.48 683.888L947.44 696.696V758.589L912.527 742.165L912.48 683.888ZM947.44 255.303L912.527 268.074V209.835L947.44 193.41V255.303ZM911.58 268.424L875.257 281.678V227.339L911.58 210.242V268.424ZM874.31 282.056L837.987 295.31V244.909L874.31 227.822V282.056ZM837.987 243.868V193.467L874.31 172.574V226.771L837.987 243.868ZM837.987 192.379V142.025L874.31 117.336V171.486L837.987 192.379ZM837.987 140.88V91.7857L874.31 63.3005V116.191L837.987 140.88ZM835.809 89.8735H790.53L821.77 61.5965H871.858L835.809 89.8735ZM789.12 89.8735H742.184L768.634 61.5965H820.379L789.12 89.8735ZM740.84 89.8735H693.866L715.507 61.5965H767.337L740.84 89.8735ZM692.626 89.8735H645.482L662.314 61.5965H714.267L692.626 89.8735ZM644.346 89.8735H597.173L609.196 61.5965H661.263L644.346 89.8735ZM596.066 89.8735H548.893L556.107 61.5965H608.174L596.066 89.8735ZM547.786 89.8735H500.613L503.018 61.5965H555.16L547.786 89.8735ZM499.506 89.8735H452.333L449.929 61.5965H502.081L499.506 89.8735ZM451.226 89.8735H404.053L396.84 61.5965H448.954L451.226 89.8735ZM402.946 89.8735H355.773L343.751 61.5965H395.817L402.946 89.8735ZM354.666 89.8735H307.55L290.719 61.5965H342.785L354.666 89.8735ZM306.386 89.8735H259.327L237.686 61.5965H289.62L306.386 89.8735ZM258.106 89.8735H211.094L184.645 61.5965H236.493L258.106 89.8735ZM209.769 89.8735H162.862L131.622 61.5965H183.367L209.769 89.8735ZM161.423 89.8735H116.191L80.123 61.5965H130.192L161.423 89.8735ZM113.985 91.7668V140.88L77.6617 116.2V63.3005L113.985 91.7668ZM113.985 141.997V192.36L77.6617 171.467V117.317L113.985 141.997ZM113.985 193.448V243.849L77.6617 226.752V172.574L113.985 193.448ZM76.715 226.307L40.3914 209.22V151.142L76.715 172.035V226.307ZM39.4448 208.775L4.5601 192.369V130.514L39.4732 150.593L39.4448 208.775ZM4.5601 759.631L39.4732 743.206V801.407L4.5601 821.533V759.631ZM40.4198 742.761L76.7434 725.721V780.012L40.4198 800.905V742.761ZM77.6901 725.229L114.014 708.132V758.532L77.6901 779.425V725.229ZM114.014 759.621V809.974L77.6901 834.654V780.514L114.014 759.621ZM114.014 811.11V860.214L77.6901 888.747V835.847L114.014 811.11ZM116.191 862.126H161.451L130.211 890.403H80.123L116.191 862.126ZM162.862 862.126H209.797L183.348 890.403H131.603L162.862 862.126ZM211.094 862.126H258.134L236.493 890.403H184.645L211.094 862.126ZM259.327 862.126H306.452L289.62 890.403H237.686L259.327 862.126ZM307.55 862.126H354.77L342.747 890.403H290.681L307.55 862.126ZM355.83 862.126H403.164L395.95 890.403H343.883L355.83 862.126ZM404.11 862.126H451.444L449.039 890.403H396.849L404.11 862.126ZM452.39 862.126H499.724L502.128 890.403H449.91L452.39 862.126ZM500.67 862.126H548.004L555.217 890.403H503.009L500.67 862.126ZM548.95 862.126H596.227L608.24 890.403H556.173L548.95 862.126ZM597.23 862.126H644.459L661.291 890.403H609.224L597.23 862.126ZM645.558 862.126H692.702L714.342 890.403H662.361L645.558 862.126ZM693.894 862.126H740.915L767.365 890.403H715.507L693.894 862.126ZM742.174 862.126H789.11L820.35 890.403H768.605L742.174 862.126ZM790.521 862.126H835.8L871.868 890.403H821.78L790.521 862.126ZM837.977 860.233V811.12L874.301 835.809V888.747L837.977 860.233ZM837.977 809.993V759.621L874.301 780.514V834.663L837.977 809.993ZM837.977 758.551V708.132L874.301 725.229V779.425L837.977 758.551ZM875.247 725.693L911.571 742.733V800.83L875.247 779.937V725.693ZM912.518 743.225L947.431 759.65V821.533L912.518 801.454V743.225ZM947.44 192.369L912.527 208.794V150.593L947.44 130.514V192.369ZM911.58 209.239L875.257 226.326V172.035L911.58 151.142V209.239ZM875.257 170.937V116.693L911.58 92.0035V150.044L875.257 170.937ZM875.257 115.547V62.5337L911.58 34.0485V90.8485L875.257 115.547ZM873.089 60.6404H822.83L854.07 32.3635H909.138L873.089 60.6404ZM821.42 60.6404H769.514L795.973 32.3729H852.688L821.42 60.6404ZM768.217 60.6404H716.226L737.867 32.3635H794.667L768.217 60.6404ZM715.033 60.6404H662.967L679.789 32.3635H736.712L715.033 60.6404ZM661.821 60.6404H609.632L621.654 32.3635H678.653L661.821 60.6404ZM608.6 60.6404H556.363L563.576 32.3635H620.622L608.6 60.6404ZM555.388 60.6404H503.094L505.498 32.3635H562.601L555.388 60.6404ZM502.147 60.6404H449.834L447.43 32.3635H504.552L502.147 60.6404ZM448.888 60.6404H396.613L389.399 32.3635H446.483L448.888 60.6404ZM395.638 60.6404H343.382L331.359 32.3635H388.424L395.638 60.6404ZM342.35 60.6404H290.15L273.328 32.3635H330.327L342.35 60.6404ZM289.052 60.6404H236.986L215.345 32.3635H272.24L289.052 60.6404ZM235.774 60.6404H183.755L157.305 32.3635H214.105L235.774 60.6404ZM182.458 60.6404H130.552L99.312 32.3635H156.027L182.458 60.6404ZM129.141 60.6404H78.9113L42.8433 32.3635H97.8825L129.141 60.6404ZM76.7434 62.5337V115.547L40.4198 90.858V34.058L76.7434 62.5337ZM76.7434 116.674V170.918L40.4198 150.025V92.0035L76.7434 116.674ZM39.4732 149.485L4.5601 129.425V67.6457L39.4732 91.3597V149.485ZM4.5601 822.575L39.4732 802.496V860.631L4.5601 884.354V822.575ZM40.4198 801.956L76.7434 781.063V835.298L40.4198 859.987V801.956ZM76.7434 836.443V889.457L40.4198 917.942V861.142L76.7434 836.443ZM78.9113 891.35H129.141L97.9014 919.627H42.8433L78.9113 891.35ZM130.552 891.35H182.458L156.027 919.627H99.293L130.552 891.35ZM183.755 891.35H235.774L214.133 919.627H157.333L183.755 891.35ZM236.967 891.35H289.033L272.202 919.627H215.307L236.967 891.35ZM290.15 891.35H342.35L330.327 919.627H273.319L290.15 891.35ZM343.382 891.35H395.638L388.424 919.627H331.359L343.382 891.35ZM396.613 891.35H448.888L446.483 919.627H389.399L396.613 891.35ZM449.834 891.35H502.147L504.552 919.627H447.43L449.834 891.35ZM503.094 891.35H555.388L562.601 919.627H505.498L503.094 891.35ZM556.363 891.35H608.6L620.622 919.627H563.576L556.363 891.35ZM609.632 891.35H661.821L678.653 919.627H621.654L609.632 891.35ZM662.929 891.35H714.996L736.636 919.627H679.751L662.929 891.35ZM716.226 891.35H768.217L794.667 919.627H737.867L716.226 891.35ZM769.514 891.35H821.42L852.66 919.627H795.973L769.514 891.35ZM822.83 891.35H873.089L909.157 919.627H854.089L822.83 891.35ZM875.257 889.457V836.443L911.58 861.132V917.932L875.257 889.457ZM875.257 835.317V781.073L911.58 801.966V860.006L875.257 835.317ZM912.527 802.505L947.44 822.575V884.354L912.527 860.687V802.505ZM947.44 129.425L912.527 149.504V91.3597C927.607 81.1263 939.687 72.9092 947.44 67.6457V129.425ZM947.44 66.5003L912.527 90.2143V33.3291L947.44 5.95146V66.5003ZM910.359 31.4263H855.14L884.828 4.55986H944.6L910.359 31.4263ZM853.73 31.4263H796.854L821.969 4.55986H883.417L853.73 31.4263ZM795.557 31.4263H738.596L759.148 4.55986H820.681L795.557 31.4263ZM737.403 31.4263H680.319L696.308 4.55986H757.955L737.403 31.4263ZM679.221 31.4263H622.052L633.469 4.55986H695.201L679.221 31.4263ZM621.029 31.4263H563.822L570.667 4.55986H632.437L621.029 31.4263ZM562.847 31.4263H505.574L507.865 4.55986H569.72L562.847 31.4263ZM504.627 31.4263H447.344L445.063 4.55986H506.909L504.627 31.4263ZM446.398 31.4263H389.153L382.28 4.55986H444.088L446.398 31.4263ZM388.178 31.4263H330.952L319.535 4.55986H381.333L388.178 31.4263ZM329.92 31.4263H272.76L256.771 4.55986H318.503L329.92 31.4263ZM271.662 31.4263H214.597L194.045 4.55986H255.673L271.662 31.4263ZM213.404 31.4263H156.424L131.3 4.55986H192.833L213.404 31.4263ZM155.127 31.4263H98.2801L68.5642 4.55986H130.003L155.127 31.4263ZM96.8412 31.4263H41.641L7.4001 4.55986H67.1727L96.8412 31.4263ZM39.4732 33.3196V90.2048L4.5601 66.5003V5.91359L39.4732 33.3196ZM4.5601 885.499L39.4732 861.776V918.671L4.5601 946.048V885.499ZM41.641 920.526H96.8412L67.1537 947.44H7.4001L41.641 920.526ZM98.2517 920.526H155.127L130.003 947.44H68.5642L98.2517 920.526ZM156.424 920.526H213.404L192.852 947.44H131.319L156.424 920.526ZM214.597 920.526H271.662L255.673 947.44H194.045L214.597 920.526ZM272.76 920.526H329.92L318.503 947.44H256.771L272.76 920.526ZM330.952 920.526H388.178L381.333 947.44H319.535L330.952 920.526ZM389.153 920.526H446.398L444.116 947.44H382.28L389.153 920.526ZM447.344 920.526H504.627L506.909 947.392H445.063L447.344 920.526ZM505.574 920.526H562.847L569.72 947.44H507.865L505.574 920.526ZM563.822 920.526H621.029L632.446 947.44H570.667L563.822 920.526ZM622.052 920.526H679.221L695.201 947.44H633.469L622.052 920.526ZM680.319 920.526H737.403L757.955 947.392H696.308L680.319 920.526ZM738.596 920.526H795.557L820.681 947.44H759.148L738.596 920.526ZM796.854 920.526H853.72L883.408 947.392H821.959L796.854 920.526ZM855.14 920.526H910.359L944.6 947.44H884.809L855.14 920.526ZM912.527 918.633V861.748L947.44 885.414V946.001L912.527 918.633Z" fill="#727272" fill-opacity="0.3"/>
</svg>
