<svg width="1440" height="900" viewBox="0 0 1440 900" fill="none" xmlns="http://www.w3.org/2000/svg">
<path d="M-12.251 -181.251V1283.25H1452.25V-181.251H-12.251ZM1446.42 598.727L1392.62 595.927V506.073L1446.42 503.272V598.727ZM1391.16 595.81L1335.19 592.893V509.078L1391.16 506.161V595.81ZM1333.73 592.893L1277.76 589.975V512.083L1333.73 509.165V592.893ZM1276.31 589.888L1220.32 586.971V515.073L1276.31 512.156V589.888ZM1218.86 586.839L1162.88 583.922V518.078L1218.86 515.16V586.839ZM1161.42 583.849L1105.45 580.932V521.126L1161.42 518.209V583.849ZM1103.99 580.844L1048.02 577.927V524.102L1103.99 521.185V580.844ZM-6.41631 503.272L47.3793 506.073V595.927L-6.41631 598.727V503.272ZM48.838 506.19L104.807 509.107V592.951L48.838 595.869V506.19ZM106.266 509.195L162.235 512.112V589.975L106.266 592.893V509.195ZM163.693 512.199L219.677 515.117V586.971L163.693 589.888V512.199ZM221.136 515.117L277.119 518.034V583.878L221.136 586.796V515.117ZM278.578 518.122L334.547 521.039V580.844L278.578 583.762V518.122ZM336.006 521.126L391.975 524.044V577.869L336.006 580.786V521.126ZM393.433 524.131L449.417 527.049V574.864L393.433 577.781V524.131ZM509.193 873.511L509.047 873.351V228.635L509.193 228.489H930.748L930.894 228.635V873.365L930.748 873.526L509.193 873.511ZM933.869 443.365L989.124 428.924V476.608L933.869 485.272V443.365ZM933.869 441.906V400.057L989.124 379.825V427.422L933.869 441.906ZM933.869 398.555V356.72L989.124 330.741V378.294L933.869 398.555ZM933.869 355.159V313.383L989.124 281.628V329.108L933.869 355.159ZM933.869 311.764V270.09L989.124 232.544V279.951L933.869 311.764ZM933.869 268.398V228.635L989.124 185.312V230.779C964.881 247.262 945.67 260.302 933.869 268.339V268.398ZM931.069 225.323C930.969 225.408 930.877 225.501 930.792 225.601H906.782L954.145 182.745H985.375L931.069 225.323ZM904.609 225.601H878.119L918.189 182.745H951.928L904.609 225.601ZM876.121 225.601H849.486L882.276 182.745H916.19L876.121 225.601ZM847.648 225.601H820.837L846.335 182.745H880.453L847.648 225.601ZM819.131 225.601H792.189L810.437 182.687H844.672L819.131 225.601ZM790.614 225.601H763.614L774.539 182.745H808.818L790.614 225.601ZM762.097 225.601H735.009L738.641 182.745H773.037L762.097 225.601ZM733.536 225.601H706.419L702.773 182.745H737.183L733.536 225.601ZM704.961 225.601H677.903L666.963 182.745H701.314L704.961 225.601ZM676.385 225.601H649.357L631.138 182.687H665.46L676.385 225.601ZM647.766 225.601H620.81L595.328 182.687H629.562L647.766 225.601ZM619.133 225.601H592.352L559.546 182.687H593.621L619.133 225.601ZM590.514 225.601H563.922L523.78 182.687H557.723L590.514 225.601ZM561.851 225.601H535.362L488.072 182.687H521.854L561.851 225.601ZM533.174 225.601H509.208C509.123 225.501 509.03 225.408 508.931 225.323L454.624 182.687H485.825L533.174 225.601ZM506.13 228.635V268.339L450.876 230.779V185.312L506.13 228.635ZM506.13 270.09V311.779L450.876 279.951V232.544L506.13 270.09ZM506.13 313.383V355.101L450.876 329.108V281.628L506.13 313.383ZM506.13 356.72V398.496L450.876 378.279V330.741L506.13 356.72ZM506.13 400.057V441.848L450.876 427.422V379.825L506.13 400.057ZM506.13 443.365V485.229L450.876 476.608V428.924L506.13 443.365ZM506.13 486.702V528.609L450.876 525.692V478.067L506.13 486.702ZM506.13 530.068V571.932L450.876 574.849V527.165L506.13 530.068ZM506.13 573.39V615.298L450.876 623.933V576.293L506.13 573.39ZM506.13 616.771V658.635L450.876 673.076V625.392L506.13 616.771ZM506.13 660.152V701.943L450.876 722.174V674.578L506.13 660.152ZM506.13 703.504V745.28L450.876 771.259V723.735L506.13 703.504ZM506.13 746.899V788.617L450.876 820.372V772.892L506.13 746.899ZM506.13 790.294V831.895L450.876 869.441V822.049L506.13 790.294ZM506.13 833.66V873.365L450.876 916.688V871.206L506.13 833.66ZM508.931 876.735C509.03 876.65 509.123 876.557 509.208 876.458H533.174L485.825 919.313H454.624L508.931 876.735ZM535.362 876.458H561.851L521.781 919.313H488.072L535.362 876.458ZM563.849 876.458H590.514L557.723 919.313H523.78L563.849 876.458ZM592.352 876.458H619.133L593.635 919.313H559.546L592.352 876.458ZM620.825 876.458H647.766L629.562 919.313H595.328L620.825 876.458ZM649.357 876.458H676.385L665.46 919.313H631.138L649.357 876.458ZM677.903 876.458H704.961L701.314 919.313H666.963L677.903 876.458ZM706.419 876.458H733.536L737.183 919.313H702.773L706.419 876.458ZM735.009 876.458H762.097L773.037 919.313H738.641L735.009 876.458ZM763.614 876.458H790.614L808.818 919.313H774.539L763.614 876.458ZM792.189 876.458H819.189L844.701 919.313H810.437L792.189 876.458ZM820.837 876.458H847.648L880.453 919.313H846.335L820.837 876.458ZM849.486 876.458H876.077L916.147 919.313H882.276L849.486 876.458ZM878.119 876.458H904.609L951.928 919.313H918.189L878.119 876.458ZM906.782 876.458H930.792C930.877 876.557 930.969 876.65 931.069 876.735L985.375 919.313H954.145L906.782 876.458ZM933.869 873.365V833.66L989.124 871.221V916.688L933.869 873.365ZM933.869 831.91V790.294L989.124 822.064V869.456C963.597 852.142 944.241 838.941 933.869 831.91ZM933.869 788.617V746.899L989.124 772.892V820.372L933.869 788.617ZM933.869 745.28V703.504L989.124 723.721V771.259L933.869 745.28ZM933.869 701.943V660.152L989.124 674.578V722.174L933.869 701.943ZM933.869 658.635V616.771L989.124 625.392V673.032L933.869 658.635ZM933.869 615.298V573.39L989.124 576.308V623.933L933.869 615.298ZM933.869 571.932V530.068L989.124 527.151V574.82L933.869 571.932ZM933.869 528.609V486.702L989.124 478.067V525.736L933.869 528.609ZM990.582 477.819L1046.57 469.067V522.702L990.582 525.619V477.819ZM990.582 476.36V428.545L1046.57 413.958V467.564L990.582 476.36ZM990.582 427.057V379.3L1046.57 358.879V412.427L990.582 427.057ZM990.582 377.754V330.056L1046.57 303.712V357.274L990.582 377.754ZM990.582 328.437V280.797L1046.57 248.604V302.093L990.582 328.437ZM990.582 279.119V231.552L1046.57 193.51V246.926L990.582 279.119ZM990.582 229.802V184.16L1046.57 140.269V191.745L990.582 229.802ZM987.242 181.243H955.749L1003.89 137.658H1042.79L987.242 181.243ZM953.576 181.243H919.545L960.3 137.658H1001.74L953.576 181.243ZM917.547 181.243H883.37L916.715 137.658H958.287L917.547 181.243ZM881.547 181.243H847.21L873.16 137.643H914.921L881.547 181.243ZM845.503 181.243H811.035L829.56 137.658H871.438L845.503 181.243ZM809.445 181.243H774.904L786.019 137.658H827.941L809.445 181.243ZM773.401 181.243H738.773L742.478 137.658H784.516L773.401 181.243ZM737.314 181.243H702.656L698.951 137.658H741.019L737.314 181.243ZM701.197 181.243H666.598L655.483 137.658H697.492L701.197 181.243ZM665.095 181.243H630.525L612.058 137.643H654.039L665.095 181.243ZM628.935 181.243H594.452L568.532 137.658H610.41L628.935 181.243ZM592.76 181.243H558.452L525.107 137.658H566.84L592.76 181.243ZM556.614 181.243H522.409L481.654 137.643H523.269L556.614 181.243ZM520.41 181.243H486.38L438.244 137.658H479.684L520.41 181.243ZM484.206 181.243H452.757L397.182 137.658H436.041L484.206 181.243ZM449.417 184.16V229.787L393.433 191.745V140.269L449.417 184.16ZM449.417 231.552V279.104L393.433 246.926V193.51L449.417 231.552ZM449.417 280.797V328.422L393.433 302.166V248.604L449.417 280.797ZM449.417 330.041V377.739L393.433 357.318V303.698L449.417 330.041ZM449.417 379.3V427.013L393.433 412.427V358.806L449.417 379.3ZM449.417 428.545V476.345L393.433 467.593V413.885L449.417 428.545ZM449.417 477.819V525.634L393.433 522.716V469.037L449.417 477.819ZM449.417 576.366V624.181L393.433 632.933V579.298L449.417 576.366ZM449.417 625.654V673.528L393.433 688.115V634.436L449.417 625.654ZM449.417 674.957V722.714L393.433 743.135V689.573L449.417 674.957ZM449.417 724.26V771.959L393.433 798.302V744.755L449.417 724.26ZM449.417 773.578V821.203L393.433 853.396V799.907L449.417 773.578ZM449.417 822.895V870.448L393.433 908.49V855.074L449.417 822.895ZM449.417 872.198V917.84L393.433 961.731V910.24L449.417 872.198ZM452.757 920.772H484.206L436.07 964.357H397.182L452.757 920.772ZM486.38 920.772H520.41L479.655 964.357H438.214L486.38 920.772ZM522.409 920.772H556.629L523.284 964.357H481.654L522.409 920.772ZM558.452 920.772H592.76L566.84 964.357H525.122L558.452 920.772ZM594.452 920.772H628.935L610.41 964.357H568.517L594.452 920.772ZM630.525 920.772H665.095L653.98 964.357H612.058L630.525 920.772ZM666.598 920.772H701.197L697.492 964.357H655.483L666.598 920.772ZM702.656 920.772H737.314L741.019 964.357H698.951L702.656 920.772ZM738.773 920.772H773.401L784.516 964.357H742.478L738.773 920.772ZM774.904 920.772H809.445L827.97 964.357H786.019L774.904 920.772ZM811.035 920.772H845.445L871.38 964.357H829.56L811.035 920.772ZM847.21 920.772H881.547L914.892 964.357H873.16L847.21 920.772ZM883.385 920.772H917.547L958.302 964.357H916.73L883.385 920.772ZM919.545 920.772H953.576L1001.71 964.357H960.3L919.545 920.772ZM955.749 920.772H987.242L1042.82 964.357H1003.91L955.749 920.772ZM990.582 917.855V872.213L1046.57 910.255V961.731L990.582 917.855ZM990.582 870.463V822.895L1046.57 855.074V908.49L990.582 870.463ZM990.582 821.233V773.578L1046.57 799.834V853.323L990.582 821.233ZM990.582 771.973V724.275L1046.57 744.769V798.317L990.582 771.973ZM990.582 722.729V674.987L1046.57 689.573V743.179L990.582 722.729ZM990.582 673.47V625.654L1046.57 634.406V688.115L990.582 673.47ZM990.582 624.196V576.366L1046.57 579.284V632.948L990.582 624.196ZM990.582 574.922V527.092L1046.57 524.175V577.854L990.582 574.922ZM1048.02 522.643V468.819L1103.99 460.067V519.741L1048.02 522.643ZM1048.02 467.345V413.535L1103.99 398.949V458.593L1048.02 467.345ZM1048.02 412.047V358.266L1103.99 337.845V397.402L1048.02 412.047ZM1048.02 356.735V303.027L1103.99 276.771V336.313L1048.02 356.735ZM1048.02 301.422V247.772L1103.99 215.58V275.064L1048.02 301.422ZM1048.02 246.095V192.518L1103.99 154.476V213.902L1048.02 246.095ZM1048.02 190.768V139.131L1103.99 95.2395V152.784L1048.02 190.768ZM1044.67 136.199H1005.53L1053.67 92.6285H1100.22L1044.67 136.199ZM1003.36 136.199H961.672L1002.43 92.6285H1051.53L1003.36 136.199ZM959.6 136.199H917.853L951.198 92.6285H1000.43L959.6 136.199ZM915.942 136.199H873.933L899.868 92.6285H949.288L915.942 136.199ZM872.182 136.199H830.173L848.698 92.6285H898.292L872.182 136.199ZM828.422 136.199H786.398L797.513 92.6285H847.108L828.422 136.199ZM784.662 136.199H742.361L746.256 92.6139H795.967L784.662 136.199ZM740.902 136.199H698.601L694.896 92.6285H744.797L740.902 136.199ZM697.142 136.199H654.841L643.726 92.6285H693.394L697.142 136.199ZM653.382 136.199H611.081L592.556 92.6285H642.151L653.382 136.199ZM609.622 136.199H567.657L541.721 92.6285H591.316L609.622 136.199ZM565.862 136.199H523.984L490.639 92.6285H540.029L565.862 136.199ZM522.102 136.199H480.297L439.542 92.6285H488.801L522.102 136.199ZM478.255 136.199H436.61L388.474 92.6285H437.573L478.255 136.199ZM434.393 136.199H395.33L339.754 92.6285H386.271L434.393 136.199ZM391.931 139.116V190.709L336.006 152.784V95.3125L391.931 139.116ZM391.931 192.503V246.139L336.006 213.902V154.476L391.931 192.503ZM391.931 247.758V301.393L335.962 275.049V215.594L391.931 247.758ZM391.931 302.997V356.706L335.962 336.284V276.683L391.931 302.997ZM391.931 358.252V412.018L335.962 397.431V337.787L391.931 358.252ZM391.931 413.521V467.316L335.962 458.564V398.905L391.931 413.521ZM391.931 468.789V522.614L335.962 519.697V460.023L391.931 468.789ZM334.503 519.609L278.534 516.692V451.052L334.503 459.804V519.609ZM277.076 516.605L221.092 513.687V442.008L277.076 450.76V516.605ZM219.677 513.614L163.693 510.697V433.008L219.677 441.76V513.614ZM162.235 510.609L106.266 507.692V423.994L162.235 432.746V510.609ZM104.807 507.692L48.838 504.775V414.994L104.807 423.746V507.692ZM47.3793 504.687L-6.41631 501.814V406.329L47.3793 414.76V504.687ZM-6.41631 600.186L47.3793 597.385V687.239L-6.41631 695.67V600.186ZM48.838 597.269L104.807 594.352V678.181L48.838 686.933V597.269ZM106.266 594.264L162.235 591.347V669.181L106.266 677.933V594.264ZM163.693 591.274L219.677 588.356V660.181L163.693 668.933V591.274ZM221.136 588.313L277.119 585.395V651.21L221.136 659.962V588.313ZM278.578 585.308L334.547 582.391V642.196L278.578 650.948V585.308ZM336.006 582.303L391.975 579.386V633.21L336.006 641.962V582.303ZM391.975 634.669V688.465L336.006 703.051V643.45L391.975 634.669ZM391.975 689.967V743.734L336.006 764.155V704.598L391.975 689.967ZM391.975 745.294V798.973L336.006 825.229V765.774L391.975 745.294ZM391.975 800.592V854.228L336.006 886.493V826.936L391.975 800.592ZM391.975 855.92V909.467L336.006 947.509V888.098L391.975 855.92ZM391.975 911.232V962.869L336.006 1006.76V949.216L391.975 911.232ZM395.33 965.816H434.436L386.301 1009.39H339.754L395.33 965.816ZM436.61 965.816H478.299L437.543 1009.39H388.445L436.61 965.816ZM480.297 965.816H522.146L488.801 1009.39H439.542L480.297 965.816ZM524.057 965.816H565.965L540.029 1009.39H490.639L524.057 965.816ZM567.729 965.816H609.856L591.331 1009.39H541.736L567.729 965.816ZM611.489 965.816H653.791L642.676 1009.39H593.081L611.489 965.816ZM655.249 965.816H697.551L693.846 1009.39H643.989L655.249 965.816ZM699.009 965.816H741.311L745.016 1009.39H695.115L699.009 965.816ZM742.769 965.816H785.071L796.186 1009.39H746.256L742.769 965.816ZM786.529 965.816H828.729L847.239 1009.39H797.644L786.529 965.816ZM830.289 965.816H872.43L898.365 1009.39H848.771L830.289 965.816ZM874.122 965.816H916.132L949.477 1009.39H899.941L874.122 965.816ZM917.97 965.816H959.79L1000.55 1009.39H951.198L917.97 965.816ZM961.73 965.816H1003.42L1051.55 1009.39H1002.43L961.73 965.816ZM1005.59 965.816H1044.73L1100.3 1009.39H1053.7L1005.59 965.816ZM1048.08 962.898V911.291L1104.05 949.333V1006.8L1048.08 962.898ZM1048.08 909.511V855.861L1104.05 888.039V947.466L1048.08 909.511ZM1048.08 854.271V800.592L1104.05 826.936V886.493L1048.08 854.271ZM1048.08 799.017V745.28L1104.05 765.701V825.258L1048.08 799.017ZM1048.08 743.763V689.967L1104.05 704.554V764.169L1048.08 743.763ZM1048.08 688.494V634.669L1104.05 643.421V703.066L1048.08 688.494ZM1048.08 633.225V579.4L1104.05 582.317V641.992L1048.08 633.225ZM1105.51 582.405L1161.48 585.322V650.962L1105.51 642.21V582.405ZM1162.94 585.41L1218.92 588.327V660.006L1162.94 651.254V585.41ZM1220.38 588.415L1276.36 591.332V669.021L1220.38 660.269V588.415ZM1277.82 591.42L1333.79 594.337V678.035L1277.82 669.283V591.42ZM1335.25 594.337L1391.22 597.254V686.948L1335.25 678.196V594.337ZM1392.68 597.342L1446.47 600.142V695.627L1392.68 687.196V597.342ZM1446.42 501.814L1392.62 504.614V414.76L1446.42 406.329V501.814ZM1391.16 504.731L1335.19 507.648V423.775L1391.16 415.023V504.731ZM1333.73 507.736L1277.76 510.653V432.848L1333.73 424.096V507.736ZM1276.31 510.741L1220.32 513.658V441.79L1276.31 433.038V510.741ZM1218.86 513.702L1162.88 516.619V450.79L1218.86 442.038V513.702ZM1161.42 516.692L1105.45 519.609V459.804L1161.42 451.052V516.692ZM1105.45 458.345V398.54L1161.42 383.953V449.593L1105.45 458.345ZM1105.45 397.081V337.276L1161.42 316.855V382.495L1105.45 397.081ZM1105.45 335.817V275.997L1161.42 249.654V315.294L1105.45 335.817ZM1105.45 274.553V214.748L1161.42 182.555V248.049L1105.45 274.553ZM1105.45 213.289V153.484L1161.42 115.442V180.878L1105.45 213.289ZM1105.45 151.952V94.0872L1161.42 50.1959V113.677L1105.45 151.952ZM1102.17 91.1553H1055.3L1103.44 47.5849H1157.66L1102.17 91.1553ZM1053.19 91.1553H1003.78L1044.54 47.5849H1101.3L1053.19 91.1553ZM1001.84 91.1553H952.307L985.652 47.5849H1042.54L1001.84 91.1553ZM950.527 91.1553H900.874L926.795 47.5849H983.873L950.527 91.1553ZM899.168 91.1553H849.325L867.85 47.5849H925.044L899.168 91.1553ZM847.793 91.1553H797.878L808.978 47.5849H866.246L847.793 91.1553ZM796.434 91.1553H746.431L750.136 47.5849H807.52L796.434 91.1553ZM745.03 91.1553H694.998L691.293 47.5849H748.677L745.03 91.1553ZM693.598 91.1553H643.624L632.48 47.5849H689.805L693.598 91.1553ZM642.18 91.1553H592.293L573.768 47.5849H631.021L642.18 91.1553ZM590.703 91.1553H540.846L514.926 47.5849H572.12L590.703 91.1553ZM539.213 91.1553H489.53L456.185 47.5849H513.219L539.213 91.1553ZM487.751 91.1553H438.156L397.401 47.5849H454.289L487.751 91.1553ZM436.231 91.1553H386.826L338.69 47.5849H395.446L436.231 91.1553ZM384.711 91.1553H337.829L282.254 47.5849H336.429L384.711 91.1553ZM334.605 94.0726V151.705L278.636 113.662V50.1959L334.605 94.0726ZM334.605 153.47V213.056L278.636 180.863V115.442L334.605 153.47ZM334.605 214.733V274.364L278.636 248.035V182.541L334.605 214.733ZM334.605 275.997V335.701L278.636 315.279V249.639L334.605 275.997ZM334.605 337.261V397.067L278.636 382.48V316.84L334.605 337.261ZM334.605 398.525V458.331L278.636 449.579V383.939L334.605 398.525ZM277.178 449.316L221.194 440.564V368.885L277.178 383.472V449.316ZM219.677 440.316L163.693 431.564V353.876L219.677 368.462V440.316ZM162.235 431.302L106.266 422.55V338.866L162.235 353.453V431.302ZM104.807 422.302L48.838 413.55V323.842L104.807 338.428V422.302ZM47.3793 413.287L-6.41631 404.856V309.401L47.3793 323.448V413.287ZM-6.41631 697.144L47.3793 688.713V778.552L-6.41631 792.614V697.144ZM48.838 688.479L104.807 679.727V763.528L48.838 778.114V688.479ZM106.266 679.479L162.235 670.727V748.503L106.266 763.09V679.479ZM163.693 670.465L219.677 661.713V733.523L163.693 748.11V670.465ZM221.136 661.465L277.119 652.713V718.513L221.136 733.1V661.465ZM278.578 652.45L334.547 643.698V703.504L278.578 718.09V652.45ZM334.547 704.962V764.768L278.578 785.189V719.549L334.547 704.962ZM334.547 766.299V825.988L278.578 852.331V786.793L334.547 766.299ZM334.547 827.563V887.193L278.578 919.386V853.892L334.547 827.563ZM334.547 888.827V948.385L278.578 986.427V921.005L334.547 888.827ZM334.547 950.091V1007.74L278.578 1051.63V988.308L334.547 950.091ZM337.887 1010.67H384.652L336.516 1054.24H282.312L337.887 1010.67ZM386.826 1010.67H436.172L395.417 1054.24H338.66L386.826 1010.67ZM438.171 1010.67H487.765L454.42 1054.24H397.532L438.171 1010.67ZM489.53 1010.67H539.125L513.19 1054.24H456.156L489.53 1010.67ZM540.846 1010.67H590.645L572.12 1054.24H514.911L540.846 1010.67ZM592.235 1010.67H642.121L631.021 1054.42H573.71L592.235 1010.67ZM643.624 1010.67H693.539L689.834 1054.24H632.48L643.624 1010.67ZM694.998 1010.67H744.972L748.677 1054.24H691.293L694.998 1010.67ZM746.431 1010.67H796.375L807.49 1054.24H750.136L746.431 1010.67ZM797.878 1010.67H847.735L866.26 1054.24H808.978L797.878 1010.67ZM849.325 1010.67H899.109L925.044 1054.24H867.85L849.325 1010.67ZM900.816 1010.67H950.411L983.756 1054.24H926.737L900.816 1010.67ZM952.307 1010.67H1001.78L1042.54 1054.24H985.652L952.307 1010.67ZM1003.78 1010.67H1053.13L1101.27 1054.24H1044.54L1003.78 1010.67ZM1055.3 1010.67H1102.17L1157.75 1054.24H1103.53L1055.3 1010.67ZM1105.45 1007.75V950.12L1161.42 988.162V1051.64L1105.45 1007.75ZM1105.45 948.355V888.944L1161.42 921.137V986.558L1105.45 948.355ZM1105.45 887.091V827.622L1161.42 853.95V919.445L1105.45 887.091ZM1105.45 825.827V766.299L1161.42 786.72V852.36L1105.45 825.827ZM1105.45 764.563V704.758L1161.42 719.345V784.985L1105.45 764.563ZM1105.45 703.299V643.494L1161.42 652.246V717.886L1105.45 703.299ZM1162.88 652.509L1218.86 661.261V732.91L1162.88 718.324V652.509ZM1220.32 661.509L1276.31 670.261V747.92L1220.32 733.333V661.509ZM1277.76 670.523L1333.73 679.275V762.944L1277.76 748.358V670.523ZM1335.19 679.523L1391.16 688.275V777.954L1335.19 763.367V679.523ZM1392.62 688.538L1446.42 696.969V792.438L1392.62 778.552V688.538ZM1446.42 404.856L1392.62 413.287V323.448L1446.42 309.386V404.856ZM1391.16 413.521L1335.19 422.273V338.472L1391.16 323.886V413.521ZM1333.73 422.521L1277.76 431.273V353.496L1333.73 338.91V422.521ZM1276.31 431.535L1220.32 440.287V368.506L1276.31 353.919V431.535ZM1218.86 440.535L1162.88 449.287V383.516L1218.86 368.929V440.535ZM1162.88 382.013V316.228L1218.86 295.733V367.368L1162.88 382.013ZM1162.88 314.681V249.041L1218.86 222.639V294.275L1162.88 314.681ZM1162.88 247.364V181.724L1218.86 149.531V221.006L1162.88 247.364ZM1162.88 180.032V114.392L1218.86 76.4082V147.883L1162.88 180.032ZM1162.88 112.685V49.0582L1218.86 5.16685V74.6432L1162.88 112.685ZM1159.54 46.1262H1105.09L1153.22 2.54128H1215.09L1159.54 46.1262ZM1102.91 46.1262H1045.91L1086.66 2.54128H1151.08L1102.91 46.1262ZM1043.91 46.1262H986.775L1020.12 2.54128H1084.67L1043.91 46.1262ZM984.937 46.1262H927.612L953.547 2.54128H1018.28L984.937 46.1262ZM925.92 46.1262H868.463L886.988 2.54128H951.928L925.92 46.1262ZM866.887 46.1262H809.372L820.487 2.54128H885.398L866.887 46.1262ZM807.87 46.1262H750.252L753.958 2.54128H818.985L807.87 46.1262ZM748.794 46.1262H691.162L687.457 2.54128H752.499L748.794 46.1262ZM689.703 46.1262H632.13L621.015 2.54128H685.998L689.703 46.1262ZM630.627 46.1262H573.083L554.558 2.54128H619.512L630.627 46.1262ZM571.493 46.1262H514.051L488.072 2.54128H552.924L571.493 46.1262ZM512.359 46.1262H455.062L421.717 2.54128H486.423L512.359 46.1262ZM453.224 46.1262H396.059L355.333 2.54128H419.908L453.224 46.1262ZM394.061 46.1262H337.056L288.92 2.54128H353.335L394.061 46.1262ZM334.883 46.1262H280.46L224.884 2.54128H286.776L334.883 46.1262ZM277.119 49.0436V112.671L221.136 74.6432V5.16685L277.119 49.0436ZM277.119 114.436V180.076L221.136 147.854V76.379L277.119 114.436ZM277.119 181.709V247.349L221.136 221.02V149.546L277.119 181.709ZM277.119 248.954V314.594L221.136 294.275V222.639L277.119 248.954ZM277.119 316.213V381.999L221.136 367.412V295.733L277.119 316.213ZM219.677 367.004L163.693 352.417V274.728L219.677 295.15V367.004ZM162.235 351.979L106.266 337.393V253.724L162.235 274.145V351.979ZM104.807 336.97L48.838 322.383V232.704L104.807 253.126V336.97ZM47.3793 321.989L-6.41631 307.884V212.502L47.3793 232.179V321.989ZM-6.41631 794.116L47.3793 780.011V869.777L-6.41631 889.498V794.116ZM48.838 779.661L104.807 765.074V848.86L48.838 869.281V779.661ZM106.266 764.651L162.235 750.064V827.84L106.266 848.262V764.651ZM163.693 749.641L219.677 735.055V806.85L163.693 827.271V749.641ZM221.136 734.617L277.119 720.03V785.845L221.136 806.267V734.617ZM277.119 787.304V852.944L221.136 879.36V807.813L277.119 787.304ZM277.119 854.607V920.247L221.136 952.469V880.994L277.119 854.607ZM277.119 921.939V987.506L221.136 1025.58V954.102L277.119 921.939ZM277.119 989.271V1052.91L221.136 1096.83V1027.34L277.119 989.271ZM280.46 1055.84H334.912L286.776 1099.46H224.884L280.46 1055.84ZM337.056 1055.84H394.061L353.305 1099.46H288.891L337.056 1055.84ZM396.059 1055.84H453.224L419.879 1099.46H355.333L396.059 1055.84ZM455.062 1055.84H512.359L486.423 1099.46H421.717L455.062 1055.84ZM514.051 1055.84H571.493L552.968 1099.46H488.072L514.051 1055.84ZM573.083 1055.84H630.627L619.512 1099.46H554.558L573.083 1055.84ZM632.13 1055.84H689.703L685.998 1099.46H621.015L632.13 1055.84ZM691.162 1055.84H748.794L752.499 1099.43H687.457L691.162 1055.84ZM750.252 1055.84H807.87L818.985 1099.43H753.958L750.252 1055.84ZM809.372 1055.84H866.887L885.398 1099.46H820.487L809.372 1055.84ZM868.463 1055.84H925.92L951.928 1099.46H886.988L868.463 1055.84ZM927.612 1055.84H984.937L1018.28 1099.46H953.547L927.612 1055.84ZM986.775 1055.84H1043.91L1084.67 1099.46H1020.12L986.775 1055.84ZM1045.91 1055.84H1102.91L1151.05 1099.43H1086.64L1045.91 1055.84ZM1105.09 1055.84H1159.54L1215.11 1099.43H1153.22L1105.09 1055.84ZM1162.88 1052.93V989.3L1218.86 1027.34V1096.82L1162.88 1052.93ZM1162.88 987.535V921.895L1218.86 954.088V1025.56L1162.88 987.535ZM1162.88 920.276V854.636L1218.86 880.979V952.454L1162.88 920.276ZM1162.88 853.017V787.304L1218.86 807.725V879.287L1162.88 853.017ZM1162.88 785.743V719.986L1218.86 734.573V806.267L1162.88 785.743ZM1220.32 734.982L1276.31 749.568V827.184L1220.32 806.763V734.982ZM1277.76 750.006L1333.73 764.592V848.276L1277.76 827.855V750.006ZM1335.19 765.016L1391.16 779.602V869.237L1335.19 848.816V765.016ZM1392.62 780.04L1446.42 794.101V889.484L1392.62 869.806V780.04ZM1446.42 307.884L1392.62 321.989V232.179L1446.42 212.502V307.884ZM1391.16 322.339L1335.19 336.926V253.184L1391.16 232.763V322.339ZM1333.73 337.349L1277.76 351.936V274.203L1333.73 253.782V337.349ZM1276.31 352.359L1220.32 366.945V295.179L1276.31 274.758V352.359ZM1220.32 293.662V221.954L1276.31 195.61V273.182L1220.32 293.662ZM1220.32 220.335V148.685L1276.31 116.492V194.006L1220.32 220.335ZM1220.32 147.008V75.4746L1276.31 37.4326V114.859L1220.32 147.008ZM1220.32 73.6513V3.99994L1276.31 -39.8913V35.6093L1220.32 73.6513ZM1216.98 1.0826H1154.86L1202.99 -42.5024H1272.53L1216.98 1.0826ZM1152.68 1.0826H1088.02L1128.78 -42.5024H1200.85L1152.68 1.0826ZM1086.02 1.0826H1021.23L1054.57 -42.5024H1126.78L1086.02 1.0826ZM1019.39 1.0826H954.422L980.343 -42.5024H1052.74L1019.39 1.0826ZM952.715 1.0826H887.615L906.14 -42.5024H978.651L952.715 1.0826ZM886.025 1.0826H820.852L831.967 -42.5024H904.55L886.025 1.0826ZM819.349 1.0826H754.089L757.794 -42.5024H830.464L819.349 1.0826ZM752.63 1.0826H687.34L683.635 -42.5024H756.335L752.63 1.0826ZM685.881 1.0826H620.65L609.535 -42.5024H682.176L685.881 1.0826ZM619.147 1.0826H553.945L535.42 -42.5024H608.032L619.147 1.0826ZM552.355 1.0826H487.24L461.32 -42.5024H533.83L552.355 1.0826ZM485.548 1.0826H420.608L387.263 -42.5024H459.613L485.548 1.0826ZM418.77 1.0826H353.874L313.178 -42.5024H385.425L418.77 1.0826ZM351.934 1.0826H287.272L239.136 -42.5024H311.208L351.934 1.0826ZM285.098 1.0826H223.017L167.442 -42.5024H236.933L285.098 1.0826ZM219.677 3.99994V73.6367L163.693 35.5947V-39.8767L219.677 3.99994ZM219.677 75.4746V146.949L163.693 114.859V37.3742L219.677 75.4746ZM219.677 148.758V220.393L163.693 194.137V116.507L219.677 148.758ZM219.677 222.012V293.72L163.693 273.299V195.61L219.677 222.012ZM162.235 272.701L106.266 252.28V168.596L162.235 194.925V272.701ZM104.807 251.696L48.838 231.275V141.567L104.807 167.91V251.696ZM47.3793 230.677L-6.41631 210.941V115.573L47.3793 140.881V230.677ZM-6.41631 891.059L47.3793 871.381V961.119L-6.41631 986.427V891.059ZM48.838 870.842L104.807 850.421V934.148L48.838 960.491V870.842ZM106.266 849.837L162.235 829.416V907.133L106.266 933.389V849.837ZM163.693 828.818L219.677 808.396V880.104L163.693 906.448V828.818ZM219.677 881.665V953.315L163.693 985.508V907.994L219.677 881.665ZM219.677 954.992V1026.53L163.693 1064.57V987.141L219.677 954.992ZM219.677 1028.33V1098L163.693 1141.89V1066.38L219.677 1028.33ZM223.017 1100.92H285.098L236.962 1144.5H167.442L223.017 1100.92ZM287.199 1100.92H351.861L311.106 1144.5H239.106L287.199 1100.92ZM353.86 1100.92H418.698L385.352 1144.5H313.178L353.86 1100.92ZM420.535 1100.92H485.475L459.54 1144.5H387.19L420.535 1100.92ZM487.167 1100.92H552.282L533.757 1144.5H461.305L487.167 1100.92ZM553.872 1100.92H619.075L607.96 1144.5H535.42L553.872 1100.92ZM620.577 1100.92H685.809L682.104 1144.5H609.462L620.577 1100.92ZM687.267 1100.92H752.557L756.262 1144.5H683.635L687.267 1100.92ZM754.016 1100.92H819.277L830.392 1144.5H757.794L754.016 1100.92ZM820.779 1100.92H885.952L904.477 1144.5H831.967L820.779 1100.92ZM887.542 1100.92H952.642L978.578 1144.5H906.14L887.542 1100.92ZM954.349 1100.92H1019.32L1052.66 1144.5H980.343L954.349 1100.92ZM1021.16 1100.92H1085.95L1126.71 1144.5H1054.5L1021.16 1100.92ZM1087.95 1100.92H1152.61L1200.75 1144.5H1128.67L1087.95 1100.92ZM1154.78 1100.92H1216.91L1272.48 1144.5H1202.95L1154.78 1100.92ZM1220.25 1098V1028.36L1276.23 1066.39V1141.89L1220.25 1098ZM1220.25 1026.53V955.051L1276.23 987.243V1064.67L1220.25 1026.53ZM1220.25 953.256V881.665L1276.23 907.921V985.435L1220.25 953.256ZM1220.25 879.988V808.338L1276.23 828.759V906.331L1220.25 879.988ZM1277.69 829.284L1333.66 849.706V933.287L1277.69 907.031V829.284ZM1335.12 850.304L1391.09 870.725V960.316L1335.12 933.973V850.304ZM1392.55 871.323L1446.42 891.059V986.427L1392.62 961.119L1392.55 871.323ZM1446.42 210.941L1392.62 230.618V140.881L1446.42 115.573V210.941ZM1391.16 231.158L1335.19 251.579V167.852L1391.16 141.508V231.158ZM1333.73 252.163L1277.76 272.584V194.925L1333.73 168.596V252.163ZM1277.76 193.32V115.661L1333.73 83.4681V166.977L1277.76 193.32ZM1277.76 113.983V36.3969L1333.73 -1.6451V81.7906L1277.76 113.983ZM1277.76 34.6319V-41.0145L1333.73 -84.9058V-3.41006L1277.76 34.6319ZM1274.41 -43.961H1204.64L1252.78 -87.5314H1329.96L1274.41 -43.961ZM1202.47 -43.961H1130.15L1170.9 -87.5314H1250.63L1202.47 -43.961ZM1128.08 -43.961H1055.7L1089.04 -87.5314H1168.9L1128.08 -43.961ZM1053.79 -43.961H981.145L1007.08 -87.5314H1087.13L1053.79 -43.961ZM979.394 -43.961H906.709L925.234 -87.5314H1005.46L979.394 -43.961ZM905.002 -43.961H832.317L843.432 -87.5314H923.659L905.002 -43.961ZM830.61 -43.961H757.925L761.63 -87.5314H841.973L830.61 -43.961ZM756.218 -43.961H683.533L679.828 -87.5314H760.186L756.218 -43.961ZM681.826 -43.961H609.141L598.026 -87.5314H678.326L681.826 -43.961ZM607.434 -43.961H534.749L516.224 -87.5314H596.451L607.434 -43.961ZM533.042 -43.961H460.445L434.509 -87.5314H514.736L533.042 -43.961ZM458.65 -43.961H386.14L352.795 -87.5314H432.817L458.65 -43.961ZM384.258 -43.961H311.821L271.066 -87.5314H350.957L384.258 -43.961ZM309.779 -43.961H237.502L189.366 -87.5314H269.097L309.779 -43.961ZM235.285 -43.961H165.59L110.014 -87.5314H187.163L235.285 -43.961ZM162.191 -41.0437V34.6319L106.222 -3.39551V-84.9058L162.191 -41.0437ZM162.191 36.3531V113.954L106.222 81.7614V-1.6743L162.191 36.3531ZM162.191 115.632V193.291L106.222 166.948V83.4681L162.191 115.632ZM104.763 166.262L48.7942 139.933V50.4439L104.763 82.6367V166.262ZM47.3356 139.247L-6.41631 113.969V18.6595L47.3793 49.5979L47.3356 139.247ZM-6.41631 988.031L47.3793 962.723V1052.4L-6.41631 1083.41V988.031ZM48.838 962.038L104.807 935.782V1019.44L48.838 1051.63V962.038ZM106.266 935.023L162.235 908.68V986.339L106.266 1018.53V935.023ZM162.235 988.016V1065.6L106.266 1103.63V1020.21L162.235 988.016ZM162.235 1067.35V1143.01L106.266 1186.98V1105.47L162.235 1067.35ZM165.59 1145.96H235.329L187.193 1189.53H110.014L165.59 1145.96ZM237.502 1145.96H309.823L269.067 1189.53H189.337L237.502 1145.96ZM311.821 1145.96H384.302L350.957 1189.53H271.066L311.821 1145.96ZM386.14 1145.96H458.753L432.817 1189.53H352.795L386.14 1145.96ZM460.445 1145.96H533.203L514.678 1189.53H434.451L460.445 1145.96ZM534.837 1145.96H607.77L596.655 1189.53H516.428L534.837 1145.96ZM609.229 1145.96H682.162L678.457 1189.53H598.041L609.229 1145.96ZM683.621 1145.96H756.554L760.259 1189.53H679.799L683.621 1145.96ZM758.013 1145.96H830.946L842.061 1189.53H761.615L758.013 1145.96ZM832.405 1145.96H905.25L923.761 1189.53H843.534L832.405 1145.96ZM906.797 1145.96H979.569L1005.5 1189.53H925.278L906.797 1145.96ZM981.261 1145.96H1053.9L1087.25 1189.53H1007.15L981.261 1145.96ZM1055.74 1145.96H1128.19L1168.95 1189.53H1089.04L1055.74 1145.96ZM1130.13 1145.96H1202.45L1250.59 1189.53H1170.86L1130.13 1145.96ZM1204.63 1145.96H1274.4L1329.97 1189.53H1252.79L1204.63 1145.96ZM1277.75 1143.04V1067.37L1333.72 1105.41V1186.98L1277.75 1143.04ZM1277.75 1065.63V988.016L1333.72 1020.21V1103.65L1277.75 1065.63ZM1277.75 986.368V908.68L1333.72 935.023V1018.53L1277.75 986.368ZM1335.18 935.738L1391.15 961.994V1051.51L1335.18 1019.32V935.738ZM1392.61 962.752L1446.4 988.06V1083.41L1392.61 1052.47V962.752ZM1446.42 113.969L1392.62 139.277V49.5979L1446.42 18.6595V113.969ZM1391.16 139.962L1335.19 166.291V82.6367L1391.16 50.4439V139.962ZM1335.19 80.9446V-2.63698L1391.16 -40.679V48.7518L1335.19 80.9446ZM1335.19 -4.40199V-86.0873L1391.16 -129.979V-42.4586L1335.19 -4.40199ZM1331.85 -89.0047H1254.41L1302.55 -132.575H1387.4L1331.85 -89.0047ZM1252.24 -89.0047H1172.26L1213.03 -132.56H1300.42L1252.24 -89.0047ZM1170.26 -89.0047H1090.15L1123.5 -132.575H1211.02L1170.26 -89.0047ZM1088.31 -89.0047H1008.09L1034.01 -132.575H1121.72L1088.31 -89.0047ZM1006.32 -89.0047H925.905L944.43 -132.575H1032.26L1006.32 -89.0047ZM924.315 -89.0047H843.826L854.941 -132.575H942.84L924.315 -89.0047ZM842.323 -89.0047H761.747L765.452 -132.575H853.438L842.323 -89.0047ZM760.288 -89.0047H679.682L675.977 -132.575H763.993L760.288 -89.0047ZM678.223 -89.0047H597.676L586.561 -132.575H674.518L678.223 -89.0047ZM596.173 -89.0047H515.655L497.13 -132.575H585.058L596.173 -89.0047ZM514.065 -89.0047H433.634L407.714 -132.575H495.54L514.065 -89.0047ZM431.942 -89.0047H351.716L318.37 -132.575H406.036L431.942 -89.0047ZM349.848 -89.0047H269.695L228.94 -132.575H316.46L349.848 -89.0047ZM267.696 -89.0047H187.718L139.582 -132.575H226.97L267.696 -89.0047ZM185.544 -89.0047H108.147L52.5722 -132.575H137.379L185.544 -89.0047ZM104.807 -86.0873V-4.40199L48.838 -42.444V-129.964L104.807 -86.0873ZM104.807 -2.66618V80.9154L48.838 48.7227V-40.679L104.807 -2.66618ZM47.3793 47.8912L-6.41631 16.9821V-78.2105L47.3793 -41.6709V47.8912ZM-6.41631 1085.02L47.3793 1054.08V1143.66L-6.41631 1180.21V1085.02ZM48.838 1053.25L104.807 1021.06V1104.62L48.838 1142.66V1053.25ZM104.807 1106.39V1188.07L48.838 1231.96V1144.44L104.807 1106.39ZM108.147 1190.99H185.544L137.408 1234.56H52.5722L108.147 1190.99ZM187.718 1190.99H267.696L226.97 1234.56H139.552L187.718 1190.99ZM269.695 1190.99H349.848L316.503 1234.56H228.983L269.695 1190.99ZM351.686 1190.99H431.913L405.978 1234.56H318.312L351.686 1190.99ZM433.634 1190.99H514.065L495.54 1234.56H407.699L433.634 1190.99ZM515.655 1190.99H596.173L585.058 1234.56H497.13L515.655 1190.99ZM597.676 1190.99H678.223L674.518 1234.56H586.561L597.676 1190.99ZM679.682 1190.99H760.288L763.993 1234.56H675.977L679.682 1190.99ZM761.747 1190.99H842.323L853.438 1234.56H765.452L761.747 1190.99ZM843.826 1190.99H924.315L942.84 1234.56H854.941L843.826 1190.99ZM925.905 1190.99H1006.32L1032.26 1234.56H944.43L925.905 1190.99ZM1008.03 1190.99H1088.25L1121.6 1234.56H1033.95L1008.03 1190.99ZM1090.15 1190.99H1170.26L1211.02 1234.56H1123.5L1090.15 1190.99ZM1172.26 1190.99H1252.24L1300.37 1234.56H1213.03L1172.26 1190.99ZM1254.41 1190.99H1331.85L1387.43 1234.56H1302.58L1254.41 1190.99ZM1335.19 1188.07V1106.39L1391.16 1144.43V1231.95L1335.19 1188.07ZM1335.19 1104.65V1021.07L1391.16 1053.26V1142.69L1335.19 1104.65ZM1392.62 1054.09L1446.42 1085.02V1180.21L1392.62 1143.74V1054.09ZM1446.42 16.9821L1392.62 47.9204V-41.6709C1415.86 -57.4391 1434.47 -70.1003 1446.42 -78.2105V16.9821ZM1446.42 -79.9755L1392.62 -43.4359V-131.087L1446.42 -173.272V-79.9755ZM1389.28 -134.019H1304.2L1349.94 -175.416H1442.04L1389.28 -134.019ZM1302.02 -134.019H1214.39L1253.08 -175.416H1347.77L1302.02 -134.019ZM1212.39 -134.019H1124.62L1156.29 -175.416H1251.1L1212.39 -134.019ZM1122.78 -134.019H1034.82L1059.46 -175.416H1154.45L1122.78 -134.019ZM1033.13 -134.019H945.043L962.634 -175.416H1057.75L1033.13 -134.019ZM943.467 -134.019H855.32L865.866 -175.416H961.044L943.467 -134.019ZM853.818 -134.019H765.568L769.098 -175.416H864.408L853.818 -134.019ZM764.11 -134.019H675.846L672.331 -175.416H767.625L764.11 -134.019ZM674.387 -134.019H586.182L575.592 -175.416H670.828L674.387 -134.019ZM584.679 -134.019H496.503L478.911 -175.416H574.133L584.679 -134.019ZM494.913 -134.019H406.839L382.202 -175.416H477.321L494.913 -134.019ZM405.147 -134.019H317.218L285.55 -175.416H380.51L405.147 -134.019ZM315.38 -134.019H227.583L188.87 -175.416H283.683L315.38 -134.019ZM225.585 -134.019H137.992L92.2041 -175.416H186.872L225.585 -134.019ZM135.775 -134.019H50.7197L-2.04031 -175.416H90.0599L135.775 -134.019ZM47.3793 -131.102V-43.4505L-6.41631 -79.9755V-173.33L47.3793 -131.102ZM-6.41631 1181.98L47.3793 1145.42V1233.09L-6.41631 1275.27V1181.98ZM50.7197 1235.95H135.775L90.0307 1277.42H-2.04031L50.7197 1235.95ZM137.948 1235.95H225.585L186.872 1277.42H92.2041L137.948 1235.95ZM227.583 1235.95H315.38L283.712 1277.42H188.899L227.583 1235.95ZM317.218 1235.95H405.147L380.51 1277.42H285.55L317.218 1235.95ZM406.839 1235.95H494.913L477.321 1277.42H382.202L406.839 1235.95ZM496.503 1235.95H584.679L574.133 1277.42H478.911L496.503 1235.95ZM586.182 1235.95H674.387L670.872 1277.42H575.592L586.182 1235.95ZM675.846 1235.95H764.11L767.625 1277.34H672.331L675.846 1235.95ZM765.568 1235.95H853.818L864.408 1277.42H769.098L765.568 1235.95ZM855.32 1235.95H943.467L961.059 1277.42H865.866L855.32 1235.95ZM945.043 1235.95H1033.13L1057.75 1277.42H962.634L945.043 1235.95ZM1034.82 1235.95H1122.78L1154.45 1277.34H1059.46L1034.82 1235.95ZM1124.62 1235.95H1212.39L1251.1 1277.42H1156.29L1124.62 1235.95ZM1214.39 1235.95H1302.01L1347.75 1277.34H1253.07L1214.39 1235.95ZM1304.2 1235.95H1389.28L1442.04 1277.42H1349.91L1304.2 1235.95ZM1392.62 1233.03V1145.38L1446.42 1181.84V1275.2L1392.62 1233.03Z" fill="#727272" fill-opacity="0.3"/>
<g filter="url(#filter0_f_1297_37820)">
<rect x="448" y="178" width="545" height="456" fill="#F0F0F0"/>
</g>
<defs>
<filter id="filter0_f_1297_37820" x="380" y="110" width="681" height="592" filterUnits="userSpaceOnUse" color-interpolation-filters="sRGB">
<feFlood flood-opacity="0" result="BackgroundImageFix"/>
<feBlend mode="normal" in="SourceGraphic" in2="BackgroundImageFix" result="shape"/>
<feGaussianBlur stdDeviation="34" result="effect1_foregroundBlur_1297_37820"/>
</filter>
</defs>
</svg>
