<svg width="34" height="33" viewBox="0 0 34 33" fill="none" xmlns="http://www.w3.org/2000/svg">
  <path fill-rule="evenodd" clip-rule="evenodd"
    d="M4.9949 9.17695C4.99511 8.04986 5.70361 7.0445 6.76497 6.66524L12.55 4.59904C12.9586 4.45331 13.4124 4.51529 13.7669 4.76523C14.1214 5.01516 14.3321 5.42184 14.3321 5.85557L14.3321 27.1444C14.3321 27.5782 14.1214 27.9848 13.7669 28.2348C13.4124 28.4847 12.9586 28.5467 12.55 28.401L6.76497 26.3348C5.70361 25.9555 4.99511 24.9501 4.9949 23.8231L4.9949 9.17695Z"
    fill="black" stroke="black" stroke-width="2.66667" stroke-linecap="round" stroke-linejoin="round" />
  <path fill-rule="evenodd" clip-rule="evenodd"
    d="M19.6678 5.76883C19.6676 5.35449 19.8689 4.96592 20.2074 4.7271C20.546 4.48828 20.9796 4.42906 21.3699 4.56833L27.315 6.69188C28.329 7.054 29.0057 8.01479 29.005 9.09155L29.005 23.9084C29.0063 24.9856 28.3295 25.9471 27.315 26.3094L21.3699 28.4303C20.9798 28.5695 20.5465 28.5104 20.208 28.2719C19.8695 28.0334 19.668 27.6452 19.6678 27.2311L19.6678 5.76883Z"
    fill="black" stroke="black" stroke-width="2.66667" stroke-linecap="round" stroke-linejoin="round" />
</svg>