<svg width="168" height="56" viewBox="0 0 168 56" fill="none" xmlns="http://www.w3.org/2000/svg">
<path d="M64.9546 47.625V30.1331H74.6751C79.5478 30.1331 81.5968 32.8818 81.5968 36.5551C81.5968 38.8541 80.7972 40.7782 78.998 41.8777L82.0216 47.625H77.3988L74.9499 42.9272H74.6751H69.6024V47.625H64.9546ZM69.6024 38.8291H74.1503C76.2243 38.8291 76.949 37.9545 76.949 36.5551C76.949 35.0808 76.2243 34.2312 74.1503 34.2312H69.6024V38.8291Z" fill="#1C1C1C"/>
<path d="M92.2872 47.9998C91.9414 47.9998 91.6038 47.9865 91.2747 47.9605C85.8954 47.535 82.7666 43.7063 82.7666 38.8791C82.7666 34.0518 85.8954 30.2231 91.2747 29.7976C91.6038 29.7716 91.9414 29.7583 92.2872 29.7583C92.6329 29.7583 113.729 29.7716 114.058 29.7976C119.437 30.2231 122.566 34.0518 122.566 38.8791C122.566 43.7063 119.437 47.535 114.058 47.9605C113.729 47.9865 92.6329 47.9998 92.2872 47.9998ZM87.4644 38.8791C87.4644 41.4251 88.7982 43.3042 91.2747 43.6996C91.5934 43.7505 91.931 43.7768 92.2872 43.7768C92.6433 43.7768 113.739 43.7505 114.058 43.6996C116.535 43.3042 117.868 41.4251 117.868 38.8791C117.868 36.333 116.535 34.4539 114.058 34.0585C113.739 34.0076 92.6433 33.9813 92.2872 33.9813C91.931 33.9813 91.5934 34.0076 91.2747 34.0585C88.7982 34.4539 87.4644 36.333 87.4644 38.8791Z" fill="#1C1C1C"/>
<path d="M133.191 47.9998C127.193 47.9998 123.67 44.0017 123.67 38.8791C123.67 33.7564 127.193 29.7583 133.191 29.7583C139.188 29.7583 142.711 33.7564 142.711 38.8791C142.711 44.0017 139.188 47.9998 133.191 47.9998ZM128.368 38.8791C128.368 41.7527 130.067 43.7768 133.191 43.7768C136.314 43.7768 138.013 41.7527 138.013 38.8791C138.013 36.0054 136.314 33.9813 133.191 33.9813C130.067 33.9813 128.368 36.0054 128.368 38.8791Z" fill="#1C1C1C"/>
<path d="M143.824 47.625V30.1331H151.42L155.243 43.1271H155.543L159.366 30.1331H166.938V47.625H162.34V34.9059H162.015L158.117 47.6H152.67L148.771 34.9059H148.447V47.625H143.824Z" fill="#1C1C1C"/>
<path d="M69.6197 25.8667L64.1973 8.37483H69.02L72.5184 20.1194L76.6665 8.37483H81.2643L85.4124 20.1194L88.9357 8.37483H93.7335L88.311 25.8667H83.1135L78.9654 14.1471L74.8423 25.8667H69.6197Z" fill="#1C1C1C"/>
<path d="M102.757 26.2415C96.7598 26.2415 93.2365 22.2434 93.2365 17.1208C93.2365 11.9981 96.7598 8 102.757 8C108.754 8 112.278 11.9981 112.278 17.1208C112.278 22.2434 108.754 26.2415 102.757 26.2415ZM97.9343 17.1208C97.9343 19.9944 99.6335 22.0185 102.757 22.0185C105.881 22.0185 107.58 19.9944 107.58 17.1208C107.58 14.2471 105.881 12.223 102.757 12.223C99.6335 12.223 97.9343 14.2471 97.9343 17.1208Z" fill="#1C1C1C"/>
<path d="M114.006 25.8667V8.37483H123.727C128.599 8.37483 130.648 11.1235 130.648 14.7968C130.648 17.0958 129.849 19.0199 128.05 20.1194L131.073 25.8667H126.45L124.001 21.1689H123.727H118.654V25.8667H114.006ZM118.654 17.0708H123.202C125.276 17.0708 126 16.1962 126 14.7968C126 13.3225 125.276 12.4729 123.202 12.4729H118.654V17.0708Z" fill="#1C1C1C"/>
<path d="M132.687 25.8667V8.37483H137.335V21.7686H147.73V25.8667H132.687Z" fill="#1C1C1C"/>
<path d="M149.464 25.8667V8.37483H158.035C163.558 8.37483 167.131 11.8732 167.131 17.1208C167.131 22.3683 163.558 25.8667 158.035 25.8667H149.464ZM154.112 21.7686H158.01C160.959 21.7686 162.433 19.8695 162.433 17.1208C162.433 14.372 160.959 12.4729 158.01 12.4729H154.112V21.7686Z" fill="#1C1C1C"/>
<g clip-path="url(#clip0_506_907)">
<path d="M28.7305 0.727539C13.6681 0.727539 1.45776 12.9379 1.45776 28.0003V55.273H13.8214V29.7538C13.8214 22.5594 20.4149 16.7275 28.5487 16.7275C36.6825 16.7275 43.2759 22.5597 43.2759 29.7538L43.2759 51.0747C50.9238 46.2435 56.0032 37.7151 56.0032 28.0003C56.0032 12.9379 43.7928 0.727539 28.7305 0.727539Z" fill="#0052ff"/>
<path d="M28.5486 16.7271C20.4148 16.7271 13.8213 22.5589 13.8213 29.7533V55.0907H28.5485L36.0031 54.1816L43.2757 51.0907L43.2758 29.7533C43.2758 22.5592 36.6824 16.7271 28.5486 16.7271Z" fill="white"/>
<path d="M33.2164 27.0545C34.2105 26.0604 35.8222 26.0604 36.8162 27.0545C37.8103 28.0486 37.8103 29.6603 36.8162 30.6543C35.8222 31.6484 34.2105 31.6484 33.2164 30.6543C32.2224 29.6603 32.2224 28.0486 33.2164 27.0545Z" fill="#1C1C1C"/>
<path d="M24.6401 28.2813C25.6341 27.2873 27.2458 27.2873 28.2399 28.2813C29.234 29.2754 29.234 30.8871 28.2399 31.8811C27.2458 32.8752 25.6341 32.8752 24.6401 31.8811C23.646 30.8871 23.646 29.2754 24.6401 28.2813Z" fill="#1C1C1C"/>
<path d="M35.5893 35.6315C34.5953 34.6374 32.9836 34.6374 31.9895 35.6315C30.9954 36.6255 30.9954 38.2372 31.9895 39.2313C32.9836 40.2253 34.5953 40.2253 35.5893 39.2313C36.5834 38.2372 36.5834 36.6255 35.5893 35.6315Z" fill="#1C1C1C"/>
<path fill-rule="evenodd" clip-rule="evenodd" d="M0.730469 56H28.7305C33.7556 56 38.4715 54.6762 42.5486 52.3584L44.0031 51.4719C51.6655 46.4759 56.7305 37.8295 56.7305 28C56.7305 12.536 44.1945 0 28.7305 0C13.2665 0 0.730469 12.536 0.730469 28V56ZM28.7305 1.45455C14.0698 1.45455 2.18501 13.3393 2.18501 28V54.5455H13.0941V29.7535C13.0941 22.0761 20.0997 16 28.5487 16C36.9977 16 44.0032 22.0765 44.0032 29.7535L44.0031 49.7146C50.8217 44.9101 55.2759 36.9753 55.2759 28C55.2759 13.3393 43.3912 1.45455 28.7305 1.45455ZM28.7305 54.5455C33.7924 54.5455 38.5234 53.1286 42.5486 50.6699L42.5487 29.7535C42.5487 23.0424 36.3672 17.4545 28.5487 17.4545C20.73 17.4545 14.5487 23.0421 14.5487 29.7535V54.5455H28.7305Z" fill="#1C1C1C"/>
</g>
<defs>
<clipPath id="clip0_506_907">
<rect width="56" height="56" fill="white" transform="translate(0.730469)"/>
</clipPath>
</defs>
</svg>
