{"asset":{"generator":"Khronos glTF Spline I/O v0.0.1","version":"2.0"},"scenes":[{"nodes":[0]}],"nodes":[{"name":"","children":[1,2,3,4,5]},{"name":"Camera","camera":0,"translation":[-49.36124156283626,12.794134991708615,1070.249425696456],"rotation":[-0.008762895575891326,-0.021011585190311696,-0.00018417006159021217,0.9997408119259233]},{"name":"Directional Light","translation":[229.4136776982176,436.803763467243,300],"rotation":[-0.47587261469761444,0.11736516468664944,-0.20872163243332975,0.8462895207039358],"extensions":{"KHR_lights_punctual":{"light":0}}},{"name":"Floor","matrix":[1,0,0,0,0,2.220446049250519e-16,-1.000000000000093,0,0,1.000000000000093,2.220446049250519e-16,0,21.443359375,-244.75507249293537,111.1866143976804,1],"mesh":0},{"name":"Big","matrix":[1,0,0,0,0,1,0,0,0,0,1,0,0,11.41,23.190426733168877,1],"children":[6,7,8,9,10,11,12,13,14,15,16]},{"name":"Personal Camera","camera":1,"translation":[289.686603760616,8.65619588299137,990.8769511573529],"rotation":[-0.07109471545322177,0.18678776500189917,0.013554361056458238,0.9797306525655772]},{"name":"Body","matrix":[0.9962450150458735,0.0865786925071376,0,0,-0.08657869250713765,0.9962450150458744,0,0,0,0,0.9999999999999991,0,-19.443216626611235,-31.19516951105497,-23.26703714623658,1],"mesh":1},{"name":"Group","matrix":[0.5118423925025088,0,0,0,0,0.49955766689017644,-0.11146646228321216,0,0,0.11146646228321216,0.49955766689017644,0,-14.17953023096766,77.12351649664619,147.57557586463204,1],"children":[17,18,19]},{"name":"Sphere 3","matrix":[0.9962450150458744,0.08657869250713765,0,0,-0.08657869250713765,0.9962450150458744,0,0,0,0,1,0,51.11212549274788,82.7237377520744,117.2086032965697,1],"mesh":2},{"name":"Sphere 2","matrix":[0.9962450150458744,0.08657869250713765,0,0,-0.08657869250713765,0.9962450150458744,0,0,0,0,1,0,-112.81547570642955,68.47760636540669,117.2086032965697,1],"mesh":3},{"name":"Sphere","matrix":[-1,1.2246467991473532e-16,1.4997597826618576e-32,0,1.2246467991473532e-16,1,1.2246467991473532e-16,0,0,1.2246467991473532e-16,-1,0,-8.101899077546197,-165.4487623228374,-186.90937749115852,1],"mesh":4},{"name":"Cube 5","matrix":[0.7875547938049794,0.012551386597134815,-0.12380321234532426,0,0.12443782661446677,-0.07943649413050712,0.7835383823690157,0,-2.2355938876199828e-17,-0.7932588682343679,-0.08042197401989555,0,103.52999874865341,-70.29405723906413,127.63535527303695,1],"mesh":5},{"name":"Cube 7","matrix":[0.7164708425696236,0.34367136113782243,-0.06547406523930879,0,0.3487579325503434,-0.7134048633356347,0.07175466110303824,0,-0.02765433362964949,-0.0931172510358521,-0.7913859623020868,0,71.21027672135122,-197.72351381026996,36.9593615486386,1],"mesh":6},{"name":"Cube 6","matrix":[0.7902583156884901,-0.10481206751342889,-0.015282373063881808,0,-0.10224655619825691,-0.7849018626559608,0.09592723118337786,0,-0.027654333629647948,-0.09311725103584745,-0.7913859623020476,0,-101.6175475675199,-197.14376637790835,41.88652568361739,1],"mesh":7},{"name":"Cube 4","matrix":[0.7334907377427462,0.03153029606325825,-0.31100563341117793,0,0.3125998457826345,-0.07398333822841559,0.7297500448913931,0,-2.153409518086041e-16,-0.7932588682343648,-0.0804219740198953,0,-134.1849278046546,-74.54475062631305,110.83378956395624,1],"mesh":8},{"name":"Cube 3","matrix":[0.9234564020309042,0.08290163251436773,0.02857498451467774,0,-0.08250511538921251,0.9238293862738263,-0.01389632530425004,0,-0.02970044356864174,0.011292530664184335,0.9270659627386023,0,28.979151675563177,209.94874928693284,-8.870245170702573,1],"mesh":9},{"name":"Cube 2","matrix":[0.9134193868764905,-0.16163527011021736,0,0,0.16163527011021733,0.9134193868764903,0,0,0,0,0.9276103367607703,0,-69.74575720341738,208.6952782969174,-8.870245170702573,1],"mesh":10},{"name":"Cylinder","matrix":[0.9962450150458744,0.08450071792569583,0.018854672266774775,0,-0.08450071792569583,0.996423098729795,-0.0007981151265440737,0,-0.018854672266774786,-0.0007981151265439349,0.9998219163160796,0,-24.801340382378395,21.54187430729087,0.38842472964307717,1],"mesh":11},{"name":"Torus 2","matrix":[-0.5866479740014859,0.8097750605561841,-0.010416616590293878,0,-0.8096225391709853,-0.5867399034610499,-0.01573625599860151,0,-0.018854672266774793,-0.000798115126543955,0.9998219163160796,0,-47.51324550774443,17.38267941396971,0.003491193067191034,1],"mesh":12},{"name":"Torus","matrix":[-0.5866479740014859,0.8097750605561841,-0.010416616590293878,0,-0.8096225391709853,-0.5867399034610499,-0.01573625599860151,0,-0.018854672266774793,-0.000798115126543955,0.9998219163160796,0,-1.8851822996515217,20.986797775337394,0.8668236178241955,1],"mesh":13}],"cameras":[{"type":"orthographic","orthographic":{"xmag":2255,"ymag":1104,"zfar":100000,"znear":-100000}},{"type":"orthographic","orthographic":{"xmag":2255,"ymag":1104,"zfar":100000,"znear":-100000}}],"meshes":[{"primitives":[{"attributes":{"POSITION":1,"NORMAL":2,"TEXCOORD_0":3},"indices":0}]},{"primitives":[{"attributes":{"POSITION":5,"NORMAL":6},"indices":4}]},{"primitives":[{"attributes":{"POSITION":8,"NORMAL":9,"TEXCOORD_0":10},"indices":7}]},{"primitives":[{"attributes":{"POSITION":12,"NORMAL":13,"TEXCOORD_0":14},"indices":11}]},{"primitives":[{"attributes":{"POSITION":16,"NORMAL":17,"TEXCOORD_0":18},"indices":15}]},{"primitives":[{"attributes":{"POSITION":20,"NORMAL":21},"indices":19}]},{"primitives":[{"attributes":{"POSITION":23,"NORMAL":24},"indices":22}]},{"primitives":[{"attributes":{"POSITION":26,"NORMAL":27},"indices":25}]},{"primitives":[{"attributes":{"POSITION":29,"NORMAL":30},"indices":28}]},{"primitives":[{"attributes":{"POSITION":32,"NORMAL":33},"indices":31}]},{"primitives":[{"attributes":{"POSITION":35,"NORMAL":36},"indices":34}]},{"primitives":[{"attributes":{"POSITION":38,"NORMAL":39,"TEXCOORD_0":40},"indices":37}]},{"primitives":[{"attributes":{"POSITION":42,"NORMAL":43,"TEXCOORD_0":44},"indices":41}]},{"primitives":[{"attributes":{"POSITION":46,"NORMAL":47,"TEXCOORD_0":48},"indices":45}]}],"buffers":[{"uri":"data:application/octet-stream;base64,","byteLength":152},{"uri":"data:application/octet-stream;base64,","byteLength":307200},{"uri":"data:application/octet-stream;base64,","byteLength":183584},{"uri":"data:application/octet-stream;base64,","byteLength":183584},{"uri":"data:application/octet-stream;base64,","byteLength":183584},{"uri":"data:application/octet-stream;base64,","byteLength":107520},{"uri":"data:application/octet-stream;base64,","byteLength":107520},{"uri":"data:application/octet-stream;base64,","byteLength":107520},{"uri":"data:application/octet-stream;base64,","byteLength":107520},{"uri":"data:application/octet-stream;base64,","byteLength":26880},{"uri":"data:application/octet-stream;base64,","byteLength":26880},{"uri":"data:application/octet-stream;base64,","byteLength":67200},{"uri":"data:application/octet-stream;base64,","byteLength":55392},{"uri":"data:application/octet-stream;base64,","byteLength":55392}],"bufferViews":[{"buffer":0,"byteOffset":0,"byteLength":24,"target":34963},{"buffer":0,"byteOffset":24,"byteLength":48,"target":34962},{"buffer":0,"byteOffset":72,"byteLength":48,"target":34962},{"buffer":0,"byteOffset":120,"byteLength":32,"target":34962},{"buffer":1,"byteOffset":0,"byteLength":61440,"target":34963},{"buffer":1,"byteOffset":61440,"byteLength":122880,"target":34962},{"buffer":1,"byteOffset":184320,"byteLength":122880,"target":34962},{"buffer":2,"byteOffset":0,"byteLength":48384,"target":34963},{"buffer":2,"byteOffset":48384,"byteLength":50700,"target":34962},{"buffer":2,"byteOffset":99084,"byteLength":50700,"target":34962},{"buffer":2,"byteOffset":149784,"byteLength":33800,"target":34962},{"buffer":3,"byteOffset":0,"byteLength":48384,"target":34963},{"buffer":3,"byteOffset":48384,"byteLength":50700,"target":34962},{"buffer":3,"byteOffset":99084,"byteLength":50700,"target":34962},{"buffer":3,"byteOffset":149784,"byteLength":33800,"target":34962},{"buffer":4,"byteOffset":0,"byteLength":48384,"target":34963},{"buffer":4,"byteOffset":48384,"byteLength":50700,"target":34962},{"buffer":4,"byteOffset":99084,"byteLength":50700,"target":34962},{"buffer":4,"byteOffset":149784,"byteLength":33800,"target":34962},{"buffer":5,"byteOffset":0,"byteLength":21504,"target":34963},{"buffer":5,"byteOffset":21504,"byteLength":43008,"target":34962},{"buffer":5,"byteOffset":64512,"byteLength":43008,"target":34962},{"buffer":6,"byteOffset":0,"byteLength":21504,"target":34963},{"buffer":6,"byteOffset":21504,"byteLength":43008,"target":34962},{"buffer":6,"byteOffset":64512,"byteLength":43008,"target":34962},{"buffer":7,"byteOffset":0,"byteLength":21504,"target":34963},{"buffer":7,"byteOffset":21504,"byteLength":43008,"target":34962},{"buffer":7,"byteOffset":64512,"byteLength":43008,"target":34962},{"buffer":8,"byteOffset":0,"byteLength":21504,"target":34963},{"buffer":8,"byteOffset":21504,"byteLength":43008,"target":34962},{"buffer":8,"byteOffset":64512,"byteLength":43008,"target":34962},{"buffer":9,"byteOffset":0,"byteLength":5376,"target":34963},{"buffer":9,"byteOffset":5376,"byteLength":10752,"target":34962},{"buffer":9,"byteOffset":16128,"byteLength":10752,"target":34962},{"buffer":10,"byteOffset":0,"byteLength":5376,"target":34963},{"buffer":10,"byteOffset":5376,"byteLength":10752,"target":34962},{"buffer":10,"byteOffset":16128,"byteLength":10752,"target":34962},{"buffer":11,"byteOffset":0,"byteLength":17280,"target":34963},{"buffer":11,"byteOffset":17280,"byteLength":18720,"target":34962},{"buffer":11,"byteOffset":36000,"byteLength":18720,"target":34962},{"buffer":11,"byteOffset":54720,"byteLength":12480,"target":34962},{"buffer":12,"byteOffset":0,"byteLength":14208,"target":34963},{"buffer":12,"byteOffset":14208,"byteLength":15444,"target":34962},{"buffer":12,"byteOffset":29652,"byteLength":15444,"target":34962},{"buffer":12,"byteOffset":45096,"byteLength":10296,"target":34962},{"buffer":13,"byteOffset":0,"byteLength":14208,"target":34963},{"buffer":13,"byteOffset":14208,"byteLength":15444,"target":34962},{"buffer":13,"byteOffset":29652,"byteLength":15444,"target":34962},{"buffer":13,"byteOffset":45096,"byteLength":10296,"target":34962}],"accessors":[{"bufferView":0,"byteOffset":0,"componentType":5125,"count":6,"type":"SCALAR","min":[0],"max":[3]},{"bufferView":1,"byteOffset":0,"componentType":5126,"count":4,"type":"VEC3","min":[-2719,-1697,0],"max":[2719,1697,0]},{"bufferView":2,"byteOffset":0,"componentType":5126,"count":4,"type":"VEC3","min":[0,0,1],"max":[0,0,1]},{"bufferView":3,"byteOffset":0,"componentType":5126,"count":4,"type":"VEC2","min":[0,0],"max":[1,1]},{"bufferView":4,"byteOffset":0,"componentType":5125,"count":15360,"type":"SCALAR","min":[0],"max":[10239]},{"bufferView":5,"byteOffset":0,"componentType":5126,"count":10240,"type":"VEC3","min":[-190.36105346679688,-212.57919311523438,-193.59695434570312],"max":[190.36105346679688,215.33099365234375,186.87811279296875]},{"bufferView":6,"byteOffset":0,"componentType":5126,"count":10240,"type":"VEC3","min":[-0.9999085664749146,-1,-0.9998960494995117],"max":[0.999911367893219,1,0.9999631643295288]},{"bufferView":7,"byteOffset":0,"componentType":5123,"count":24192,"type":"SCALAR","min":[0],"max":[4224]},{"bufferView":8,"byteOffset":0,"componentType":5126,"count":4225,"type":"VEC3","min":[-18.810300827026367,-18.810300827026367,-18.810300827026367],"max":[18.810300827026367,18.810300827026367,18.810300827026367]},{"bufferView":9,"byteOffset":0,"componentType":5126,"count":4225,"type":"VEC3","min":[-1,-1,-1],"max":[1,1,1]},{"bufferView":10,"byteOffset":0,"componentType":5126,"count":4225,"type":"VEC2","min":[-0.0078125,0],"max":[1.0078125,1]},{"bufferView":11,"byteOffset":0,"componentType":5123,"count":24192,"type":"SCALAR","min":[0],"max":[4224]},{"bufferView":12,"byteOffset":0,"componentType":5126,"count":4225,"type":"VEC3","min":[-18.810300827026367,-18.810300827026367,-18.810300827026367],"max":[18.810300827026367,18.810300827026367,18.810300827026367]},{"bufferView":13,"byteOffset":0,"componentType":5126,"count":4225,"type":"VEC3","min":[-1,-1,-1],"max":[1,1,1]},{"bufferView":14,"byteOffset":0,"componentType":5126,"count":4225,"type":"VEC2","min":[-0.0078125,0],"max":[1.0078125,1]},{"bufferView":15,"byteOffset":0,"componentType":5123,"count":24192,"type":"SCALAR","min":[0],"max":[4224]},{"bufferView":16,"byteOffset":0,"componentType":5126,"count":4225,"type":"VEC3","min":[-40.71745681762695,-40.71745681762695,-40.71745681762695],"max":[40.71745681762695,40.71745681762695,40.71745681762695]},{"bufferView":17,"byteOffset":0,"componentType":5126,"count":4225,"type":"VEC3","min":[-1,-1,-1],"max":[1,1,1]},{"bufferView":18,"byteOffset":0,"componentType":5126,"count":4225,"type":"VEC2","min":[-0.0078125,0],"max":[1.0078125,1]},{"bufferView":19,"byteOffset":0,"componentType":5125,"count":5376,"type":"SCALAR","min":[0],"max":[3583]},{"bufferView":20,"byteOffset":0,"componentType":5126,"count":3584,"type":"VEC3","min":[-31.15127944946289,-72.14051818847656,-31.15127944946289],"max":[31.15127944946289,69.31378936767578,31.15127944946289]},{"bufferView":21,"byteOffset":0,"componentType":5126,"count":3584,"type":"VEC3","min":[-1,-1,-1],"max":[1,1,1]},{"bufferView":22,"byteOffset":0,"componentType":5125,"count":5376,"type":"SCALAR","min":[0],"max":[3583]},{"bufferView":23,"byteOffset":0,"componentType":5126,"count":3584,"type":"VEC3","min":[-33.95489501953125,-78.6331787109375,-33.95489501953125],"max":[33.95489501953125,75.55203247070312,33.95489501953125]},{"bufferView":24,"byteOffset":0,"componentType":5126,"count":3584,"type":"VEC3","min":[-1,-1,-1],"max":[1,1,1]},{"bufferView":25,"byteOffset":0,"componentType":5125,"count":5376,"type":"SCALAR","min":[0],"max":[3583]},{"bufferView":26,"byteOffset":0,"componentType":5126,"count":3584,"type":"VEC3","min":[-33.95489501953125,-78.6331787109375,-33.95489501953125],"max":[33.95489501953125,75.55203247070312,33.95489501953125]},{"bufferView":27,"byteOffset":0,"componentType":5126,"count":3584,"type":"VEC3","min":[-1,-1,-1],"max":[1,1,1]},{"bufferView":28,"byteOffset":0,"componentType":5125,"count":5376,"type":"SCALAR","min":[0],"max":[3583]},{"bufferView":29,"byteOffset":0,"componentType":5126,"count":3584,"type":"VEC3","min":[-31.15127944946289,-72.14051818847656,-31.15127944946289],"max":[31.15127944946289,69.31378936767578,31.15127944946289]},{"bufferView":30,"byteOffset":0,"componentType":5126,"count":3584,"type":"VEC3","min":[-1,-1,-1],"max":[1,1,1]},{"bufferView":31,"byteOffset":0,"componentType":5125,"count":1344,"type":"SCALAR","min":[0],"max":[895]},{"bufferView":32,"byteOffset":0,"componentType":5126,"count":896,"type":"VEC3","min":[-27.705183029174805,-67.75936126708984,-27.705183029174805],"max":[27.705183029174805,55.90276336669922,27.705183029174805]},{"bufferView":33,"byteOffset":0,"componentType":5126,"count":896,"type":"VEC3","min":[-0.9997726678848267,-1,-0.9997726678848267],"max":[0.9997726678848267,1,0.9997726678848267]},{"bufferView":34,"byteOffset":0,"componentType":5125,"count":1344,"type":"SCALAR","min":[0],"max":[895]},{"bufferView":35,"byteOffset":0,"componentType":5126,"count":896,"type":"VEC3","min":[-27.705183029174805,-67.75936126708984,-27.705183029174805],"max":[27.705183029174805,55.90276336669922,27.705183029174805]},{"bufferView":36,"byteOffset":0,"componentType":5126,"count":896,"type":"VEC3","min":[-0.9997726678848267,-1,-0.9997726678848267],"max":[0.9997726678848267,1,0.9997726678848267]},{"bufferView":37,"byteOffset":0,"componentType":5123,"count":8640,"type":"SCALAR","min":[0],"max":[1558]},{"bufferView":38,"byteOffset":0,"componentType":5126,"count":1560,"type":"VEC3","min":[-9,-24,-9],"max":[9,24,9]},{"bufferView":39,"byteOffset":0,"componentType":5126,"count":1560,"type":"VEC3","min":[-1,-1,-1],"max":[1,1,1]},{"bufferView":40,"byteOffset":0,"componentType":5126,"count":1560,"type":"VEC2","min":[0,0],"max":[1,1]},{"bufferView":41,"byteOffset":0,"componentType":5123,"count":7104,"type":"SCALAR","min":[1],"max":[1285]},{"bufferView":42,"byteOffset":0,"componentType":5126,"count":1287,"type":"VEC3","min":[-35.64459228515625,-17.735679626464844,-8.921187400817871],"max":[8.920687675476074,35.6827507019043,8.921187400817871]},{"bufferView":43,"byteOffset":0,"componentType":5126,"count":1287,"type":"VEC3","min":[-0.9989305734634399,-1,-1],"max":[1,1,1]},{"bufferView":44,"byteOffset":0,"componentType":5126,"count":1287,"type":"VEC2","min":[0,0],"max":[1,1]},{"bufferView":45,"byteOffset":0,"componentType":5123,"count":7104,"type":"SCALAR","min":[1],"max":[1285]},{"bufferView":46,"byteOffset":0,"componentType":5126,"count":1287,"type":"VEC3","min":[-35.64459228515625,-17.735679626464844,-8.921187400817871],"max":[8.920687675476074,35.6827507019043,8.921187400817871]},{"bufferView":47,"byteOffset":0,"componentType":5126,"count":1287,"type":"VEC3","min":[-0.9989305734634399,-1,-1],"max":[1,1,1]},{"bufferView":48,"byteOffset":0,"componentType":5126,"count":1287,"type":"VEC2","min":[0,0],"max":[1,1]}],"extensions":{"KHR_lights_punctual":{"lights":[{"type":"directional","name":"Directional Light","color":[1,1,1],"intensity":0.7}]}},"extensionsUsed":["KHR_lights_punctual"]}