<svg version="1.0" xmlns="http://www.w3.org/2000/svg"
 width="512" height="512" viewBox="0 0 512.000000 512.000000"
 preserveAspectRatio="xMidYMid meet">
<metadata>
Created by potrace 1.14, written by Peter Selinger 2001-2017
</metadata>
<g transform="translate(0.000000,512.000000) scale(0.100000,-0.100000)"
fill="#000000" stroke="none">
<path d="M2369 5116 c-2 -2 -34 -6 -70 -10 -948 -89 -1797 -742 -2134 -1642
-67 -179 -120 -385 -140 -544 -4 -30 -10 -66 -13 -80 -3 -14 -7 -659 -9 -1433
l-4 -1408 1408 4 c774 1 1419 6 1433 10 14 4 44 8 65 11 85 8 274 49 379 81
596 181 1086 546 1422 1060 68 103 66 101 144 256 103 204 183 433 215 618 3
19 8 37 10 40 3 6 8 37 20 123 27 189 27 520 1 718 -5 31 -17 102 -20 115 -2
6 -6 28 -10 50 -13 70 -57 227 -88 315 -189 534 -520 962 -990 1284 -53 36
-100 66 -104 66 -4 0 -15 6 -23 14 -20 18 -257 137 -331 166 -141 57 -406 135
-493 146 -16 2 -36 6 -46 8 -9 3 -43 8 -76 12 -33 3 -69 8 -80 11 -23 5 -461
13 -466 9z"/>
</g>
</svg>
