<svg width="18" height="14" viewBox="0 0 18 14" fill="none" xmlns="http://www.w3.org/2000/svg">
<path d="M14.7975 1.40592C16.6798 4.17341 17.6094 7.29507 17.2619 10.8888C17.2604 10.904 17.2525 10.918 17.24 10.9272C15.8146 11.9738 14.4336 12.609 13.0719 13.0303C13.0613 13.0335 13.05 13.0333 13.0395 13.0298C13.029 13.0262 13.0198 13.0195 13.0134 13.0105C12.6988 12.5728 12.413 12.1113 12.1625 11.6267C12.1482 11.5982 12.1613 11.5638 12.1909 11.5526C12.6448 11.3815 13.0765 11.1765 13.4917 10.9338C13.5244 10.9147 13.5265 10.8678 13.4963 10.8453C13.4082 10.7799 13.3209 10.7111 13.2373 10.6424C13.2217 10.6297 13.2007 10.6272 13.183 10.6357C10.4873 11.8805 7.53442 11.8805 4.80692 10.6357C4.78922 10.6278 4.76817 10.6305 4.75297 10.643C4.66963 10.7117 4.58213 10.7799 4.49484 10.8453C4.46463 10.8678 4.46713 10.9147 4.50005 10.9338C4.91526 11.1719 5.34692 11.3815 5.80026 11.5534C5.82963 11.5647 5.84359 11.5982 5.82901 11.6267C5.58401 12.1119 5.29817 12.5734 4.97776 13.0111C4.9638 13.0288 4.94088 13.0369 4.91922 13.0303C3.56401 12.609 2.18297 11.9738 0.757555 10.9272C0.74568 10.918 0.737139 10.9034 0.735889 10.8882C0.445472 7.77966 1.03735 4.63216 3.19797 1.40529C3.20318 1.39675 3.21109 1.39008 3.22026 1.38613C4.28338 0.89821 5.42234 0.539252 6.61275 0.334252C6.63442 0.330919 6.65609 0.340919 6.66734 0.360086C6.81442 0.620502 6.98255 0.95446 7.09629 1.22738C8.35108 1.03571 9.62546 1.03571 10.9065 1.22738C11.0202 0.960293 11.1825 0.620502 11.329 0.360086C11.3342 0.350577 11.3423 0.34296 11.3521 0.33832C11.3619 0.333681 11.3729 0.332257 11.3836 0.334252C12.5746 0.539877 13.7136 0.898835 14.7759 1.38613C14.7852 1.39008 14.7929 1.39675 14.7975 1.40592ZM7.73421 7.31632C7.74734 6.39737 7.07734 5.63695 6.2363 5.63695C5.40213 5.63695 4.73859 6.3907 4.73859 7.31632C4.73859 8.24174 5.41526 8.99549 6.2363 8.99549C7.07067 8.99549 7.73421 8.24174 7.73421 7.31632ZM13.2721 7.31632C13.2852 6.39737 12.6152 5.63695 11.7744 5.63695C10.94 5.63695 10.2765 6.3907 10.2765 7.31632C10.2765 8.24174 10.9532 8.99549 11.7744 8.99549C12.6152 8.99549 13.2721 8.24174 13.2721 7.31632Z" fill="#1C1C1C"/>
</svg>
