<svg width="18" height="15" viewBox="0 0 18 15" fill="none" xmlns="http://www.w3.org/2000/svg">
<path d="M1.00072 7.12079L4.7647 8.3472C4.82814 8.35824 4.89328 8.35428 4.95492 8.33563L4.95745 8.33403C5.82634 7.78533 13.5696 2.89539 14.0167 2.73091C14.0871 2.70957 14.1396 2.73361 14.1257 2.78232C13.9464 3.41108 7.20834 9.40049 7.20834 9.40049C7.20834 9.40049 7.18138 9.43121 7.16519 9.46915L7.15758 9.46465L6.80632 13.1979C6.80632 13.1979 6.65928 14.3418 7.8029 13.1979C8.60816 12.3924 9.38914 11.7168 9.78078 11.3875C11.0749 12.281 12.4682 13.2698 13.0692 13.7868C13.1699 13.8845 13.2892 13.9609 13.42 14.0115C13.5508 14.0621 13.6905 14.0859 13.8307 14.0814C14.4012 14.0599 14.5605 13.4332 14.5605 13.4332C14.5605 13.4332 17.222 2.7232 17.3109 1.28818C17.3143 1.23379 17.3182 1.18702 17.3217 1.14453C17.3273 1.07727 17.3319 1.02069 17.3326 0.961461C17.3373 0.849734 17.3263 0.737908 17.3 0.629216C17.2866 0.567677 17.2571 0.510796 17.2146 0.464388C17.172 0.417981 17.1179 0.383713 17.0577 0.365091C16.8146 0.272679 16.4022 0.411617 16.4022 0.411617C16.4022 0.411617 1.79963 5.66032 0.965632 6.24165C0.785697 6.36645 0.725547 6.43907 0.695729 6.52442C0.550882 6.93828 1.00072 7.12079 1.00072 7.12079Z" fill="#1C1C1C"/>
</svg>
