<svg width="18" height="18" viewBox="0 0 18 18" fill="none" xmlns="http://www.w3.org/2000/svg">
<path fill-rule="evenodd" clip-rule="evenodd" d="M6.41634 9.00013C6.41634 8.14337 6.46034 7.31875 6.54149 6.54204C7.31825 6.46088 8.14293 6.41687 8.99975 6.41687C9.85651 6.41687 10.6811 6.46087 11.4579 6.54202C11.539 7.31873 11.583 8.14337 11.583 9.00013C11.583 9.85695 11.539 10.6816 11.4578 11.4584C10.6811 11.5395 9.85651 11.5835 8.99975 11.5835C8.14294 11.5835 7.31826 11.5395 6.5415 11.4584C6.46035 10.6816 6.41634 9.85694 6.41634 9.00013ZM4.91634 9.00013C4.91634 8.23107 4.94983 7.48071 5.0136 6.75968C4.17459 6.91351 3.4192 7.1135 2.77425 7.34803C1.99256 7.63228 1.41276 7.95302 1.04239 8.27144C0.669585 8.59195 0.583083 8.8408 0.583083 9.00021C0.583083 9.15962 0.669585 9.40847 1.04239 9.72898C1.41276 10.0474 1.99256 10.3681 2.77425 10.6524C3.41921 10.8869 4.1746 11.0869 5.01362 11.2407C4.94983 10.5197 4.91634 9.76924 4.91634 9.00013ZM2.26163 5.93834C3.11271 5.62886 4.10913 5.37988 5.20467 5.20524C5.37932 4.10961 5.62831 3.11313 5.93781 2.26201C6.21855 1.48996 6.56016 0.806641 6.96474 0.273926C3.65124 1.04357 1.04302 3.65183 0.273438 6.96535C0.806169 6.56074 1.48953 6.21911 2.26163 5.93834ZM11.0346 0.273928C11.4392 0.806643 11.7808 1.48996 12.0615 2.26201C12.371 3.11313 12.62 4.1096 12.7947 5.20521C13.8903 5.37986 14.8868 5.62884 15.7379 5.93834C16.5099 6.21907 17.1932 6.56067 17.7259 6.96521C16.9563 3.65176 14.3481 1.04356 11.0346 0.273928ZM17.7258 11.0352C17.1931 11.4398 16.5099 11.7813 15.7379 12.0621C14.8867 12.3716 13.8903 12.6206 12.7947 12.7952C12.62 13.8908 12.371 14.8872 12.0615 15.7382C11.7808 16.5103 11.4392 17.1936 11.0346 17.7263C14.348 16.9567 16.9562 14.3486 17.7258 11.0352ZM6.96473 17.7263C6.56016 17.1936 6.21855 16.5103 5.93781 15.7382C5.62833 14.8872 5.37935 13.8907 5.2047 12.7952C4.10914 12.6205 3.11271 12.3716 2.26163 12.0621C1.48955 11.7813 0.806209 11.4397 0.273485 11.0351C1.04313 14.3485 3.6513 16.9567 6.96473 17.7263ZM8.99975 4.91687C8.23063 4.91687 7.4802 4.95036 6.75912 5.01415C6.91295 4.17507 7.11295 3.41962 7.3475 2.77462C7.63175 1.99294 7.95249 1.41313 8.27091 1.04276C8.59142 0.669962 8.84027 0.58346 8.99968 0.58346C9.15909 0.58346 9.40794 0.669962 9.72845 1.04276C10.0469 1.41313 10.3676 1.99294 10.6519 2.77462C10.8864 3.41962 11.0864 4.17506 11.2402 5.01414C10.5192 4.95036 9.76882 4.91687 8.99975 4.91687ZM13.083 9.00013C13.083 8.23106 13.0495 7.48069 12.9857 6.75965C13.8248 6.91349 14.5803 7.11349 15.2253 7.34803C16.0069 7.63228 16.5867 7.95302 16.9571 8.27144C17.3299 8.59195 17.4164 8.8408 17.4164 9.00021C17.4164 9.15962 17.3299 9.40847 16.9571 9.72898C16.5867 10.0474 16.0069 10.3681 15.2253 10.6524C14.5803 10.8869 13.8248 11.0869 12.9857 11.2408C13.0495 10.5197 13.083 9.76925 13.083 9.00013ZM8.99975 13.0835C9.76881 13.0835 10.5192 13.0501 11.2402 12.9863C11.0864 13.8253 10.8864 14.5807 10.6519 15.2256C10.3676 16.0073 10.0469 16.5871 9.72845 16.9575C9.40794 17.3303 9.15909 17.4168 8.99968 17.4168C8.84027 17.4168 8.59142 17.3303 8.27091 16.9575C7.95249 16.5871 7.63175 16.0073 7.3475 15.2256C7.11297 14.5807 6.91298 13.8253 6.75915 12.9863C7.48022 13.0501 8.23064 13.0835 8.99975 13.0835Z" fill="#1C1C1C"/>
</svg>
