<svg viewBox="0 0 24 24" fill="none" xmlns="http://www.w3.org/2000/svg">
<g clip-path="url(#clip0_1874_49837)">
<path d="M18.6476 4.11511C18.8795 4.67595 19.3246 5.12175 19.8851 5.35449L21.8505 6.16858C22.4113 6.40091 22.857 6.84653 23.0893 7.40742C23.3216 7.96831 23.3216 8.59852 23.0893 9.15941L22.2758 11.1234C22.0434 11.6845 22.043 12.3154 22.2765 12.8762L23.0886 14.8396C23.2038 15.1174 23.2631 15.4152 23.2631 15.7159C23.2632 16.0167 23.204 16.3144 23.0889 16.5923C22.9738 16.8701 22.8051 17.1226 22.5924 17.3352C22.3798 17.5478 22.1273 17.7164 21.8494 17.8314L19.8854 18.6449C19.3246 18.8768 18.8788 19.3219 18.646 19.8824L17.8319 21.8478C17.5996 22.4087 17.154 22.8543 16.5931 23.0867C16.0322 23.319 15.402 23.319 14.8411 23.0867L12.8771 22.2731C12.3162 22.0414 11.6863 22.0419 11.1257 22.2745L9.16032 23.0874C8.59974 23.3192 7.97008 23.319 7.40965 23.0868C6.84922 22.8547 6.40384 22.4096 6.17136 21.8493L5.35703 19.8833C5.12513 19.3225 4.68 18.8767 4.1195 18.644L2.15412 17.8299C1.59348 17.5976 1.14799 17.1523 0.915572 16.5917C0.683158 16.0312 0.682843 15.4013 0.914695 14.8405L1.7282 12.8765C1.95996 12.3156 1.95948 11.6856 1.72688 11.125L0.914547 9.15825C0.799374 8.88045 0.740069 8.58268 0.740021 8.28195C0.739973 7.98122 0.799182 7.68343 0.914266 7.40559C1.02935 7.12775 1.19805 6.87532 1.41074 6.6627C1.62342 6.45009 1.87591 6.28147 2.15378 6.16647L4.11776 5.35297C4.67811 5.12127 5.12365 4.6767 5.35656 4.11685L6.17065 2.15147C6.40298 1.59058 6.8486 1.14496 7.40949 0.91263C7.97038 0.680303 8.60058 0.680303 9.16147 0.91263L11.1254 1.72613C11.6863 1.95789 12.3163 1.95742 12.8769 1.72482L14.8431 0.913892C15.4039 0.681695 16.034 0.681742 16.5948 0.914024C17.1555 1.14631 17.6011 1.5918 17.8335 2.15254L18.6478 4.11851L18.6476 4.11511Z" fill="#FFDD72"/>
<g clip-path="url(#clip1_1874_49837)">
<path d="M9.49998 13L14.75 6.75M14.75 13L12.125 9.875M11.18 8.75L9.49998 6.75M17 15C17 16.1046 16.1045 17 15 17C13.8954 17 13 16.1046 13 15C13 13.8954 13.8954 13 15 13C16.1045 13 17 13.8954 17 15ZM11 15C11 16.1046 10.1045 17 8.99998 17C7.89541 17 6.99998 16.1046 6.99998 15C6.99998 13.8954 7.89541 13 8.99998 13C10.1045 13 11 13.8954 11 15Z" stroke="white" stroke-linecap="round" stroke-linejoin="round"/>
</g>
</g>
<defs>
<clipPath id="clip0_1874_49837">
<rect width="24" height="24" fill="white"/>
</clipPath>
<clipPath id="clip1_1874_49837">
<rect width="12" height="12" fill="white" transform="translate(6 6)"/>
</clipPath>
</defs>
</svg>
