<svg  viewBox="0 0 24 24" fill="none" xmlns="http://www.w3.org/2000/svg">
<g clip-path="url(#clip0_1441_50280)">
<path d="M18.6476 4.11511C18.8795 4.67595 19.3246 5.12175 19.8851 5.35449L21.8505 6.16858C22.4113 6.40091 22.857 6.84653 23.0893 7.40742C23.3216 7.96831 23.3216 8.59852 23.0893 9.15941L22.2758 11.1234C22.0434 11.6845 22.043 12.3154 22.2765 12.8762L23.0886 14.8396C23.2038 15.1174 23.2631 15.4152 23.2631 15.7159C23.2632 16.0167 23.204 16.3144 23.0889 16.5923C22.9738 16.8701 22.8051 17.1226 22.5924 17.3352C22.3798 17.5478 22.1273 17.7164 21.8494 17.8314L19.8854 18.6449C19.3246 18.8768 18.8788 19.3219 18.646 19.8824L17.8319 21.8478C17.5996 22.4087 17.154 22.8543 16.5931 23.0867C16.0322 23.319 15.402 23.319 14.8411 23.0867L12.8771 22.2731C12.3162 22.0414 11.6863 22.0419 11.1257 22.2745L9.16032 23.0874C8.59974 23.3192 7.97008 23.319 7.40965 23.0868C6.84922 22.8547 6.40384 22.4096 6.17136 21.8493L5.35703 19.8833C5.12513 19.3225 4.68 18.8767 4.1195 18.644L2.15412 17.8299C1.59348 17.5976 1.14798 17.1523 0.915572 16.5917C0.683158 16.0312 0.682843 15.4013 0.914695 14.8405L1.7282 12.8765C1.95996 12.3156 1.95948 11.6856 1.72688 11.125L0.914547 9.15825C0.799374 8.88045 0.740069 8.58268 0.740021 8.28195C0.739973 7.98122 0.799182 7.68343 0.914266 7.40559C1.02935 7.12775 1.19805 6.87532 1.41074 6.6627C1.62342 6.45009 1.87591 6.28147 2.15378 6.16647L4.11776 5.35297C4.67811 5.12127 5.12365 4.67671 5.35656 4.11685L6.17065 2.15147C6.40298 1.59058 6.8486 1.14496 7.40949 0.91263C7.97038 0.680303 8.60058 0.680303 9.16147 0.91263L11.1254 1.72613C11.6863 1.95789 12.3163 1.95742 12.8769 1.72482L14.8431 0.913892C15.4039 0.681695 16.034 0.681742 16.5948 0.914024C17.1555 1.14631 17.6011 1.5918 17.8335 2.15254L18.6478 4.11851L18.6476 4.11511Z" fill="#A06AF9"/>
<path d="M6.99998 12.0001C6.99998 11.6514 6.99998 11.477 7.03832 11.334C7.14234 10.9457 7.44558 10.6425 7.83381 10.5385C7.97688 10.5001 8.15125 10.5001 8.49998 10.5001H8.76775C9.02974 10.5001 9.16073 10.5001 9.2843 10.5283C9.40767 10.5565 9.52541 10.6052 9.63256 10.6726C9.73987 10.74 9.8325 10.8326 10.0178 11.0179L11 12.0001L10.0178 12.9824C9.8325 13.1676 9.73987 13.2602 9.63256 13.3277C9.52541 13.395 9.40767 13.4438 9.2843 13.4719C9.16073 13.5001 9.02974 13.5001 8.76775 13.5001H8.49998C8.15125 13.5001 7.97688 13.5001 7.83381 13.4618C7.44558 13.3578 7.14234 13.0545 7.03832 12.6663C6.99998 12.5232 6.99998 12.3489 6.99998 12.0001V12.0001Z" stroke="white" stroke-linecap="round" stroke-linejoin="round"/>
<path d="M17 12.0001C17 11.6514 17 11.477 16.9617 11.334C16.8576 10.9457 16.5544 10.6425 16.1662 10.5385C16.0231 10.5001 15.8487 10.5001 15.5 10.5001H15.2322C14.9702 10.5001 14.8392 10.5001 14.7157 10.5283C14.5923 10.5565 14.4746 10.6052 14.3674 10.6726C14.2601 10.74 14.1675 10.8326 13.9822 11.0179L13 12.0001L13.9822 12.9824C14.1675 13.1676 14.2601 13.2602 14.3674 13.3277C14.4746 13.395 14.5923 13.4438 14.7157 13.4719C14.8392 13.5001 14.9702 13.5001 15.2322 13.5001H15.5C15.8487 13.5001 16.0231 13.5001 16.1662 13.4618C16.5544 13.3578 16.8576 13.0545 16.9617 12.6663C17 12.5232 17 12.3489 17 12.0001V12.0001Z" stroke="white" stroke-linecap="round" stroke-linejoin="round"/>
<path d="M12 7.00012C11.6512 7.00012 11.4769 7.00012 11.3338 7.03846C10.9456 7.14248 10.6423 7.44572 10.5383 7.83395C10.5 7.97701 10.5 8.15138 10.5 8.50012L10.5 8.76789C10.5 9.02988 10.5 9.16087 10.5282 9.28443C10.5563 9.40781 10.6051 9.52555 10.6724 9.6327C10.7399 9.74001 10.8325 9.83264 11.0178 10.0179L12 11.0001L12.9822 10.0179C13.1675 9.83264 13.2601 9.74001 13.3275 9.6327C13.3949 9.52555 13.4436 9.40781 13.4718 9.28443C13.5 9.16087 13.5 9.02988 13.5 8.76789V8.50012C13.5 8.15138 13.5 7.97701 13.4617 7.83395C13.3576 7.44572 13.0544 7.14248 12.6662 7.03846C12.5231 7.00012 12.3487 7.00012 12 7.00012V7.00012Z" stroke="white" stroke-linecap="round" stroke-linejoin="round"/>
<path d="M12 17.0001C11.6512 17.0001 11.4769 17.0001 11.3338 16.9618C10.9456 16.8578 10.6423 16.5545 10.5383 16.1663C10.5 16.0232 10.5 15.8489 10.5 15.5001V15.2324C10.5 14.9704 10.5 14.8394 10.5282 14.7158C10.5563 14.5924 10.6051 14.4747 10.6724 14.3675C10.7399 14.2602 10.8325 14.1676 11.0178 13.9824L12 13.0001L12.9822 13.9824C13.1675 14.1676 13.2601 14.2602 13.3275 14.3675C13.3949 14.4747 13.4436 14.5924 13.4718 14.7158C13.5 14.8394 13.5 14.9704 13.5 15.2324V15.5001C13.5 15.8489 13.5 16.0232 13.4617 16.1663C13.3576 16.5545 13.0544 16.8578 12.6662 16.9618C12.5231 17.0001 12.3487 17.0001 12 17.0001V17.0001Z" stroke="white" stroke-linecap="round" stroke-linejoin="round"/>
</g>
<defs>
<clipPath id="clip0_1441_50280">
<rect width="24" height="24" fill="white"/>
</clipPath>
</defs>
</svg>
