<svg width="126" height="37" fill="none" xmlns="http://www.w3.org/2000/svg">
  <path fill-rule="evenodd" clip-rule="evenodd"
    d="M3.995 8.677c0-1.127.709-2.132 1.77-2.512L11.55 4.1a1.334 1.334 0 011.782 1.257v21.288a1.334 1.334 0 01-1.782 1.257l-5.785-2.066a2.668 2.668 0 01-1.77-2.512V8.677zM18.668 5.269a1.274 1.274 0 011.702-1.2l5.945 2.123a2.546 2.546 0 011.69 2.4v14.816a2.546 2.546 0 01-1.69 2.401L20.37 27.93a1.274 1.274 0 01-1.702-1.199V5.27z"
    fill="#0A0517" stroke="#0A0517" stroke-width="2.667" stroke-linecap="round" stroke-linejoin="round" />
  <path
    d="M40.79 28h3.27c.24 0 .39-.15.39-.39v-6.27h3c.6 0 1.14-.03 1.68-.09l3.54 6.48c.09.18.24.27.45.27h3.69c.3 0 .42-.21.27-.48l-4.11-7.5c2.19-1.38 3.21-3.66 3.21-6.36 0-4.98-2.64-7.68-8.73-7.68h-6.66c-.24 0-.39.15-.39.39v21.24c0 .24.15.39.39.39zM47.3 9.73c3.18 0 4.68 1.17 4.68 3.93 0 2.76-1.5 3.93-4.68 3.93h-2.85V9.73h2.85zM66.95 28.3c4.98 0 8.22-3.36 8.22-8.07 0-4.71-3.24-8.07-8.22-8.07s-8.22 3.36-8.22 8.07c0 4.71 3.24 8.07 8.22 8.07zm0-3.54c-2.49 0-4.2-1.86-4.2-4.53s1.71-4.53 4.2-4.53 4.2 1.86 4.2 4.53-1.71 4.53-4.2 4.53zm18.27 3.54c4.98 0 8.22-3.36 8.22-8.07 0-4.71-3.24-8.07-8.22-8.07S77 15.52 77 20.23c0 4.71 3.24 8.07 8.22 8.07zm0-3.54c-2.49 0-4.2-1.86-4.2-4.53s1.71-4.53 4.2-4.53 4.2 1.86 4.2 4.53-1.71 4.53-4.2 4.53zM96.56 28h3.12c.24 0 .39-.15.39-.39v-7.53c0-2.97 1.71-4.38 3.54-4.38 1.8 0 2.76 1.2 2.76 3.78v8.13c0 .24.15.39.39.39h3.12c.24 0 .39-.15.39-.39v-7.53c0-2.97 1.71-4.38 3.54-4.38 1.8 0 2.76 1.2 2.76 3.78v8.13c0 .24.15.39.39.39h3.12c.24 0 .39-.15.39-.39v-9.72c0-3.57-2.07-5.73-5.46-5.73-2.13 0-4.17.96-5.31 2.85-.84-1.83-2.55-2.85-4.89-2.85-1.92 0-3.81.87-4.92 2.55l-.09-1.86c0-.27-.18-.39-.42-.39h-2.82c-.24 0-.39.15-.39.39v14.76c0 .24.15.39.39.39z"
    fill="#0A0517" />
</svg>