<svg viewBox="0 0 36 36" fill="none" xmlns="http://www.w3.org/2000/svg">
<g clip-path="url(#clip0_1471_30546)">
<path d="M18.0002 0.467529C8.3173 0.467529 0.467773 8.31705 0.467773 18V35.5325H8.41583V19.1273C8.41583 14.5023 12.6545 10.7532 17.8834 10.7532C23.1122 10.7532 27.3509 14.5025 27.3509 19.1273L27.3508 32.8335C32.2674 29.7278 35.5327 24.2452 35.5327 18C35.5327 8.31705 27.6832 0.467529 18.0002 0.467529Z" fill="#FAE76C"/>
<path d="M17.8835 10.7533C12.6547 10.7533 8.41602 14.5023 8.41602 19.1273V35.4156H17.8835L22.6758 34.8312L27.351 32.8442L27.3511 19.1273C27.3511 14.5026 23.1124 10.7533 17.8835 10.7533Z" fill="white"/>
<g>
  <path d="M20.8838 17.3922C21.5229 16.7531 22.559 16.7531 23.198 17.3922C23.837 18.0312 23.837 19.0673 23.198 19.7063C22.559 20.3454 21.5229 20.3454 20.8838 19.7063C20.2448 19.0673 20.2448 18.0312 20.8838 17.3922Z" fill="#1C1C1C"/>
  <path d="M15.3705 18.1809C16.0095 17.5418 17.0456 17.5418 17.6846 18.1809C18.3237 18.8199 18.3237 19.856 17.6846 20.495C17.0456 21.1341 16.0095 21.1341 15.3705 20.495C14.7314 19.856 14.7314 18.8199 15.3705 18.1809Z" fill="#1C1C1C"/>
  <path d="M22.4093 22.9059C21.7702 22.2669 20.7341 22.2669 20.0951 22.9059C19.4561 23.545 19.4561 24.5811 20.0951 25.2201C20.7341 25.8591 21.7702 25.8591 22.4093 25.2201C23.0483 24.5811 23.0483 23.545 22.4093 22.9059Z" fill="#1C1C1C"/>

  <!-- <path fill-rule="evenodd" clip-rule="evenodd" d="M0 36H18C21.2304 36 24.2621 35.149 26.8831 33.659L27.8181 33.0891C32.744 29.8774 36 24.319 36 18C36 8.05885 27.9412 0 18 0C8.05885 0 0 8.05885 0 18V36ZM18 0.935065C8.57527 0.935065 0.935065 8.57527 0.935065 18V35.0649H7.94805V19.1273C7.94805 14.1918 12.4516 10.2857 17.8831 10.2857C23.3146 10.2857 27.8182 14.192 27.8182 19.1273L27.8181 31.9594C32.2015 28.8708 35.0649 23.7698 35.0649 18C35.0649 8.57527 27.4247 0.935065 18 0.935065ZM18 35.0649C21.2541 35.0649 24.2955 34.1541 26.8831 32.5735L26.8831 19.1273C26.8831 14.813 22.9094 11.2208 17.8831 11.2208C12.8569 11.2208 8.88312 14.8128 8.88312 19.1273V35.0649H18Z" fill="red"/> -->
   <animateTransform
      attributeName="transform"
      attributeType="XML"
      type="rotate"
      from="-5"
      to="5"
      dur="1s"
      repeatCount="indefinite" />
</g>
</g>
<defs>
<clipPath id="clip0_1471_30546">
<rect width="36" height="36" fill="white"/>
</clipPath>
</defs>
</svg>
