<svg width="1440" height="40" viewBox="0 0 1440 40" fill="none" xmlns="http://www.w3.org/2000/svg">
<g clip-path="url(#clip0_1301_38165)">
<mask id="path-1-inside-1_1301_38165" fill="white">
<path d="M0 0H1440V40H0V0Z"/>
</mask>
<path d="M0 0H1440V40H0V0Z" fill="#1C1C1C"/>
<path d="M-46.656 25H-44.544V20.488H-41.424C-39.888 20.488 -39.504 21.08 -39.504 22.168V23.672C-39.504 24.248 -39.456 24.696 -39.312 25H-37.184C-37.376 24.552 -37.376 24.104 -37.376 23.688V21.8C-37.376 20.488 -37.92 19.752 -39.136 19.528V19.416C-37.856 19.096 -37.104 18.024 -37.104 16.616C-37.104 14.52 -38.432 13.336 -41.056 13.336H-46.656V25ZM-44.544 18.792V15.096H-41.36C-40.112 15.096 -39.264 15.608 -39.264 16.904C-39.264 18.008 -39.856 18.792 -41.36 18.792H-44.544ZM-28.9644 25.144C-25.4764 25.144 -23.1564 22.92 -23.1564 19.16C-23.1564 15.432 -25.4604 13.192 -28.9644 13.192C-32.4524 13.192 -34.7724 15.416 -34.7724 19.16C-34.7724 22.904 -32.4524 25.144 -28.9644 25.144ZM-28.9644 23.32C-31.1724 23.32 -32.5804 21.864 -32.5804 19.16C-32.5804 16.472 -31.1724 15.016 -28.9644 15.016C-26.7564 15.016 -25.3324 16.472 -25.3324 19.16C-25.3324 21.848 -26.7404 23.32 -28.9644 23.32ZM-14.8131 25.144C-11.3251 25.144 -9.00513 22.92 -9.00513 19.16C-9.00513 15.432 -11.3091 13.192 -14.8131 13.192C-18.3011 13.192 -20.6211 15.416 -20.6211 19.16C-20.6211 22.904 -18.3011 25.144 -14.8131 25.144ZM-14.8131 23.32C-17.0211 23.32 -18.4291 21.864 -18.4291 19.16C-18.4291 16.472 -17.0211 15.016 -14.8131 15.016C-12.6051 15.016 -11.1811 16.472 -11.1811 19.16C-11.1811 21.848 -12.5891 23.32 -14.8131 23.32ZM-5.93662 25H-3.87262V19.992L-3.92062 15.56H-3.79262L-0.688624 25H0.991376L4.07938 15.56H4.19138L4.15938 19.976V25H6.22338V13.336H2.99138L0.191376 21.608H0.095376L-2.72062 13.336H-5.93662V25ZM18.5999 25.144C21.6879 25.144 23.2879 23.736 23.2879 21.688C23.2879 18.952 21.3199 18.44 19.3039 18.104C17.1759 17.752 16.3279 17.544 16.3279 16.36C16.3279 15.416 17.1439 14.808 18.4879 14.808C19.7839 14.808 20.7279 15.368 20.7919 16.632H22.9199C22.9039 14.568 21.2719 13.192 18.5679 13.192C15.7999 13.192 14.1359 14.52 14.1359 16.632C14.1359 18.648 15.5119 19.528 18.1839 19.96C20.3919 20.328 21.0799 20.648 21.0799 21.896C21.0799 22.984 20.1359 23.512 18.6799 23.512C16.8559 23.512 16.0719 22.664 16.0399 21.352H13.8799C13.8959 23.592 15.4799 25.144 18.5999 25.144ZM26.4078 25H34.7598V23.176H28.5198V19.912H33.9438V18.2H28.5198V15.16H34.7278V13.336H26.4078V25ZM38.0121 25H40.1241V20.488H43.2441C44.7801 20.488 45.1641 21.08 45.1641 22.168V23.672C45.1641 24.248 45.2121 24.696 45.3561 25H47.4841C47.2921 24.552 47.2921 24.104 47.2921 23.688V21.8C47.2921 20.488 46.7481 19.752 45.5321 19.528V19.416C46.8121 19.096 47.5641 18.024 47.5641 16.616C47.5641 14.52 46.2361 13.336 43.6121 13.336H38.0121V25ZM40.1241 18.792V15.096H43.3081C44.5561 15.096 45.4041 15.608 45.4041 16.904C45.4041 18.008 44.8121 18.792 43.3081 18.792H40.1241ZM53.2156 25H56.0796L60.2396 13.336H57.8876L55.3116 21L54.7036 23H54.5916L53.9516 21L51.4076 13.336H49.0556L53.2156 25ZM62.7678 25H64.8798V13.336H62.7678V25ZM73.709 25.144C76.621 25.144 78.781 23.512 79.085 21.016H76.925C76.669 22.408 75.389 23.32 73.709 23.32C71.501 23.32 70.109 21.88 70.109 19.16C70.109 16.472 71.501 15.016 73.709 15.016C75.421 15.016 76.637 15.96 76.925 17.304H79.085C78.749 14.824 76.637 13.192 73.709 13.192C70.237 13.192 67.917 15.432 67.917 19.16C67.917 22.904 70.237 25.144 73.709 25.144ZM82.1328 25H90.4848V23.176H84.2448V19.912H89.6688V18.2H84.2448V15.16H90.4528V13.336H82.1328V25Z" fill="white"/>
<path d="M213.344 25H215.456V20.488H218.576C220.112 20.488 220.496 21.08 220.496 22.168V23.672C220.496 24.248 220.544 24.696 220.688 25H222.816C222.624 24.552 222.624 24.104 222.624 23.688V21.8C222.624 20.488 222.08 19.752 220.864 19.528V19.416C222.144 19.096 222.896 18.024 222.896 16.616C222.896 14.52 221.568 13.336 218.944 13.336H213.344V25ZM215.456 18.792V15.096H218.64C219.888 15.096 220.736 15.608 220.736 16.904C220.736 18.008 220.144 18.792 218.64 18.792H215.456ZM231.036 25.144C234.524 25.144 236.844 22.92 236.844 19.16C236.844 15.432 234.54 13.192 231.036 13.192C227.548 13.192 225.228 15.416 225.228 19.16C225.228 22.904 227.548 25.144 231.036 25.144ZM231.036 23.32C228.828 23.32 227.42 21.864 227.42 19.16C227.42 16.472 228.828 15.016 231.036 15.016C233.244 15.016 234.668 16.472 234.668 19.16C234.668 21.848 233.26 23.32 231.036 23.32ZM245.187 25.144C248.675 25.144 250.995 22.92 250.995 19.16C250.995 15.432 248.691 13.192 245.187 13.192C241.699 13.192 239.379 15.416 239.379 19.16C239.379 22.904 241.699 25.144 245.187 25.144ZM245.187 23.32C242.979 23.32 241.571 21.864 241.571 19.16C241.571 16.472 242.979 15.016 245.187 15.016C247.395 15.016 248.819 16.472 248.819 19.16C248.819 21.848 247.411 23.32 245.187 23.32ZM254.063 25H256.127V19.992L256.079 15.56H256.207L259.311 25H260.991L264.079 15.56H264.191L264.159 19.976V25H266.223V13.336H262.991L260.191 21.608H260.095L257.279 13.336H254.063V25ZM278.6 25.144C281.688 25.144 283.288 23.736 283.288 21.688C283.288 18.952 281.32 18.44 279.304 18.104C277.176 17.752 276.328 17.544 276.328 16.36C276.328 15.416 277.144 14.808 278.488 14.808C279.784 14.808 280.728 15.368 280.792 16.632H282.92C282.904 14.568 281.272 13.192 278.568 13.192C275.8 13.192 274.136 14.52 274.136 16.632C274.136 18.648 275.512 19.528 278.184 19.96C280.392 20.328 281.08 20.648 281.08 21.896C281.08 22.984 280.136 23.512 278.68 23.512C276.856 23.512 276.072 22.664 276.04 21.352H273.88C273.896 23.592 275.48 25.144 278.6 25.144ZM286.408 25H294.76V23.176H288.52V19.912H293.944V18.2H288.52V15.16H294.728V13.336H286.408V25ZM298.012 25H300.124V20.488H303.244C304.78 20.488 305.164 21.08 305.164 22.168V23.672C305.164 24.248 305.212 24.696 305.356 25H307.484C307.292 24.552 307.292 24.104 307.292 23.688V21.8C307.292 20.488 306.748 19.752 305.532 19.528V19.416C306.812 19.096 307.564 18.024 307.564 16.616C307.564 14.52 306.236 13.336 303.612 13.336H298.012V25ZM300.124 18.792V15.096H303.308C304.556 15.096 305.404 15.608 305.404 16.904C305.404 18.008 304.812 18.792 303.308 18.792H300.124ZM313.216 25H316.08L320.24 13.336H317.888L315.312 21L314.704 23H314.592L313.952 21L311.408 13.336H309.056L313.216 25ZM322.768 25H324.88V13.336H322.768V25ZM333.709 25.144C336.621 25.144 338.781 23.512 339.085 21.016H336.925C336.669 22.408 335.389 23.32 333.709 23.32C331.501 23.32 330.109 21.88 330.109 19.16C330.109 16.472 331.501 15.016 333.709 15.016C335.421 15.016 336.637 15.96 336.925 17.304H339.085C338.749 14.824 336.637 13.192 333.709 13.192C330.237 13.192 327.917 15.432 327.917 19.16C327.917 22.904 330.237 25.144 333.709 25.144ZM342.133 25H350.485V23.176H344.245V19.912H349.669V18.2H344.245V15.16H350.453V13.336H342.133V25Z" fill="white"/>
<path d="M473.344 25H475.456V20.488H478.576C480.112 20.488 480.496 21.08 480.496 22.168V23.672C480.496 24.248 480.544 24.696 480.688 25H482.816C482.624 24.552 482.624 24.104 482.624 23.688V21.8C482.624 20.488 482.08 19.752 480.864 19.528V19.416C482.144 19.096 482.896 18.024 482.896 16.616C482.896 14.52 481.568 13.336 478.944 13.336H473.344V25ZM475.456 18.792V15.096H478.64C479.888 15.096 480.736 15.608 480.736 16.904C480.736 18.008 480.144 18.792 478.64 18.792H475.456ZM491.036 25.144C494.524 25.144 496.844 22.92 496.844 19.16C496.844 15.432 494.54 13.192 491.036 13.192C487.548 13.192 485.228 15.416 485.228 19.16C485.228 22.904 487.548 25.144 491.036 25.144ZM491.036 23.32C488.828 23.32 487.42 21.864 487.42 19.16C487.42 16.472 488.828 15.016 491.036 15.016C493.244 15.016 494.668 16.472 494.668 19.16C494.668 21.848 493.26 23.32 491.036 23.32ZM505.187 25.144C508.675 25.144 510.995 22.92 510.995 19.16C510.995 15.432 508.691 13.192 505.187 13.192C501.699 13.192 499.379 15.416 499.379 19.16C499.379 22.904 501.699 25.144 505.187 25.144ZM505.187 23.32C502.979 23.32 501.571 21.864 501.571 19.16C501.571 16.472 502.979 15.016 505.187 15.016C507.395 15.016 508.819 16.472 508.819 19.16C508.819 21.848 507.411 23.32 505.187 23.32ZM514.063 25H516.127V19.992L516.079 15.56H516.207L519.311 25H520.991L524.079 15.56H524.191L524.159 19.976V25H526.223V13.336H522.991L520.191 21.608H520.095L517.279 13.336H514.063V25ZM538.6 25.144C541.688 25.144 543.288 23.736 543.288 21.688C543.288 18.952 541.32 18.44 539.304 18.104C537.176 17.752 536.328 17.544 536.328 16.36C536.328 15.416 537.144 14.808 538.488 14.808C539.784 14.808 540.728 15.368 540.792 16.632H542.92C542.904 14.568 541.272 13.192 538.568 13.192C535.8 13.192 534.136 14.52 534.136 16.632C534.136 18.648 535.512 19.528 538.184 19.96C540.392 20.328 541.08 20.648 541.08 21.896C541.08 22.984 540.136 23.512 538.68 23.512C536.856 23.512 536.072 22.664 536.04 21.352H533.88C533.896 23.592 535.48 25.144 538.6 25.144ZM546.408 25H554.76V23.176H548.52V19.912H553.944V18.2H548.52V15.16H554.728V13.336H546.408V25ZM558.012 25H560.124V20.488H563.244C564.78 20.488 565.164 21.08 565.164 22.168V23.672C565.164 24.248 565.212 24.696 565.356 25H567.484C567.292 24.552 567.292 24.104 567.292 23.688V21.8C567.292 20.488 566.748 19.752 565.532 19.528V19.416C566.812 19.096 567.564 18.024 567.564 16.616C567.564 14.52 566.236 13.336 563.612 13.336H558.012V25ZM560.124 18.792V15.096H563.308C564.556 15.096 565.404 15.608 565.404 16.904C565.404 18.008 564.812 18.792 563.308 18.792H560.124ZM573.216 25H576.08L580.24 13.336H577.888L575.312 21L574.704 23H574.592L573.952 21L571.408 13.336H569.056L573.216 25ZM582.768 25H584.88V13.336H582.768V25ZM593.709 25.144C596.621 25.144 598.781 23.512 599.085 21.016H596.925C596.669 22.408 595.389 23.32 593.709 23.32C591.501 23.32 590.109 21.88 590.109 19.16C590.109 16.472 591.501 15.016 593.709 15.016C595.421 15.016 596.637 15.96 596.925 17.304H599.085C598.749 14.824 596.637 13.192 593.709 13.192C590.237 13.192 587.917 15.432 587.917 19.16C587.917 22.904 590.237 25.144 593.709 25.144ZM602.133 25H610.485V23.176H604.245V19.912H609.669V18.2H604.245V15.16H610.453V13.336H602.133V25Z" fill="white"/>
<path d="M733.344 25H735.456V20.488H738.576C740.112 20.488 740.496 21.08 740.496 22.168V23.672C740.496 24.248 740.544 24.696 740.688 25H742.816C742.624 24.552 742.624 24.104 742.624 23.688V21.8C742.624 20.488 742.08 19.752 740.864 19.528V19.416C742.144 19.096 742.896 18.024 742.896 16.616C742.896 14.52 741.568 13.336 738.944 13.336H733.344V25ZM735.456 18.792V15.096H738.64C739.888 15.096 740.736 15.608 740.736 16.904C740.736 18.008 740.144 18.792 738.64 18.792H735.456ZM751.036 25.144C754.524 25.144 756.844 22.92 756.844 19.16C756.844 15.432 754.54 13.192 751.036 13.192C747.548 13.192 745.228 15.416 745.228 19.16C745.228 22.904 747.548 25.144 751.036 25.144ZM751.036 23.32C748.828 23.32 747.42 21.864 747.42 19.16C747.42 16.472 748.828 15.016 751.036 15.016C753.244 15.016 754.668 16.472 754.668 19.16C754.668 21.848 753.26 23.32 751.036 23.32ZM765.187 25.144C768.675 25.144 770.995 22.92 770.995 19.16C770.995 15.432 768.691 13.192 765.187 13.192C761.699 13.192 759.379 15.416 759.379 19.16C759.379 22.904 761.699 25.144 765.187 25.144ZM765.187 23.32C762.979 23.32 761.571 21.864 761.571 19.16C761.571 16.472 762.979 15.016 765.187 15.016C767.395 15.016 768.819 16.472 768.819 19.16C768.819 21.848 767.411 23.32 765.187 23.32ZM774.063 25H776.127V19.992L776.079 15.56H776.207L779.311 25H780.991L784.079 15.56H784.191L784.159 19.976V25H786.223V13.336H782.991L780.191 21.608H780.095L777.279 13.336H774.063V25ZM798.6 25.144C801.688 25.144 803.288 23.736 803.288 21.688C803.288 18.952 801.32 18.44 799.304 18.104C797.176 17.752 796.328 17.544 796.328 16.36C796.328 15.416 797.144 14.808 798.488 14.808C799.784 14.808 800.728 15.368 800.792 16.632H802.92C802.904 14.568 801.272 13.192 798.568 13.192C795.8 13.192 794.136 14.52 794.136 16.632C794.136 18.648 795.512 19.528 798.184 19.96C800.392 20.328 801.08 20.648 801.08 21.896C801.08 22.984 800.136 23.512 798.68 23.512C796.856 23.512 796.072 22.664 796.04 21.352H793.88C793.896 23.592 795.48 25.144 798.6 25.144ZM806.408 25H814.76V23.176H808.52V19.912H813.944V18.2H808.52V15.16H814.728V13.336H806.408V25ZM818.012 25H820.124V20.488H823.244C824.78 20.488 825.164 21.08 825.164 22.168V23.672C825.164 24.248 825.212 24.696 825.356 25H827.484C827.292 24.552 827.292 24.104 827.292 23.688V21.8C827.292 20.488 826.748 19.752 825.532 19.528V19.416C826.812 19.096 827.564 18.024 827.564 16.616C827.564 14.52 826.236 13.336 823.612 13.336H818.012V25ZM820.124 18.792V15.096H823.308C824.556 15.096 825.404 15.608 825.404 16.904C825.404 18.008 824.812 18.792 823.308 18.792H820.124ZM833.216 25H836.08L840.24 13.336H837.888L835.312 21L834.704 23H834.592L833.952 21L831.408 13.336H829.056L833.216 25ZM842.768 25H844.88V13.336H842.768V25ZM853.709 25.144C856.621 25.144 858.781 23.512 859.085 21.016H856.925C856.669 22.408 855.389 23.32 853.709 23.32C851.501 23.32 850.109 21.88 850.109 19.16C850.109 16.472 851.501 15.016 853.709 15.016C855.421 15.016 856.637 15.96 856.925 17.304H859.085C858.749 14.824 856.637 13.192 853.709 13.192C850.237 13.192 847.917 15.432 847.917 19.16C847.917 22.904 850.237 25.144 853.709 25.144ZM862.133 25H870.485V23.176H864.245V19.912H869.669V18.2H864.245V15.16H870.453V13.336H862.133V25Z" fill="white"/>
<path d="M993.344 25H995.456V20.488H998.576C1000.11 20.488 1000.5 21.08 1000.5 22.168V23.672C1000.5 24.248 1000.54 24.696 1000.69 25H1002.82C1002.62 24.552 1002.62 24.104 1002.62 23.688V21.8C1002.62 20.488 1002.08 19.752 1000.86 19.528V19.416C1002.14 19.096 1002.9 18.024 1002.9 16.616C1002.9 14.52 1001.57 13.336 998.944 13.336H993.344V25ZM995.456 18.792V15.096H998.64C999.888 15.096 1000.74 15.608 1000.74 16.904C1000.74 18.008 1000.14 18.792 998.64 18.792H995.456ZM1011.04 25.144C1014.52 25.144 1016.84 22.92 1016.84 19.16C1016.84 15.432 1014.54 13.192 1011.04 13.192C1007.55 13.192 1005.23 15.416 1005.23 19.16C1005.23 22.904 1007.55 25.144 1011.04 25.144ZM1011.04 23.32C1008.83 23.32 1007.42 21.864 1007.42 19.16C1007.42 16.472 1008.83 15.016 1011.04 15.016C1013.24 15.016 1014.67 16.472 1014.67 19.16C1014.67 21.848 1013.26 23.32 1011.04 23.32ZM1025.19 25.144C1028.67 25.144 1030.99 22.92 1030.99 19.16C1030.99 15.432 1028.69 13.192 1025.19 13.192C1021.7 13.192 1019.38 15.416 1019.38 19.16C1019.38 22.904 1021.7 25.144 1025.19 25.144ZM1025.19 23.32C1022.98 23.32 1021.57 21.864 1021.57 19.16C1021.57 16.472 1022.98 15.016 1025.19 15.016C1027.39 15.016 1028.82 16.472 1028.82 19.16C1028.82 21.848 1027.41 23.32 1025.19 23.32ZM1034.06 25H1036.13V19.992L1036.08 15.56H1036.21L1039.31 25H1040.99L1044.08 15.56H1044.19L1044.16 19.976V25H1046.22V13.336H1042.99L1040.19 21.608H1040.1L1037.28 13.336H1034.06V25ZM1058.6 25.144C1061.69 25.144 1063.29 23.736 1063.29 21.688C1063.29 18.952 1061.32 18.44 1059.3 18.104C1057.18 17.752 1056.33 17.544 1056.33 16.36C1056.33 15.416 1057.14 14.808 1058.49 14.808C1059.78 14.808 1060.73 15.368 1060.79 16.632H1062.92C1062.9 14.568 1061.27 13.192 1058.57 13.192C1055.8 13.192 1054.14 14.52 1054.14 16.632C1054.14 18.648 1055.51 19.528 1058.18 19.96C1060.39 20.328 1061.08 20.648 1061.08 21.896C1061.08 22.984 1060.14 23.512 1058.68 23.512C1056.86 23.512 1056.07 22.664 1056.04 21.352H1053.88C1053.9 23.592 1055.48 25.144 1058.6 25.144ZM1066.41 25H1074.76V23.176H1068.52V19.912H1073.94V18.2H1068.52V15.16H1074.73V13.336H1066.41V25ZM1078.01 25H1080.12V20.488H1083.24C1084.78 20.488 1085.16 21.08 1085.16 22.168V23.672C1085.16 24.248 1085.21 24.696 1085.36 25H1087.48C1087.29 24.552 1087.29 24.104 1087.29 23.688V21.8C1087.29 20.488 1086.75 19.752 1085.53 19.528V19.416C1086.81 19.096 1087.56 18.024 1087.56 16.616C1087.56 14.52 1086.24 13.336 1083.61 13.336H1078.01V25ZM1080.12 18.792V15.096H1083.31C1084.56 15.096 1085.4 15.608 1085.4 16.904C1085.4 18.008 1084.81 18.792 1083.31 18.792H1080.12ZM1093.22 25H1096.08L1100.24 13.336H1097.89L1095.31 21L1094.7 23H1094.59L1093.95 21L1091.41 13.336H1089.06L1093.22 25ZM1102.77 25H1104.88V13.336H1102.77V25ZM1113.71 25.144C1116.62 25.144 1118.78 23.512 1119.08 21.016H1116.92C1116.67 22.408 1115.39 23.32 1113.71 23.32C1111.5 23.32 1110.11 21.88 1110.11 19.16C1110.11 16.472 1111.5 15.016 1113.71 15.016C1115.42 15.016 1116.64 15.96 1116.92 17.304H1119.08C1118.75 14.824 1116.64 13.192 1113.71 13.192C1110.24 13.192 1107.92 15.432 1107.92 19.16C1107.92 22.904 1110.24 25.144 1113.71 25.144ZM1122.13 25H1130.48V23.176H1124.24V19.912H1129.67V18.2H1124.24V15.16H1130.45V13.336H1122.13V25Z" fill="white"/>
<path d="M1253.34 25H1255.46V20.488H1258.58C1260.11 20.488 1260.5 21.08 1260.5 22.168V23.672C1260.5 24.248 1260.54 24.696 1260.69 25H1262.82C1262.62 24.552 1262.62 24.104 1262.62 23.688V21.8C1262.62 20.488 1262.08 19.752 1260.86 19.528V19.416C1262.14 19.096 1262.9 18.024 1262.9 16.616C1262.9 14.52 1261.57 13.336 1258.94 13.336H1253.34V25ZM1255.46 18.792V15.096H1258.64C1259.89 15.096 1260.74 15.608 1260.74 16.904C1260.74 18.008 1260.14 18.792 1258.64 18.792H1255.46ZM1271.04 25.144C1274.52 25.144 1276.84 22.92 1276.84 19.16C1276.84 15.432 1274.54 13.192 1271.04 13.192C1267.55 13.192 1265.23 15.416 1265.23 19.16C1265.23 22.904 1267.55 25.144 1271.04 25.144ZM1271.04 23.32C1268.83 23.32 1267.42 21.864 1267.42 19.16C1267.42 16.472 1268.83 15.016 1271.04 15.016C1273.24 15.016 1274.67 16.472 1274.67 19.16C1274.67 21.848 1273.26 23.32 1271.04 23.32ZM1285.19 25.144C1288.67 25.144 1290.99 22.92 1290.99 19.16C1290.99 15.432 1288.69 13.192 1285.19 13.192C1281.7 13.192 1279.38 15.416 1279.38 19.16C1279.38 22.904 1281.7 25.144 1285.19 25.144ZM1285.19 23.32C1282.98 23.32 1281.57 21.864 1281.57 19.16C1281.57 16.472 1282.98 15.016 1285.19 15.016C1287.39 15.016 1288.82 16.472 1288.82 19.16C1288.82 21.848 1287.41 23.32 1285.19 23.32ZM1294.06 25H1296.13V19.992L1296.08 15.56H1296.21L1299.31 25H1300.99L1304.08 15.56H1304.19L1304.16 19.976V25H1306.22V13.336H1302.99L1300.19 21.608H1300.1L1297.28 13.336H1294.06V25ZM1318.6 25.144C1321.69 25.144 1323.29 23.736 1323.29 21.688C1323.29 18.952 1321.32 18.44 1319.3 18.104C1317.18 17.752 1316.33 17.544 1316.33 16.36C1316.33 15.416 1317.14 14.808 1318.49 14.808C1319.78 14.808 1320.73 15.368 1320.79 16.632H1322.92C1322.9 14.568 1321.27 13.192 1318.57 13.192C1315.8 13.192 1314.14 14.52 1314.14 16.632C1314.14 18.648 1315.51 19.528 1318.18 19.96C1320.39 20.328 1321.08 20.648 1321.08 21.896C1321.08 22.984 1320.14 23.512 1318.68 23.512C1316.86 23.512 1316.07 22.664 1316.04 21.352H1313.88C1313.9 23.592 1315.48 25.144 1318.6 25.144ZM1326.41 25H1334.76V23.176H1328.52V19.912H1333.94V18.2H1328.52V15.16H1334.73V13.336H1326.41V25ZM1338.01 25H1340.12V20.488H1343.24C1344.78 20.488 1345.16 21.08 1345.16 22.168V23.672C1345.16 24.248 1345.21 24.696 1345.36 25H1347.48C1347.29 24.552 1347.29 24.104 1347.29 23.688V21.8C1347.29 20.488 1346.75 19.752 1345.53 19.528V19.416C1346.81 19.096 1347.56 18.024 1347.56 16.616C1347.56 14.52 1346.24 13.336 1343.61 13.336H1338.01V25ZM1340.12 18.792V15.096H1343.31C1344.56 15.096 1345.4 15.608 1345.4 16.904C1345.4 18.008 1344.81 18.792 1343.31 18.792H1340.12ZM1353.22 25H1356.08L1360.24 13.336H1357.89L1355.31 21L1354.7 23H1354.59L1353.95 21L1351.41 13.336H1349.06L1353.22 25ZM1362.77 25H1364.88V13.336H1362.77V25ZM1373.71 25.144C1376.62 25.144 1378.78 23.512 1379.08 21.016H1376.92C1376.67 22.408 1375.39 23.32 1373.71 23.32C1371.5 23.32 1370.11 21.88 1370.11 19.16C1370.11 16.472 1371.5 15.016 1373.71 15.016C1375.42 15.016 1376.64 15.96 1376.92 17.304H1379.08C1378.75 14.824 1376.64 13.192 1373.71 13.192C1370.24 13.192 1367.92 15.432 1367.92 19.16C1367.92 22.904 1370.24 25.144 1373.71 25.144ZM1382.13 25H1390.48V23.176H1384.24V19.912H1389.67V18.2H1384.24V15.16H1390.45V13.336H1382.13V25Z" fill="white"/>
</g>
<path d="M0 1H1440V-1H0V1ZM1440 39H0V41H1440V39Z" fill="#1C1C1C" mask="url(#path-1-inside-1_1301_38165)"/>
<defs>
<clipPath id="clip0_1301_38165">
<path d="M0 0H1440V40H0V0Z" fill="white"/>
</clipPath>
</defs>
</svg>
