<svg width="1440" height="132" viewBox="0 0 1440 132" fill="none" xmlns="http://www.w3.org/2000/svg">
<g clip-path="url(#clip0_1301_38150)">
<path d="M-93 105.137H-71.482V79.591H-57.702C-49.964 79.591 -47.844 82.877 -47.844 88.283V95.915C-47.844 99.943 -47.42 103.441 -46.572 105.137H-24.948C-26.326 102.063 -26.326 98.777 -26.326 95.809V84.573C-26.326 75.987 -30.248 71.429 -37.562 69.839V69.097C-29.612 67.295 -24.312 59.981 -24.312 50.865C-24.312 36.025 -33.428 27.863 -52.72 27.863H-93V105.137ZM-71.482 62.737V45.459H-55.9C-50.282 45.459 -46.36 47.579 -46.36 53.833C-46.36 58.921 -49.01 62.737 -55.9 62.737H-71.482Z" fill="#1C1C1C"/>
<path d="M20.8688 106.197C44.6128 106.197 60.4068 92.205 60.4068 66.447C60.4068 40.795 44.6128 26.803 20.8688 26.803C-2.76916 26.803 -18.5632 40.795 -18.5632 66.447C-18.5632 92.205 -2.76916 106.197 20.8688 106.197ZM20.8688 87.965C10.4808 87.965 3.48484 81.817 3.48484 66.447C3.48484 51.183 10.4808 45.035 20.8688 45.035C31.3628 45.035 38.3589 51.289 38.3589 66.447C38.3589 81.711 31.3628 87.965 20.8688 87.965Z" fill="#1C1C1C"/>
<path d="M107.408 106.197C131.152 106.197 146.946 92.205 146.946 66.447C146.946 40.795 131.152 26.803 107.408 26.803C83.7699 26.803 67.9759 40.795 67.9759 66.447C67.9759 92.205 83.7699 106.197 107.408 106.197ZM107.408 87.965C97.0199 87.965 90.0239 81.817 90.0239 66.447C90.0239 51.183 97.0199 45.035 107.408 45.035C117.902 45.035 124.898 51.289 124.898 66.447C124.898 81.711 117.902 87.965 107.408 87.965Z" fill="#1C1C1C"/>
<path d="M157.508 105.137H178.496V80.439L178.178 50.229H179.132L192.382 105.137H208.918L222.168 50.229H222.91L222.698 80.227V105.137H243.474V27.863H211.038L201.074 69.839H200.226L189.944 27.863H157.508V105.137Z" fill="#1C1C1C"/>
<path d="M308.276 106.197C330.642 106.197 341.666 96.021 341.666 81.499C341.666 61.995 327.674 58.603 315.378 56.801C303.506 54.999 298.842 54.681 298.842 49.063C298.842 45.247 302.446 42.915 307.958 42.915C312.622 42.915 317.498 44.505 317.816 50.229H339.44C339.44 36.237 327.038 26.909 308.488 26.909C288.772 26.909 276.582 36.237 276.582 51.925C276.582 65.493 285.698 72.701 303.612 75.351C316.438 77.259 319.3 78.001 319.3 83.725C319.3 87.753 315.378 89.873 309.23 89.873C300.326 89.873 296.828 86.163 296.828 80.651H274.992C274.992 96.021 286.864 106.197 308.276 106.197Z" fill="#1C1C1C"/>
<path d="M352.117 105.137H410.735V86.905H373.635V74.609H405.117V57.543H373.635V46.095H410.417V27.863H352.117V105.137Z" fill="#1C1C1C"/>
<path d="M422.818 105.137H444.336V79.591H458.116C465.854 79.591 467.974 82.877 467.974 88.283V95.915C467.974 99.943 468.398 103.441 469.246 105.137H490.87C489.492 102.063 489.492 98.777 489.492 95.809V84.573C489.492 75.987 485.57 71.429 478.256 69.839V69.097C486.206 67.295 491.506 59.981 491.506 50.865C491.506 36.025 482.39 27.863 463.098 27.863H422.818V105.137ZM444.336 62.737V45.459H459.918C465.536 45.459 469.458 47.579 469.458 53.833C469.458 58.921 466.808 62.737 459.918 62.737H444.336Z" fill="#1C1C1C"/>
<path d="M517.561 105.137H546.499L572.151 27.863H548.089L536.535 69.521L532.401 84.679H531.553L527.313 69.415L515.865 27.863H491.803L517.561 105.137Z" fill="#1C1C1C"/>
<path d="M579.748 105.137H601.266V27.863H579.748V105.137Z" fill="#1C1C1C"/>
<path d="M651.491 106.197C671.525 106.197 686.577 94.749 688.379 77.789H666.649C665.165 83.937 658.805 87.965 651.491 87.965C640.891 87.965 633.895 81.817 633.895 66.447C633.895 51.183 640.891 45.035 651.491 45.035C659.229 45.035 664.953 49.169 666.649 55.105H688.379C686.577 38.251 672.055 26.803 651.491 26.803C627.747 26.803 611.847 40.795 611.847 66.447C611.847 92.205 627.747 106.197 651.491 106.197Z" fill="#1C1C1C"/>
<path d="M698.895 105.137H757.513V86.905H720.413V74.609H751.895V57.543H720.413V46.095H757.195V27.863H698.895V105.137Z" fill="#1C1C1C"/>
<path d="M823.513 17.5C841.736 17.5 856.513 32.3128 856.513 50.5909V115.5H790.513V50.5909C790.513 32.3128 805.29 17.5 823.513 17.5Z" stroke="#1C1C1C" stroke-width="2"/>
<path d="M823.512 57C834.224 57 842.912 65.7076 842.912 76.4545V115H804.112V76.4545C804.112 65.7076 812.8 57 823.512 57Z" stroke="#1C1C1C" stroke-width="2"/>
<path d="M823.512 87C828.591 87 832.712 91.1287 832.712 96.2273V115H814.312V96.2273C814.312 91.1287 818.434 87 823.512 87Z" stroke="#1C1C1C" stroke-width="2"/>
<path d="M889.513 105.137H911.031V79.591H924.811C932.549 79.591 934.669 82.877 934.669 88.283V95.915C934.669 99.943 935.093 103.441 935.941 105.137H957.565C956.187 102.063 956.187 98.777 956.187 95.809V84.573C956.187 75.987 952.265 71.429 944.951 69.839V69.097C952.901 67.295 958.201 59.981 958.201 50.865C958.201 36.025 949.085 27.863 929.793 27.863H889.513V105.137ZM911.031 62.737V45.459H926.613C932.231 45.459 936.153 47.579 936.153 53.833C936.153 58.921 933.503 62.737 926.613 62.737H911.031Z" fill="#1C1C1C"/>
<path d="M1003.38 106.197C1027.13 106.197 1042.92 92.205 1042.92 66.447C1042.92 40.795 1027.13 26.803 1003.38 26.803C979.744 26.803 963.95 40.795 963.95 66.447C963.95 92.205 979.744 106.197 1003.38 106.197ZM1003.38 87.965C992.994 87.965 985.998 81.817 985.998 66.447C985.998 51.183 992.994 45.035 1003.38 45.035C1013.88 45.035 1020.87 51.289 1020.87 66.447C1020.87 81.711 1013.88 87.965 1003.38 87.965Z" fill="#1C1C1C"/>
<path d="M1089.92 106.197C1113.66 106.197 1129.46 92.205 1129.46 66.447C1129.46 40.795 1113.66 26.803 1089.92 26.803C1066.28 26.803 1050.49 40.795 1050.49 66.447C1050.49 92.205 1066.28 106.197 1089.92 106.197ZM1089.92 87.965C1079.53 87.965 1072.54 81.817 1072.54 66.447C1072.54 51.183 1079.53 45.035 1089.92 45.035C1100.41 45.035 1107.41 51.289 1107.41 66.447C1107.41 81.711 1100.41 87.965 1089.92 87.965Z" fill="#1C1C1C"/>
<path d="M1140.02 105.137H1161.01V80.439L1160.69 50.229H1161.64L1174.89 105.137H1191.43L1204.68 50.229H1205.42L1205.21 80.227V105.137H1225.99V27.863H1193.55L1183.59 69.839H1182.74L1172.46 27.863H1140.02V105.137Z" fill="#1C1C1C"/>
<path d="M1290.79 106.197C1313.15 106.197 1324.18 96.021 1324.18 81.499C1324.18 61.995 1310.19 58.603 1297.89 56.801C1286.02 54.999 1281.35 54.681 1281.35 49.063C1281.35 45.247 1284.96 42.915 1290.47 42.915C1295.13 42.915 1300.01 44.505 1300.33 50.229H1321.95C1321.95 36.237 1309.55 26.909 1291 26.909C1271.28 26.909 1259.09 36.237 1259.09 51.925C1259.09 65.493 1268.21 72.701 1286.12 75.351C1298.95 77.259 1301.81 78.001 1301.81 83.725C1301.81 87.753 1297.89 89.873 1291.74 89.873C1282.84 89.873 1279.34 86.163 1279.34 80.651H1257.5C1257.5 96.021 1269.38 106.197 1290.79 106.197Z" fill="#1C1C1C"/>
<path d="M1334.63 105.137H1393.25V86.905H1356.15V74.609H1387.63V57.543H1356.15V46.095H1392.93V27.863H1334.63V105.137Z" fill="#1C1C1C"/>
<path d="M1405.33 105.137H1426.85V79.591H1440.63C1448.37 79.591 1450.49 82.877 1450.49 88.283V95.915C1450.49 99.943 1450.91 103.441 1451.76 105.137H1473.38C1472.01 102.063 1472.01 98.777 1472.01 95.809V84.573C1472.01 75.987 1468.08 71.429 1460.77 69.839V69.097C1468.72 67.295 1474.02 59.981 1474.02 50.865C1474.02 36.025 1464.9 27.863 1445.61 27.863H1405.33V105.137ZM1426.85 62.737V45.459H1442.43C1448.05 45.459 1451.97 47.579 1451.97 53.833C1451.97 58.921 1449.32 62.737 1442.43 62.737H1426.85Z" fill="#1C1C1C"/>
<path d="M1500.07 105.137H1529.01L1554.66 27.863H1530.6L1519.05 69.521L1514.91 84.679H1514.07L1509.83 69.415L1498.38 27.863H1474.32L1500.07 105.137Z" fill="#1C1C1C"/>
<path d="M1562.26 105.137H1583.78V27.863H1562.26V105.137Z" fill="#1C1C1C"/>
<path d="M1634 106.197C1654.04 106.197 1669.09 94.749 1670.89 77.789H1649.16C1647.68 83.937 1641.32 87.965 1634 87.965C1623.4 87.965 1616.41 81.817 1616.41 66.447C1616.41 51.183 1623.4 45.035 1634 45.035C1641.74 45.035 1647.47 49.169 1649.16 55.105H1670.89C1669.09 38.251 1654.57 26.803 1634 26.803C1610.26 26.803 1594.36 40.795 1594.36 66.447C1594.36 92.205 1610.26 106.197 1634 106.197Z" fill="#1C1C1C"/>
<path d="M1681.41 105.137H1740.03V86.905H1702.93V74.609H1734.41V57.543H1702.93V46.095H1739.71V27.863H1681.41V105.137Z" fill="#1C1C1C"/>
</g>
<path d="M0 1H1440V-1H0V1ZM1440 131H0V133H1440V131Z" fill="#1C1C1C" mask="url(#path-1-inside-1_1301_38150)"/>
<defs>
<clipPath id="clip0_1301_38150">
<path d="M0 0H1440V132H0V0Z" fill="white"/>
</clipPath>
</defs>
</svg>
