<svg width="20" height="20" viewBox="0 0 20 20" fill="none" xmlns="http://www.w3.org/2000/svg">
<path d="M18.3334 10C18.3334 14.6024 14.6025 18.3334 10.0001 18.3334M18.3334 10C18.3334 5.39765 14.6025 1.66669 10.0001 1.66669M18.3334 10H15.8334M10.0001 18.3334C5.39771 18.3334 1.66675 14.6024 1.66675 10M10.0001 18.3334V15.8334M1.66675 10C1.66675 5.39765 5.39771 1.66669 10.0001 1.66669M1.66675 10H4.16675M10.0001 1.66669V4.16669M11.6667 10C11.6667 10.9205 10.9206 11.6667 10.0001 11.6667C9.07961 11.6667 8.33342 10.9205 8.33342 10C8.33342 9.07955 9.07961 8.33335 10.0001 8.33335C10.9206 8.33335 11.6667 9.07955 11.6667 10Z" stroke="#1C1C1C" stroke-width="1.5" stroke-linecap="round" stroke-linejoin="round"/>
</svg>
