<svg width="20" height="16" viewBox="0 0 20 16" fill="none" xmlns="http://www.w3.org/2000/svg">
  <path
    d="M16.9566 1.28705C19.2154 4.60805 20.3309 8.35404 19.9139 12.6665C19.9121 12.6848 19.9026 12.7015 19.8876 12.7125C18.1771 13.9685 16.5199 14.7308 14.8859 15.2363C14.8732 15.2401 14.8596 15.2399 14.847 15.2357C14.8344 15.2314 14.8234 15.2233 14.8156 15.2125C14.4382 14.6873 14.0952 14.1335 13.7947 13.552C13.7774 13.5178 13.7932 13.4765 13.8287 13.463C14.3734 13.2578 14.8914 13.0118 15.3896 12.7205C15.4289 12.6975 15.4314 12.6413 15.3951 12.6143C15.2894 12.5358 15.1846 12.4533 15.0844 12.3708C15.0656 12.3555 15.0404 12.3525 15.0191 12.3628C11.7844 13.8565 8.24091 13.8565 4.96792 12.3628C4.94667 12.3533 4.92142 12.3565 4.90317 12.3715C4.80317 12.454 4.69817 12.5358 4.59342 12.6143C4.55717 12.6413 4.56017 12.6975 4.59967 12.7205C5.09792 13.0063 5.61592 13.2578 6.15991 13.464C6.19517 13.4775 6.21192 13.5178 6.19442 13.552C5.90042 14.1343 5.55742 14.688 5.17292 15.2133C5.15617 15.2345 5.12867 15.2443 5.10267 15.2363C3.47642 14.7308 1.81917 13.9685 0.108676 12.7125C0.0944255 12.7015 0.0841756 12.684 0.0826756 12.6658C-0.265824 8.93554 0.444425 5.15855 3.03717 1.2863C3.04342 1.27605 3.05292 1.26805 3.06392 1.2633C4.33967 0.677803 5.70642 0.247053 7.13491 0.00105388C7.16091 -0.00294612 7.18691 0.00905386 7.20041 0.0320538C7.37691 0.344553 7.57866 0.745303 7.71516 1.0728C9.22091 0.842803 10.7502 0.842803 12.2874 1.0728C12.4239 0.752303 12.6187 0.344553 12.7944 0.0320538C12.8007 0.0206438 12.8104 0.0115027 12.8221 0.00593556C12.8339 0.000368429 12.8471 -0.00134011 12.8599 0.00105388C14.2892 0.247803 15.6559 0.678553 16.9306 1.2633C16.9419 1.26805 16.9511 1.27605 16.9566 1.28705ZM8.48066 8.37954C8.49641 7.27679 7.69241 6.36429 6.68316 6.36429C5.68217 6.36429 4.88592 7.26879 4.88592 8.37954C4.88592 9.49004 5.69792 10.3945 6.68316 10.3945C7.68441 10.3945 8.48066 9.49004 8.48066 8.37954ZM15.1261 8.37954C15.1419 7.27679 14.3379 6.36429 13.3289 6.36429C12.3277 6.36429 11.5314 7.26879 11.5314 8.37954C11.5314 9.49004 12.3434 10.3945 13.3289 10.3945C14.3379 10.3945 15.1261 9.49004 15.1261 8.37954Z"
    fill="currentColor" />
</svg>