<svg width="20" height="20" viewBox="0 0 20 20" fill="none" xmlns="http://www.w3.org/2000/svg">
<ellipse opacity="0.12" cx="9.99996" cy="10" rx="3.33333" ry="8.33333" transform="rotate(-90 9.99996 10)" fill="#2F384C"/>
<path d="M18.3333 9.99996C18.3333 14.6023 14.6023 18.3333 9.99996 18.3333M18.3333 9.99996C18.3333 5.39759 14.6023 1.66663 9.99996 1.66663M18.3333 9.99996C18.3333 8.15901 14.6023 6.66663 9.99996 6.66663C5.39759 6.66663 1.66663 8.15901 1.66663 9.99996M18.3333 9.99996C18.3333 11.8409 14.6023 13.3333 9.99996 13.3333C5.39759 13.3333 1.66663 11.8409 1.66663 9.99996M9.99996 18.3333C5.39759 18.3333 1.66663 14.6023 1.66663 9.99996M9.99996 18.3333C11.8409 18.3333 13.3333 14.6023 13.3333 9.99996C13.3333 5.39759 11.8409 1.66663 9.99996 1.66663M9.99996 18.3333C8.15901 18.3333 6.66663 14.6023 6.66663 9.99996C6.66663 5.39759 8.15901 1.66663 9.99996 1.66663M1.66663 9.99996C1.66663 5.39759 5.39759 1.66663 9.99996 1.66663" stroke="#1C1C1C" stroke-width="1.25" stroke-linecap="round" stroke-linejoin="round"/>
</svg>
