<svg width="61" height="60" viewBox="0 0 61 60" fill="none" xmlns="http://www.w3.org/2000/svg">
<g filter="url(#filter0_d_575_12277)">
<path d="M5.66666 12.9114C5.66666 10.1422 5.66666 8.75764 6.20557 7.69996C6.67961 6.7696 7.43601 6.0132 8.36637 5.53916C9.42405 5.00024 10.8086 5.00024 13.5778 5.00024H17.7555C20.5247 5.00024 21.9093 5.00024 22.9669 5.53916C23.8973 6.0132 24.6537 6.7696 25.1277 7.69996C25.6667 8.75764 25.6667 10.1422 25.6667 12.9114V17.0891C25.6667 19.8583 25.6667 21.2429 25.1277 22.3005C24.6537 23.2309 23.8973 23.9873 22.9669 24.4613C21.9093 25.0002 20.5247 25.0002 17.7555 25.0002H13.5778C10.8086 25.0002 9.42405 25.0002 8.36637 24.4613C7.43601 23.9873 6.67961 23.2309 6.20557 22.3005C5.66666 21.2429 5.66666 19.8583 5.66666 17.0891V12.9114Z" fill="#F8DA1B"/>
<path d="M6.02769 51.8865C5.66666 50.8751 5.66666 49.5121 5.66666 47.0891V42.9114C5.66665 40.1422 5.66665 38.7576 6.20557 37.7C6.26482 37.5837 6.32849 37.4701 6.39636 37.3594C6.87143 36.5849 7.55231 35.9539 8.36637 35.5392C9.42405 35.0002 10.8086 35.0002 13.5778 35.0002H17.7555C20.5247 35.0002 21.9093 35.0002 22.9669 35.5392C23.8973 36.0132 24.6537 36.7696 25.1277 37.7C25.6667 38.7576 25.6667 40.1422 25.6667 42.9114V47.0891C25.6667 49.8583 25.6667 51.2429 25.1277 52.3005C24.6537 53.2309 23.8973 53.9873 22.9669 54.4613C22.8347 54.5287 22.6974 54.5876 22.5529 54.6392C21.5415 55.0002 20.1785 55.0002 17.7555 55.0002H13.5778C13.4047 55.0002 13.237 55.0002 13.0745 55.0001C10.6368 54.9981 9.35794 54.9666 8.36637 54.4613C8.30822 54.4317 8.25076 54.401 8.19399 54.3692C7.34257 53.8921 6.64998 53.1727 6.20557 52.3005C6.19715 52.284 6.18886 52.2674 6.1807 52.2507C6.12358 52.1339 6.07281 52.0129 6.02769 51.8865Z" fill="#F8DA1B"/>
<path d="M36.2056 37.7C35.6667 38.7576 35.6667 40.1422 35.6667 42.9114V47.0891C35.6667 49.8583 35.6667 51.2429 36.2056 52.3005C36.6796 53.2309 37.436 53.9873 38.3664 54.4613C39.424 55.0002 40.8086 55.0002 43.5778 55.0002H47.7555C50.1785 55.0002 51.5415 55.0002 52.5529 54.6392C52.6974 54.5876 52.8347 54.5287 52.9669 54.4613C53.8973 53.9873 54.6537 53.2309 55.1277 52.3005C55.1951 52.1683 55.2541 52.031 55.3056 51.8865C55.6667 50.8751 55.6667 49.5121 55.6667 47.0891V42.9114C55.6667 42.7383 55.6667 42.5706 55.6665 42.4081C55.6646 39.9704 55.633 38.6915 55.1277 37.7C55.0981 37.6418 55.0674 37.5843 55.0356 37.5276C54.5585 36.6762 53.8391 35.9836 52.9669 35.5392C52.8347 35.4718 52.6974 35.4128 52.5529 35.3613C51.5415 35.0002 50.1785 35.0002 47.7555 35.0002H43.5778C43.4047 35.0002 43.237 35.0002 43.0745 35.0004C40.6368 35.0023 39.3579 35.0339 38.3664 35.5392C38.3082 35.5688 38.2508 35.5995 38.194 35.6313C37.3426 36.1084 36.65 36.8277 36.2056 37.7Z" fill="#F8DA1B"/>
<path d="M5.66666 12.9114C5.66666 10.1422 5.66666 8.75764 6.20557 7.69996C6.67961 6.7696 7.43601 6.0132 8.36637 5.53916C9.42405 5.00024 10.8086 5.00024 13.5778 5.00024H17.7555C20.5247 5.00024 21.9093 5.00024 22.9669 5.53916C23.8973 6.0132 24.6537 6.7696 25.1277 7.69996C25.6667 8.75764 25.6667 10.1422 25.6667 12.9114V17.0891C25.6667 19.8583 25.6667 21.2429 25.1277 22.3005C24.6537 23.2309 23.8973 23.9873 22.9669 24.4613C21.9093 25.0002 20.5247 25.0002 17.7555 25.0002H13.5778C10.8086 25.0002 9.42405 25.0002 8.36637 24.4613C7.43601 23.9873 6.67961 23.2309 6.20557 22.3005C5.66666 21.2429 5.66666 19.8583 5.66666 17.0891V12.9114Z" stroke="#0A0517" stroke-width="2" stroke-linecap="round" stroke-linejoin="round"/>
<path d="M6.02769 51.8865C5.66666 50.8751 5.66666 49.5121 5.66666 47.0891V42.9114C5.66665 40.1422 5.66665 38.7576 6.20557 37.7C6.26482 37.5837 6.32849 37.4701 6.39636 37.3594C6.87143 36.5849 7.55231 35.9539 8.36637 35.5392C9.42405 35.0002 10.8086 35.0002 13.5778 35.0002H17.7555C20.5247 35.0002 21.9093 35.0002 22.9669 35.5392C23.8973 36.0132 24.6537 36.7696 25.1277 37.7C25.6667 38.7576 25.6667 40.1422 25.6667 42.9114V47.0891C25.6667 49.8583 25.6667 51.2429 25.1277 52.3005C24.6537 53.2309 23.8973 53.9873 22.9669 54.4613C22.8347 54.5287 22.6974 54.5876 22.5529 54.6392C21.5415 55.0002 20.1785 55.0002 17.7555 55.0002H13.5778C13.4047 55.0002 13.237 55.0002 13.0745 55.0001C10.6368 54.9981 9.35794 54.9666 8.36637 54.4613C8.30822 54.4317 8.25076 54.401 8.19399 54.3692C7.34257 53.8921 6.64998 53.1727 6.20557 52.3005C6.19715 52.284 6.18886 52.2674 6.1807 52.2507C6.12358 52.1339 6.07281 52.0129 6.02769 51.8865Z" stroke="#0A0517" stroke-width="2" stroke-linecap="round" stroke-linejoin="round"/>
<path d="M36.2056 37.7C35.6667 38.7576 35.6667 40.1422 35.6667 42.9114V47.0891C35.6667 49.8583 35.6667 51.2429 36.2056 52.3005C36.6796 53.2309 37.436 53.9873 38.3664 54.4613C39.424 55.0002 40.8086 55.0002 43.5778 55.0002H47.7555C50.1785 55.0002 51.5415 55.0002 52.5529 54.6392C52.6974 54.5876 52.8347 54.5287 52.9669 54.4613C53.8973 53.9873 54.6537 53.2309 55.1277 52.3005C55.1951 52.1683 55.2541 52.031 55.3056 51.8865C55.6667 50.8751 55.6667 49.5121 55.6667 47.0891V42.9114C55.6667 42.7383 55.6667 42.5706 55.6665 42.4081C55.6646 39.9704 55.633 38.6915 55.1277 37.7C55.0981 37.6418 55.0674 37.5843 55.0356 37.5276C54.5585 36.6762 53.8391 35.9836 52.9669 35.5392C52.8347 35.4718 52.6974 35.4128 52.5529 35.3613C51.5415 35.0002 50.1785 35.0002 47.7555 35.0002H43.5778C43.4047 35.0002 43.237 35.0002 43.0745 35.0004C40.6368 35.0023 39.3579 35.0339 38.3664 35.5392C38.3082 35.5688 38.2508 35.5995 38.194 35.6313C37.3426 36.1084 36.65 36.8277 36.2056 37.7Z" stroke="#0A0517" stroke-width="2" stroke-linecap="round" stroke-linejoin="round"/>
</g>
<path d="M35.6667 15.0002H45.6667M45.6667 15.0002H55.6667M45.6667 15.0002V25.0002M45.6667 15.0002V5.00024" stroke="#0A0517" stroke-width="2" stroke-linecap="round" stroke-linejoin="round"/>
<defs>
<filter id="filter0_d_575_12277" x="4.66666" y="4.00024" width="54" height="54" filterUnits="userSpaceOnUse" color-interpolation-filters="sRGB">
<feFlood flood-opacity="0" result="BackgroundImageFix"/>
<feColorMatrix in="SourceAlpha" type="matrix" values="0 0 0 0 0 0 0 0 0 0 0 0 0 0 0 0 0 0 127 0" result="hardAlpha"/>
<feOffset dx="2" dy="2"/>
<feColorMatrix type="matrix" values="0 0 0 0 0.0392157 0 0 0 0 0.0196078 0 0 0 0 0.0901961 0 0 0 1 0"/>
<feBlend mode="normal" in2="BackgroundImageFix" result="effect1_dropShadow_575_12277"/>
<feBlend mode="normal" in="SourceGraphic" in2="effect1_dropShadow_575_12277" result="shape"/>
</filter>
</defs>
</svg>
