<svg width="100" height="100" viewBox="0 0 100 100" fill="none" xmlns="http://www.w3.org/2000/svg">
<g clip-path="url(#clip0_760_11798)">
<path d="M49.6991 46.2502L95.4997 71.9713L49.6991 99.0002L4.24943 71.9713L49.6991 46.2502Z" fill="#FAE76C"/>
<path d="M50.0001 46V1L95.5001 27L95.0001 72.5L50.0001 46Z" fill="#EAECF0"/>
<path d="M49.5 46V1L4 27L4.5 72.5L49.5 46Z" fill="white"/>
<path d="M97 72.4995L96.676 26.9621L96.2564 26.3932L50.2794 0H49.4358L3.41959 26.3932L3 27.0493L3.29992 72.5495L3.5743 73.4934L49.6503 100H50.4932L96.7037 73.4636L97 72.4995ZM94.7919 27.4532L95.0291 70.9984L50.2906 45.4646V1.88217L94.7919 27.4532ZM49.2446 1.88217V45.4851L16.1367 64.6387L5.03045 70.9783L4.82978 27.4517L49.2446 1.88217ZM50.0713 98.078L5.7924 72.507L6.43819 72.1328L49.968 46.9952L89.7487 69.789L94.4698 72.508L50.0713 98.078Z" fill="#131313"/>
<path d="M20.7427 48.0876L19.9531 47.6066V30.7085L20.1735 30.2261L36.9483 20.377L37.7371 20.8587V37.7567L37.5174 38.2392L20.7427 48.0876ZM20.9988 31.0283V46.63L36.6907 37.4369V21.8352L20.9988 31.0283Z" fill="#131313"/>
<path d="M83.2452 65.4592C82.9358 65.4592 82.722 65.2092 82.722 64.8997L82.7227 31.3488L61.8003 19.5866V52.053C61.8003 52.3611 61.5872 52.611 61.2771 52.611C60.9662 52.611 60.7539 52.3611 60.7539 52.053V18.6267L61.6135 18.1414L83.4886 30.5381L83.7688 31.0235V64.8999C83.7688 65.2109 83.5565 65.4608 83.2456 65.4608L83.2452 65.4592Z" fill="#131313"/>
<path d="M80.691 81.5733C80.6436 81.5733 80.5962 81.5609 80.5509 81.5355L34.4039 55.0065C34.2696 54.9302 34.2237 54.7595 34.3017 54.6251C34.3791 54.4914 34.5506 54.447 34.6848 54.5233L80.8319 81.0523C80.9661 81.1286 81.0121 81.2993 80.934 81.4338C80.8822 81.5231 80.7873 81.5733 80.691 81.5733Z" fill="#131313"/>
<path d="M65.4445 90.6057C65.3964 90.6057 65.3482 90.5934 65.303 90.5679L19.1578 64.039C19.0235 63.9627 18.9776 63.792 19.0556 63.6575C19.133 63.5238 19.3045 63.4795 19.4388 63.5558L65.5858 90.0847C65.72 90.161 65.766 90.3318 65.6879 90.4662C65.6361 90.5563 65.5413 90.605 65.4449 90.605L65.4445 90.6057Z" fill="#131313"/>
<path d="M19.646 81.575C19.5497 81.575 19.4548 81.5249 19.403 81.4355C19.3256 81.3032 19.3709 81.131 19.5051 81.054L65.3477 54.5176C65.4805 54.4406 65.652 54.4842 65.7308 54.6194C65.8081 54.7516 65.7629 54.9238 65.6286 55.0008L19.7861 81.5372C19.7408 81.5634 19.6934 81.5757 19.646 81.5757V81.575Z" fill="#131313"/>
<path d="M35.4526 90.6543C35.3563 90.6543 35.2621 90.6042 35.2096 90.5148C35.1322 90.3811 35.1775 90.2104 35.3117 90.1334L81.1543 63.597C81.2871 63.52 81.4585 63.5635 81.5374 63.6987C81.6147 63.8309 81.5695 64.0031 81.4352 64.0802L35.5945 90.6166C35.5508 90.6427 35.5026 90.6543 35.453 90.6543H35.4526Z" fill="#131313"/>
<path d="M71.7381 59.3114C71.4272 59.3114 71.2149 59.0615 71.2149 58.7534V25.236C71.2149 24.9279 71.4272 24.678 71.7381 24.678C72.0475 24.678 72.2613 24.9279 72.2613 25.236V58.7553C72.2613 59.0626 72.0475 59.3126 71.7381 59.3126V59.3114Z" fill="#131313"/>
</g>
<defs>
<clipPath id="clip0_760_11798">
<rect width="100" height="100" fill="white"/>
</clipPath>
</defs>
</svg>
