<svg width="20" height="20" viewBox="0 0 20 20" fill="none" xmlns="http://www.w3.org/2000/svg">
<path fill-rule="evenodd" clip-rule="evenodd" d="M4.40468 3.57748C5.15089 3.19727 6.12772 3.19727 8.08139 3.19727H11.9186C13.8723 3.19727 14.8491 3.19727 15.5953 3.57748C16.2517 3.91192 16.7853 4.44557 17.1198 5.10195C17.5 5.84815 17.5 6.82499 17.5 8.77866V11.2205C17.5 13.1742 17.5 14.151 17.1198 14.8972C16.7853 15.5536 16.2517 16.0873 15.5953 16.4217C14.8491 16.8019 13.8723 16.8019 11.9186 16.8019H8.08139C6.12772 16.8019 5.15089 16.8019 4.40468 16.4217C3.7483 16.0873 3.21465 15.5536 2.88021 14.8972C2.5 14.151 2.5 13.1742 2.5 11.2205V8.77866C2.5 6.82499 2.5 5.84815 2.88021 5.10195C3.21465 4.44557 3.7483 3.91192 4.40468 3.57748ZM6.1042 6.77352C5.86375 6.61322 5.53888 6.67819 5.37858 6.91864C5.21828 7.15909 5.28325 7.48397 5.5237 7.64427L6.30256 8.16352C7.34788 8.86055 7.96995 9.27536 8.64145 9.47768C9.52748 9.74463 10.4725 9.74463 11.3586 9.47768C12.03 9.27536 12.6521 8.86056 13.6974 8.16352L14.4763 7.64427C14.7167 7.48397 14.7817 7.15909 14.6214 6.91864C14.4611 6.67819 14.1362 6.61322 13.8958 6.77352L13.1981 7.23863C12.0468 8.00621 11.5605 8.32386 11.0567 8.47566C10.3675 8.68329 9.63248 8.68329 8.94335 8.47566C8.43954 8.32386 7.95324 8.00621 6.80188 7.23863L6.1042 6.77352Z" fill="#1C1C1C"/>
</svg>
