<svg width="702" height="641" viewBox="0 0 702 641" fill="none" xmlns="http://www.w3.org/2000/svg">
<path d="M69.3236 246.443C31.3011 110.536 114.882 0.362284 256.007 0.362284C397.132 0.362284 542.36 110.536 580.383 246.443L700.665 676.377H189.606L69.3236 246.443Z" stroke="#131313" stroke-width="0.752391"/>
<g clip-path="url(#clip0_760_11391)">
<path d="M103.419 257.35C70.176 138.527 143.251 42.2014 266.637 42.2014C390.023 42.2014 516.995 138.527 550.239 257.35L658.584 644.617H211.765L103.419 257.35Z" fill="#FBEC95"/>
<mask id="mask0_760_11391" style="mask-type:alpha" maskUnits="userSpaceOnUse" x="95" y="42" width="564" height="603">
<path d="M103.419 257.35C70.176 138.527 143.251 42.2014 266.637 42.2014C390.023 42.2014 516.995 138.527 550.239 257.35L658.584 644.617H211.765L103.419 257.35Z" fill="#D9D9D9"/>
</mask>
<g mask="url(#mask0_760_11391)">
<path d="M-80.7006 64.3305C-58.1382 34.5894 -27.255 34.5894 11.9488 64.3305C51.1526 94.0716 82.0357 94.0716 104.598 64.3305C127.161 34.5894 158.044 34.5894 197.248 64.3305C236.451 94.0716 267.335 94.0716 289.897 64.3305C312.46 34.5894 343.343 34.5894 382.546 64.3305C421.75 94.0716 452.633 94.0716 475.196 64.3305C497.758 34.5894 528.642 34.5894 567.845 64.3305C607.049 94.0716 637.932 94.0716 660.495 64.3305C683.057 34.5894 713.94 34.5894 753.144 64.3305C792.348 94.0716 823.231 94.0716 845.794 64.3305C868.356 34.5894 899.239 34.5894 938.443 64.3305C977.647 94.0716 1008.53 94.0716 1031.09 64.3305C1053.65 34.5894 1084.54 34.5894 1123.74 64.3305C1162.95 94.0716 1193.83 94.0716 1216.39 64.3305C1238.95 34.5894 1269.84 34.5894 1309.04 64.3305C1348.24 94.0716 1379.13 94.0716 1401.69 64.3305C1424.25 34.5894 1455.14 34.5894 1494.34 64.3305C1533.54 94.0716 1564.43 94.0716 1586.99 64.3305C1609.55 34.5894 1640.43 34.5894 1679.64 64.3305C1718.84 94.0716 1749.73 94.0716 1772.29 64.3305C1794.85 34.5894 1825.73 34.5894 1864.94 64.3305C1904.14 94.0716 1935.02 94.0716 1957.59 64.3305C1980.15 34.5894 2011.03 34.5894 2050.24 64.3305C2089.44 94.0716 2120.32 94.0716 2142.89 64.3305C2165.45 34.5894 2196.33 34.5894 2235.53 64.3305C2274.74 94.0716 2305.62 94.0716 2328.18 64.3305C2350.75 34.5894 2381.63 34.5894 2420.83 64.3305C2460.04 94.0716 2490.92 94.0716 2513.48 64.3305C2536.05 34.5894 2566.93 34.5894 2606.13 64.3305C2645.34 94.0716 2676.22 94.0716 2698.78 64.3305C2721.34 34.5894 2752.23 34.5894 2791.43 64.3305C2830.64 94.0716 2861.52 94.0716 2884.08 64.3305C2906.64 34.5894 2937.53 34.5894 2976.73 64.3305C3015.93 94.0716 3046.82 94.0716 3069.38 64.3305C3091.94 34.5894 3122.83 34.5894 3162.03 64.3305C3201.23 94.0716 3232.12 94.0716 3254.68 64.3305C3277.24 34.5894 3308.12 34.5894 3347.33 64.3305C3386.53 94.0716 3417.41 94.0716 3439.98 64.3305C3462.54 34.5894 3493.42 34.5894 3532.63 64.3305C3571.83 94.0716 3602.71 94.0716 3625.28 64.3305C3647.84 34.5894 3678.72 34.5894 3717.93 64.3305C3757.13 94.0716 3788.01 94.0716 3810.58 64.3305C3833.14 34.5894 3864.02 34.5894 3903.22 64.3305C3942.43 94.0716 3973.31 94.0716 3995.87 64.3305C4018.44 34.5894 4049.32 34.5894 4088.52 64.3305C4127.73 94.0716 4158.61 94.0716 4181.17 64.3305C4203.74 34.5894 4234.62 34.5894 4273.82 64.3305C4313.03 94.0716 4343.91 94.0716 4366.47 64.3305C4389.03 34.5894 4419.92 34.5894 4459.12 64.3305C4498.32 94.0716 4529.21 94.0716 4551.77 64.3305" stroke="#131313" stroke-width="1.12859"/>
<path d="M-65.9504 117.053C-43.3879 87.3123 -12.5047 87.3123 26.6991 117.053C65.9029 146.795 96.786 146.795 119.348 117.053C141.911 87.3123 172.794 87.3123 211.998 117.053C251.202 146.795 282.085 146.795 304.647 117.053C327.21 87.3123 358.093 87.3123 397.297 117.053C436.501 146.795 467.384 146.795 489.946 117.053C512.509 87.3123 543.392 87.3123 582.596 117.053C621.799 146.795 652.683 146.795 675.245 117.053C697.807 87.3123 728.691 87.3123 767.894 117.053C807.098 146.795 837.981 146.795 860.544 117.053C883.106 87.3123 913.989 87.3123 953.193 117.053C992.397 146.795 1023.28 146.795 1045.84 117.053C1068.41 87.3123 1099.29 87.3123 1138.49 117.053C1177.7 146.795 1208.58 146.795 1231.14 117.053C1253.7 87.3123 1284.59 87.3123 1323.79 117.053C1362.99 146.795 1393.88 146.795 1416.44 117.053C1439 87.3123 1469.89 87.3123 1509.09 117.053C1548.29 146.795 1579.18 146.795 1601.74 117.053C1624.3 87.3123 1655.18 87.3123 1694.39 117.053C1733.59 146.795 1764.48 146.795 1787.04 117.053C1809.6 87.3123 1840.48 87.3123 1879.69 117.053C1918.89 146.795 1949.77 146.795 1972.34 117.053C1994.9 87.3123 2025.78 87.3123 2064.99 117.053C2104.19 146.795 2135.07 146.795 2157.64 117.053C2180.2 87.3123 2211.08 87.3123 2250.29 117.053C2289.49 146.795 2320.37 146.795 2342.93 117.053C2365.5 87.3123 2396.38 87.3123 2435.58 117.053C2474.79 146.795 2505.67 146.795 2528.23 117.053C2550.8 87.3123 2581.68 87.3123 2620.88 117.053C2660.09 146.795 2690.97 146.795 2713.53 117.053C2736.09 87.3123 2766.98 87.3123 2806.18 117.053C2845.39 146.795 2876.27 146.795 2898.83 117.053C2921.39 87.3123 2952.28 87.3123 2991.48 117.053C3030.68 146.795 3061.57 146.795 3084.13 117.053C3106.69 87.3123 3137.58 87.3123 3176.78 117.053C3215.98 146.795 3246.87 146.795 3269.43 117.053C3291.99 87.3123 3322.87 87.3123 3362.08 117.053C3401.28 146.795 3432.17 146.795 3454.73 117.053C3477.29 87.3123 3508.17 87.3123 3547.38 117.053C3586.58 146.795 3617.46 146.795 3640.03 117.053C3662.59 87.3123 3693.47 87.3123 3732.68 117.053C3771.88 146.795 3802.76 146.795 3825.33 117.053C3847.89 87.3123 3878.77 87.3123 3917.97 117.053C3957.18 146.795 3988.06 146.795 4010.62 117.053C4033.19 87.3123 4064.07 87.3123 4103.27 117.053C4142.48 146.795 4173.36 146.795 4195.92 117.053C4218.49 87.3123 4249.37 87.3123 4288.57 117.053C4327.78 146.795 4358.66 146.795 4381.22 117.053C4403.78 87.3123 4434.67 87.3123 4473.87 117.053C4513.08 146.795 4543.96 146.795 4566.52 117.053" stroke="#131313" stroke-width="1.12859"/>
<path d="M-51.2001 169.776C-28.6376 140.035 2.2455 140.035 41.4493 169.776C80.6531 199.517 111.536 199.517 134.099 169.776C156.661 140.035 187.544 140.035 226.748 169.776C265.952 199.517 296.835 199.517 319.398 169.776C341.96 140.035 372.843 140.035 412.047 169.776C451.251 199.517 482.134 199.517 504.696 169.776C527.259 140.035 558.142 140.035 597.346 169.776C636.55 199.517 667.433 199.517 689.995 169.776C712.558 140.035 743.441 140.035 782.645 169.776C821.848 199.517 852.732 199.517 875.294 169.776C897.857 140.035 928.74 140.035 967.944 169.776C1007.15 199.517 1038.03 199.517 1060.59 169.776C1083.16 140.035 1114.04 140.035 1153.24 169.776C1192.45 199.517 1223.33 199.517 1245.89 169.776C1268.45 140.035 1299.34 140.035 1338.54 169.776C1377.75 199.517 1408.63 199.517 1431.19 169.776C1453.75 140.035 1484.64 140.035 1523.84 169.776C1563.04 199.517 1593.93 199.517 1616.49 169.776C1639.05 140.035 1669.94 140.035 1709.14 169.776C1748.34 199.517 1779.23 199.517 1801.79 169.776C1824.35 140.035 1855.23 140.035 1894.44 169.776C1933.64 199.517 1964.52 199.517 1987.09 169.776C2009.65 140.035 2040.53 140.035 2079.74 169.776C2118.94 199.517 2149.82 199.517 2172.39 169.776C2194.95 140.035 2225.83 140.035 2265.04 169.776C2304.24 199.517 2335.12 199.517 2357.68 169.776C2380.25 140.035 2411.13 140.035 2450.33 169.776C2489.54 199.517 2520.42 199.517 2542.98 169.776C2565.55 140.035 2596.43 140.035 2635.63 169.776C2674.84 199.517 2705.72 199.517 2728.28 169.776C2750.85 140.035 2781.73 140.035 2820.93 169.776C2860.14 199.517 2891.02 199.517 2913.58 169.776C2936.14 140.035 2967.03 140.035 3006.23 169.776C3045.43 199.517 3076.32 199.517 3098.88 169.776C3121.44 140.035 3152.33 140.035 3191.53 169.776C3230.73 199.517 3261.62 199.517 3284.18 169.776C3306.74 140.035 3337.62 140.035 3376.83 169.776C3416.03 199.517 3446.92 199.517 3469.48 169.776C3492.04 140.035 3522.92 140.035 3562.13 169.776C3601.33 199.517 3632.21 199.517 3654.78 169.776C3677.34 140.035 3708.22 140.035 3747.43 169.776C3786.63 199.517 3817.51 199.517 3840.08 169.776C3862.64 140.035 3893.52 140.035 3932.73 169.776C3971.93 199.517 4002.81 199.517 4025.37 169.776C4047.94 140.035 4078.82 140.035 4118.02 169.776C4157.23 199.517 4188.11 199.517 4210.67 169.776C4233.24 140.035 4264.12 140.035 4303.32 169.776C4342.53 199.517 4373.41 199.517 4395.97 169.776C4418.53 140.035 4449.42 140.035 4488.62 169.776C4527.83 199.517 4558.71 199.517 4581.27 169.776" stroke="#131313" stroke-width="1.12859"/>
<path d="M-36.4498 222.499C-13.8874 192.758 16.9958 192.758 56.1996 222.499C95.4034 252.24 126.287 252.24 148.849 222.499C171.411 192.758 202.295 192.758 241.498 222.499C280.702 252.24 311.585 252.24 334.148 222.499C356.71 192.758 387.593 192.758 426.797 222.499C466.001 252.24 496.884 252.24 519.447 222.499C542.009 192.758 572.892 192.758 612.096 222.499C651.3 252.24 682.183 252.24 704.746 222.499C727.308 192.758 758.191 192.758 797.395 222.499C836.599 252.24 867.482 252.24 890.044 222.499C912.607 192.758 943.49 192.758 982.694 222.499C1021.9 252.24 1052.78 252.24 1075.34 222.499C1097.91 192.758 1128.79 192.758 1167.99 222.499C1207.2 252.24 1238.08 252.24 1260.64 222.499C1283.2 192.758 1314.09 192.758 1353.29 222.499C1392.5 252.24 1423.38 252.24 1445.94 222.499C1468.5 192.758 1499.39 192.758 1538.59 222.499C1577.79 252.24 1608.68 252.24 1631.24 222.499C1653.8 192.758 1684.69 192.758 1723.89 222.499C1763.09 252.24 1793.98 252.24 1816.54 222.499C1839.1 192.758 1869.98 192.758 1909.19 222.499C1948.39 252.24 1979.27 252.24 2001.84 222.499C2024.4 192.758 2055.28 192.758 2094.49 222.499C2133.69 252.24 2164.57 252.24 2187.14 222.499C2209.7 192.758 2240.58 192.758 2279.79 222.499C2318.99 252.24 2349.87 252.24 2372.44 222.499C2395 192.758 2425.88 192.758 2465.08 222.499C2504.29 252.24 2535.17 252.24 2557.73 222.499C2580.3 192.758 2611.18 192.758 2650.38 222.499C2689.59 252.24 2720.47 252.24 2743.03 222.499C2765.6 192.758 2796.48 192.758 2835.68 222.499C2874.89 252.24 2905.77 252.24 2928.33 222.499C2950.89 192.758 2981.78 192.758 3020.98 222.499C3060.18 252.24 3091.07 252.24 3113.63 222.499C3136.19 192.758 3167.08 192.758 3206.28 222.499C3245.48 252.24 3276.37 252.24 3298.93 222.499C3321.49 192.758 3352.37 192.758 3391.58 222.499C3430.78 252.24 3461.67 252.24 3484.23 222.499C3506.79 192.758 3537.67 192.758 3576.88 222.499C3616.08 252.24 3646.96 252.24 3669.53 222.499C3692.09 192.758 3722.97 192.758 3762.18 222.499C3801.38 252.24 3832.26 252.24 3854.83 222.499C3877.39 192.758 3908.27 192.758 3947.48 222.499C3986.68 252.24 4017.56 252.24 4040.12 222.499C4062.69 192.758 4093.57 192.758 4132.77 222.499C4171.98 252.24 4202.86 252.24 4225.42 222.499C4247.99 192.758 4278.87 192.758 4318.07 222.499C4357.28 252.24 4388.16 252.24 4410.72 222.499C4433.28 192.758 4464.17 192.758 4503.37 222.499C4542.58 252.24 4573.46 252.24 4596.02 222.499" stroke="#131313" stroke-width="1.12859"/>
<path d="M-21.6996 275.222C0.862881 245.481 31.746 245.481 70.9498 275.222C110.154 304.963 141.037 304.963 163.599 275.222C186.162 245.481 217.045 245.481 256.249 275.222C295.452 304.963 326.336 304.963 348.898 275.222C371.461 245.481 402.344 245.481 441.548 275.222C480.751 304.963 511.634 304.963 534.197 275.222C556.759 245.481 587.643 245.481 626.846 275.222C666.05 304.963 696.933 304.963 719.496 275.222C742.058 245.481 772.941 245.481 812.145 275.222C851.349 304.963 882.232 304.963 904.795 275.222C927.357 245.481 958.24 245.481 997.444 275.222C1036.65 304.963 1067.53 304.963 1090.09 275.222C1112.66 245.481 1143.54 245.481 1182.74 275.222C1221.95 304.963 1252.83 304.963 1275.39 275.222C1297.95 245.481 1328.84 245.481 1368.04 275.222C1407.25 304.963 1438.13 304.963 1460.69 275.222C1483.25 245.481 1514.14 245.481 1553.34 275.222C1592.54 304.963 1623.43 304.963 1645.99 275.222C1668.55 245.481 1699.44 245.481 1738.64 275.222C1777.84 304.963 1808.73 304.963 1831.29 275.222C1853.85 245.481 1884.73 245.481 1923.94 275.222C1963.14 304.963 1994.03 304.963 2016.59 275.222C2039.15 245.481 2070.03 245.481 2109.24 275.222C2148.44 304.963 2179.32 304.963 2201.89 275.222C2224.45 245.481 2255.33 245.481 2294.54 275.222C2333.74 304.963 2364.62 304.963 2387.19 275.222C2409.75 245.481 2440.63 245.481 2479.83 275.222C2519.04 304.963 2549.92 304.963 2572.48 275.222C2595.05 245.481 2625.93 245.481 2665.13 275.222C2704.34 304.963 2735.22 304.963 2757.78 275.222C2780.35 245.481 2811.23 245.481 2850.43 275.222C2889.64 304.963 2920.52 304.963 2943.08 275.222C2965.64 245.481 2996.53 245.481 3035.73 275.222C3074.94 304.963 3105.82 304.963 3128.38 275.222C3150.94 245.481 3181.83 245.481 3221.03 275.222C3260.23 304.963 3291.12 304.963 3313.68 275.222C3336.24 245.481 3367.13 245.481 3406.33 275.222C3445.53 304.963 3476.42 304.963 3498.98 275.222C3521.54 245.481 3552.42 245.481 3591.63 275.222C3630.83 304.963 3661.71 304.963 3684.28 275.222C3706.84 245.481 3737.72 245.481 3776.93 275.222C3816.13 304.963 3847.01 304.963 3869.58 275.222C3892.14 245.481 3923.02 245.481 3962.23 275.222C4001.43 304.963 4032.31 304.963 4054.87 275.222C4077.44 245.481 4108.32 245.481 4147.52 275.222C4186.73 304.963 4217.61 304.963 4240.17 275.222C4262.74 245.481 4293.62 245.481 4332.82 275.222C4372.03 304.963 4402.91 304.963 4425.47 275.222C4448.04 245.481 4478.92 245.481 4518.12 275.222C4557.33 304.963 4588.21 304.963 4610.77 275.222" stroke="#131313" stroke-width="1.12859"/>
<path d="M-6.94932 327.945C15.6132 298.204 46.4963 298.204 85.7001 327.945C124.904 357.686 155.787 357.686 178.35 327.945C200.912 298.204 231.795 298.204 270.999 327.945C310.203 357.686 341.086 357.686 363.648 327.945C386.211 298.204 417.094 298.204 456.298 327.945C495.502 357.686 526.385 357.686 548.947 327.945C571.51 298.204 602.393 298.204 641.597 327.945C680.8 357.686 711.684 357.686 734.246 327.945C756.809 298.204 787.692 298.204 826.895 327.945C866.099 357.686 896.982 357.686 919.545 327.945C942.107 298.204 972.991 298.204 1012.19 327.945C1051.4 357.686 1082.28 357.686 1104.84 327.945C1127.41 298.204 1158.29 298.204 1197.49 327.945C1236.7 357.686 1267.58 357.686 1290.14 327.945C1312.71 298.204 1343.59 298.204 1382.79 327.945C1422 357.686 1452.88 357.686 1475.44 327.945C1498 298.204 1528.89 298.204 1568.09 327.945C1607.29 357.686 1638.18 357.686 1660.74 327.945C1683.3 298.204 1714.19 298.204 1753.39 327.945C1792.59 357.686 1823.48 357.686 1846.04 327.945C1868.6 298.204 1899.48 298.204 1938.69 327.945C1977.89 357.686 2008.78 357.686 2031.34 327.945C2053.9 298.204 2084.78 298.204 2123.99 327.945C2163.19 357.686 2194.07 357.686 2216.64 327.945C2239.2 298.204 2270.08 298.204 2309.29 327.945C2348.49 357.686 2379.37 357.686 2401.94 327.945C2424.5 298.204 2455.38 298.204 2494.59 327.945C2533.79 357.686 2564.67 357.686 2587.23 327.945C2609.8 298.204 2640.68 298.204 2679.88 327.945C2719.09 357.686 2749.97 357.686 2772.53 327.945C2795.1 298.204 2825.98 298.204 2865.18 327.945C2904.39 357.686 2935.27 357.686 2957.83 327.945C2980.39 298.204 3011.28 298.204 3050.48 327.945C3089.69 357.686 3120.57 357.686 3143.13 327.945C3165.69 298.204 3196.58 298.204 3235.78 327.945C3274.98 357.686 3305.87 357.686 3328.43 327.945C3350.99 298.204 3381.88 298.204 3421.08 327.945C3460.28 357.686 3491.17 357.686 3513.73 327.945C3536.29 298.204 3567.17 298.204 3606.38 327.945C3645.58 357.686 3676.47 357.686 3699.03 327.945C3721.59 298.204 3752.47 298.204 3791.68 327.945C3830.88 357.686 3861.76 357.686 3884.33 327.945C3906.89 298.204 3937.77 298.204 3976.98 327.945C4016.18 357.686 4047.06 357.686 4069.63 327.945C4092.19 298.204 4123.07 298.204 4162.27 327.945C4201.48 357.686 4232.36 357.686 4254.92 327.945C4277.49 298.204 4308.37 298.204 4347.57 327.945C4386.78 357.686 4417.66 357.686 4440.22 327.945C4462.79 298.204 4493.67 298.204 4532.87 327.945C4572.08 357.686 4602.96 357.686 4625.52 327.945" stroke="#131313" stroke-width="1.12859"/>
<path d="M7.80092 380.668C30.3634 350.927 61.2465 350.927 100.45 380.668C139.654 410.409 170.537 410.409 193.1 380.668C215.662 350.927 246.545 350.927 285.749 380.668C324.953 410.409 355.836 410.409 378.399 380.668C400.961 350.927 431.844 350.927 471.048 380.668C510.252 410.409 541.135 410.409 563.697 380.668C586.26 350.927 617.143 350.927 656.347 380.668C695.551 410.409 726.434 410.409 748.996 380.668C771.559 350.927 802.442 350.927 841.646 380.668C880.85 410.409 911.733 410.409 934.295 380.668C956.858 350.927 987.741 350.927 1026.94 380.668C1066.15 410.409 1097.03 410.409 1119.59 380.668C1142.16 350.927 1173.04 350.927 1212.24 380.668C1251.45 410.409 1282.33 410.409 1304.89 380.668C1327.46 350.927 1358.34 350.927 1397.54 380.668C1436.75 410.409 1467.63 410.409 1490.19 380.668C1512.75 350.927 1543.64 350.927 1582.84 380.668C1622.04 410.409 1652.93 410.409 1675.49 380.668C1698.05 350.927 1728.94 350.927 1768.14 380.668C1807.34 410.409 1838.23 410.409 1860.79 380.668C1883.35 350.927 1914.23 350.927 1953.44 380.668C1992.64 410.409 2023.53 410.409 2046.09 380.668C2068.65 350.927 2099.53 350.927 2138.74 380.668C2177.94 410.409 2208.82 410.409 2231.39 380.668C2253.95 350.927 2284.83 350.927 2324.04 380.668C2363.24 410.409 2394.12 410.409 2416.69 380.668C2439.25 350.927 2470.13 350.927 2509.34 380.668C2548.54 410.409 2579.42 410.409 2601.98 380.668C2624.55 350.927 2655.43 350.927 2694.63 380.668C2733.84 410.409 2764.72 410.409 2787.28 380.668C2809.85 350.927 2840.73 350.927 2879.93 380.668C2919.14 410.409 2950.02 410.409 2972.58 380.668C2995.14 350.927 3026.03 350.927 3065.23 380.668C3104.44 410.409 3135.32 410.409 3157.88 380.668C3180.44 350.927 3211.33 350.927 3250.53 380.668C3289.73 410.409 3320.62 410.409 3343.18 380.668C3365.74 350.927 3396.63 350.927 3435.83 380.668C3475.03 410.409 3505.92 410.409 3528.48 380.668C3551.04 350.927 3581.92 350.927 3621.13 380.668C3660.33 410.409 3691.22 410.409 3713.78 380.668C3736.34 350.927 3767.22 350.927 3806.43 380.668C3845.63 410.409 3876.51 410.409 3899.08 380.668C3921.64 350.927 3952.52 350.927 3991.73 380.668C4030.93 410.409 4061.81 410.409 4084.38 380.668C4106.94 350.927 4137.82 350.927 4177.02 380.668C4216.23 410.409 4247.11 410.409 4269.67 380.668C4292.24 350.927 4323.12 350.927 4362.32 380.668C4401.53 410.409 4432.41 410.409 4454.97 380.668C4477.54 350.927 4508.42 350.927 4547.62 380.668C4586.83 410.409 4617.71 410.409 4640.27 380.668" stroke="#131313" stroke-width="1.12859"/>
<path d="M22.5512 433.391C45.1137 403.65 75.9968 403.65 115.201 433.391C154.404 463.132 185.288 463.132 207.85 433.391C230.413 403.65 261.296 403.65 300.499 433.391C339.703 463.132 370.586 463.132 393.149 433.391C415.711 403.65 446.595 403.65 485.798 433.391C525.002 463.132 555.885 463.132 578.448 433.391C601.01 403.65 631.893 403.65 671.097 433.391C710.301 463.132 741.184 463.132 763.747 433.391C786.309 403.65 817.192 403.65 856.396 433.391C895.6 463.132 926.483 463.132 949.045 433.391C971.608 403.65 1002.49 403.65 1041.69 433.391C1080.9 463.132 1111.78 463.132 1134.34 433.391C1156.91 403.65 1187.79 403.65 1226.99 433.391C1266.2 463.132 1297.08 463.132 1319.64 433.391C1342.21 403.65 1373.09 403.65 1412.29 433.391C1451.5 463.132 1482.38 463.132 1504.94 433.391C1527.5 403.65 1558.39 403.65 1597.59 433.391C1636.8 463.132 1667.68 463.132 1690.24 433.391C1712.8 403.65 1743.69 403.65 1782.89 433.391C1822.09 463.132 1852.98 463.132 1875.54 433.391C1898.1 403.65 1928.99 403.65 1968.19 433.391C2007.39 463.132 2038.28 463.132 2060.84 433.391C2083.4 403.65 2114.28 403.65 2153.49 433.391C2192.69 463.132 2223.57 463.132 2246.14 433.391C2268.7 403.65 2299.58 403.65 2338.79 433.391C2377.99 463.132 2408.87 463.132 2431.44 433.391C2454 403.65 2484.88 403.65 2524.09 433.391C2563.29 463.132 2594.17 463.132 2616.74 433.391C2639.3 403.65 2670.18 403.65 2709.38 433.391C2748.59 463.132 2779.47 463.132 2802.03 433.391C2824.6 403.65 2855.48 403.65 2894.68 433.391C2933.89 463.132 2964.77 463.132 2987.33 433.391C3009.9 403.65 3040.78 403.65 3079.98 433.391C3119.19 463.132 3150.07 463.132 3172.63 433.391C3195.19 403.65 3226.08 403.65 3265.28 433.391C3304.48 463.132 3335.37 463.132 3357.93 433.391C3380.49 403.65 3411.38 403.65 3450.58 433.391C3489.78 463.132 3520.67 463.132 3543.23 433.391C3565.79 403.65 3596.67 403.65 3635.88 433.391C3675.08 463.132 3705.97 463.132 3728.53 433.391C3751.09 403.65 3781.97 403.65 3821.18 433.391C3860.38 463.132 3891.26 463.132 3913.83 433.391C3936.39 403.65 3967.27 403.65 4006.48 433.391C4045.68 463.132 4076.56 463.132 4099.13 433.391C4121.69 403.65 4152.57 403.65 4191.78 433.391C4230.98 463.132 4261.86 463.132 4284.42 433.391C4306.99 403.65 4337.87 403.65 4377.07 433.391C4416.28 463.132 4447.16 463.132 4469.72 433.391C4492.29 403.65 4523.17 403.65 4562.37 433.391C4601.58 463.132 4632.46 463.132 4655.02 433.391" stroke="#131313" stroke-width="1.12859"/>
<path d="M37.3015 486.114C59.8639 456.373 90.7471 456.373 129.951 486.114C169.155 515.855 200.038 515.855 222.6 486.114C245.163 456.373 276.046 456.373 315.25 486.114C354.454 515.855 385.337 515.855 407.899 486.114C430.462 456.373 461.345 456.373 500.549 486.114C539.752 515.855 570.636 515.855 593.198 486.114C615.76 456.373 646.644 456.373 685.847 486.114C725.051 515.855 755.934 515.855 778.497 486.114C801.059 456.373 831.942 456.373 871.146 486.114C910.35 515.855 941.233 515.855 963.796 486.114C986.358 456.373 1017.24 456.373 1056.45 486.114C1095.65 515.855 1126.53 515.855 1149.09 486.114C1171.66 456.373 1202.54 456.373 1241.74 486.114C1280.95 515.855 1311.83 515.855 1334.39 486.114C1356.96 456.373 1387.84 456.373 1427.04 486.114C1466.25 515.855 1497.13 515.855 1519.69 486.114C1542.25 456.373 1573.14 456.373 1612.34 486.114C1651.55 515.855 1682.43 515.855 1704.99 486.114C1727.55 456.373 1758.44 456.373 1797.64 486.114C1836.84 515.855 1867.73 515.855 1890.29 486.114C1912.85 456.373 1943.74 456.373 1982.94 486.114C2022.14 515.855 2053.03 515.855 2075.59 486.114C2098.15 456.373 2129.03 456.373 2168.24 486.114C2207.44 515.855 2238.33 515.855 2260.89 486.114C2283.45 456.373 2314.33 456.373 2353.54 486.114C2392.74 515.855 2423.62 515.855 2446.19 486.114C2468.75 456.373 2499.63 456.373 2538.84 486.114C2578.04 515.855 2608.92 515.855 2631.49 486.114C2654.05 456.373 2684.93 456.373 2724.13 486.114C2763.34 515.855 2794.22 515.855 2816.78 486.114C2839.35 456.373 2870.23 456.373 2909.43 486.114C2948.64 515.855 2979.52 515.855 3002.08 486.114C3024.65 456.373 3055.53 456.373 3094.73 486.114C3133.94 515.855 3164.82 515.855 3187.38 486.114C3209.94 456.373 3240.83 456.373 3280.03 486.114C3319.24 515.855 3350.12 515.855 3372.68 486.114C3395.24 456.373 3426.13 456.373 3465.33 486.114C3504.53 515.855 3535.42 515.855 3557.98 486.114C3580.54 456.373 3611.43 456.373 3650.63 486.114C3689.83 515.855 3720.72 515.855 3743.28 486.114C3765.84 456.373 3796.72 456.373 3835.93 486.114C3875.13 515.855 3906.01 515.855 3928.58 486.114C3951.14 456.373 3982.02 456.373 4021.23 486.114C4060.43 515.855 4091.31 515.855 4113.88 486.114C4136.44 456.373 4167.32 456.373 4206.53 486.114C4245.73 515.855 4276.61 515.855 4299.17 486.114C4321.74 456.373 4352.62 456.373 4391.82 486.114C4431.03 515.855 4461.91 515.855 4484.47 486.114C4507.04 456.373 4537.92 456.373 4577.12 486.114C4616.33 515.855 4647.21 515.855 4669.77 486.114" stroke="#131313" stroke-width="1.12859"/>
<path d="M52.0518 538.837C74.6143 509.096 105.497 509.096 144.701 538.837C183.905 568.578 214.788 568.578 237.351 538.837C259.913 509.096 290.796 509.096 330 538.837C369.204 568.578 400.087 568.578 422.649 538.837C445.212 509.096 476.095 509.096 515.299 538.837C554.503 568.578 585.386 568.578 607.948 538.837C630.511 509.096 661.394 509.096 700.598 538.837C739.802 568.578 770.685 568.578 793.247 538.837C815.81 509.096 846.693 509.096 885.897 538.837C925.1 568.578 955.984 568.578 978.546 538.837C1001.11 509.096 1031.99 509.096 1071.2 538.837C1110.4 568.578 1141.28 568.578 1163.84 538.837C1186.41 509.096 1217.29 509.096 1256.49 538.837C1295.7 568.578 1326.58 568.578 1349.14 538.837C1371.71 509.096 1402.59 509.096 1441.79 538.837C1481 568.578 1511.88 568.578 1534.44 538.837C1557.01 509.096 1587.89 509.096 1627.09 538.837C1666.3 568.578 1697.18 568.578 1719.74 538.837C1742.3 509.096 1773.19 509.096 1812.39 538.837C1851.59 568.578 1882.48 568.578 1905.04 538.837C1927.6 509.096 1958.49 509.096 1997.69 538.837C2036.89 568.578 2067.78 568.578 2090.34 538.837C2112.9 509.096 2143.78 509.096 2182.99 538.837C2222.19 568.578 2253.08 568.578 2275.64 538.837C2298.2 509.096 2329.08 509.096 2368.29 538.837C2407.49 568.578 2438.37 568.578 2460.94 538.837C2483.5 509.096 2514.38 509.096 2553.59 538.837C2592.79 568.578 2623.67 568.578 2646.24 538.837C2668.8 509.096 2699.68 509.096 2738.89 538.837C2778.09 568.578 2808.97 568.578 2831.53 538.837C2854.1 509.096 2884.98 509.096 2924.18 538.837C2963.39 568.578 2994.27 568.578 3016.83 538.837C3039.4 509.096 3070.28 509.096 3109.48 538.837C3148.69 568.578 3179.57 568.578 3202.13 538.837C3224.69 509.096 3255.58 509.096 3294.78 538.837C3333.99 568.578 3364.87 568.578 3387.43 538.837C3409.99 509.096 3440.88 509.096 3480.08 538.837C3519.28 568.578 3550.17 568.578 3572.73 538.837C3595.29 509.096 3626.18 509.096 3665.38 538.837C3704.58 568.578 3735.47 568.578 3758.03 538.837C3780.59 509.096 3811.47 509.096 3850.68 538.837C3889.88 568.578 3920.77 568.578 3943.33 538.837C3965.89 509.096 3996.77 509.096 4035.98 538.837C4075.18 568.578 4106.06 568.578 4128.63 538.837C4151.19 509.096 4182.07 509.096 4221.28 538.837C4260.48 568.578 4291.36 568.578 4313.93 538.837C4336.49 509.096 4367.37 509.096 4406.57 538.837C4445.78 568.578 4476.66 568.578 4499.22 538.837C4521.79 509.096 4552.67 509.096 4591.87 538.837C4631.08 568.578 4661.96 568.578 4684.52 538.837" stroke="#131313" stroke-width="1.12859"/>
<path d="M66.802 591.56C89.3645 561.819 120.248 561.819 159.451 591.56C198.655 621.301 229.538 621.301 252.101 591.56C274.663 561.819 305.546 561.819 344.75 591.56C383.954 621.301 414.837 621.301 437.4 591.56C459.962 561.819 490.845 561.819 530.049 591.56C569.253 621.301 600.136 621.301 622.699 591.56C645.261 561.819 676.144 561.819 715.348 591.56C754.552 621.301 785.435 621.301 807.997 591.56C830.56 561.819 861.443 561.819 900.647 591.56C939.851 621.301 970.734 621.301 993.296 591.56C1015.86 561.819 1046.74 561.819 1085.95 591.56C1125.15 621.301 1156.03 621.301 1178.6 591.56C1201.16 561.819 1232.04 561.819 1271.24 591.56C1310.45 621.301 1341.33 621.301 1363.89 591.56C1386.46 561.819 1417.34 561.819 1456.54 591.56C1495.75 621.301 1526.63 621.301 1549.19 591.56C1571.76 561.819 1602.64 561.819 1641.84 591.56C1681.05 621.301 1711.93 621.301 1734.49 591.56C1757.05 561.819 1787.94 561.819 1827.14 591.56C1866.34 621.301 1897.23 621.301 1919.79 591.56C1942.35 561.819 1973.24 561.819 2012.44 591.56C2051.64 621.301 2082.53 621.301 2105.09 591.56C2127.65 561.819 2158.53 561.819 2197.74 591.56C2236.94 621.301 2267.83 621.301 2290.39 591.56C2312.95 561.819 2343.83 561.819 2383.04 591.56C2422.24 621.301 2453.12 621.301 2475.69 591.56C2498.25 561.819 2529.13 561.819 2568.34 591.56C2607.54 621.301 2638.42 621.301 2660.99 591.56C2683.55 561.819 2714.43 561.819 2753.64 591.56C2792.84 621.301 2823.72 621.301 2846.28 591.56C2868.85 561.819 2899.73 561.819 2938.93 591.56C2978.14 621.301 3009.02 621.301 3031.58 591.56C3054.15 561.819 3085.03 561.819 3124.23 591.56C3163.44 621.301 3194.32 621.301 3216.88 591.56C3239.44 561.819 3270.33 561.819 3309.53 591.56C3348.74 621.301 3379.62 621.301 3402.18 591.56C3424.74 561.819 3455.63 561.819 3494.83 591.56C3534.03 621.301 3564.92 621.301 3587.48 591.56C3610.04 561.819 3640.93 561.819 3680.13 591.56C3719.33 621.301 3750.22 621.301 3772.78 591.56C3795.34 561.819 3826.22 561.819 3865.43 591.56C3904.63 621.301 3935.52 621.301 3958.08 591.56C3980.64 561.819 4011.52 561.819 4050.73 591.56C4089.93 621.301 4120.81 621.301 4143.38 591.56C4165.94 561.819 4196.82 561.819 4236.03 591.56C4275.23 621.301 4306.11 621.301 4328.68 591.56C4351.24 561.819 4382.12 561.819 4421.32 591.56C4460.53 621.301 4491.41 621.301 4513.97 591.56C4536.54 561.819 4567.42 561.819 4606.62 591.56C4645.83 621.301 4676.71 621.301 4699.27 591.56" stroke="#131313" stroke-width="1.12859"/>
<path d="M81.5523 644.283C104.115 614.542 134.998 614.542 174.202 644.283C213.406 674.024 244.289 674.024 266.851 644.283C289.414 614.542 320.297 614.542 359.501 644.283C398.704 674.024 429.588 674.024 452.15 644.283C474.712 614.542 505.596 614.542 544.799 644.283C584.003 674.024 614.886 674.024 637.449 644.283C660.011 614.542 690.894 614.542 730.098 644.283C769.302 674.024 800.185 674.024 822.748 644.283C845.31 614.542 876.193 614.542 915.397 644.283C954.601 674.024 985.484 674.024 1008.05 644.283C1030.61 614.542 1061.49 614.542 1100.7 644.283C1139.9 674.024 1170.78 674.024 1193.35 644.283C1215.91 614.542 1246.79 614.542 1285.99 644.283C1325.2 674.024 1356.08 674.024 1378.64 644.283C1401.21 614.542 1432.09 614.542 1471.29 644.283C1510.5 674.024 1541.38 674.024 1563.94 644.283C1586.51 614.542 1617.39 614.542 1656.59 644.283C1695.8 674.024 1726.68 674.024 1749.24 644.283C1771.8 614.542 1802.69 614.542 1841.89 644.283C1881.1 674.024 1911.98 674.024 1934.54 644.283C1957.1 614.542 1987.99 614.542 2027.19 644.283C2066.39 674.024 2097.28 674.024 2119.84 644.283C2142.4 614.542 2173.29 614.542 2212.49 644.283C2251.69 674.024 2282.58 674.024 2305.14 644.283C2327.7 614.542 2358.58 614.542 2397.79 644.283C2436.99 674.024 2467.87 674.024 2490.44 644.283C2513 614.542 2543.88 614.542 2583.09 644.283C2622.29 674.024 2653.17 674.024 2675.74 644.283C2698.3 614.542 2729.18 614.542 2768.39 644.283C2807.59 674.024 2838.47 674.024 2861.03 644.283C2883.6 614.542 2914.48 614.542 2953.68 644.283C2992.89 674.024 3023.77 674.024 3046.33 644.283C3068.9 614.542 3099.78 614.542 3138.98 644.283C3178.19 674.024 3209.07 674.024 3231.63 644.283C3254.2 614.542 3285.08 614.542 3324.28 644.283C3363.49 674.024 3394.37 674.024 3416.93 644.283C3439.49 614.542 3470.38 614.542 3509.58 644.283C3548.78 674.024 3579.67 674.024 3602.23 644.283C3624.79 614.542 3655.68 614.542 3694.88 644.283C3734.08 674.024 3764.97 674.024 3787.53 644.283C3810.09 614.542 3840.97 614.542 3880.18 644.283C3919.38 674.024 3950.27 674.024 3972.83 644.283C3995.39 614.542 4026.27 614.542 4065.48 644.283C4104.68 674.024 4135.56 674.024 4158.13 644.283C4180.69 614.542 4211.57 614.542 4250.78 644.283C4289.98 674.024 4320.86 674.024 4343.43 644.283C4365.99 614.542 4396.87 614.542 4436.08 644.283C4475.28 674.024 4506.16 674.024 4528.72 644.283C4551.29 614.542 4582.17 614.542 4621.37 644.283C4660.58 674.024 4691.46 674.024 4714.02 644.283" stroke="#131313" stroke-width="1.12859"/>
</g>
</g>
<g filter="url(#filter0_d_760_11391)">
<rect width="244.44" height="123.392" rx="18.0574" transform="matrix(1 0 0.269424 0.963022 205 501.039)" fill="white"/>
<g clip-path="url(#clip1_760_11391)">
<path d="M282.332 557.736L322.006 576.373L293.025 595.957L253.35 576.373L282.332 557.736Z" fill="#FAE76C"/>
<path d="M282.508 557.555L273.386 524.949L312.89 543.788L321.737 576.756L282.508 557.555Z" fill="#EAECF0"/>
<path d="M282.131 557.555L273.009 524.949L244.046 543.788L253.646 576.756L282.131 557.555Z" fill="white"/>
<path d="M323.242 576.756L313.767 543.761L313.336 543.348L273.393 524.225H272.758L243.486 543.348L243.304 543.824L252.753 576.792L253.151 577.476L293.191 596.682H293.825L323.214 577.454L323.242 576.756ZM312.449 544.116L321.455 575.668L282.618 557.167L273.783 525.588L312.449 544.116ZM272.996 525.588L281.835 557.182L260.807 571.06L253.736 575.653L244.762 544.115L272.996 525.588ZM293.118 595.289L254.62 576.761L255.03 576.49L282.685 558.276L317.236 574.792L321.34 576.762L293.118 595.289Z" fill="#131313"/>
<path d="M260.918 559.067L260.226 558.719L256.801 546.475L256.869 546.125L267.493 538.989L268.185 539.338L271.61 551.582L271.543 551.932L260.918 559.067ZM257.652 546.707L260.815 558.011L270.758 551.35L267.595 540.046L257.652 546.707Z" fill="#131313"/>
<path d="M311.466 571.654C311.233 571.654 311.021 571.473 310.959 571.249L304.158 546.939L286.032 538.417L292.613 561.941C292.676 562.164 292.566 562.345 292.333 562.345C292.099 562.345 291.888 562.164 291.826 561.941L285.05 537.721L285.598 537.369L304.57 546.352L304.879 546.703L311.746 571.249C311.809 571.474 311.7 571.656 311.466 571.656L311.466 571.654Z" fill="#131313"/>
<path d="M312.81 583.33C312.775 583.33 312.737 583.321 312.697 583.303L272.599 564.081C272.482 564.026 272.413 563.902 272.445 563.804C272.476 563.708 272.596 563.675 272.712 563.731L312.811 582.953C312.927 583.008 312.996 583.132 312.965 583.229C312.944 583.294 312.883 583.33 312.81 583.33Z" fill="#131313"/>
<path d="M303.17 589.875C303.134 589.875 303.095 589.866 303.056 589.847L262.959 570.625C262.842 570.57 262.773 570.446 262.805 570.349C262.836 570.252 262.956 570.22 263.072 570.275L303.171 589.497C303.287 589.553 303.356 589.676 303.325 589.774C303.304 589.839 303.243 589.874 303.17 589.874L303.17 589.875Z" fill="#131313"/>
<path d="M266.881 583.332C266.809 583.332 266.727 583.295 266.67 583.231C266.585 583.135 266.584 583.01 266.669 582.954L295.782 563.727C295.866 563.671 296.004 563.702 296.091 563.8C296.176 563.896 296.176 564.021 296.091 564.077L266.979 583.304C266.95 583.323 266.917 583.332 266.881 583.332L266.881 583.332Z" fill="#131313"/>
<path d="M280.614 589.91C280.542 589.91 280.461 589.874 280.403 589.809C280.318 589.712 280.317 589.588 280.403 589.533L309.515 570.305C309.599 570.249 309.737 570.281 309.824 570.379C309.909 570.475 309.91 570.599 309.824 570.655L280.713 589.883C280.686 589.902 280.652 589.91 280.615 589.91H280.614Z" fill="#131313"/>
<path d="M301.562 567.2C301.328 567.2 301.117 567.019 301.055 566.795L294.26 542.51C294.198 542.287 294.307 542.105 294.541 542.105C294.774 542.105 294.985 542.287 295.048 542.51L301.842 566.797C301.905 567.02 301.795 567.201 301.562 567.201L301.562 567.2Z" fill="#131313"/>
</g>
<path d="M354.869 572.491L346.661 563.031H344.277L346.924 572.491H341.868L335.076 548.215H344.538C346.488 548.215 348.244 548.551 349.804 549.224C351.358 549.873 352.631 550.766 353.623 551.902C354.633 553.015 355.332 554.267 355.721 555.658C356.169 557.258 356.093 558.707 355.493 560.005C354.887 561.281 353.701 562.162 351.935 562.648L360.719 572.491H354.869ZM343.255 559.379H347.481C348.853 559.379 349.789 559.066 350.288 558.44C350.78 557.791 350.868 556.898 350.55 555.762C350.238 554.649 349.661 553.791 348.819 553.189C347.969 552.563 346.858 552.249 345.486 552.249H341.261L343.255 559.379Z" fill="#FAE76C"/>
<path d="M373.614 572.804C371.688 572.804 369.841 572.398 368.073 571.587C366.299 570.752 364.755 569.581 363.443 568.074C362.154 566.567 361.235 564.828 360.683 562.857C360.132 560.886 360.091 559.147 360.56 557.64C361.053 556.133 361.969 554.974 363.307 554.162C364.638 553.328 366.267 552.91 368.193 552.91C370.119 552.91 371.981 553.328 373.78 554.162C375.572 554.974 377.124 556.133 378.437 557.64C379.773 559.147 380.717 560.886 381.269 562.857C381.82 564.828 381.837 566.567 381.32 568.074C380.826 569.581 379.902 570.752 378.546 571.587C377.209 572.398 375.564 572.804 373.614 572.804ZM372.427 568.561C373.342 568.561 374.138 568.352 374.816 567.935C375.512 567.494 375.98 566.845 376.221 565.987C376.463 565.129 376.412 564.086 376.068 562.857C375.556 561.025 374.658 559.623 373.374 558.649C372.108 557.652 370.753 557.153 369.308 557.153C367.863 557.153 366.787 557.652 366.079 558.649C365.388 559.623 365.299 561.025 365.811 562.857C366.324 564.689 367.189 566.103 368.407 567.1C369.643 568.074 370.983 568.561 372.427 568.561Z" fill="#FAE76C"/>
<path d="M396.283 572.804C394.357 572.804 392.51 572.398 390.742 571.587C388.968 570.752 387.424 569.581 386.112 568.074C384.824 566.567 383.904 564.828 383.352 562.857C382.801 560.886 382.76 559.147 383.229 557.64C383.722 556.133 384.638 554.974 385.976 554.162C387.307 553.328 388.936 552.91 390.862 552.91C392.788 552.91 394.651 553.328 396.449 554.162C398.241 554.974 399.793 556.133 401.106 557.64C402.442 559.147 403.386 560.886 403.938 562.857C404.489 564.828 404.506 566.567 403.989 568.074C403.495 569.581 402.571 570.752 401.216 571.587C399.878 572.398 398.234 572.804 396.283 572.804ZM395.096 568.561C396.011 568.561 396.807 568.352 397.485 567.935C398.181 567.494 398.649 566.845 398.891 565.987C399.132 565.129 399.081 564.086 398.737 562.857C398.225 561.025 397.327 559.623 396.043 558.649C394.777 557.652 393.422 557.153 391.977 557.153C390.532 557.153 389.456 557.652 388.748 558.649C388.057 559.623 387.968 561.025 388.481 562.857C388.993 564.689 389.858 566.103 391.076 567.1C392.312 568.074 393.652 568.561 395.096 568.561Z" fill="#FAE76C"/>
<path d="M429.359 552.945C431.815 552.945 433.994 553.675 435.895 555.136C437.814 556.574 439.137 558.591 439.863 561.188L443.026 572.491H437.97L434.992 561.849C434.57 560.341 433.852 559.194 432.837 558.405C431.815 557.594 430.619 557.188 429.246 557.188C427.874 557.188 426.892 557.594 426.3 558.405C425.726 559.194 425.65 560.341 426.072 561.849L429.049 572.491H423.993L421.016 561.849C420.594 560.341 419.876 559.194 418.861 558.405C417.839 557.594 416.642 557.188 415.27 557.188C413.873 557.188 412.879 557.594 412.288 558.405C411.714 559.194 411.638 560.341 412.059 561.849L415.037 572.491H409.981L404.59 553.223H409.646L410.298 555.554C410.721 554.742 411.373 554.104 412.255 553.641C413.16 553.177 414.227 552.945 415.455 552.945C417.02 552.945 418.507 553.27 419.917 553.919C421.32 554.545 422.524 555.449 423.529 556.632C423.867 555.519 424.557 554.626 425.597 553.954C426.66 553.281 427.915 552.945 429.359 552.945Z" fill="#FAE76C"/>
<path fill-rule="evenodd" clip-rule="evenodd" d="M354.515 573.578L346.307 564.118H345.71L348.356 573.578H341.043L333.643 547.128H344.234C346.313 547.128 348.257 547.486 350.037 548.251C351.782 548.982 353.268 550.011 354.442 551.351C355.611 552.642 356.41 554.087 356.85 555.658C357.361 557.484 357.273 559.154 356.588 560.637L356.584 560.644C356.031 561.809 355.078 562.67 353.782 563.25L363 573.578H354.515ZM351.935 562.648C352.293 562.55 352.627 562.435 352.937 562.304C354.158 561.788 355.01 561.022 355.493 560.005C356.093 558.707 356.169 557.258 355.721 555.658C355.332 554.267 354.633 553.015 353.623 551.902C352.631 550.766 351.358 549.873 349.804 549.224C348.244 548.551 346.488 548.215 344.538 548.215H335.076L341.868 572.491H346.924L344.277 563.031H346.661L354.869 572.491H360.719L351.935 562.648ZM348.264 553.978L348.254 553.971C347.771 553.615 347.005 553.336 345.79 553.336H342.693L344.08 558.292H347.177C348.384 558.292 348.994 558.017 349.28 557.664C349.579 557.265 349.677 556.677 349.421 555.762C349.171 554.869 348.759 554.332 348.273 553.985L348.264 553.978ZM350.288 558.44C349.789 559.066 348.853 559.379 347.481 559.379H343.255L341.261 552.249H345.486C346.858 552.249 347.969 552.562 348.819 553.188C349.661 553.791 350.238 554.649 350.55 555.762C350.868 556.898 350.78 557.791 350.288 558.44ZM367.785 572.534C365.801 571.601 364.071 570.287 362.612 568.612L362.603 568.601C361.158 566.91 360.15 564.985 359.555 562.857C358.958 560.724 358.902 558.795 359.429 557.103L359.432 557.092C359.98 555.418 361.004 554.116 362.499 553.208C363.983 552.28 365.789 551.823 367.889 551.823C369.989 551.823 372.051 552.28 374.054 553.208C376.058 554.117 377.8 555.42 379.262 557.097C380.399 558.38 381.27 559.8 381.886 561.343C381.634 559.803 381.699 558.385 382.098 557.103L382.101 557.092C382.649 555.418 383.673 554.116 385.168 553.208C386.652 552.28 388.458 551.823 390.558 551.823C392.658 551.823 394.72 552.28 396.723 553.208C398.727 554.117 400.469 555.42 401.931 557.097C403.431 558.79 404.469 560.721 405.066 562.857C405.665 564.998 405.695 566.933 405.115 568.628C404.565 570.303 403.531 571.612 402.023 572.541L402.018 572.544C400.526 573.449 398.706 573.891 396.587 573.891C394.491 573.891 392.444 573.448 390.468 572.54L390.454 572.534C388.47 571.601 386.74 570.287 385.282 568.612L385.272 568.601C384.178 567.321 383.335 565.907 382.731 564.372C382.975 565.919 382.886 567.343 382.446 568.628C381.896 570.303 380.862 571.612 379.354 572.541L379.349 572.544C377.857 573.449 376.037 573.891 373.918 573.891C371.822 573.891 369.775 573.448 367.798 572.54L367.785 572.534ZM381.32 568.074C381.837 566.567 381.82 564.828 381.269 562.857C380.717 560.886 379.773 559.147 378.437 557.64C377.124 556.133 375.572 554.974 373.78 554.162C371.981 553.328 370.119 552.91 368.193 552.91C366.267 552.91 364.638 553.328 363.307 554.162C361.969 554.974 361.053 556.133 360.56 557.64C360.091 559.147 360.132 560.886 360.683 562.857C361.235 564.828 362.154 566.567 363.443 568.074C364.755 569.581 366.299 570.752 368.073 571.587C369.841 572.398 371.688 572.804 373.614 572.804C375.564 572.804 377.209 572.398 378.546 571.587C379.902 570.752 380.826 569.581 381.32 568.074ZM403.989 568.074C404.506 566.567 404.489 564.828 403.938 562.857C403.386 560.886 402.442 559.147 401.106 557.64C399.793 556.133 398.241 554.974 396.449 554.162C394.651 553.328 392.788 552.91 390.862 552.91C388.936 552.91 387.307 553.328 385.976 554.162C384.638 554.974 383.722 556.133 383.229 557.64C382.76 559.147 382.801 560.886 383.352 562.857C383.904 564.828 384.824 566.567 386.112 568.074C387.424 569.581 388.968 570.752 390.742 571.587C392.51 572.398 394.357 572.804 396.283 572.804C398.234 572.804 399.878 572.398 401.216 571.587C402.571 570.752 403.495 569.581 403.989 568.074ZM372.779 559.408L372.767 559.399C371.777 558.619 370.751 558.24 369.612 558.24C368.473 558.24 367.659 558.619 367.105 559.399C366.604 560.107 366.477 561.202 366.94 562.857C367.403 564.51 368.135 565.626 369.027 566.36C369.975 567.104 370.98 567.474 372.123 567.474C372.849 567.474 373.471 567.311 374.004 566.983C374.526 566.652 374.89 566.16 375.084 565.47C375.271 564.807 375.246 563.952 374.939 562.857C374.48 561.215 373.726 560.127 372.791 559.417L372.779 559.408ZM368.407 567.1C367.189 566.103 366.324 564.689 365.811 562.857C365.299 561.025 365.388 559.623 366.079 558.649C366.787 557.652 367.863 557.153 369.308 557.153C370.752 557.153 372.108 557.652 373.374 558.649C374.658 559.623 375.556 561.025 376.068 562.857C376.412 564.086 376.463 565.129 376.221 565.987C375.98 566.845 375.512 567.494 374.816 567.935C374.138 568.352 373.342 568.561 372.427 568.561C370.983 568.561 369.643 568.074 368.407 567.1ZM395.448 559.408L395.436 559.399C394.446 558.619 393.42 558.24 392.281 558.24C391.142 558.24 390.328 558.619 389.774 559.399C389.273 560.107 389.146 561.202 389.609 562.857C390.072 564.51 390.804 565.626 391.696 566.36C392.644 567.104 393.649 567.474 394.792 567.474C395.518 567.474 396.14 567.311 396.673 566.983C397.195 566.652 397.559 566.16 397.753 565.47C397.94 564.807 397.915 563.952 397.609 562.857C397.149 561.215 396.395 560.127 395.46 559.417L395.448 559.408ZM397.485 567.935C396.807 568.352 396.011 568.561 395.096 568.561C393.652 568.561 392.312 568.074 391.076 567.1C389.858 566.103 388.993 564.689 388.481 562.857C387.968 561.025 388.057 559.623 388.748 558.649C389.456 557.652 390.532 557.153 391.977 557.153C393.422 557.153 394.777 557.652 396.043 558.649C397.327 559.623 398.225 561.025 398.737 562.857C399.081 564.086 399.132 565.129 398.891 565.987C398.649 566.845 398.181 567.494 397.485 567.935ZM411.119 554.453C410.786 554.775 410.513 555.142 410.298 555.553L409.646 553.223H404.59L409.981 572.491H415.037L412.059 561.849C411.638 560.341 411.714 559.194 412.288 558.405C412.879 557.594 413.873 557.188 415.27 557.188C416.642 557.188 417.839 557.594 418.861 558.405C419.876 559.194 420.594 560.341 421.016 561.849L423.993 572.491H429.049L426.072 561.849C425.65 560.341 425.726 559.194 426.3 558.405C426.892 557.594 427.874 557.188 429.246 557.188C430.619 557.188 431.815 557.594 432.837 558.405C433.852 559.194 434.57 560.341 434.992 561.849L437.97 572.491H443.026L439.863 561.188C439.137 558.591 437.814 556.574 435.895 555.136C433.994 553.675 431.815 552.945 429.359 552.945C427.915 552.945 426.66 553.281 425.597 553.954C424.885 554.414 424.338 554.976 423.955 555.643C423.778 555.95 423.636 556.28 423.529 556.632C423.224 556.273 422.901 555.94 422.56 555.633C421.776 554.926 420.894 554.355 419.917 553.919C418.507 553.27 417.02 552.945 415.455 552.945C414.227 552.945 413.16 553.177 412.255 553.641C411.82 553.869 411.442 554.14 411.119 554.453ZM410.747 553.124L410.471 552.136H403.157L409.156 573.578H416.469L413.188 561.849C412.815 560.517 412.931 559.682 413.309 559.162C413.719 558.601 414.421 558.275 415.574 558.275C416.698 558.275 417.551 558.597 418.248 559.151L418.255 559.157L418.263 559.162C418.932 559.682 419.515 560.517 419.887 561.849L423.169 573.578H430.482L427.2 561.849C426.828 560.517 426.943 559.683 427.322 559.163C427.734 558.597 428.427 558.275 429.55 558.275C430.674 558.275 431.528 558.597 432.224 559.151L432.232 559.157L432.239 559.162C432.908 559.682 433.491 560.517 433.864 561.849L437.145 573.578H444.458L440.992 561.188C440.208 558.385 438.733 556.06 436.478 554.367C434.266 552.671 431.759 551.858 429.055 551.858C427.42 551.858 425.989 552.241 424.781 553.004L424.774 553.009C424.039 553.484 423.45 554.064 423.015 554.747C422.165 554.021 421.22 553.425 420.185 552.962C418.565 552.218 416.88 551.858 415.151 551.858C413.771 551.858 412.549 552.12 411.503 552.655L411.495 552.659C411.228 552.8 410.979 552.954 410.747 553.124Z" fill="#131313"/>
<rect x="0.955103" y="0.724569" width="242.935" height="121.887" rx="17.305" transform="matrix(1 0 0.269424 0.963022 204.805 501.065)" stroke="#131313" stroke-width="1.50478"/>
</g>
<g filter="url(#filter1_d_760_11391)">
<rect width="278.385" height="123.392" rx="18.0574" transform="matrix(1 0 0.269424 0.963022 187.808 142)" fill="white"/>
<g filter="url(#filter2_d_760_11391)">
<path d="M292.576 183.904L256.328 166.394L229.877 183.904L239.675 218.925L275.923 236.435L302.374 218.925L292.576 183.904Z" fill="#C1BFFA"/>
<path d="M295.09 215.302L287.319 187.527L258.354 173.64L237.16 187.527L244.931 215.302L274.523 229.19L295.09 215.302Z" fill="#FAE76C"/>
<path d="M260.479 193.733H269.425C270.025 193.733 270.642 194.201 270.804 194.779C270.965 195.356 270.61 195.825 270.01 195.825H262.15L263.416 200.352H271.277C271.877 200.352 272.494 200.82 272.655 201.397C272.817 201.975 272.462 202.443 271.862 202.443H264.001L265.56 208.016C265.722 208.593 265.367 209.061 264.767 209.061C264.168 209.061 263.551 208.593 263.389 208.016L259.686 194.779C259.525 194.201 259.879 193.733 260.479 193.733L260.479 193.733ZM256.375 193.733C255.776 193.733 255.42 194.201 255.582 194.779L258.311 204.534L248.485 194.246C248.113 193.855 247.565 193.678 247.14 193.811C246.714 193.944 246.514 194.356 246.648 194.821L250.339 208.016C250.501 208.593 251.118 209.061 251.717 209.061C252.317 209.061 252.672 208.593 252.511 208.016L249.782 198.261L259.619 208.549C259.989 208.934 260.533 209.109 260.955 208.978C261.391 208.839 261.588 208.409 261.433 207.932L257.754 194.779C257.592 194.201 256.975 193.733 256.375 193.733L256.375 193.733ZM272.377 195.825H275.764L279.175 208.016C279.337 208.593 279.954 209.061 280.553 209.061C281.153 209.061 281.509 208.593 281.347 208.016L277.936 195.825H281.324C281.923 195.825 282.278 195.356 282.116 194.779C281.955 194.201 281.338 193.733 280.738 193.733H271.792C271.193 193.733 270.837 194.201 270.999 194.779C271.16 195.356 271.778 195.825 272.378 195.825H272.377ZM293.988 183.812L303.828 218.984C303.929 219.355 303.819 219.697 303.537 219.883L276.863 237.469C276.579 237.656 276.165 237.656 275.777 237.469L239.231 219.883C238.845 219.697 238.543 219.355 238.437 218.984L228.597 183.812C228.495 183.441 228.606 183.098 228.888 182.913L255.594 165.326C255.877 165.14 256.292 165.14 256.68 165.326L293.225 182.913C293.612 183.098 293.914 183.441 294.02 183.812H293.988ZM291.986 184.418L256.728 167.438L230.938 184.417L240.439 218.378L275.73 235.357L301.52 218.378L291.986 184.418ZM258.706 172.572L287.722 186.53C288.112 186.717 288.416 187.064 288.52 187.439L296.33 215.355C296.437 215.731 296.326 216.077 296.041 216.265L274.835 230.223C274.552 230.41 274.137 230.41 273.749 230.223L244.733 216.265C244.343 216.077 244.039 215.731 243.935 215.355L236.125 187.439C236.018 187.064 236.129 186.717 236.414 186.53L257.62 172.572C257.903 172.385 258.318 172.385 258.706 172.572ZM258.748 174.663L238.463 188.035L245.939 214.759L273.701 228.111L293.992 214.759L286.515 188.035L258.748 174.663Z" fill="#131313"/>
</g>
<path d="M346.3 213.452H341.244L325.134 196.793L329.795 213.452H324.739L317.938 189.142H322.994L339.113 205.836L334.442 189.142H339.498L346.3 213.452Z" fill="#FAE76C"/>
<path d="M359.709 189.176L360.808 193.106H350.299L352.041 199.332H360.094L361.174 203.192H353.121L355.991 213.452H350.935L344.143 189.176H359.709Z" fill="#FAE76C"/>
<path d="M380.087 189.176L381.187 193.106H374.47L380.162 213.452H375.106L369.413 193.106H362.696L361.597 189.176H380.087Z" fill="#FAE76C"/>
<path fill-rule="evenodd" clip-rule="evenodd" d="M347.732 214.539H340.941L327.273 200.405L331.228 214.539H323.915L316.505 188.055H323.297L336.972 202.218L333.009 188.055H340.323L347.732 214.539ZM339.113 205.836L322.994 189.142H317.938L324.739 213.453H329.795L325.134 196.793L341.244 213.453H346.3L339.498 189.142H334.442L339.113 205.836ZM351.732 194.193L352.865 198.245H360.919L362.607 204.279H354.553L357.424 214.539H350.11L342.711 188.09H380.912L382.62 194.193H375.902L381.594 214.539H374.281L368.589 194.193H351.732ZM369.413 193.107L375.106 213.453H380.162L374.47 193.107H381.187L380.087 189.177H361.597L362.696 193.107H369.413ZM353.121 203.193H361.174L360.094 199.332H352.041L350.299 193.107H360.808L359.709 189.177H344.143L350.935 213.453H355.991L353.121 203.193Z" fill="#131313"/>
<rect x="0.955103" y="0.724569" width="276.88" height="121.887" rx="17.305" transform="matrix(1 0 0.269424 0.963022 187.613 142.027)" stroke="#131313" stroke-width="1.50478"/>
</g>
<path d="M362.616 409.269C426.671 371.352 417.569 290.043 389.631 249.615L360.717 268.653C378.7 293.72 396.953 352.059 333.709 393.7C277.809 430.506 300.28 499.907 324.045 528.088L349.104 511.589C349.104 511.589 298.561 447.185 362.616 409.269Z" fill="#C1BFFA" stroke="#131313" stroke-width="0.954376"/>
<path d="M335.412 395.143C399.467 357.227 390.365 275.917 362.427 235.49L333.513 254.528C351.497 279.595 369.749 337.934 306.505 379.575C250.605 416.381 273.076 485.782 296.841 513.963L321.9 497.464C321.9 497.464 271.357 433.06 335.412 395.143Z" fill="#FAE76C" stroke="#131313" stroke-width="0.954376"/>
<rect x="0.955103" y="0.724569" width="265.594" height="99.3156" rx="17.305" transform="matrix(1 0 0.269424 0.963022 203.805 327.169)" fill="white"/>
<path d="M264.039 386.919L257.198 379.036H255.212L257.418 386.919H253.204L247.544 366.689H255.429C257.055 366.689 258.517 366.969 259.818 367.53C261.113 368.071 262.174 368.815 263 369.761C263.842 370.689 264.424 371.732 264.749 372.892C265.122 374.225 265.058 375.432 264.559 376.514C264.053 377.577 263.065 378.311 261.593 378.717L268.914 386.919H264.039ZM254.361 375.993H257.882C259.025 375.993 259.805 375.732 260.221 375.21C260.631 374.669 260.704 373.925 260.439 372.979C260.18 372.051 259.699 371.336 258.997 370.834C258.289 370.312 257.363 370.051 256.22 370.051H252.698L254.361 375.993Z" fill="#131313"/>
<path d="M279.66 387.18C278.055 387.18 276.515 386.842 275.042 386.166C273.563 385.47 272.277 384.494 271.183 383.238C270.11 381.983 269.343 380.533 268.884 378.891C268.424 377.249 268.39 375.8 268.781 374.544C269.192 373.288 269.955 372.322 271.07 371.645C272.18 370.95 273.537 370.602 275.142 370.602C276.747 370.602 278.299 370.95 279.798 371.645C281.291 372.322 282.585 373.288 283.678 374.544C284.792 375.8 285.579 377.249 286.038 378.891C286.498 380.533 286.512 381.983 286.081 383.238C285.67 384.494 284.899 385.47 283.77 386.166C282.655 386.842 281.285 387.18 279.66 387.18ZM278.67 383.644C279.433 383.644 280.096 383.47 280.661 383.123C281.241 382.755 281.631 382.214 281.832 381.499C282.034 380.785 281.991 379.915 281.705 378.891C281.277 377.365 280.529 376.196 279.459 375.384C278.404 374.553 277.275 374.138 276.071 374.138C274.867 374.138 273.97 374.553 273.38 375.384C272.805 376.196 272.73 377.365 273.157 378.891C273.584 380.417 274.305 381.596 275.32 382.427C276.35 383.238 277.467 383.644 278.67 383.644Z" fill="#131313"/>
<path d="M298.551 387.18C296.945 387.18 295.406 386.842 293.933 386.166C292.454 385.47 291.168 384.494 290.074 383.238C289.001 381.983 288.234 380.533 287.775 378.891C287.315 377.249 287.281 375.8 287.672 374.544C288.083 373.288 288.846 372.322 289.961 371.645C291.07 370.95 292.428 370.602 294.033 370.602C295.638 370.602 297.19 370.95 298.689 371.645C300.182 372.322 301.476 373.288 302.569 374.544C303.683 375.8 304.47 377.249 304.929 378.891C305.389 380.533 305.403 381.983 304.972 383.238C304.561 384.494 303.79 385.47 302.661 386.166C301.546 386.842 300.176 387.18 298.551 387.18ZM297.561 383.644C298.324 383.644 298.987 383.47 299.552 383.123C300.132 382.755 300.522 382.214 300.723 381.499C300.925 380.785 300.882 379.915 300.595 378.891C300.168 377.365 299.42 376.196 298.35 375.384C297.295 374.553 296.166 374.138 294.962 374.138C293.758 374.138 292.861 374.553 292.271 375.384C291.695 376.196 291.621 377.365 292.048 378.891C292.475 380.417 293.196 381.596 294.211 382.427C295.241 383.238 296.358 383.644 297.561 383.644Z" fill="#131313"/>
<path d="M326.114 370.631C328.16 370.631 329.976 371.24 331.56 372.457C333.159 373.655 334.262 375.336 334.867 377.5L337.502 386.919H333.289L330.808 378.051C330.457 376.795 329.858 375.838 329.012 375.181C328.161 374.505 327.163 374.167 326.02 374.167C324.876 374.167 324.058 374.505 323.565 375.181C323.086 375.838 323.023 376.795 323.374 378.051L325.855 386.919H321.642L319.161 378.051C318.81 376.795 318.211 375.838 317.365 375.181C316.514 374.505 315.516 374.167 314.373 374.167C313.209 374.167 312.381 374.505 311.888 375.181C311.409 375.838 311.346 376.795 311.697 378.051L314.178 386.919H309.965L305.473 370.863H309.686L310.23 372.805C310.582 372.128 311.126 371.597 311.86 371.211C312.615 370.824 313.504 370.631 314.527 370.631C315.831 370.631 317.07 370.901 318.245 371.442C319.414 371.964 320.418 372.718 321.255 373.703C321.537 372.776 322.112 372.032 322.978 371.471C323.865 370.911 324.91 370.631 326.114 370.631Z" fill="#131313"/>
<path d="M355.38 387.122C353.915 387.122 352.523 386.881 351.205 386.398C349.906 385.915 348.788 385.219 347.852 384.311C346.916 383.403 346.265 382.33 345.898 381.094H350.413C350.705 381.925 351.19 382.582 351.867 383.065C352.564 383.548 353.394 383.789 354.357 383.789C355.34 383.789 356.05 383.567 356.488 383.123C356.92 382.659 357.033 382.06 356.828 381.326C356.66 380.727 356.332 380.234 355.843 379.847C355.353 379.461 354.788 379.162 354.147 378.949C353.52 378.717 352.667 378.466 351.588 378.195C350.116 377.809 348.897 377.432 347.931 377.065C346.981 376.679 346.089 376.109 345.256 375.355C344.438 374.582 343.85 373.558 343.494 372.283C343.159 371.085 343.178 370.042 343.551 369.153C343.924 368.264 344.608 367.588 345.602 367.124C346.59 366.641 347.807 366.399 349.251 366.399C351.418 366.399 353.317 366.911 354.948 367.936C356.593 368.94 357.74 370.351 358.389 372.167H353.754C353.519 371.471 353.049 370.901 352.343 370.457C351.651 369.993 350.834 369.761 349.891 369.761C349.068 369.761 348.463 369.964 348.075 370.37C347.707 370.776 347.631 371.365 347.847 372.138C347.998 372.679 348.306 373.133 348.77 373.5C349.248 373.848 349.791 374.138 350.398 374.37C351.019 374.582 351.872 374.833 352.956 375.123C354.428 375.51 355.65 375.896 356.621 376.283C357.592 376.669 358.496 377.249 359.334 378.022C360.173 378.794 360.767 379.809 361.119 381.065C361.422 382.147 361.412 383.151 361.089 384.079C360.767 385.006 360.122 385.75 359.156 386.311C358.183 386.852 356.925 387.122 355.38 387.122Z" fill="#131313"/>
<path d="M379.265 378.543C379.427 379.123 379.533 379.645 379.582 380.108H367.393C367.818 381.268 368.493 382.176 369.419 382.833C370.346 383.49 371.35 383.818 372.434 383.818C373.999 383.818 374.931 383.171 375.231 381.876H379.776C379.727 383.422 379.16 384.697 378.077 385.702C376.989 386.687 375.451 387.18 373.465 387.18C371.86 387.18 370.32 386.842 368.847 386.166C367.389 385.47 366.122 384.494 365.049 383.238C363.995 381.983 363.239 380.533 362.779 378.891C362.314 377.229 362.257 375.771 362.608 374.515C362.959 373.259 363.672 372.293 364.747 371.616C365.821 370.94 367.181 370.602 368.827 370.602C370.412 370.602 371.918 370.93 373.346 371.587C374.794 372.244 376.029 373.181 377.052 374.399C378.089 375.597 378.827 376.978 379.265 378.543ZM374.576 377.384C374.264 376.341 373.641 375.51 372.705 374.891C371.764 374.254 370.742 373.935 369.639 373.935C368.595 373.935 367.799 374.244 367.25 374.862C366.715 375.461 366.519 376.302 366.661 377.384H374.576Z" fill="#131313"/>
<path d="M384.801 373.355C385.105 372.505 385.621 371.839 386.348 371.356C387.096 370.872 388.031 370.631 389.155 370.631L390.347 374.891H389.233C387.909 374.891 386.99 375.191 386.475 375.79C385.981 376.389 385.942 377.432 386.358 378.92L388.596 386.919H384.382L379.89 370.863H384.104L384.801 373.355Z" fill="#131313"/>
<path d="M402.155 383.18L402.922 370.863H407.407L405.729 386.919H400.613L389.981 370.863H394.496L402.155 383.18Z" fill="#131313"/>
<path d="M411.074 368.95C410.331 368.95 409.647 368.728 409.021 368.283C408.41 367.82 408.01 367.25 407.821 366.573C407.631 365.897 407.715 365.337 408.073 364.892C408.444 364.429 409.002 364.197 409.744 364.197C410.486 364.197 411.163 364.429 411.774 364.892C412.4 365.337 412.808 365.897 412.997 366.573C413.186 367.25 413.095 367.82 412.723 368.283C412.366 368.728 411.816 368.95 411.074 368.95ZM413.685 370.863L418.178 386.919H413.964L409.472 370.863H413.685Z" fill="#131313"/>
<path d="M418.71 378.891C418.245 377.229 418.191 375.78 418.547 374.544C418.898 373.288 419.601 372.322 420.655 371.645C421.705 370.95 423.032 370.602 424.637 370.602C426.704 370.602 428.55 371.104 430.175 372.109C431.815 373.094 433.117 374.486 434.081 376.283H429.537C429.102 375.587 428.539 375.046 427.849 374.66C427.174 374.254 426.415 374.051 425.572 374.051C424.368 374.051 423.534 374.476 423.07 375.326C422.6 376.157 422.581 377.345 423.014 378.891C423.441 380.417 424.124 381.606 425.064 382.456C425.999 383.287 427.068 383.702 428.272 383.702C429.978 383.702 430.886 382.968 430.996 381.499H435.541C435.566 383.238 435.04 384.62 433.962 385.644C432.884 386.668 431.322 387.18 429.275 387.18C427.67 387.18 426.151 386.842 424.718 386.166C423.279 385.47 422.036 384.504 420.988 383.267C419.934 382.012 419.175 380.553 418.71 378.891Z" fill="#131313"/>
<path d="M452.999 378.543C453.161 379.123 453.267 379.645 453.316 380.108H441.128C441.552 381.268 442.228 382.176 443.154 382.833C444.08 383.49 445.085 383.818 446.168 383.818C447.733 383.818 448.666 383.171 448.966 381.876H453.51C453.461 383.422 452.895 384.697 451.811 385.702C450.723 386.687 449.185 387.18 447.199 387.18C445.594 387.18 444.055 386.842 442.581 386.166C441.123 385.47 439.857 384.494 438.783 383.238C437.729 381.983 436.973 380.533 436.513 378.891C436.049 377.229 435.992 375.771 436.342 374.515C436.693 373.259 437.406 372.293 438.481 371.616C439.556 370.94 440.916 370.602 442.561 370.602C444.146 370.602 445.652 370.93 447.08 371.587C448.528 372.244 449.763 373.181 450.786 374.399C451.823 375.597 452.561 376.978 452.999 378.543ZM448.311 377.384C447.999 376.341 447.375 375.51 446.44 374.891C445.499 374.254 444.477 373.935 443.373 373.935C442.33 373.935 441.533 374.244 440.984 374.862C440.449 375.461 440.253 376.302 440.395 377.384H448.311Z" fill="#131313"/>
<rect x="0.955103" y="0.724569" width="265.594" height="99.3156" rx="17.305" transform="matrix(1 0 0.269424 0.963022 203.805 327.169)" stroke="#131313" stroke-width="1.50478"/>
<defs>
<filter id="filter0_d_760_11391" x="205" y="501.039" width="282.199" height="123.344" filterUnits="userSpaceOnUse" color-interpolation-filters="sRGB">
<feFlood flood-opacity="0" result="BackgroundImageFix"/>
<feColorMatrix in="SourceAlpha" type="matrix" values="0 0 0 0 0 0 0 0 0 0 0 0 0 0 0 0 0 0 127 0" result="hardAlpha"/>
<feOffset dx="4.51435" dy="4.51435"/>
<feColorMatrix type="matrix" values="0 0 0 0 0.0745098 0 0 0 0 0.0745098 0 0 0 0 0.0745098 0 0 0 1 0"/>
<feBlend mode="normal" in2="BackgroundImageFix" result="effect1_dropShadow_760_11391"/>
<feBlend mode="normal" in="SourceGraphic" in2="effect1_dropShadow_760_11391" result="shape"/>
</filter>
<filter id="filter1_d_760_11391" x="187.808" y="142" width="316.144" height="123.344" filterUnits="userSpaceOnUse" color-interpolation-filters="sRGB">
<feFlood flood-opacity="0" result="BackgroundImageFix"/>
<feColorMatrix in="SourceAlpha" type="matrix" values="0 0 0 0 0 0 0 0 0 0 0 0 0 0 0 0 0 0 127 0" result="hardAlpha"/>
<feOffset dx="4.51435" dy="4.51435"/>
<feColorMatrix type="matrix" values="0 0 0 0 0.0745098 0 0 0 0 0.0745098 0 0 0 0 0.0745098 0 0 0 1 0"/>
<feBlend mode="normal" in2="BackgroundImageFix" result="effect1_dropShadow_760_11391"/>
<feBlend mode="normal" in="SourceGraphic" in2="effect1_dropShadow_760_11391" result="shape"/>
</filter>
<filter id="filter2_d_760_11391" x="228.56" y="165.186" width="79.0672" height="76.1848" filterUnits="userSpaceOnUse" color-interpolation-filters="sRGB">
<feFlood flood-opacity="0" result="BackgroundImageFix"/>
<feColorMatrix in="SourceAlpha" type="matrix" values="0 0 0 0 0 0 0 0 0 0 0 0 0 0 0 0 0 0 127 0" result="hardAlpha"/>
<feOffset dx="3.76195" dy="3.76195"/>
<feColorMatrix type="matrix" values="0 0 0 0 0.976471 0 0 0 0 0.894118 0 0 0 0 0.313726 0 0 0 1 0"/>
<feBlend mode="normal" in2="BackgroundImageFix" result="effect1_dropShadow_760_11391"/>
<feBlend mode="normal" in="SourceGraphic" in2="effect1_dropShadow_760_11391" result="shape"/>
</filter>
<clipPath id="clip0_760_11391">
<rect width="446.82" height="625.547" fill="white" transform="matrix(1 0 0.269424 0.963022 43.2271 42.2014)"/>
</clipPath>
<clipPath id="clip1_760_11391">
<rect width="75.2391" height="75.2391" fill="white" transform="matrix(1 0 0.269424 0.963022 235.563 524.225)"/>
</clipPath>
</defs>
</svg>
