<svg width="702" height="641" viewBox="0 0 702 641" fill="none" xmlns="http://www.w3.org/2000/svg">
<path d="M69.3236 246.443C31.3011 110.536 114.882 0.362284 256.007 0.362284C397.132 0.362284 542.36 110.536 580.383 246.443L700.665 676.377H189.606L69.3236 246.443Z" stroke="#131313" stroke-width="0.752391"/>
<g clip-path="url(#clip0_760_11391)">
<path d="M103.419 257.35C70.176 138.527 143.251 42.2014 266.637 42.2014C390.023 42.2014 516.995 138.527 550.239 257.35L658.584 644.617H211.765L103.419 257.35Z" fill="#FBEC95"/>
<mask id="mask0_760_11391" style="mask-type:alpha" maskUnits="userSpaceOnUse" x="95" y="42" width="564" height="603">
<path d="M103.419 257.35C70.176 138.527 143.251 42.2014 266.637 42.2014C390.023 42.2014 516.995 138.527 550.239 257.35L658.584 644.617H211.765L103.419 257.35Z" fill="#D9D9D9"/>
</mask>
<g mask="url(#mask0_760_11391)">
<path d="M-80.7006 64.3305C-58.1382 34.5894 -27.255 34.5894 11.9488 64.3305C51.1526 94.0716 82.0357 94.0716 104.598 64.3305C127.161 34.5894 158.044 34.5894 197.248 64.3305C236.451 94.0716 267.335 94.0716 289.897 64.3305C312.46 34.5894 343.343 34.5894 382.546 64.3305C421.75 94.0716 452.633 94.0716 475.196 64.3305C497.758 34.5894 528.642 34.5894 567.845 64.3305C607.049 94.0716 637.932 94.0716 660.495 64.3305C683.057 34.5894 713.94 34.5894 753.144 64.3305C792.348 94.0716 823.231 94.0716 845.794 64.3305C868.356 34.5894 899.239 34.5894 938.443 64.3305C977.647 94.0716 1008.53 94.0716 1031.09 64.3305C1053.65 34.5894 1084.54 34.5894 1123.74 64.3305C1162.95 94.0716 1193.83 94.0716 1216.39 64.3305C1238.95 34.5894 1269.84 34.5894 1309.04 64.3305C1348.24 94.0716 1379.13 94.0716 1401.69 64.3305C1424.25 34.5894 1455.14 34.5894 1494.34 64.3305C1533.54 94.0716 1564.43 94.0716 1586.99 64.3305C1609.55 34.5894 1640.43 34.5894 1679.64 64.3305C1718.84 94.0716 1749.73 94.0716 1772.29 64.3305C1794.85 34.5894 1825.73 34.5894 1864.94 64.3305C1904.14 94.0716 1935.02 94.0716 1957.59 64.3305C1980.15 34.5894 2011.03 34.5894 2050.24 64.3305C2089.44 94.0716 2120.32 94.0716 2142.89 64.3305C2165.45 34.5894 2196.33 34.5894 2235.53 64.3305C2274.74 94.0716 2305.62 94.0716 2328.18 64.3305C2350.75 34.5894 2381.63 34.5894 2420.83 64.3305C2460.04 94.0716 2490.92 94.0716 2513.48 64.3305C2536.05 34.5894 2566.93 34.5894 2606.13 64.3305C2645.34 94.0716 2676.22 94.0716 2698.78 64.3305C2721.34 34.5894 2752.23 34.5894 2791.43 64.3305C2830.64 94.0716 2861.52 94.0716 2884.08 64.3305C2906.64 34.5894 2937.53 34.5894 2976.73 64.3305C3015.93 94.0716 3046.82 94.0716 3069.38 64.3305C3091.94 34.5894 3122.83 34.5894 3162.03 64.3305C3201.23 94.0716 3232.12 94.0716 3254.68 64.3305C3277.24 34.5894 3308.12 34.5894 3347.33 64.3305C3386.53 94.0716 3417.41 94.0716 3439.98 64.3305C3462.54 34.5894 3493.42 34.5894 3532.63 64.3305C3571.83 94.0716 3602.71 94.0716 3625.28 64.3305C3647.84 34.5894 3678.72 34.5894 3717.93 64.3305C3757.13 94.0716 3788.01 94.0716 3810.58 64.3305C3833.14 34.5894 3864.02 34.5894 3903.22 64.3305C3942.43 94.0716 3973.31 94.0716 3995.87 64.3305C4018.44 34.5894 4049.32 34.5894 4088.52 64.3305C4127.73 94.0716 4158.61 94.0716 4181.17 64.3305C4203.74 34.5894 4234.62 34.5894 4273.82 64.3305C4313.03 94.0716 4343.91 94.0716 4366.47 64.3305C4389.03 34.5894 4419.92 34.5894 4459.12 64.3305C4498.32 94.0716 4529.21 94.0716 4551.77 64.3305" stroke="#131313" stroke-width="1.12859"/>
<path d="M-65.9504 117.053C-43.3879 87.3123 -12.5047 87.3123 26.6991 117.053C65.9029 146.795 96.786 146.795 119.348 117.053C141.911 87.3123 172.794 87.3123 211.998 117.053C251.202 146.795 282.085 146.795 304.647 117.053C327.21 87.3123 358.093 87.3123 397.297 117.053C436.501 146.795 467.384 146.795 489.946 117.053C512.509 87.3123 543.392 87.3123 582.596 117.053C621.799 146.795 652.683 146.795 675.245 117.053C697.807 87.3123 728.691 87.3123 767.894 117.053C807.098 146.795 837.981 146.795 860.544 117.053C883.106 87.3123 913.989 87.3123 953.193 117.053C992.397 146.795 1023.28 146.795 1045.84 117.053C1068.41 87.3123 1099.29 87.3123 1138.49 117.053C1177.7 146.795 1208.58 146.795 1231.14 117.053C1253.7 87.3123 1284.59 87.3123 1323.79 117.053C1362.99 146.795 1393.88 146.795 1416.44 117.053C1439 87.3123 1469.89 87.3123 1509.09 117.053C1548.29 146.795 1579.18 146.795 1601.74 117.053C1624.3 87.3123 1655.18 87.3123 1694.39 117.053C1733.59 146.795 1764.48 146.795 1787.04 117.053C1809.6 87.3123 1840.48 87.3123 1879.69 117.053C1918.89 146.795 1949.77 146.795 1972.34 117.053C1994.9 87.3123 2025.78 87.3123 2064.99 117.053C2104.19 146.795 2135.07 146.795 2157.64 117.053C2180.2 87.3123 2211.08 87.3123 2250.29 117.053C2289.49 146.795 2320.37 146.795 2342.93 117.053C2365.5 87.3123 2396.38 87.3123 2435.58 117.053C2474.79 146.795 2505.67 146.795 2528.23 117.053C2550.8 87.3123 2581.68 87.3123 2620.88 117.053C2660.09 146.795 2690.97 146.795 2713.53 117.053C2736.09 87.3123 2766.98 87.3123 2806.18 117.053C2845.39 146.795 2876.27 146.795 2898.83 117.053C2921.39 87.3123 2952.28 87.3123 2991.48 117.053C3030.68 146.795 3061.57 146.795 3084.13 117.053C3106.69 87.3123 3137.58 87.3123 3176.78 117.053C3215.98 146.795 3246.87 146.795 3269.43 117.053C3291.99 87.3123 3322.87 87.3123 3362.08 117.053C3401.28 146.795 3432.17 146.795 3454.73 117.053C3477.29 87.3123 3508.17 87.3123 3547.38 117.053C3586.58 146.795 3617.46 146.795 3640.03 117.053C3662.59 87.3123 3693.47 87.3123 3732.68 117.053C3771.88 146.795 3802.76 146.795 3825.33 117.053C3847.89 87.3123 3878.77 87.3123 3917.97 117.053C3957.18 146.795 3988.06 146.795 4010.62 117.053C4033.19 87.3123 4064.07 87.3123 4103.27 117.053C4142.48 146.795 4173.36 146.795 4195.92 117.053C4218.49 87.3123 4249.37 87.3123 4288.57 117.053C4327.78 146.795 4358.66 146.795 4381.22 117.053C4403.78 87.3123 4434.67 87.3123 4473.87 117.053C4513.08 146.795 4543.96 146.795 4566.52 117.053" stroke="#131313" stroke-width="1.12859"/>
<path d="M-51.2001 169.776C-28.6376 140.035 2.2455 140.035 41.4493 169.776C80.6531 199.517 111.536 199.517 134.099 169.776C156.661 140.035 187.544 140.035 226.748 169.776C265.952 199.517 296.835 199.517 319.398 169.776C341.96 140.035 372.843 140.035 412.047 169.776C451.251 199.517 482.134 199.517 504.696 169.776C527.259 140.035 558.142 140.035 597.346 169.776C636.55 199.517 667.433 199.517 689.995 169.776C712.558 140.035 743.441 140.035 782.645 169.776C821.848 199.517 852.732 199.517 875.294 169.776C897.857 140.035 928.74 140.035 967.944 169.776C1007.15 199.517 1038.03 199.517 1060.59 169.776C1083.16 140.035 1114.04 140.035 1153.24 169.776C1192.45 199.517 1223.33 199.517 1245.89 169.776C1268.45 140.035 1299.34 140.035 1338.54 169.776C1377.75 199.517 1408.63 199.517 1431.19 169.776C1453.75 140.035 1484.64 140.035 1523.84 169.776C1563.04 199.517 1593.93 199.517 1616.49 169.776C1639.05 140.035 1669.94 140.035 1709.14 169.776C1748.34 199.517 1779.23 199.517 1801.79 169.776C1824.35 140.035 1855.23 140.035 1894.44 169.776C1933.64 199.517 1964.52 199.517 1987.09 169.776C2009.65 140.035 2040.53 140.035 2079.74 169.776C2118.94 199.517 2149.82 199.517 2172.39 169.776C2194.95 140.035 2225.83 140.035 2265.04 169.776C2304.24 199.517 2335.12 199.517 2357.68 169.776C2380.25 140.035 2411.13 140.035 2450.33 169.776C2489.54 199.517 2520.42 199.517 2542.98 169.776C2565.55 140.035 2596.43 140.035 2635.63 169.776C2674.84 199.517 2705.72 199.517 2728.28 169.776C2750.85 140.035 2781.73 140.035 2820.93 169.776C2860.14 199.517 2891.02 199.517 2913.58 169.776C2936.14 140.035 2967.03 140.035 3006.23 169.776C3045.43 199.517 3076.32 199.517 3098.88 169.776C3121.44 140.035 3152.33 140.035 3191.53 169.776C3230.73 199.517 3261.62 199.517 3284.18 169.776C3306.74 140.035 3337.62 140.035 3376.83 169.776C3416.03 199.517 3446.92 199.517 3469.48 169.776C3492.04 140.035 3522.92 140.035 3562.13 169.776C3601.33 199.517 3632.21 199.517 3654.78 169.776C3677.34 140.035 3708.22 140.035 3747.43 169.776C3786.63 199.517 3817.51 199.517 3840.08 169.776C3862.64 140.035 3893.52 140.035 3932.73 169.776C3971.93 199.517 4002.81 199.517 4025.37 169.776C4047.94 140.035 4078.82 140.035 4118.02 169.776C4157.23 199.517 4188.11 199.517 4210.67 169.776C4233.24 140.035 4264.12 140.035 4303.32 169.776C4342.53 199.517 4373.41 199.517 4395.97 169.776C4418.53 140.035 4449.42 140.035 4488.62 169.776C4527.83 199.517 4558.71 199.517 4581.27 169.776" stroke="#131313" stroke-width="1.12859"/>
<path d="M-36.4498 222.499C-13.8874 192.758 16.9958 192.758 56.1996 222.499C95.4034 252.24 126.287 252.24 148.849 222.499C171.411 192.758 202.295 192.758 241.498 222.499C280.702 252.24 311.585 252.24 334.148 222.499C356.71 192.758 387.593 192.758 426.797 222.499C466.001 252.24 496.884 252.24 519.447 222.499C542.009 192.758 572.892 192.758 612.096 222.499C651.3 252.24 682.183 252.24 704.746 222.499C727.308 192.758 758.191 192.758 797.395 222.499C836.599 252.24 867.482 252.24 890.044 222.499C912.607 192.758 943.49 192.758 982.694 222.499C1021.9 252.24 1052.78 252.24 1075.34 222.499C1097.91 192.758 1128.79 192.758 1167.99 222.499C1207.2 252.24 1238.08 252.24 1260.64 222.499C1283.2 192.758 1314.09 192.758 1353.29 222.499C1392.5 252.24 1423.38 252.24 1445.94 222.499C1468.5 192.758 1499.39 192.758 1538.59 222.499C1577.79 252.24 1608.68 252.24 1631.24 222.499C1653.8 192.758 1684.69 192.758 1723.89 222.499C1763.09 252.24 1793.98 252.24 1816.54 222.499C1839.1 192.758 1869.98 192.758 1909.19 222.499C1948.39 252.24 1979.27 252.24 2001.84 222.499C2024.4 192.758 2055.28 192.758 2094.49 222.499C2133.69 252.24 2164.57 252.24 2187.14 222.499C2209.7 192.758 2240.58 192.758 2279.79 222.499C2318.99 252.24 2349.87 252.24 2372.44 222.499C2395 192.758 2425.88 192.758 2465.08 222.499C2504.29 252.24 2535.17 252.24 2557.73 222.499C2580.3 192.758 2611.18 192.758 2650.38 222.499C2689.59 252.24 2720.47 252.24 2743.03 222.499C2765.6 192.758 2796.48 192.758 2835.68 222.499C2874.89 252.24 2905.77 252.24 2928.33 222.499C2950.89 192.758 2981.78 192.758 3020.98 222.499C3060.18 252.24 3091.07 252.24 3113.63 222.499C3136.19 192.758 3167.08 192.758 3206.28 222.499C3245.48 252.24 3276.37 252.24 3298.93 222.499C3321.49 192.758 3352.37 192.758 3391.58 222.499C3430.78 252.24 3461.67 252.24 3484.23 222.499C3506.79 192.758 3537.67 192.758 3576.88 222.499C3616.08 252.24 3646.96 252.24 3669.53 222.499C3692.09 192.758 3722.97 192.758 3762.18 222.499C3801.38 252.24 3832.26 252.24 3854.83 222.499C3877.39 192.758 3908.27 192.758 3947.48 222.499C3986.68 252.24 4017.56 252.24 4040.12 222.499C4062.69 192.758 4093.57 192.758 4132.77 222.499C4171.98 252.24 4202.86 252.24 4225.42 222.499C4247.99 192.758 4278.87 192.758 4318.07 222.499C4357.28 252.24 4388.16 252.24 4410.72 222.499C4433.28 192.758 4464.17 192.758 4503.37 222.499C4542.58 252.24 4573.46 252.24 4596.02 222.499" stroke="#131313" stroke-width="1.12859"/>
<path d="M-21.6996 275.222C0.862881 245.481 31.746 245.481 70.9498 275.222C110.154 304.963 141.037 304.963 163.599 275.222C186.162 245.481 217.045 245.481 256.249 275.222C295.452 304.963 326.336 304.963 348.898 275.222C371.461 245.481 402.344 245.481 441.548 275.222C480.751 304.963 511.634 304.963 534.197 275.222C556.759 245.481 587.643 245.481 626.846 275.222C666.05 304.963 696.933 304.963 719.496 275.222C742.058 245.481 772.941 245.481 812.145 275.222C851.349 304.963 882.232 304.963 904.795 275.222C927.357 245.481 958.24 245.481 997.444 275.222C1036.65 304.963 1067.53 304.963 1090.09 275.222C1112.66 245.481 1143.54 245.481 1182.74 275.222C1221.95 304.963 1252.83 304.963 1275.39 275.222C1297.95 245.481 1328.84 245.481 1368.04 275.222C1407.25 304.963 1438.13 304.963 1460.69 275.222C1483.25 245.481 1514.14 245.481 1553.34 275.222C1592.54 304.963 1623.43 304.963 1645.99 275.222C1668.55 245.481 1699.44 245.481 1738.64 275.222C1777.84 304.963 1808.73 304.963 1831.29 275.222C1853.85 245.481 1884.73 245.481 1923.94 275.222C1963.14 304.963 1994.03 304.963 2016.59 275.222C2039.15 245.481 2070.03 245.481 2109.24 275.222C2148.44 304.963 2179.32 304.963 2201.89 275.222C2224.45 245.481 2255.33 245.481 2294.54 275.222C2333.74 304.963 2364.62 304.963 2387.19 275.222C2409.75 245.481 2440.63 245.481 2479.83 275.222C2519.04 304.963 2549.92 304.963 2572.48 275.222C2595.05 245.481 2625.93 245.481 2665.13 275.222C2704.34 304.963 2735.22 304.963 2757.78 275.222C2780.35 245.481 2811.23 245.481 2850.43 275.222C2889.64 304.963 2920.52 304.963 2943.08 275.222C2965.64 245.481 2996.53 245.481 3035.73 275.222C3074.94 304.963 3105.82 304.963 3128.38 275.222C3150.94 245.481 3181.83 245.481 3221.03 275.222C3260.23 304.963 3291.12 304.963 3313.68 275.222C3336.24 245.481 3367.13 245.481 3406.33 275.222C3445.53 304.963 3476.42 304.963 3498.98 275.222C3521.54 245.481 3552.42 245.481 3591.63 275.222C3630.83 304.963 3661.71 304.963 3684.28 275.222C3706.84 245.481 3737.72 245.481 3776.93 275.222C3816.13 304.963 3847.01 304.963 3869.58 275.222C3892.14 245.481 3923.02 245.481 3962.23 275.222C4001.43 304.963 4032.31 304.963 4054.87 275.222C4077.44 245.481 4108.32 245.481 4147.52 275.222C4186.73 304.963 4217.61 304.963 4240.17 275.222C4262.74 245.481 4293.62 245.481 4332.82 275.222C4372.03 304.963 4402.91 304.963 4425.47 275.222C4448.04 245.481 4478.92 245.481 4518.12 275.222C4557.33 304.963 4588.21 304.963 4610.77 275.222" stroke="#131313" stroke-width="1.12859"/>
<path d="M-6.94932 327.945C15.6132 298.204 46.4963 298.204 85.7001 327.945C124.904 357.686 155.787 357.686 178.35 327.945C200.912 298.204 231.795 298.204 270.999 327.945C310.203 357.686 341.086 357.686 363.648 327.945C386.211 298.204 417.094 298.204 456.298 327.945C495.502 357.686 526.385 357.686 548.947 327.945C571.51 298.204 602.393 298.204 641.597 327.945C680.8 357.686 711.684 357.686 734.246 327.945C756.809 298.204 787.692 298.204 826.895 327.945C866.099 357.686 896.982 357.686 919.545 327.945C942.107 298.204 972.991 298.204 1012.19 327.945C1051.4 357.686 1082.28 357.686 1104.84 327.945C1127.41 298.204 1158.29 298.204 1197.49 327.945C1236.7 357.686 1267.58 357.686 1290.14 327.945C1312.71 298.204 1343.59 298.204 1382.79 327.945C1422 357.686 1452.88 357.686 1475.44 327.945C1498 298.204 1528.89 298.204 1568.09 327.945C1607.29 357.686 1638.18 357.686 1660.74 327.945C1683.3 298.204 1714.19 298.204 1753.39 327.945C1792.59 357.686 1823.48 357.686 1846.04 327.945C1868.6 298.204 1899.48 298.204 1938.69 327.945C1977.89 357.686 2008.78 357.686 2031.34 327.945C2053.9 298.204 2084.78 298.204 2123.99 327.945C2163.19 357.686 2194.07 357.686 2216.64 327.945C2239.2 298.204 2270.08 298.204 2309.29 327.945C2348.49 357.686 2379.37 357.686 2401.94 327.945C2424.5 298.204 2455.38 298.204 2494.59 327.945C2533.79 357.686 2564.67 357.686 2587.23 327.945C2609.8 298.204 2640.68 298.204 2679.88 327.945C2719.09 357.686 2749.97 357.686 2772.53 327.945C2795.1 298.204 2825.98 298.204 2865.18 327.945C2904.39 357.686 2935.27 357.686 2957.83 327.945C2980.39 298.204 3011.28 298.204 3050.48 327.945C3089.69 357.686 3120.57 357.686 3143.13 327.945C3165.69 298.204 3196.58 298.204 3235.78 327.945C3274.98 357.686 3305.87 357.686 3328.43 327.945C3350.99 298.204 3381.88 298.204 3421.08 327.945C3460.28 357.686 3491.17 357.686 3513.73 327.945C3536.29 298.204 3567.17 298.204 3606.38 327.945C3645.58 357.686 3676.47 357.686 3699.03 327.945C3721.59 298.204 3752.47 298.204 3791.68 327.945C3830.88 357.686 3861.76 357.686 3884.33 327.945C3906.89 298.204 3937.77 298.204 3976.98 327.945C4016.18 357.686 4047.06 357.686 4069.63 327.945C4092.19 298.204 4123.07 298.204 4162.27 327.945C4201.48 357.686 4232.36 357.686 4254.92 327.945C4277.49 298.204 4308.37 298.204 4347.57 327.945C4386.78 357.686 4417.66 357.686 4440.22 327.945C4462.79 298.204 4493.67 298.204 4532.87 327.945C4572.08 357.686 4602.96 357.686 4625.52 327.945" stroke="#131313" stroke-width="1.12859"/>
<path d="M7.80092 380.668C30.3634 350.927 61.2465 350.927 100.45 380.668C139.654 410.409 170.537 410.409 193.1 380.668C215.662 350.927 246.545 350.927 285.749 380.668C324.953 410.409 355.836 410.409 378.399 380.668C400.961 350.927 431.844 350.927 471.048 380.668C510.252 410.409 541.135 410.409 563.697 380.668C586.26 350.927 617.143 350.927 656.347 380.668C695.551 410.409 726.434 410.409 748.996 380.668C771.559 350.927 802.442 350.927 841.646 380.668C880.85 410.409 911.733 410.409 934.295 380.668C956.858 350.927 987.741 350.927 1026.94 380.668C1066.15 410.409 1097.03 410.409 1119.59 380.668C1142.16 350.927 1173.04 350.927 1212.24 380.668C1251.45 410.409 1282.33 410.409 1304.89 380.668C1327.46 350.927 1358.34 350.927 1397.54 380.668C1436.75 410.409 1467.63 410.409 1490.19 380.668C1512.75 350.927 1543.64 350.927 1582.84 380.668C1622.04 410.409 1652.93 410.409 1675.49 380.668C1698.05 350.927 1728.94 350.927 1768.14 380.668C1807.34 410.409 1838.23 410.409 1860.79 380.668C1883.35 350.927 1914.23 350.927 1953.44 380.668C1992.64 410.409 2023.53 410.409 2046.09 380.668C2068.65 350.927 2099.53 350.927 2138.74 380.668C2177.94 410.409 2208.82 410.409 2231.39 380.668C2253.95 350.927 2284.83 350.927 2324.04 380.668C2363.24 410.409 2394.12 410.409 2416.69 380.668C2439.25 350.927 2470.13 350.927 2509.34 380.668C2548.54 410.409 2579.42 410.409 2601.98 380.668C2624.55 350.927 2655.43 350.927 2694.63 380.668C2733.84 410.409 2764.72 410.409 2787.28 380.668C2809.85 350.927 2840.73 350.927 2879.93 380.668C2919.14 410.409 2950.02 410.409 2972.58 380.668C2995.14 350.927 3026.03 350.927 3065.23 380.668C3104.44 410.409 3135.32 410.409 3157.88 380.668C3180.44 350.927 3211.33 350.927 3250.53 380.668C3289.73 410.409 3320.62 410.409 3343.18 380.668C3365.74 350.927 3396.63 350.927 3435.83 380.668C3475.03 410.409 3505.92 410.409 3528.48 380.668C3551.04 350.927 3581.92 350.927 3621.13 380.668C3660.33 410.409 3691.22 410.409 3713.78 380.668C3736.34 350.927 3767.22 350.927 3806.43 380.668C3845.63 410.409 3876.51 410.409 3899.08 380.668C3921.64 350.927 3952.52 350.927 3991.73 380.668C4030.93 410.409 4061.81 410.409 4084.38 380.668C4106.94 350.927 4137.82 350.927 4177.02 380.668C4216.23 410.409 4247.11 410.409 4269.67 380.668C4292.24 350.927 4323.12 350.927 4362.32 380.668C4401.53 410.409 4432.41 410.409 4454.97 380.668C4477.54 350.927 4508.42 350.927 4547.62 380.668C4586.83 410.409 4617.71 410.409 4640.27 380.668" stroke="#131313" stroke-width="1.12859"/>
<path d="M22.5512 433.391C45.1137 403.65 75.9968 403.65 115.201 433.391C154.404 463.132 185.288 463.132 207.85 433.391C230.413 403.65 261.296 403.65 300.499 433.391C339.703 463.132 370.586 463.132 393.149 433.391C415.711 403.65 446.595 403.65 485.798 433.391C525.002 463.132 555.885 463.132 578.448 433.391C601.01 403.65 631.893 403.65 671.097 433.391C710.301 463.132 741.184 463.132 763.747 433.391C786.309 403.65 817.192 403.65 856.396 433.391C895.6 463.132 926.483 463.132 949.045 433.391C971.608 403.65 1002.49 403.65 1041.69 433.391C1080.9 463.132 1111.78 463.132 1134.34 433.391C1156.91 403.65 1187.79 403.65 1226.99 433.391C1266.2 463.132 1297.08 463.132 1319.64 433.391C1342.21 403.65 1373.09 403.65 1412.29 433.391C1451.5 463.132 1482.38 463.132 1504.94 433.391C1527.5 403.65 1558.39 403.65 1597.59 433.391C1636.8 463.132 1667.68 463.132 1690.24 433.391C1712.8 403.65 1743.69 403.65 1782.89 433.391C1822.09 463.132 1852.98 463.132 1875.54 433.391C1898.1 403.65 1928.99 403.65 1968.19 433.391C2007.39 463.132 2038.28 463.132 2060.84 433.391C2083.4 403.65 2114.28 403.65 2153.49 433.391C2192.69 463.132 2223.57 463.132 2246.14 433.391C2268.7 403.65 2299.58 403.65 2338.79 433.391C2377.99 463.132 2408.87 463.132 2431.44 433.391C2454 403.65 2484.88 403.65 2524.09 433.391C2563.29 463.132 2594.17 463.132 2616.74 433.391C2639.3 403.65 2670.18 403.65 2709.38 433.391C2748.59 463.132 2779.47 463.132 2802.03 433.391C2824.6 403.65 2855.48 403.65 2894.68 433.391C2933.89 463.132 2964.77 463.132 2987.33 433.391C3009.9 403.65 3040.78 403.65 3079.98 433.391C3119.19 463.132 3150.07 463.132 3172.63 433.391C3195.19 403.65 3226.08 403.65 3265.28 433.391C3304.48 463.132 3335.37 463.132 3357.93 433.391C3380.49 403.65 3411.38 403.65 3450.58 433.391C3489.78 463.132 3520.67 463.132 3543.23 433.391C3565.79 403.65 3596.67 403.65 3635.88 433.391C3675.08 463.132 3705.97 463.132 3728.53 433.391C3751.09 403.65 3781.97 403.65 3821.18 433.391C3860.38 463.132 3891.26 463.132 3913.83 433.391C3936.39 403.65 3967.27 403.65 4006.48 433.391C4045.68 463.132 4076.56 463.132 4099.13 433.391C4121.69 403.65 4152.57 403.65 4191.78 433.391C4230.98 463.132 4261.86 463.132 4284.42 433.391C4306.99 403.65 4337.87 403.65 4377.07 433.391C4416.28 463.132 4447.16 463.132 4469.72 433.391C4492.29 403.65 4523.17 403.65 4562.37 433.391C4601.58 463.132 4632.46 463.132 4655.02 433.391" stroke="#131313" stroke-width="1.12859"/>
<path d="M37.3015 486.114C59.8639 456.373 90.7471 456.373 129.951 486.114C169.155 515.855 200.038 515.855 222.6 486.114C245.163 456.373 276.046 456.373 315.25 486.114C354.454 515.855 385.337 515.855 407.899 486.114C430.462 456.373 461.345 456.373 500.549 486.114C539.752 515.855 570.636 515.855 593.198 486.114C615.76 456.373 646.644 456.373 685.847 486.114C725.051 515.855 755.934 515.855 778.497 486.114C801.059 456.373 831.942 456.373 871.146 486.114C910.35 515.855 941.233 515.855 963.796 486.114C986.358 456.373 1017.24 456.373 1056.45 486.114C1095.65 515.855 1126.53 515.855 1149.09 486.114C1171.66 456.373 1202.54 456.373 1241.74 486.114C1280.95 515.855 1311.83 515.855 1334.39 486.114C1356.96 456.373 1387.84 456.373 1427.04 486.114C1466.25 515.855 1497.13 515.855 1519.69 486.114C1542.25 456.373 1573.14 456.373 1612.34 486.114C1651.55 515.855 1682.43 515.855 1704.99 486.114C1727.55 456.373 1758.44 456.373 1797.64 486.114C1836.84 515.855 1867.73 515.855 1890.29 486.114C1912.85 456.373 1943.74 456.373 1982.94 486.114C2022.14 515.855 2053.03 515.855 2075.59 486.114C2098.15 456.373 2129.03 456.373 2168.24 486.114C2207.44 515.855 2238.33 515.855 2260.89 486.114C2283.45 456.373 2314.33 456.373 2353.54 486.114C2392.74 515.855 2423.62 515.855 2446.19 486.114C2468.75 456.373 2499.63 456.373 2538.84 486.114C2578.04 515.855 2608.92 515.855 2631.49 486.114C2654.05 456.373 2684.93 456.373 2724.13 486.114C2763.34 515.855 2794.22 515.855 2816.78 486.114C2839.35 456.373 2870.23 456.373 2909.43 486.114C2948.64 515.855 2979.52 515.855 3002.08 486.114C3024.65 456.373 3055.53 456.373 3094.73 486.114C3133.94 515.855 3164.82 515.855 3187.38 486.114C3209.94 456.373 3240.83 456.373 3280.03 486.114C3319.24 515.855 3350.12 515.855 3372.68 486.114C3395.24 456.373 3426.13 456.373 3465.33 486.114C3504.53 515.855 3535.42 515.855 3557.98 486.114C3580.54 456.373 3611.43 456.373 3650.63 486.114C3689.83 515.855 3720.72 515.855 3743.28 486.114C3765.84 456.373 3796.72 456.373 3835.93 486.114C3875.13 515.855 3906.01 515.855 3928.58 486.114C3951.14 456.373 3982.02 456.373 4021.23 486.114C4060.43 515.855 4091.31 515.855 4113.88 486.114C4136.44 456.373 4167.32 456.373 4206.53 486.114C4245.73 515.855 4276.61 515.855 4299.17 486.114C4321.74 456.373 4352.62 456.373 4391.82 486.114C4431.03 515.855 4461.91 515.855 4484.47 486.114C4507.04 456.373 4537.92 456.373 4577.12 486.114C4616.33 515.855 4647.21 515.855 4669.77 486.114" stroke="#131313" stroke-width="1.12859"/>
<path d="M52.0518 538.837C74.6143 509.096 105.497 509.096 144.701 538.837C183.905 568.578 214.788 568.578 237.351 538.837C259.913 509.096 290.796 509.096 330 538.837C369.204 568.578 400.087 568.578 422.649 538.837C445.212 509.096 476.095 509.096 515.299 538.837C554.503 568.578 585.386 568.578 607.948 538.837C630.511 509.096 661.394 509.096 700.598 538.837C739.802 568.578 770.685 568.578 793.247 538.837C815.81 509.096 846.693 509.096 885.897 538.837C925.1 568.578 955.984 568.578 978.546 538.837C1001.11 509.096 1031.99 509.096 1071.2 538.837C1110.4 568.578 1141.28 568.578 1163.84 538.837C1186.41 509.096 1217.29 509.096 1256.49 538.837C1295.7 568.578 1326.58 568.578 1349.14 538.837C1371.71 509.096 1402.59 509.096 1441.79 538.837C1481 568.578 1511.88 568.578 1534.44 538.837C1557.01 509.096 1587.89 509.096 1627.09 538.837C1666.3 568.578 1697.18 568.578 1719.74 538.837C1742.3 509.096 1773.19 509.096 1812.39 538.837C1851.59 568.578 1882.48 568.578 1905.04 538.837C1927.6 509.096 1958.49 509.096 1997.69 538.837C2036.89 568.578 2067.78 568.578 2090.34 538.837C2112.9 509.096 2143.78 509.096 2182.99 538.837C2222.19 568.578 2253.08 568.578 2275.64 538.837C2298.2 509.096 2329.08 509.096 2368.29 538.837C2407.49 568.578 2438.37 568.578 2460.94 538.837C2483.5 509.096 2514.38 509.096 2553.59 538.837C2592.79 568.578 2623.67 568.578 2646.24 538.837C2668.8 509.096 2699.68 509.096 2738.89 538.837C2778.09 568.578 2808.97 568.578 2831.53 538.837C2854.1 509.096 2884.98 509.096 2924.18 538.837C2963.39 568.578 2994.27 568.578 3016.83 538.837C3039.4 509.096 3070.28 509.096 3109.48 538.837C3148.69 568.578 3179.57 568.578 3202.13 538.837C3224.69 509.096 3255.58 509.096 3294.78 538.837C3333.99 568.578 3364.87 568.578 3387.43 538.837C3409.99 509.096 3440.88 509.096 3480.08 538.837C3519.28 568.578 3550.17 568.578 3572.73 538.837C3595.29 509.096 3626.18 509.096 3665.38 538.837C3704.58 568.578 3735.47 568.578 3758.03 538.837C3780.59 509.096 3811.47 509.096 3850.68 538.837C3889.88 568.578 3920.77 568.578 3943.33 538.837C3965.89 509.096 3996.77 509.096 4035.98 538.837C4075.18 568.578 4106.06 568.578 4128.63 538.837C4151.19 509.096 4182.07 509.096 4221.28 538.837C4260.48 568.578 4291.36 568.578 4313.93 538.837C4336.49 509.096 4367.37 509.096 4406.57 538.837C4445.78 568.578 4476.66 568.578 4499.22 538.837C4521.79 509.096 4552.67 509.096 4591.87 538.837C4631.08 568.578 4661.96 568.578 4684.52 538.837" stroke="#131313" stroke-width="1.12859"/>
<path d="M66.802 591.56C89.3645 561.819 120.248 561.819 159.451 591.56C198.655 621.301 229.538 621.301 252.101 591.56C274.663 561.819 305.546 561.819 344.75 591.56C383.954 621.301 414.837 621.301 437.4 591.56C459.962 561.819 490.845 561.819 530.049 591.56C569.253 621.301 600.136 621.301 622.699 591.56C645.261 561.819 676.144 561.819 715.348 591.56C754.552 621.301 785.435 621.301 807.997 591.56C830.56 561.819 861.443 561.819 900.647 591.56C939.851 621.301 970.734 621.301 993.296 591.56C1015.86 561.819 1046.74 561.819 1085.95 591.56C1125.15 621.301 1156.03 621.301 1178.6 591.56C1201.16 561.819 1232.04 561.819 1271.24 591.56C1310.45 621.301 1341.33 621.301 1363.89 591.56C1386.46 561.819 1417.34 561.819 1456.54 591.56C1495.75 621.301 1526.63 621.301 1549.19 591.56C1571.76 561.819 1602.64 561.819 1641.84 591.56C1681.05 621.301 1711.93 621.301 1734.49 591.56C1757.05 561.819 1787.94 561.819 1827.14 591.56C1866.34 621.301 1897.23 621.301 1919.79 591.56C1942.35 561.819 1973.24 561.819 2012.44 591.56C2051.64 621.301 2082.53 621.301 2105.09 591.56C2127.65 561.819 2158.53 561.819 2197.74 591.56C2236.94 621.301 2267.83 621.301 2290.39 591.56C2312.95 561.819 2343.83 561.819 2383.04 591.56C2422.24 621.301 2453.12 621.301 2475.69 591.56C2498.25 561.819 2529.13 561.819 2568.34 591.56C2607.54 621.301 2638.42 621.301 2660.99 591.56C2683.55 561.819 2714.43 561.819 2753.64 591.56C2792.84 621.301 2823.72 621.301 2846.28 591.56C2868.85 561.819 2899.73 561.819 2938.93 591.56C2978.14 621.301 3009.02 621.301 3031.58 591.56C3054.15 561.819 3085.03 561.819 3124.23 591.56C3163.44 621.301 3194.32 621.301 3216.88 591.56C3239.44 561.819 3270.33 561.819 3309.53 591.56C3348.74 621.301 3379.62 621.301 3402.18 591.56C3424.74 561.819 3455.63 561.819 3494.83 591.56C3534.03 621.301 3564.92 621.301 3587.48 591.56C3610.04 561.819 3640.93 561.819 3680.13 591.56C3719.33 621.301 3750.22 621.301 3772.78 591.56C3795.34 561.819 3826.22 561.819 3865.43 591.56C3904.63 621.301 3935.52 621.301 3958.08 591.56C3980.64 561.819 4011.52 561.819 4050.73 591.56C4089.93 621.301 4120.81 621.301 4143.38 591.56C4165.94 561.819 4196.82 561.819 4236.03 591.56C4275.23 621.301 4306.11 621.301 4328.68 591.56C4351.24 561.819 4382.12 561.819 4421.32 591.56C4460.53 621.301 4491.41 621.301 4513.97 591.56C4536.54 561.819 4567.42 561.819 4606.62 591.56C4645.83 621.301 4676.71 621.301 4699.27 591.56" stroke="#131313" stroke-width="1.12859"/>
<path d="M81.5523 644.283C104.115 614.542 134.998 614.542 174.202 644.283C213.406 674.024 244.289 674.024 266.851 644.283C289.414 614.542 320.297 614.542 359.501 644.283C398.704 674.024 429.588 674.024 452.15 644.283C474.712 614.542 505.596 614.542 544.799 644.283C584.003 674.024 614.886 674.024 637.449 644.283C660.011 614.542 690.894 614.542 730.098 644.283C769.302 674.024 800.185 674.024 822.748 644.283C845.31 614.542 876.193 614.542 915.397 644.283C954.601 674.024 985.484 674.024 1008.05 644.283C1030.61 614.542 1061.49 614.542 1100.7 644.283C1139.9 674.024 1170.78 674.024 1193.35 644.283C1215.91 614.542 1246.79 614.542 1285.99 644.283C1325.2 674.024 1356.08 674.024 1378.64 644.283C1401.21 614.542 1432.09 614.542 1471.29 644.283C1510.5 674.024 1541.38 674.024 1563.94 644.283C1586.51 614.542 1617.39 614.542 1656.59 644.283C1695.8 674.024 1726.68 674.024 1749.24 644.283C1771.8 614.542 1802.69 614.542 1841.89 644.283C1881.1 674.024 1911.98 674.024 1934.54 644.283C1957.1 614.542 1987.99 614.542 2027.19 644.283C2066.39 674.024 2097.28 674.024 2119.84 644.283C2142.4 614.542 2173.29 614.542 2212.49 644.283C2251.69 674.024 2282.58 674.024 2305.14 644.283C2327.7 614.542 2358.58 614.542 2397.79 644.283C2436.99 674.024 2467.87 674.024 2490.44 644.283C2513 614.542 2543.88 614.542 2583.09 644.283C2622.29 674.024 2653.17 674.024 2675.74 644.283C2698.3 614.542 2729.18 614.542 2768.39 644.283C2807.59 674.024 2838.47 674.024 2861.03 644.283C2883.6 614.542 2914.48 614.542 2953.68 644.283C2992.89 674.024 3023.77 674.024 3046.33 644.283C3068.9 614.542 3099.78 614.542 3138.98 644.283C3178.19 674.024 3209.07 674.024 3231.63 644.283C3254.2 614.542 3285.08 614.542 3324.28 644.283C3363.49 674.024 3394.37 674.024 3416.93 644.283C3439.49 614.542 3470.38 614.542 3509.58 644.283C3548.78 674.024 3579.67 674.024 3602.23 644.283C3624.79 614.542 3655.68 614.542 3694.88 644.283C3734.08 674.024 3764.97 674.024 3787.53 644.283C3810.09 614.542 3840.97 614.542 3880.18 644.283C3919.38 674.024 3950.27 674.024 3972.83 644.283C3995.39 614.542 4026.27 614.542 4065.48 644.283C4104.68 674.024 4135.56 674.024 4158.13 644.283C4180.69 614.542 4211.57 614.542 4250.78 644.283C4289.98 674.024 4320.86 674.024 4343.43 644.283C4365.99 614.542 4396.87 614.542 4436.08 644.283C4475.28 674.024 4506.16 674.024 4528.72 644.283C4551.29 614.542 4582.17 614.542 4621.37 644.283C4660.58 674.024 4691.46 674.024 4714.02 644.283" stroke="#131313" stroke-width="1.12859"/>
</g>
</g>
<g filter="url(#filter0_d_760_11391)">
<rect width="244.44" height="123.392" rx="18.0574" transform="matrix(1 0 0.269424 0.963022 205 501.039)" fill="white"/>
<g clip-path="url(#clip1_760_11391)">
<path d="M282.332 557.736L322.006 576.373L293.025 595.957L253.35 576.373L282.332 557.736Z" fill="#FAE76C"/>
<path d="M282.508 557.555L273.386 524.949L312.89 543.788L321.737 576.756L282.508 557.555Z" fill="#EAECF0"/>
<path d="M282.131 557.555L273.009 524.949L244.046 543.788L253.646 576.756L282.131 557.555Z" fill="white"/>
<path d="M323.242 576.756L313.767 543.761L313.336 543.348L273.393 524.225H272.758L243.486 543.348L243.304 543.824L252.753 576.792L253.151 577.476L293.191 596.682H293.825L323.214 577.454L323.242 576.756ZM312.449 544.116L321.455 575.668L282.618 557.167L273.783 525.588L312.449 544.116ZM272.996 525.588L281.835 557.182L260.807 571.06L253.736 575.653L244.762 544.115L272.996 525.588ZM293.118 595.289L254.62 576.761L255.03 576.49L282.685 558.276L317.236 574.792L321.34 576.762L293.118 595.289Z" fill="#131313"/>
<path d="M260.918 559.067L260.226 558.719L256.801 546.475L256.869 546.125L267.493 538.989L268.185 539.338L271.61 551.582L271.543 551.932L260.918 559.067ZM257.652 546.707L260.815 558.011L270.758 551.35L267.595 540.046L257.652 546.707Z" fill="#131313"/>
<path d="M311.466 571.654C311.233 571.654 311.021 571.473 310.959 571.249L304.158 546.939L286.032 538.417L292.613 561.941C292.676 562.164 292.566 562.345 292.333 562.345C292.099 562.345 291.888 562.164 291.826 561.941L285.05 537.721L285.598 537.369L304.57 546.352L304.879 546.703L311.746 571.249C311.809 571.474 311.7 571.656 311.466 571.656L311.466 571.654Z" fill="#131313"/>
<path d="M312.81 583.33C312.775 583.33 312.737 583.321 312.697 583.303L272.599 564.081C272.482 564.026 272.413 563.902 272.445 563.804C272.476 563.708 272.596 563.675 272.712 563.731L312.811 582.953C312.927 583.008 312.996 583.132 312.965 583.229C312.944 583.294 312.883 583.33 312.81 583.33Z" fill="#131313"/>
<path d="M303.17 589.875C303.134 589.875 303.095 589.866 303.056 589.847L262.959 570.625C262.842 570.57 262.773 570.446 262.805 570.349C262.836 570.252 262.956 570.22 263.072 570.275L303.171 589.497C303.287 589.553 303.356 589.676 303.325 589.774C303.304 589.839 303.243 589.874 303.17 589.874L303.17 589.875Z" fill="#131313"/>
<path d="M266.881 583.332C266.809 583.332 266.727 583.295 266.67 583.231C266.585 583.135 266.584 583.01 266.669 582.954L295.782 563.727C295.866 563.671 296.004 563.702 296.091 563.8C296.176 563.896 296.176 564.021 296.091 564.077L266.979 583.304C266.95 583.323 266.917 583.332 266.881 583.332L266.881 583.332Z" fill="#131313"/>
<path d="M280.614 589.91C280.542 589.91 280.461 589.874 280.403 589.809C280.318 589.712 280.317 589.588 280.403 589.533L309.515 570.305C309.599 570.249 309.737 570.281 309.824 570.379C309.909 570.475 309.91 570.599 309.824 570.655L280.713 589.883C280.686 589.902 280.652 589.91 280.615 589.91H280.614Z" fill="#131313"/>
<path d="M301.562 567.2C301.328 567.2 301.117 567.019 301.055 566.795L294.26 542.51C294.198 542.287 294.307 542.105 294.541 542.105C294.774 542.105 294.985 542.287 295.048 542.51L301.842 566.797C301.905 567.02 301.795 567.201 301.562 567.201L301.562 567.2Z" fill="#131313"/>
</g>
<path d="M354.869 572.491L346.661 563.031H344.277L346.924 572.491H341.868L335.076 548.215H344.538C346.488 548.215 348.244 548.551 349.804 549.224C351.358 549.873 352.631 550.766 353.623 551.902C354.633 553.015 355.332 554.267 355.721 555.658C356.169 557.258 356.093 558.707 355.493 560.005C354.887 561.28 353.701 562.162 351.935 562.648L360.719 572.491H354.869ZM343.255 559.379H347.481C348.853 559.379 349.789 559.066 350.288 558.44C350.78 557.791 350.868 556.898 350.55 555.762C350.238 554.649 349.661 553.791 348.819 553.189C347.969 552.562 346.858 552.249 345.486 552.249H341.261L343.255 559.379ZM373.614 572.804C371.688 572.804 369.841 572.398 368.073 571.587C366.299 570.752 364.755 569.581 363.443 568.074C362.154 566.567 361.235 564.828 360.683 562.857C360.132 560.886 360.091 559.147 360.56 557.64C361.053 556.133 361.969 554.974 363.307 554.162C364.638 553.328 366.267 552.91 368.193 552.91C370.119 552.91 371.981 553.328 373.78 554.162C375.572 554.974 377.124 556.133 378.437 557.64C379.773 559.147 380.717 560.886 381.269 562.857C381.82 564.828 381.837 566.567 381.32 568.074C380.826 569.581 379.902 570.752 378.546 571.587C377.209 572.398 375.564 572.804 373.614 572.804ZM372.427 568.561C373.342 568.561 374.138 568.352 374.816 567.935C375.512 567.494 375.98 566.845 376.221 565.987C376.463 565.129 376.412 564.086 376.068 562.857C375.556 561.025 374.658 559.623 373.374 558.649C372.108 557.652 370.753 557.153 369.308 557.153C367.863 557.153 366.787 557.652 366.079 558.649C365.388 559.623 365.299 561.025 365.811 562.857C366.324 564.689 367.189 566.103 368.407 567.1C369.643 568.074 370.983 568.561 372.427 568.561ZM396.283 572.804C394.357 572.804 392.51 572.398 390.742 571.587C388.968 570.752 387.424 569.581 386.112 568.074C384.824 566.567 383.904 564.828 383.352 562.857C382.801 560.886 382.76 559.147 383.229 557.64C383.722 556.133 384.638 554.974 385.976 554.162C387.307 553.328 388.936 552.91 390.862 552.91C392.788 552.91 394.651 553.328 396.449 554.162C398.241 554.974 399.793 556.133 401.106 557.64C402.442 559.147 403.386 560.886 403.938 562.857C404.489 564.828 404.506 566.567 403.989 568.074C403.495 569.581 402.571 570.752 401.216 571.587C399.878 572.398 398.234 572.804 396.283 572.804ZM395.096 568.561C396.011 568.561 396.807 568.352 397.485 567.935C398.181 567.494 398.649 566.845 398.891 565.987C399.132 565.129 399.081 564.086 398.737 562.857C398.225 561.025 397.327 559.623 396.043 558.649C394.777 557.652 393.422 557.153 391.977 557.153C390.532 557.153 389.456 557.652 388.748 558.649C388.057 559.623 387.968 561.025 388.481 562.857C388.993 564.689 389.858 566.103 391.076 567.1C392.312 568.074 393.652 568.561 395.096 568.561ZM429.359 552.945C431.815 552.945 433.994 553.675 435.895 555.136C437.814 556.574 439.137 558.591 439.863 561.188L443.026 572.491H437.97L434.992 561.849C434.57 560.341 433.852 559.194 432.837 558.405C431.815 557.594 430.619 557.188 429.246 557.188C427.874 557.188 426.892 557.594 426.3 558.405C425.726 559.194 425.65 560.341 426.072 561.849L429.049 572.491H423.993L421.016 561.849C420.594 560.341 419.876 559.194 418.861 558.405C417.839 557.594 416.642 557.188 415.27 557.188C413.873 557.188 412.879 557.594 412.288 558.405C411.714 559.194 411.638 560.341 412.059 561.849L415.037 572.491H409.981L404.59 553.223H409.646L410.298 555.554C410.721 554.742 411.373 554.104 412.255 553.641C413.16 553.177 414.227 552.945 415.455 552.945C417.02 552.945 418.507 553.27 419.917 553.919C421.32 554.545 422.524 555.449 423.529 556.632C423.867 555.519 424.557 554.626 425.597 553.954C426.66 553.281 427.915 552.945 429.359 552.945Z" fill="#FAE76C"/>
<path d="M354.869 572.491L354.037 573.027L354.515 573.578H355.173L354.869 572.491ZM346.661 563.031L347.493 562.496L347.014 561.944H346.357L346.661 563.031ZM344.277 563.031L343.973 561.944H342.844L343.148 563.031H344.277ZM346.924 572.491L347.228 573.578H348.356L348.052 572.491H346.924ZM341.868 572.491H340.739L341.043 573.578H342.172L341.868 572.491ZM335.076 548.215L334.772 547.128H333.643L333.947 548.215H335.076ZM349.804 549.224L349.563 550.192L349.571 550.196L349.579 550.199L349.804 549.224ZM353.623 551.902L352.794 552.441L352.804 552.452L352.814 552.464L353.623 551.902ZM355.493 560.005L356.584 560.645L356.588 560.637L355.493 560.005ZM351.935 562.648L351.351 561.598L350.015 561.966L351.117 563.201L351.935 562.648ZM360.719 572.491L361.024 573.578H363L361.537 571.939L360.719 572.491ZM343.255 559.379H342.127L342.431 560.466H343.559L343.255 559.379ZM350.288 558.44L351.29 559.223L351.296 559.216L351.301 559.209L350.288 558.44ZM348.819 553.189L348.254 553.971L348.264 553.978L348.273 553.985L348.819 553.189ZM341.261 552.249L340.957 551.163H339.828L340.132 552.249H341.261ZM355.701 571.956L347.493 562.496L345.828 563.567L354.037 573.027L355.701 571.956ZM346.357 561.944H343.973L344.581 564.118H346.965L346.357 561.944ZM343.148 563.031L345.795 572.491H348.052L345.406 563.031H343.148ZM346.62 571.404H341.564L342.172 573.578H347.228L346.62 571.404ZM342.996 572.491L336.205 548.215H333.947L340.739 572.491H342.996ZM335.38 549.302H344.842L344.234 547.128H334.772L335.38 549.302ZM344.842 549.302C346.661 549.302 348.225 549.616 349.563 550.192L350.045 548.255C348.262 547.487 346.316 547.128 344.234 547.128L344.842 549.302ZM349.579 550.199C350.934 550.765 351.987 551.516 352.794 552.441L354.452 551.362C353.275 550.015 351.782 548.981 350.029 548.248L349.579 550.199ZM352.814 552.464C353.659 553.395 354.255 554.45 354.593 555.658H356.85C356.409 554.083 355.606 552.634 354.432 551.34L352.814 552.464ZM354.593 555.658C354.977 557.032 354.912 558.26 354.398 559.374L356.588 560.637C357.273 559.154 357.361 557.484 356.85 555.658H354.593ZM354.401 559.366C353.909 560.401 352.933 561.162 351.351 561.598L352.518 563.699C354.468 563.161 355.864 562.16 356.584 560.645L354.401 559.366ZM351.117 563.201L359.902 573.043L361.537 571.939L352.752 562.096L351.117 563.201ZM360.415 571.404H354.565L355.173 573.578H361.024L360.415 571.404ZM343.559 560.466H347.785L347.177 558.292H342.951L343.559 560.466ZM347.785 560.466C349.315 560.466 350.576 560.119 351.29 559.223L349.286 557.658C349.002 558.014 348.392 558.292 347.177 558.292L347.785 560.466ZM351.301 559.209C351.983 558.31 352.057 557.114 351.678 555.762H349.421C349.679 556.683 349.578 557.272 349.275 557.672L351.301 559.209ZM351.678 555.762C351.306 554.43 350.564 553.251 349.364 552.392L348.273 553.985C348.759 554.332 349.171 554.869 349.421 555.762H351.678ZM349.383 552.406C348.168 551.51 346.712 551.163 345.182 551.163L345.79 553.336C347.005 553.336 347.771 553.615 348.254 553.971L349.383 552.406ZM345.182 551.163H340.957L341.565 553.336H345.79L345.182 551.163ZM340.132 552.249L342.127 559.379H344.384L342.389 552.249H340.132ZM368.073 571.587L367.785 572.534L367.798 572.54L368.073 571.587ZM363.443 568.074L362.603 568.601L362.612 568.612L363.443 568.074ZM360.56 557.64L359.432 557.092L359.429 557.103L360.56 557.64ZM363.307 554.162L364.11 555.119L364.12 555.113L363.307 554.162ZM373.78 554.162L373.499 555.113L373.513 555.119L373.78 554.162ZM378.437 557.64L377.606 558.178L377.616 558.189L378.437 557.64ZM381.32 568.074L380.195 567.515L380.192 567.526L381.32 568.074ZM378.546 571.587L379.349 572.544L379.354 572.541L378.546 571.587ZM374.816 567.935L375.624 568.889L375.632 568.884L374.816 567.935ZM376.222 565.987L377.359 566.504L377.359 566.504L376.222 565.987ZM373.374 558.649L372.767 559.399L372.779 559.408L372.791 559.417L373.374 558.649ZM366.079 558.649L365.052 557.899L365.052 557.899L366.079 558.649ZM368.407 567.1L367.775 567.83L367.787 567.84L367.799 567.85L368.407 567.1ZM373.31 571.717C371.555 571.717 369.907 571.349 368.348 570.633L367.798 572.54C369.775 573.448 371.822 573.891 373.918 573.891L373.31 571.717ZM368.361 570.639C366.797 569.903 365.439 568.875 364.273 567.536L362.612 568.612C364.071 570.287 365.801 571.601 367.785 572.534L368.361 570.639ZM364.283 567.547C363.151 566.223 362.319 564.671 361.812 562.857H359.555C360.15 564.985 361.158 566.91 362.603 568.601L364.283 567.547ZM361.812 562.857C361.306 561.049 361.28 559.5 361.691 558.178L359.429 557.103C358.902 558.795 358.958 560.724 359.555 562.857H361.812ZM361.688 558.189C362.126 556.85 362.931 555.834 364.109 555.119L362.504 553.205C361.007 554.114 359.981 555.416 359.432 557.092L361.688 558.189ZM364.12 555.113C365.298 554.374 366.747 553.997 368.497 553.997L367.889 551.823C365.787 551.823 363.979 552.281 362.494 553.212L364.12 555.113ZM368.497 553.997C370.247 553.997 371.908 554.374 373.499 555.113L374.061 553.212C372.055 552.281 369.991 551.823 367.889 551.823L368.497 553.997ZM373.513 555.119C375.088 555.833 376.446 556.846 377.606 558.178L379.267 557.103C377.802 555.421 376.056 554.115 374.047 553.205L373.513 555.119ZM377.616 558.189C378.787 559.509 379.635 561.054 380.14 562.857H382.397C381.799 560.719 380.76 558.786 379.258 557.092L377.616 558.189ZM380.14 562.857C380.643 564.656 380.648 566.197 380.195 567.515L382.444 568.633C383.026 566.937 382.997 565 382.397 562.857H380.14ZM380.192 567.526C379.754 568.862 378.941 569.893 377.739 570.633L379.354 572.541C380.863 571.611 381.898 570.3 382.447 568.623L380.192 567.526ZM377.744 570.63C376.56 571.348 375.092 571.717 373.31 571.717L373.918 573.891C376.037 573.891 377.857 573.449 379.349 572.544L377.744 570.63ZM372.731 569.648C373.833 569.648 374.803 569.395 375.624 568.889L374.009 566.981C373.474 567.31 372.851 567.474 372.123 567.474L372.731 569.648ZM375.632 568.884C376.499 568.334 377.071 567.528 377.359 566.504L375.084 565.47C374.889 566.162 374.524 566.654 374 566.986L375.632 568.884ZM377.359 566.504C377.655 565.451 377.578 564.22 377.197 562.857H374.939C375.246 563.952 375.271 564.807 375.084 565.47L377.359 566.504ZM377.197 562.857C376.631 560.836 375.589 559.118 373.957 557.88L372.791 559.417C373.726 560.127 374.48 561.215 374.939 562.857H377.197ZM373.981 557.899C372.439 556.684 370.754 556.066 369.004 556.066L369.612 558.24C370.751 558.24 371.777 558.619 372.767 559.399L373.981 557.899ZM369.004 556.066C367.254 556.066 365.915 556.684 365.052 557.899L367.105 559.399C367.659 558.619 368.473 558.24 369.612 558.24L369.004 556.066ZM365.052 557.899C364.173 559.139 364.121 560.849 364.683 562.857H366.94C366.477 561.202 366.604 560.106 367.106 559.398L365.052 557.899ZM364.683 562.857C365.243 564.86 366.237 566.571 367.775 567.83L369.039 566.37C368.142 565.636 367.405 564.517 366.94 562.857H364.683ZM367.799 567.85C369.319 569.047 370.99 569.648 372.731 569.648L372.123 567.474C370.975 567.474 369.966 567.101 369.015 566.351L367.799 567.85ZM390.742 571.587L390.454 572.534L390.468 572.54L390.742 571.587ZM386.112 568.074L385.272 568.601L385.282 568.612L386.112 568.074ZM383.229 557.64L382.101 557.092L382.098 557.103L383.229 557.64ZM385.976 554.162L386.779 555.119L386.789 555.113L385.976 554.162ZM396.449 554.162L396.168 555.113L396.182 555.119L396.449 554.162ZM401.106 557.64L400.275 558.178L400.285 558.189L401.106 557.64ZM403.989 568.074L402.864 567.515L402.861 567.526L403.989 568.074ZM401.216 571.587L402.018 572.544L402.023 572.541L401.216 571.587ZM397.485 567.935L398.293 568.889L398.301 568.884L397.485 567.935ZM398.891 565.987L400.028 566.504L400.028 566.504L398.891 565.987ZM396.043 558.649L395.436 559.399L395.448 559.408L395.46 559.417L396.043 558.649ZM388.748 558.649L387.721 557.899L387.721 557.899L388.748 558.649ZM391.076 567.1L390.444 567.83L390.456 567.84L390.469 567.85L391.076 567.1ZM395.979 571.717C394.224 571.717 392.576 571.349 391.017 570.633L390.468 572.54C392.444 573.448 394.491 573.891 396.587 573.891L395.979 571.717ZM391.031 570.639C389.466 569.903 388.108 568.875 386.942 567.536L385.282 568.612C386.74 570.287 388.47 571.601 390.454 572.534L391.031 570.639ZM386.952 567.547C385.82 566.223 384.988 564.671 384.481 562.857H382.224C382.819 564.985 383.827 566.91 385.272 568.601L386.952 567.547ZM384.481 562.857C383.975 561.049 383.949 559.5 384.36 558.178L382.098 557.103C381.571 558.795 381.627 560.724 382.224 562.857H384.481ZM384.357 558.189C384.795 556.85 385.6 555.834 386.779 555.119L385.173 553.205C383.676 554.114 382.65 555.416 382.101 557.092L384.357 558.189ZM386.789 555.113C387.967 554.374 389.416 553.997 391.166 553.997L390.558 551.823C388.456 551.823 386.648 552.281 385.163 553.212L386.789 555.113ZM391.166 553.997C392.916 553.997 394.577 554.374 396.168 555.113L396.73 553.212C394.724 552.281 392.66 551.823 390.558 551.823L391.166 553.997ZM396.182 555.119C397.757 555.833 399.115 556.846 400.275 558.178L401.936 557.103C400.471 555.421 398.725 554.115 396.716 553.205L396.182 555.119ZM400.285 558.189C401.456 559.509 402.305 561.054 402.809 562.857H405.066C404.468 560.719 403.429 558.786 401.927 557.092L400.285 558.189ZM402.809 562.857C403.312 564.656 403.317 566.197 402.865 567.515L405.113 568.633C405.695 566.937 405.666 565 405.066 562.857H402.809ZM402.861 567.526C402.423 568.862 401.61 569.893 400.408 570.633L402.023 572.541C403.532 571.611 404.567 570.3 405.116 568.623L402.861 567.526ZM400.413 570.63C399.229 571.348 397.761 571.717 395.979 571.717L396.587 573.891C398.706 573.891 400.526 573.449 402.018 572.544L400.413 570.63ZM395.4 569.648C396.502 569.648 397.472 569.395 398.293 568.889L396.678 566.981C396.143 567.31 395.52 567.474 394.792 567.474L395.4 569.648ZM398.301 568.884C399.168 568.334 399.74 567.528 400.028 566.504L397.753 565.47C397.558 566.162 397.193 566.654 396.669 566.986L398.301 568.884ZM400.028 566.504C400.324 565.451 400.247 564.22 399.866 562.857H397.609C397.915 563.952 397.94 564.807 397.753 565.47L400.028 566.504ZM399.866 562.857C399.3 560.836 398.258 559.118 396.626 557.88L395.46 559.417C396.395 560.127 397.149 561.215 397.609 562.857H399.866ZM396.65 557.899C395.108 556.684 393.423 556.066 391.673 556.066L392.281 558.24C393.42 558.24 394.446 558.619 395.436 559.399L396.65 557.899ZM391.673 556.066C389.923 556.066 388.584 556.684 387.721 557.899L389.774 559.399C390.328 558.619 391.142 558.24 392.281 558.24L391.673 556.066ZM387.721 557.899C386.842 559.139 386.79 560.849 387.352 562.857H389.609C389.146 561.202 389.273 560.106 389.775 559.398L387.721 557.899ZM387.352 562.857C387.912 564.86 388.906 566.571 390.444 567.83L391.708 566.37C390.811 565.636 390.074 564.517 389.609 562.857H387.352ZM390.469 567.85C391.988 569.047 393.659 569.648 395.4 569.648L394.792 567.474C393.644 567.474 392.635 567.101 391.684 566.351L390.469 567.85ZM435.895 555.136L435.304 555.899L435.312 555.905L435.32 555.911L435.895 555.136ZM443.026 572.491L443.33 573.578H444.458L444.154 572.491H443.026ZM437.97 572.491H436.841L437.145 573.578H438.274L437.97 572.491ZM432.837 558.405L432.224 559.151L432.232 559.157L432.239 559.162L432.837 558.405ZM426.3 558.405L425.279 557.648L425.279 557.648L426.3 558.405ZM429.049 572.491L429.353 573.578H430.482L430.178 572.491H429.049ZM423.993 572.491H422.865L423.169 573.578H424.297L423.993 572.491ZM418.861 558.405L418.248 559.151L418.255 559.157L418.263 559.162L418.861 558.405ZM412.288 558.405L411.266 557.648L411.266 557.648L412.288 558.405ZM415.037 572.491L415.341 573.578H416.469L416.165 572.491H415.037ZM409.981 572.491H408.852L409.156 573.578H410.285L409.981 572.491ZM404.59 553.223L404.286 552.136H403.157L403.461 553.223H404.59ZM409.646 553.223H410.775L410.471 552.136H409.342L409.646 553.223ZM410.298 555.554H409.169L410.061 558.742L411.377 556.217L410.298 555.554ZM412.255 553.641L411.503 552.655L411.495 552.659L412.255 553.641ZM419.917 553.919L419.64 554.872L419.649 554.876L419.657 554.879L419.917 553.919ZM423.529 556.632L422.686 557.155L424.143 558.869L424.662 557.165L423.529 556.632ZM425.597 553.954L424.781 553.004L424.774 553.009L425.597 553.954ZM429.663 554.032C431.867 554.032 433.715 554.678 435.304 555.899L436.486 554.374C434.272 552.673 431.763 551.858 429.055 551.858L429.663 554.032ZM435.32 555.911C436.898 557.093 438.067 558.8 438.735 561.188H440.992C440.207 558.382 438.73 556.054 436.47 554.362L435.32 555.911ZM438.735 561.188L441.897 572.491H444.154L440.992 561.188H438.735ZM442.722 571.404H437.665L438.274 573.578H443.33L442.722 571.404ZM439.098 572.491L436.121 561.849H433.864L436.841 572.491H439.098ZM436.121 561.849C435.65 560.166 434.796 558.705 433.435 557.648L432.239 559.162C432.908 559.682 433.491 560.517 433.864 561.849H436.121ZM433.45 557.66C432.103 556.59 430.563 556.101 428.942 556.101L429.55 558.275C430.674 558.275 431.528 558.597 432.224 559.151L433.45 557.66ZM428.942 556.101C427.32 556.101 426.05 556.59 425.279 557.648L427.322 559.163C427.734 558.597 428.427 558.275 429.55 558.275L428.942 556.101ZM425.279 557.648C424.509 558.705 424.472 560.166 424.943 561.849H427.2C426.828 560.517 426.943 559.682 427.322 559.162L425.279 557.648ZM424.943 561.849L427.921 572.491H430.178L427.2 561.849H424.943ZM428.745 571.404H423.689L424.297 573.578H429.353L428.745 571.404ZM425.122 572.491L422.144 561.849H419.887L422.865 572.491H425.122ZM422.144 561.849C421.673 560.166 420.819 558.705 419.459 557.648L418.263 559.162C418.932 559.682 419.515 560.517 419.887 561.849H422.144ZM419.473 557.66C418.127 556.59 416.587 556.101 414.966 556.101L415.574 558.275C416.698 558.275 417.551 558.597 418.248 559.151L419.473 557.66ZM414.966 556.101C413.326 556.101 412.04 556.587 411.266 557.648L413.309 559.163C413.718 558.601 414.42 558.275 415.574 558.275L414.966 556.101ZM411.266 557.648C410.497 558.705 410.46 560.166 410.931 561.849H413.188C412.815 560.517 412.931 559.682 413.309 559.162L411.266 557.648ZM410.931 561.849L413.908 572.491H416.165L413.188 561.849H410.931ZM414.733 571.404H409.677L410.285 573.578H415.341L414.733 571.404ZM411.109 572.491L405.719 553.223H403.461L408.852 572.491H411.109ZM404.894 554.31H409.95L409.342 552.136H404.286L404.894 554.31ZM408.518 553.223L409.169 555.554H411.427L410.775 553.223H408.518ZM411.377 556.217C411.726 555.548 412.265 555.016 413.015 554.622L411.495 552.659C410.482 553.193 409.716 553.936 409.219 554.89L411.377 556.217ZM413.006 554.626C413.772 554.234 414.683 554.032 415.759 554.032L415.151 551.858C413.771 551.858 412.549 552.12 411.503 552.655L413.006 554.626ZM415.759 554.032C417.157 554.032 418.443 554.32 419.64 554.872L420.193 552.966C418.571 552.219 416.883 551.858 415.151 551.858L415.759 554.032ZM419.657 554.879C420.836 555.405 421.838 556.157 422.686 557.155L424.372 556.109C423.21 554.742 421.804 553.685 420.176 552.958L419.657 554.879ZM424.662 557.165C424.944 556.235 425.52 555.48 426.419 554.898L424.774 553.009C423.594 553.772 422.791 554.803 422.396 556.099L424.662 557.165ZM426.412 554.903C427.332 554.321 428.41 554.032 429.663 554.032L429.055 551.858C427.42 551.858 425.989 552.241 424.781 553.004L426.412 554.903Z" fill="#131313"/>
<rect x="0.955103" y="0.724569" width="242.935" height="121.887" rx="17.305" transform="matrix(1 0 0.269424 0.963022 204.805 501.065)" stroke="#131313" stroke-width="1.50478"/>
</g>
<g filter="url(#filter1_d_760_11391)">
<rect width="278.385" height="123.392" rx="18.0574" transform="matrix(1 0 0.269424 0.963022 187.808 142)" fill="white"/>
<g filter="url(#filter2_d_760_11391)">
<path d="M292.576 183.904L256.328 166.394L229.877 183.904L239.675 218.925L275.923 236.435L302.374 218.925L292.576 183.904Z" fill="#C1BFFA"/>
<path d="M295.09 215.302L287.319 187.527L258.354 173.64L237.16 187.527L244.931 215.302L274.523 229.19L295.09 215.302Z" fill="#FAE76C"/>
<path d="M260.479 193.733H269.425C270.025 193.733 270.642 194.201 270.804 194.779C270.965 195.356 270.61 195.825 270.01 195.825H262.15L263.416 200.352H271.277C271.877 200.352 272.494 200.82 272.655 201.397C272.817 201.975 272.462 202.443 271.862 202.443H264.001L265.56 208.016C265.722 208.593 265.367 209.061 264.767 209.061C264.168 209.061 263.551 208.593 263.389 208.016L259.686 194.779C259.525 194.201 259.879 193.733 260.479 193.733L260.479 193.733ZM256.375 193.733C255.776 193.733 255.42 194.201 255.582 194.779L258.311 204.534L248.485 194.246C248.113 193.855 247.565 193.678 247.14 193.811C246.714 193.944 246.514 194.356 246.648 194.821L250.339 208.016C250.501 208.593 251.118 209.061 251.717 209.061C252.317 209.061 252.672 208.593 252.511 208.016L249.782 198.261L259.619 208.549C259.989 208.934 260.533 209.109 260.955 208.978C261.391 208.839 261.588 208.409 261.433 207.932L257.754 194.779C257.592 194.201 256.975 193.733 256.375 193.733L256.375 193.733ZM272.377 195.825H275.764L279.175 208.016C279.337 208.593 279.954 209.061 280.553 209.061C281.153 209.061 281.509 208.593 281.347 208.016L277.936 195.825H281.324C281.923 195.825 282.278 195.356 282.116 194.779C281.955 194.201 281.338 193.733 280.738 193.733H271.792C271.193 193.733 270.837 194.201 270.999 194.779C271.16 195.356 271.778 195.825 272.378 195.825H272.377ZM293.988 183.812L303.828 218.984C303.929 219.355 303.819 219.697 303.537 219.883L276.863 237.469C276.579 237.656 276.165 237.656 275.777 237.469L239.231 219.883C238.845 219.697 238.543 219.355 238.437 218.984L228.597 183.812C228.495 183.441 228.606 183.098 228.888 182.913L255.594 165.326C255.877 165.14 256.292 165.14 256.68 165.326L293.225 182.913C293.612 183.098 293.914 183.441 294.02 183.812H293.988ZM291.986 184.418L256.728 167.438L230.938 184.417L240.439 218.378L275.73 235.357L301.52 218.378L291.986 184.418ZM258.706 172.572L287.722 186.53C288.112 186.717 288.416 187.064 288.52 187.439L296.33 215.355C296.437 215.731 296.326 216.077 296.041 216.265L274.835 230.223C274.552 230.41 274.137 230.41 273.749 230.223L244.733 216.265C244.343 216.077 244.039 215.731 243.935 215.355L236.125 187.439C236.018 187.064 236.129 186.717 236.414 186.53L257.62 172.572C257.903 172.385 258.318 172.385 258.706 172.572ZM258.748 174.663L238.463 188.035L245.939 214.759L273.701 228.111L293.992 214.759L286.515 188.035L258.748 174.663Z" fill="#131313"/>
</g>
<path d="M346.3 213.452H341.244L325.134 196.793L329.795 213.452H324.739L317.938 189.142H322.994L339.113 205.836L334.442 189.142H339.498L346.3 213.452ZM359.709 189.176L360.808 193.107H350.299L352.041 199.332H360.094L361.174 203.193H353.121L355.991 213.452H350.935L344.143 189.176H359.709ZM380.087 189.176L381.187 193.107H374.47L380.162 213.452H375.106L369.413 193.107H362.696L361.597 189.176H380.087Z" fill="#FAE76C"/>
<path d="M346.3 213.452L346.604 214.539H347.732L347.428 213.452H346.3ZM341.244 213.452L340.47 214.052L340.941 214.539H341.548L341.244 213.452ZM325.134 196.793L325.908 196.193L322.995 193.182L324.006 196.793H325.134ZM329.795 213.452L330.099 214.539H331.228L330.924 213.452H329.795ZM324.739 213.452H323.61L323.915 214.539H325.043L324.739 213.452ZM317.938 189.142L317.634 188.055H316.505L316.809 189.142H317.938ZM322.994 189.142L323.768 188.543L323.297 188.055H322.69L322.994 189.142ZM339.113 205.836L338.338 206.435L341.253 209.454L340.241 205.836H339.113ZM334.442 189.142L334.138 188.055H333.009L333.314 189.142H334.442ZM339.498 189.142H340.627L340.323 188.055H339.194L339.498 189.142ZM345.996 212.366H340.939L341.548 214.539H346.604L345.996 212.366ZM342.017 212.853L325.908 196.193L324.361 197.393L340.47 214.052L342.017 212.853ZM324.006 196.793L328.667 213.452H330.924L326.263 196.793H324.006ZM329.491 212.366H324.435L325.043 214.539H330.099L329.491 212.366ZM325.868 213.452L319.066 189.142H316.809L323.61 213.452H325.868ZM318.242 190.229H323.298L322.69 188.055H317.634L318.242 190.229ZM322.22 189.741L338.338 206.435L339.887 205.237L323.768 188.543L322.22 189.741ZM340.241 205.836L335.571 189.142H333.314L337.984 205.836H340.241ZM334.746 190.229H339.802L339.194 188.055H334.138L334.746 190.229ZM338.37 189.142L345.171 213.452H347.428L340.627 189.142H338.37ZM359.709 189.176H360.837L360.533 188.09H359.405L359.709 189.176ZM360.808 193.107L361.112 194.193H362.241L361.937 193.107H360.808ZM350.299 193.107L349.995 192.02H348.866L349.17 193.107H350.299ZM352.041 199.332H350.912L351.216 200.419H352.345L352.041 199.332ZM360.094 199.332H361.223L360.919 198.245H359.79L360.094 199.332ZM361.174 203.193L361.478 204.279H362.607L362.303 203.193H361.174ZM353.121 203.193L352.817 202.106H351.688L351.992 203.193H353.121ZM355.991 213.452L356.295 214.539H357.424L357.12 213.452H355.991ZM350.935 213.452H349.806L350.11 214.539H351.239L350.935 213.452ZM344.143 189.176L343.839 188.09H342.711L343.015 189.176H344.143ZM358.58 189.176L359.68 193.107H361.937L360.837 189.176H358.58ZM360.504 192.02H349.995L350.603 194.193H361.112L360.504 192.02ZM349.17 193.107L350.912 199.332H353.169L351.427 193.107H349.17ZM352.345 200.419H360.398L359.79 198.245H351.737L352.345 200.419ZM358.966 199.332L360.046 203.193H362.303L361.223 199.332H358.966ZM360.87 202.106H352.817L353.425 204.279H361.478L360.87 202.106ZM351.992 203.193L354.862 213.452H357.12L354.249 203.193H351.992ZM355.687 212.366H350.631L351.239 214.539H356.295L355.687 212.366ZM352.064 213.452L345.272 189.176H343.015L349.806 213.452H352.064ZM344.447 190.263H360.013L359.405 188.09H343.839L344.447 190.263ZM380.087 189.176H381.216L380.912 188.09H379.783L380.087 189.176ZM381.187 193.107L381.491 194.193H382.62L382.315 193.107H381.187ZM374.47 193.107L374.165 192.02H373.037L373.341 193.107H374.47ZM380.162 213.452L380.466 214.539H381.594L381.29 213.452H380.162ZM375.106 213.452H373.977L374.281 214.539H375.41L375.106 213.452ZM369.413 193.107H370.542L370.238 192.02H369.109L369.413 193.107ZM362.696 193.107H361.568L361.872 194.193H363L362.696 193.107ZM361.597 189.176L361.293 188.09H360.164L360.468 189.176H361.597ZM378.959 189.176L380.058 193.107H382.315L381.216 189.176H378.959ZM380.883 192.02H374.165L374.774 194.193H381.491L380.883 192.02ZM373.341 193.107L379.033 213.452H381.29L375.598 193.107H373.341ZM379.858 212.366H374.802L375.41 214.539H380.466L379.858 212.366ZM376.234 213.452L370.542 193.107H368.285L373.977 213.452H376.234ZM369.109 192.02H362.392L363 194.193H369.718L369.109 192.02ZM363.825 193.107L362.725 189.176H360.468L361.568 193.107H363.825ZM361.901 190.263H380.391L379.783 188.09H361.293L361.901 190.263Z" fill="#131313"/>
<rect x="0.955103" y="0.724569" width="276.88" height="121.887" rx="17.305" transform="matrix(1 0 0.269424 0.963022 187.613 142.027)" stroke="#131313" stroke-width="1.50478"/>
</g>
<path d="M362.616 409.269C426.671 371.352 417.569 290.043 389.631 249.615L360.717 268.653C378.7 293.72 396.953 352.059 333.709 393.7C277.809 430.506 300.28 499.907 324.045 528.088L349.104 511.589C349.104 511.589 298.561 447.185 362.616 409.269Z" fill="#C1BFFA" stroke="#131313" stroke-width="0.954376"/>
<path d="M335.412 395.143C399.467 357.227 390.365 275.917 362.427 235.49L333.513 254.528C351.497 279.595 369.749 337.934 306.505 379.575C250.605 416.381 273.076 485.782 296.841 513.963L321.9 497.464C321.9 497.464 271.357 433.06 335.412 395.143Z" fill="#FAE76C" stroke="#131313" stroke-width="0.954376"/>
<rect x="0.955103" y="0.724569" width="265.594" height="99.3156" rx="17.305" transform="matrix(1 0 0.269424 0.963022 203.805 327.169)" fill="white"/>
<path d="M264.006 386.282L257.166 378.398H255.179L257.385 386.282H253.171L247.512 366.052H255.397C257.022 366.052 258.485 366.332 259.785 366.892C261.08 367.433 262.141 368.177 262.968 369.124C263.809 370.051 264.392 371.095 264.716 372.254C265.089 373.587 265.026 374.795 264.526 375.877C264.021 376.94 263.032 377.674 261.561 378.08L268.881 386.282H264.006ZM254.328 375.355H257.849C258.993 375.355 259.772 375.094 260.188 374.573C260.599 374.032 260.671 373.288 260.407 372.341C260.147 371.413 259.666 370.699 258.964 370.196C258.256 369.675 257.33 369.414 256.187 369.414H252.666L254.328 375.355ZM279.627 386.542C278.022 386.542 276.483 386.204 275.009 385.528C273.531 384.832 272.244 383.857 271.151 382.601C270.077 381.345 269.311 379.896 268.851 378.253C268.392 376.611 268.357 375.162 268.748 373.906C269.159 372.65 269.922 371.684 271.037 371.008C272.147 370.312 273.504 369.964 275.109 369.964C276.714 369.964 278.266 370.312 279.765 371.008C281.258 371.684 282.552 372.65 283.646 373.906C284.759 375.162 285.546 376.611 286.006 378.253C286.465 379.896 286.479 381.345 286.048 382.601C285.637 383.857 284.867 384.832 283.737 385.528C282.622 386.204 281.252 386.542 279.627 386.542ZM278.638 383.007C279.4 383.007 280.064 382.833 280.629 382.485C281.208 382.118 281.598 381.577 281.8 380.862C282.001 380.147 281.958 379.277 281.672 378.253C281.245 376.727 280.496 375.558 279.427 374.746C278.372 373.916 277.242 373.5 276.038 373.5C274.834 373.5 273.937 373.916 273.347 374.746C272.772 375.558 272.698 376.727 273.125 378.253C273.552 379.78 274.273 380.958 275.288 381.789C276.317 382.601 277.434 383.007 278.638 383.007ZM298.518 386.542C296.913 386.542 295.374 386.204 293.9 385.528C292.422 384.832 291.135 383.857 290.042 382.601C288.968 381.345 288.201 379.896 287.742 378.253C287.282 376.611 287.248 375.162 287.639 373.906C288.05 372.65 288.813 371.684 289.928 371.008C291.038 370.312 292.395 369.964 294 369.964C295.605 369.964 297.157 370.312 298.656 371.008C300.149 371.684 301.443 372.65 302.537 373.906C303.65 375.162 304.437 376.611 304.896 378.253C305.356 379.896 305.37 381.345 304.939 382.601C304.528 383.857 303.758 384.832 302.628 385.528C301.513 386.204 300.143 386.542 298.518 386.542ZM297.529 383.007C298.291 383.007 298.955 382.833 299.519 382.485C300.099 382.118 300.489 381.577 300.691 380.862C300.892 380.147 300.849 379.277 300.563 378.253C300.136 376.727 299.387 375.558 298.318 374.746C297.262 373.916 296.133 373.5 294.929 373.5C293.725 373.5 292.828 373.916 292.238 374.746C291.663 375.558 291.588 376.727 292.016 378.253C292.443 379.78 293.164 380.958 294.178 381.789C295.208 382.601 296.325 383.007 297.529 383.007ZM326.081 369.993C328.128 369.993 329.943 370.602 331.528 371.819C333.127 373.017 334.229 374.698 334.834 376.862L337.47 386.282H333.256L330.775 377.413C330.424 376.157 329.825 375.201 328.979 374.544C328.128 373.867 327.13 373.529 325.987 373.529C324.843 373.529 324.025 373.867 323.532 374.544C323.054 375.201 322.99 376.157 323.342 377.413L325.823 386.282H321.609L319.128 377.413C318.777 376.157 318.178 375.201 317.332 374.544C316.481 373.867 315.483 373.529 314.34 373.529C313.176 373.529 312.348 373.867 311.855 374.544C311.377 375.201 311.313 376.157 311.664 377.413L314.146 386.282H309.932L305.44 370.225H309.654L310.197 372.167C310.549 371.491 311.093 370.959 311.827 370.573C312.582 370.187 313.471 369.993 314.494 369.993C315.798 369.993 317.038 370.264 318.212 370.805C319.382 371.327 320.385 372.08 321.222 373.065C321.505 372.138 322.079 371.394 322.945 370.834C323.832 370.273 324.877 369.993 326.081 369.993ZM355.347 386.485C353.882 386.485 352.491 386.243 351.172 385.76C349.873 385.277 348.755 384.581 347.819 383.673C346.883 382.765 346.232 381.693 345.866 380.456H350.38C350.673 381.287 351.157 381.944 351.834 382.427C352.531 382.91 353.361 383.151 354.324 383.151C355.307 383.151 356.018 382.929 356.455 382.485C356.887 382.021 357.001 381.422 356.795 380.688C356.628 380.089 356.299 379.596 355.81 379.21C355.32 378.823 354.755 378.524 354.114 378.311C353.487 378.08 352.634 377.828 351.556 377.558C350.083 377.171 348.864 376.795 347.899 376.427C346.948 376.041 346.056 375.471 345.223 374.718C344.405 373.945 343.818 372.921 343.461 371.645C343.126 370.447 343.145 369.404 343.518 368.515C343.892 367.626 344.575 366.95 345.569 366.486C346.557 366.003 347.774 365.762 349.218 365.762C351.385 365.762 353.284 366.274 354.915 367.298C356.56 368.303 357.707 369.713 358.356 371.529H353.721C353.487 370.834 353.016 370.264 352.31 369.819C351.618 369.356 350.801 369.124 349.858 369.124C349.035 369.124 348.43 369.327 348.042 369.732C347.674 370.138 347.598 370.728 347.814 371.5C347.966 372.041 348.273 372.496 348.737 372.863C349.216 373.21 349.758 373.5 350.365 373.732C350.986 373.945 351.839 374.196 352.923 374.486C354.396 374.872 355.617 375.259 356.588 375.645C357.559 376.031 358.463 376.611 359.302 377.384C360.14 378.157 360.735 379.171 361.086 380.427C361.389 381.509 361.379 382.514 361.057 383.441C360.734 384.369 360.09 385.113 359.123 385.673C358.151 386.214 356.892 386.485 355.347 386.485ZM379.232 377.906C379.394 378.485 379.5 379.007 379.549 379.471H367.361C367.785 380.63 368.461 381.538 369.387 382.195C370.313 382.852 371.318 383.18 372.401 383.18C373.966 383.18 374.899 382.533 375.198 381.239H379.743C379.694 382.784 379.128 384.06 378.044 385.064C376.956 386.05 375.418 386.542 373.432 386.542C371.827 386.542 370.288 386.204 368.814 385.528C367.356 384.832 366.09 383.857 365.016 382.601C363.962 381.345 363.206 379.896 362.746 378.253C362.281 376.592 362.224 375.133 362.575 373.877C362.926 372.621 363.639 371.655 364.714 370.979C365.789 370.302 367.149 369.964 368.794 369.964C370.379 369.964 371.885 370.293 373.313 370.95C374.761 371.607 375.996 372.544 377.019 373.761C378.056 374.959 378.794 376.341 379.232 377.906ZM374.544 376.746C374.232 375.703 373.608 374.872 372.672 374.254C371.732 373.616 370.71 373.297 369.606 373.297C368.563 373.297 367.766 373.607 367.217 374.225C366.682 374.824 366.486 375.664 366.628 376.746H374.544ZM384.768 372.718C385.072 371.868 385.588 371.201 386.315 370.718C387.063 370.235 387.999 369.993 389.122 369.993L390.314 374.254H389.201C387.876 374.254 386.957 374.553 386.442 375.152C385.948 375.751 385.909 376.795 386.325 378.282L388.563 386.282H384.35L379.857 370.225H384.071L384.768 372.718ZM402.122 382.543L402.89 370.225H407.374L405.696 386.282H400.58L389.948 370.225H394.463L402.122 382.543ZM411.041 368.312C410.299 368.312 409.614 368.09 408.989 367.646C408.377 367.182 407.977 366.612 407.788 365.936C407.599 365.259 407.683 364.699 408.04 364.255C408.412 363.791 408.969 363.559 409.711 363.559C410.454 363.559 411.13 363.791 411.742 364.255C412.368 364.699 412.775 365.259 412.964 365.936C413.154 366.612 413.062 367.182 412.69 367.646C412.333 368.09 411.783 368.312 411.041 368.312ZM413.653 370.225L418.145 386.282H413.931L409.439 370.225H413.653ZM418.677 378.253C418.212 376.592 418.158 375.143 418.514 373.906C418.865 372.65 419.568 371.684 420.623 371.008C421.672 370.312 422.999 369.964 424.604 369.964C426.671 369.964 428.517 370.467 430.142 371.471C431.782 372.457 433.084 373.848 434.049 375.645H429.504C429.069 374.949 428.506 374.408 427.816 374.022C427.141 373.616 426.382 373.413 425.539 373.413C424.335 373.413 423.501 373.838 423.037 374.689C422.567 375.519 422.548 376.708 422.981 378.253C423.408 379.78 424.092 380.968 425.032 381.818C425.966 382.649 427.036 383.065 428.239 383.065C429.945 383.065 430.853 382.33 430.964 380.862H435.508C435.533 382.601 435.007 383.982 433.929 385.006C432.851 386.03 431.289 386.542 429.242 386.542C427.637 386.542 426.118 386.204 424.685 385.528C423.247 384.832 422.003 383.866 420.955 382.63C419.901 381.374 419.142 379.915 418.677 378.253ZM452.966 377.906C453.128 378.485 453.234 379.007 453.284 379.471H441.095C441.519 380.63 442.195 381.538 443.121 382.195C444.047 382.852 445.052 383.18 446.135 383.18C447.7 383.18 448.633 382.533 448.933 381.239H453.477C453.428 382.784 452.862 384.06 451.779 385.064C450.69 386.05 449.153 386.542 447.166 386.542C445.561 386.542 444.022 386.204 442.549 385.528C441.09 384.832 439.824 383.857 438.75 382.601C437.697 381.345 436.94 379.896 436.481 378.253C436.016 376.592 435.959 375.133 436.31 373.877C436.661 372.621 437.373 371.655 438.448 370.979C439.523 370.302 440.883 369.964 442.528 369.964C444.113 369.964 445.62 370.293 447.047 370.95C448.495 371.607 449.731 372.544 450.753 373.761C451.791 374.959 452.528 376.341 452.966 377.906ZM448.278 376.746C447.966 375.703 447.342 374.872 446.407 374.254C445.466 373.616 444.444 373.297 443.34 373.297C442.297 373.297 441.501 373.607 440.951 374.225C440.417 374.824 440.221 375.664 440.363 376.746H448.278Z" fill="#131313"/>
<rect x="0.955103" y="0.724569" width="265.594" height="99.3156" rx="17.305" transform="matrix(1 0 0.269424 0.963022 203.805 327.169)" stroke="#131313" stroke-width="1.50478"/>
<defs>
<filter id="filter0_d_760_11391" x="205" y="501.039" width="282.199" height="123.344" filterUnits="userSpaceOnUse" color-interpolation-filters="sRGB">
<feFlood flood-opacity="0" result="BackgroundImageFix"/>
<feColorMatrix in="SourceAlpha" type="matrix" values="0 0 0 0 0 0 0 0 0 0 0 0 0 0 0 0 0 0 127 0" result="hardAlpha"/>
<feOffset dx="4.51435" dy="4.51435"/>
<feColorMatrix type="matrix" values="0 0 0 0 0.0745098 0 0 0 0 0.0745098 0 0 0 0 0.0745098 0 0 0 1 0"/>
<feBlend mode="normal" in2="BackgroundImageFix" result="effect1_dropShadow_760_11391"/>
<feBlend mode="normal" in="SourceGraphic" in2="effect1_dropShadow_760_11391" result="shape"/>
</filter>
<filter id="filter1_d_760_11391" x="187.808" y="142" width="316.144" height="123.344" filterUnits="userSpaceOnUse" color-interpolation-filters="sRGB">
<feFlood flood-opacity="0" result="BackgroundImageFix"/>
<feColorMatrix in="SourceAlpha" type="matrix" values="0 0 0 0 0 0 0 0 0 0 0 0 0 0 0 0 0 0 127 0" result="hardAlpha"/>
<feOffset dx="4.51435" dy="4.51435"/>
<feColorMatrix type="matrix" values="0 0 0 0 0.0745098 0 0 0 0 0.0745098 0 0 0 0 0.0745098 0 0 0 1 0"/>
<feBlend mode="normal" in2="BackgroundImageFix" result="effect1_dropShadow_760_11391"/>
<feBlend mode="normal" in="SourceGraphic" in2="effect1_dropShadow_760_11391" result="shape"/>
</filter>
<filter id="filter2_d_760_11391" x="228.56" y="165.186" width="79.0672" height="76.1848" filterUnits="userSpaceOnUse" color-interpolation-filters="sRGB">
<feFlood flood-opacity="0" result="BackgroundImageFix"/>
<feColorMatrix in="SourceAlpha" type="matrix" values="0 0 0 0 0 0 0 0 0 0 0 0 0 0 0 0 0 0 127 0" result="hardAlpha"/>
<feOffset dx="3.76195" dy="3.76195"/>
<feColorMatrix type="matrix" values="0 0 0 0 0.976471 0 0 0 0 0.894118 0 0 0 0 0.313726 0 0 0 1 0"/>
<feBlend mode="normal" in2="BackgroundImageFix" result="effect1_dropShadow_760_11391"/>
<feBlend mode="normal" in="SourceGraphic" in2="effect1_dropShadow_760_11391" result="shape"/>
</filter>
<clipPath id="clip0_760_11391">
<rect width="446.82" height="625.547" fill="white" transform="matrix(1 0 0.269424 0.963022 43.2271 42.2014)"/>
</clipPath>
<clipPath id="clip1_760_11391">
<rect width="75.2391" height="75.2391" fill="white" transform="matrix(1 0 0.269424 0.963022 235.563 524.225)"/>
</clipPath>
</defs>
</svg>
