<svg width="20" height="20" viewBox="0 0 20 20" fill="none" xmlns="http://www.w3.org/2000/svg">
<g clip-path="url(#clip0_1857_56928)">
<path d="M7.5 13.3333H12.5M5.83536 3.33171L4.1687 4.66504C3.24988 5.40009 2.79047 5.76762 2.45978 6.22381C2.16683 6.62794 1.94887 7.08142 1.81631 7.56264C1.66666 8.10584 1.66666 8.69417 1.66666 9.87083V11.6667C1.66666 14.0002 1.66666 15.167 2.1208 16.0583C2.52028 16.8423 3.15769 17.4797 3.9417 17.8792C4.833 18.3333 5.99978 18.3333 8.33333 18.3333H11.6667C14.0002 18.3333 15.167 18.3333 16.0583 17.8792C16.8423 17.4797 17.4797 16.8423 17.8792 16.0583C18.3333 15.167 18.3333 14.0002 18.3333 11.6667V9.87083C18.3333 8.69417 18.3333 8.10584 18.1837 7.56264C18.0511 7.08142 17.8332 6.62794 17.5402 6.22381C17.2095 5.76762 16.7501 5.40009 15.8313 4.66504L14.1646 3.33171C12.6783 2.14265 11.9351 1.54812 11.111 1.32011C10.384 1.11899 9.61602 1.11899 8.88903 1.32011C8.06485 1.54812 7.32169 2.14265 5.83536 3.33171Z" stroke="black" stroke-opacity="0.8" stroke-width="1.5" stroke-linecap="round" stroke-linejoin="round"/>
</g>
<defs>
<clipPath id="clip0_1857_56928">
<rect width="20" height="20" fill="white"/>
</clipPath>
</defs>
</svg>
