<svg width="100" height="100" viewBox="0 0 100 100" fill="none" xmlns="http://www.w3.org/2000/svg">
<path d="M99.5 20.5L95.5 4L79.5 0.5L45 35L37 43H35L28.5 42.5L20.5 44L14 47L10.5 50.5L6.5 54.5L3.5 59.5L2 66V70.5L2.5 76.5L5 83L8 87.5L11.5 91.5L18 95.5L24 97.5L31.5 98L36 97L40.5 95.5L45.5 93L49 90L51.5 87.5L54 83.5L56 79L57 75.5L57.5 70V67L56.5 63.5L62.5 57.5L59.5 54.5L68.5 45.5L71.5 48.5L78.5 41L74.5 37L76.5 35.5L80.5 39L84 35L80 31L89 22L93.5 26.5L99.5 20.5Z" fill="#FAE76C"/>
<path d="M49.5 45L91.5 3L87.5 2.5L47.5 42.5L47 44L48 45H49.5Z" fill="#EAECF0"/>
<circle cx="18.5" cy="81.5" r="5.5" fill="#EAECF0"/>
<path d="M22.7077 77.129C20.2414 74.6627 16.2941 74.6627 13.8278 77.129C11.3615 79.5953 11.3615 83.5427 13.8278 86.0089C14.9796 87.1606 16.6234 87.8179 18.2684 87.8179C19.9134 87.8179 21.5571 87.1606 22.7089 86.0089C25.1752 83.5426 25.1752 79.5952 22.7078 77.129H22.7077ZM21.8852 85.1866C19.9121 87.1597 16.6221 87.1597 14.4851 85.1866C12.512 83.2135 12.512 79.9235 14.4851 77.7865C15.4717 76.8 16.7874 76.3067 18.1031 76.3067C19.4189 76.3067 20.7346 76.8 21.7211 77.7865C24.0233 79.9248 24.0233 83.2135 21.8851 85.1866H21.8852ZM99.836 20.5566L96.3819 3.78204C96.3819 3.618 96.2178 3.45281 95.8886 3.28877L79.2792 0C79.1151 0 78.9499 1.10274e-06 78.7859 0.16404L36.357 42.4285C31.7523 41.2768 26.8187 41.442 22.214 42.5925C17.4455 43.9083 13.0049 46.3747 9.38667 49.9926C-1.79556 61.1748 -1.79556 79.2653 9.38667 90.2836C14.8136 95.7106 21.8848 98.6704 29.6141 98.6704C37.3434 98.6704 44.4143 95.7109 49.8415 90.2836C53.4595 86.6657 55.926 82.2251 57.2416 77.4563C58.3934 72.8516 58.5574 68.0819 57.4057 63.3133L62.9968 57.7222C63.1608 57.5582 63.1608 57.2289 62.9968 56.8997L60.5305 54.4334L68.7531 46.2107L71.2194 48.6771C71.3835 48.8411 71.7127 48.8411 72.042 48.6771L79.2782 41.4408C79.4422 41.2768 79.4422 40.9476 79.2782 40.6183L75.6602 37.0004L76.8119 35.8486L80.4299 39.4666C80.5939 39.6306 80.9232 39.6306 81.2524 39.4666L85.0345 35.6845C85.1986 35.5204 85.1986 35.5204 85.1986 35.3552C85.1986 35.1912 85.1986 35.026 85.0345 35.026L80.7591 30.7505L88.9817 22.5279L93.2572 26.8034C93.4212 26.9674 93.7505 26.9674 94.0797 26.8034L100 20.883C99.836 21.0494 99.836 20.8853 99.836 20.5561L99.836 20.5566ZM90.2977 3.45402L49.3489 44.4028C49.1849 44.5669 48.8556 44.7321 48.6916 44.7321C48.3624 44.7321 48.1983 44.568 48.0343 44.4028L47.8702 44.2388C47.7062 44.0748 47.541 43.7455 47.541 43.5815C47.541 43.4174 47.705 43.0882 47.8702 42.9242L87.8323 2.96207L90.2977 3.45402ZM93.2585 25.9838L88.983 21.7083C88.8189 21.5443 88.4897 21.5443 88.1605 21.7083L79.2806 30.5882C79.1165 30.7522 79.1165 31.0815 79.2806 31.4107L83.5561 35.6862L80.4312 38.8111L76.8132 35.1931C76.6492 35.0291 76.3199 35.0291 75.9907 35.1931L74.1817 37.0022C74.0176 37.1662 74.0176 37.4954 74.1817 37.8247L77.7996 41.4426L71.5501 47.691L69.0838 45.2246C68.9198 45.0606 68.5905 45.0606 68.2613 45.2246L59.3802 54.2699C59.2162 54.4339 59.2162 54.7631 59.3802 55.0924L61.8466 57.5587L56.4196 62.9856C56.2556 63.1497 56.2556 63.3149 56.2556 63.4789C58.5579 72.8533 55.9263 82.8838 49.0193 89.6267C43.7563 94.8897 37.0146 97.6852 29.6145 97.6852C22.2144 97.6852 15.4715 94.8896 10.2096 89.6267C-0.480456 78.9378 -0.480456 61.5058 10.2096 50.8157C15.4715 45.5538 22.5436 42.7581 29.7798 42.7581C32.0821 42.7581 34.2203 43.0873 36.5227 43.5806C36.6867 43.5806 36.8519 43.5806 37.0159 43.4166L79.2804 1.15211L86.6805 2.63193L47.2117 42.1007C46.8825 42.4299 46.5544 43.0872 46.5544 43.5805C46.5544 44.0738 46.7185 44.7322 47.2117 45.0603L47.3758 45.2243C47.705 45.5536 48.3623 45.8817 48.8556 45.8817C49.3489 45.8817 49.8421 45.7176 50.3354 45.2243L91.6131 3.6177L95.3953 4.44021L98.684 20.5563L93.2585 25.9838Z" fill="#131313"/>
</svg>
