<svg width="60" height="60" viewBox="0 0 60 60" fill="none" xmlns="http://www.w3.org/2000/svg">
<g filter="url(#filter0_d_594_10605)">
<path d="M35 40C35 48.2843 28.2843 55 20 55C11.7157 55 5 48.2843 5 40C5 31.7157 11.7157 25 20 25C28.2843 25 35 31.7157 35 40Z" fill="#F8DA1B"/>
<path d="M53.8686 13.8686C54.2647 14.2646 54.4627 14.4627 54.5369 14.691C54.6021 14.8918 54.6021 15.1082 54.5369 15.309C54.4627 15.5373 54.2647 15.7354 53.8686 16.1314L46.8555 23.1445C46.6341 23.3659 46.5234 23.4766 46.3925 23.5465C46.2765 23.6085 46.1495 23.6469 46.0186 23.6597C45.8708 23.6742 45.7173 23.6435 45.4103 23.5821L36.6816 21.8363C35.7293 21.6459 35.2531 21.5506 35.0304 21.2996C34.8363 21.0809 34.7477 20.7882 34.7878 20.4985C34.8339 20.1661 35.1773 19.8227 35.864 19.136L46.3686 8.63137C46.7647 8.23535 46.9627 8.03735 47.191 7.96316C47.3918 7.8979 47.6082 7.8979 47.809 7.96316C48.0374 8.03735 48.2354 8.23535 48.6314 8.63137L53.8686 13.8686Z" fill="#F8DA1B"/>
</g>
<path d="M50 5L28.75 26.25M35 40C35 48.2843 28.2843 55 20 55C11.7157 55 5 48.2843 5 40C5 31.7157 11.7157 25 20 25C28.2843 25 35 31.7157 35 40ZM55 15L46.25 23.75L33.75 21.25L47.5 7.5L55 15Z" stroke="#0A0517" stroke-width="2" stroke-linecap="round" stroke-linejoin="round"/>
<defs>
<filter id="filter0_d_594_10605" x="5" y="7.91431" width="51.5858" height="49.0857" filterUnits="userSpaceOnUse" color-interpolation-filters="sRGB">
<feFlood flood-opacity="0" result="BackgroundImageFix"/>
<feColorMatrix in="SourceAlpha" type="matrix" values="0 0 0 0 0 0 0 0 0 0 0 0 0 0 0 0 0 0 127 0" result="hardAlpha"/>
<feOffset dx="2" dy="2"/>
<feColorMatrix type="matrix" values="0 0 0 0 0.0392157 0 0 0 0 0.0196078 0 0 0 0 0.0901961 0 0 0 1 0"/>
<feBlend mode="normal" in2="BackgroundImageFix" result="effect1_dropShadow_594_10605"/>
<feBlend mode="normal" in="SourceGraphic" in2="effect1_dropShadow_594_10605" result="shape"/>
</filter>
</defs>
</svg>
