<svg width="24" height="24" viewBox="0 0 24 24" fill="none" xmlns="http://www.w3.org/2000/svg">
<path opacity="0.12" fill-rule="evenodd" clip-rule="evenodd" d="M12 2C7 2 3 5.5 3 10.5C3 18.3518 10 21.9998 12 21.9998C14 21.9998 21 18.3518 21 10.5C21 5.5 17 2 12 2ZM12 14C13.6569 14 15 12.6569 15 11C15 9.34315 13.6569 8 12 8C10.3431 8 9 9.34315 9 11C9 12.6569 10.3431 14 12 14Z" fill="#1C1C1C"/>
<path d="M3 10.5C3 5.5 7 2 12 2C17 2 21 5.5 21 10.5C21 18.3518 14 21.9998 12 21.9998C10 21.9998 3 18.3518 3 10.5Z" stroke="#1C1C1C" stroke-width="1.5"/>
<path d="M15 11C15 12.6569 13.6569 14 12 14C10.3431 14 9 12.6569 9 11C9 9.34315 10.3431 8 12 8C13.6569 8 15 9.34315 15 11Z" stroke="#1C1C1C" stroke-width="1.5"/>
</svg>
