<svg width="126" height="38" viewBox="0 0 126 38" fill="none" xmlns="http://www.w3.org/2000/svg">
  <path fill-rule="evenodd" clip-rule="evenodd"
    d="M3.9949 9.17695C3.99511 8.04986 4.70361 7.0445 5.76497 6.66524L11.55 4.59904C11.9586 4.45331 12.4124 4.51529 12.7669 4.76523C13.1214 5.01516 13.3321 5.42184 13.3321 5.85557L13.3321 27.1444C13.3321 27.5782 13.1214 27.9848 12.7669 28.2348C12.4124 28.4847 11.9586 28.5467 11.55 28.401L5.76497 26.3348C4.70361 25.9555 3.99511 24.9501 3.9949 23.8231L3.9949 9.17695Z"
    fill="white" stroke="white" stroke-width="2.66667" stroke-linecap="round" stroke-linejoin="round" />
  <path fill-rule="evenodd" clip-rule="evenodd"
    d="M18.6678 5.76883C18.6676 5.35449 18.8689 4.96592 19.2074 4.7271C19.546 4.48828 19.9796 4.42906 20.3699 4.56833L26.315 6.69188C27.329 7.054 28.0057 8.01479 28.005 9.09155L28.005 23.9084C28.0063 24.9856 27.3295 25.9471 26.315 26.3094L20.3699 28.4303C19.9798 28.5695 19.5465 28.5104 19.208 28.2719C18.8695 28.0334 18.668 27.6452 18.6678 27.2311L18.6678 5.76883Z"
    fill="white" stroke="white" stroke-width="2.66667" stroke-linecap="round" stroke-linejoin="round" />
  <path
    d="M57.62 27.5H62.42L56.81 18.86C59.54 17.9 61.31 15.71 61.31 12.26C61.31 7.34 58.1 5 53.33 5H45.83V27.5H50.12V19.4H52.37L57.62 27.5ZM53 8.84C55.37 8.84 56.87 9.98 56.87 12.26C56.87 14.51 55.37 15.71 53 15.71H50.12V8.84H53ZM70.5718 27.86C75.3118 27.86 79.0018 24.2 79.0018 19.49C79.0018 14.78 75.3718 11.12 70.5718 11.12C65.7118 11.12 62.1418 14.78 62.1418 19.49C62.1418 24.2 65.7718 27.86 70.5718 27.86ZM70.5718 24.11C67.9618 24.11 66.1318 22.1 66.1318 19.49C66.1318 16.88 67.9618 14.87 70.5718 14.87C73.2118 14.87 75.0118 16.88 75.0118 19.49C75.0118 22.1 73.2118 24.11 70.5718 24.11ZM88.4909 27.86C93.2309 27.86 96.9209 24.2 96.9209 19.49C96.9209 14.78 93.2909 11.12 88.4909 11.12C83.6309 11.12 80.0609 14.78 80.0609 19.49C80.0609 24.2 83.6909 27.86 88.4909 27.86ZM88.4909 24.11C85.8809 24.11 84.0509 22.1 84.0509 19.49C84.0509 16.88 85.8809 14.87 88.4909 14.87C91.1309 14.87 92.9309 16.88 92.9309 19.49C92.9309 22.1 91.1309 24.11 88.4909 24.11ZM102.66 18.47C102.66 16.34 103.86 14.81 106.11 14.81C108.24 14.81 109.38 16.37 109.38 18.56V27.5H113.34V18.47C113.34 16.34 114.54 14.81 116.79 14.81C118.92 14.81 120.06 16.37 120.06 18.56V27.5H124.02V18.41C124.02 14.33 121.89 11.12 117.51 11.12C114.69 11.12 113.04 12.44 112.23 13.79C111.15 11.99 109.23 11.12 106.89 11.12C104.31 11.12 102.99 12.77 102.66 13.46V11.48H98.7601V27.5H102.66V18.47Z"
    fill="white" />
</svg>