<svg width="80" height="26" viewBox="0 0 80 26" fill="none" xmlns="http://www.w3.org/2000/svg">
  <g fill="currentColor">
    <path
      d="M6.03671 25.8736H6.05302C10.0664 25.8736 11.7467 24.5516 11.7467 22.0547C11.7467 19.8352 10.409 18.807 7.66814 18.5785L5.30256 18.399C4.47053 18.3337 4.25845 17.9747 4.25845 17.5504C4.25845 16.9955 4.64999 16.6364 6.29774 16.6364C7.66814 16.6364 8.25546 16.8976 8.5328 17.8931H11.5673C11.4041 14.4985 8.9896 13.96 6.41194 13.96C2.51281 13.96 0.962948 15.2492 0.962948 17.5667C0.962948 19.6556 2.20284 20.8796 4.84576 21.0755L7.22765 21.255C8.09231 21.3203 8.36966 21.6304 8.36966 22.1526C8.36966 22.8054 7.88023 23.2134 6.21617 23.2134C4.8947 23.2134 4.03004 22.9196 3.81796 21.9568H0.799805C0.962948 25.3024 3.2959 25.8736 6.03671 25.8736Z" />
    <path
      d="M13.5182 25.6288H23.4374V22.7564H16.7974V21.206H23.2416V18.6601H16.7974V17.0771H23.4374V14.2048H13.5182V25.6288Z" />
    <path
      d="M25.6217 25.6288H28.9009V22.7075H31.9843H32.1148L33.6157 25.6288H36.8949L34.9698 21.9241C36.0629 21.1734 36.5523 19.9331 36.5523 18.4643C36.5523 16.0163 35.1982 14.2048 31.9843 14.2048H25.6217V25.6288ZM28.9009 19.8188V17.0934H31.6254C32.9142 17.0934 33.2568 17.6646 33.2568 18.4643C33.2568 19.2476 32.9142 19.8188 31.6254 19.8188H28.9009Z" />
    <path
      d="M42.1059 25.6288H45.6298L50.4752 14.2048H47.0492L43.8679 21.9568L40.6866 14.2048H37.2769L42.1059 25.6288Z" />
    <path d="M51.6271 25.6288H54.9063V14.2048H51.6271V25.6288Z" />
    <path
      d="M62.6712 25.8736C65.9341 25.8736 68.0549 24.0947 68.4628 21.1734H65.2489C64.7921 22.479 63.8948 22.887 62.6712 22.887C60.7787 22.887 59.7673 21.6956 59.7673 19.9168C59.7673 18.1379 60.7787 16.9465 62.6712 16.9465C63.8948 16.9465 64.7921 17.3545 65.2489 18.6601H68.4628C68.0549 15.7388 65.9341 13.96 62.6712 13.96C58.7558 13.96 56.4391 16.5712 56.4391 19.9168C56.4391 23.2624 58.7558 25.8736 62.6712 25.8736Z" />
    <path
      d="M70.0807 25.6288H79.9998V22.7564H73.3599V21.206H79.804V18.6601H73.3599V17.0771H79.9998V14.2048H70.0807V25.6288Z" />
    <path
      d="M1.20801 11.9488H4.48719V9.02755H7.5706H7.70112L9.20203 11.9488H12.4812L10.5561 8.24419C11.6492 7.49347 12.1386 6.25315 12.1386 4.78435C12.1386 2.33635 10.7845 0.524829 7.5706 0.524829H1.20801V11.9488ZM4.48719 6.13891V3.41347H7.21169C8.50052 3.41347 8.84312 3.98467 8.84312 4.78435C8.84312 5.56771 8.50052 6.13891 7.21169 6.13891H4.48719Z" />
    <path
      d="M19.101 12.1936C23.0165 12.1936 25.3331 9.58243 25.3331 6.23683C25.3331 2.89123 23.0165 0.280029 19.101 0.280029C15.1693 0.280029 12.8689 2.89123 12.8689 6.23683C12.8689 9.58243 15.1693 12.1936 19.101 12.1936ZM16.1971 6.23683C16.1971 4.45795 17.2086 3.26659 19.101 3.26659C20.9935 3.26659 22.005 4.45795 22.005 6.23683C22.005 8.01571 20.9935 9.20707 19.101 9.20707C17.2086 9.20707 16.1971 8.01571 16.1971 6.23683Z" />
    <path
      d="M32.2213 12.1936C36.1368 12.1936 38.4534 9.58243 38.4534 6.23683C38.4534 2.89123 36.1368 0.280029 32.2213 0.280029C28.2896 0.280029 25.9892 2.89123 25.9892 6.23683C25.9892 9.58243 28.2896 12.1936 32.2213 12.1936ZM29.3174 6.23683C29.3174 4.45795 30.3288 3.26659 32.2213 3.26659C34.1138 3.26659 35.1253 4.45795 35.1253 6.23683C35.1253 8.01571 34.1138 9.20707 32.2213 9.20707C30.3288 9.20707 29.3174 8.01571 29.3174 6.23683Z" />
    <path
      d="M39.5174 11.9488H42.7803V3.88675H43.0087L45.2764 11.9325H49.1592L51.4432 3.88675H51.6553V11.9488H54.9344V0.524829H49.5507L47.3156 8.79907H47.1199L44.8848 0.524829H39.5174V11.9488Z" />
  </g>
</svg>