<svg width="20" height="20" viewBox="0 0 20 20" fill="none" xmlns="http://www.w3.org/2000/svg">
<path d="M11.667 13.3337L11.6669 13.75V13.75C11.6669 14.2921 11.6669 14.5632 11.6407 14.7911C11.4281 16.638 9.97121 18.0949 8.12438 18.3075C7.89641 18.3337 7.62536 18.3337 7.08325 18.3337H6.66696C5.73768 18.3337 5.27304 18.3337 4.88665 18.2569C3.29987 17.9413 2.05947 16.7009 1.74385 15.1141C1.66699 14.7277 1.66699 14.263 1.66699 13.3338L1.66699 6.66707C1.66699 5.73776 1.66699 5.2731 1.74385 4.88671C2.05948 3.29994 3.29987 2.05955 4.88663 1.74393C5.27303 1.66707 5.73768 1.66707 6.66699 1.66707L7.08407 1.66707C7.62546 1.66707 7.89616 1.66707 8.12382 1.69324C9.97112 1.90561 11.4285 3.36295 11.6408 5.21024C11.667 5.4379 11.667 5.7086 11.667 6.24999V6.24999V6.66707M7.50033 9.99999L18.3337 9.99999M18.3337 9.99999L15.0003 6.66666M18.3337 9.99999L15.0003 13.3333" stroke="#1C1C1C" stroke-width="1.5" stroke-linecap="round" stroke-linejoin="round"/>
</svg>
