<svg width="18" height="18" viewBox="0 0 18 18" fill="none" xmlns="http://www.w3.org/2000/svg" stroke="currentColor">
<path d="M7.12938 9.11556C7.35907 8.61023 7.47392 8.35756 7.63564 8.14121C7.77909 7.9493 7.94938 7.77901 8.14128 7.63557C8.35764 7.47384 8.6103 7.359 9.11563 7.1293L12.3334 5.66667L10.8708 8.88446C10.6411 9.38978 10.5262 9.64245 10.3645 9.85881C10.2211 10.0507 10.0508 10.221 9.85888 10.3644C9.64252 10.5262 9.38986 10.641 8.88453 10.8707L5.66675 12.3333L7.12938 9.11556Z"  stroke-width="1.25" stroke-linecap="round" stroke-linejoin="round"/>
<path d="M17.3334 9.00001C17.3334 13.6024 13.6025 17.3333 9.00008 17.3333C4.39771 17.3333 0.666746 13.6024 0.666747 9C0.666747 4.39763 4.39771 0.666672 9.00008 0.666673C13.6025 0.666674 17.3334 4.39763 17.3334 9.00001Z"  stroke-width="1.25" stroke-linecap="round" stroke-linejoin="round"/>
</svg>
