<svg width="20" height="20" viewBox="0 0 20 20" fill="none" xmlns="http://www.w3.org/2000/svg">
<path d="M11.1743 10.206C11.1743 13.0811 8.85944 15.4118 6.00401 15.4118C3.14858 15.4118 0.833496 13.0806 0.833496 10.206C0.833496 7.33142 3.1484 5 6.00401 5C8.85961 5 11.1743 7.33089 11.1743 10.206Z" fill="#1C1C1C"/>
<path d="M16.8462 10.2063C16.8462 12.9126 15.6887 15.1073 14.2609 15.1073C12.8331 15.1073 11.6757 12.9126 11.6757 10.2063C11.6757 7.5 12.833 5.30525 14.2608 5.30525C15.6886 5.30525 16.8462 7.4993 16.8462 10.2063Z" fill="#1C1C1C"/>
<path d="M19.1666 10.2061C19.1666 12.6302 18.7596 14.5966 18.2574 14.5966C17.7551 14.5966 17.3483 12.6308 17.3483 10.2061C17.3483 7.78135 17.7553 5.81549 18.2574 5.81549C18.7594 5.81549 19.1666 7.78118 19.1666 10.2061Z" fill="#1C1C1C"/>
</svg>
