<svg width="24" height="24" viewBox="0 0 24 24" fill="none" xmlns="http://www.w3.org/2000/svg">
<path d="M13.409 12.2472C13.409 15.6973 10.6311 18.4942 7.20461 18.4942C3.7781 18.4942 1 15.6967 1 12.2472C1 8.7977 3.77789 6 7.20461 6C10.6313 6 13.409 8.79707 13.409 12.2472Z" fill="#1C1C1C"/>
<path d="M20.2154 12.2475C20.2154 15.495 18.8264 18.1287 17.1131 18.1287C15.3997 18.1287 14.0107 15.495 14.0107 12.2475C14.0107 8.99992 15.3995 6.36621 17.1128 6.36621C18.8262 6.36621 20.2151 8.99907 20.2151 12.2475" fill="#1C1C1C"/>
<path d="M22.9998 12.2472C22.9998 15.1562 22.5114 17.5159 21.9087 17.5159C21.3061 17.5159 20.8179 15.1568 20.8179 12.2472C20.8179 9.33755 21.3063 6.97852 21.9087 6.97852C22.5112 6.97852 22.9998 9.33734 22.9998 12.2472Z" fill="#1C1C1C"/>
</svg>
