<svg width="19" height="19" viewBox="0 0 19 19" fill="none" xmlns="http://www.w3.org/2000/svg" stroke="currentColor">
<path d="M11.9998 18.3332L11.9998 12.4998C11.9998 12.0352 11.9998 11.8029 11.9614 11.6097C11.8036 10.8163 11.1834 10.1961 10.39 10.0383C10.1968 9.99983 9.96449 9.99983 9.49984 9.99983V9.99983C9.03518 9.99983 8.80285 9.99983 8.60965 10.0383C7.81627 10.1961 7.19608 10.8163 7.03826 11.6097C6.99984 11.8029 6.99983 12.0352 6.99983 12.4998L6.99983 18.3332M4.50228 3.99788L4.12374 4.30071C3.06558 5.14723 2.53651 5.5705 2.15015 6.09155C1.77178 6.60183 1.49412 7.17954 1.33202 7.79377C1.1665 8.42096 1.1665 9.09851 1.1665 10.4536V10.4536C1.1665 13.1403 1.1665 14.4836 1.66932 15.5184C2.1591 16.5264 2.97329 17.3406 3.98124 17.8303C5.01602 18.3332 6.35937 18.3332 9.04606 18.3332L9.95361 18.3332C12.6403 18.3332 13.9836 18.3332 15.0184 17.8303C16.0264 17.3406 16.8406 16.5264 17.3303 15.5184C17.8332 14.4837 17.8332 13.1403 17.8332 10.4536V10.4536C17.8332 9.09851 17.8332 8.42096 17.6676 7.79377C17.5056 7.17955 17.2279 6.60183 16.8495 6.09155C16.4632 5.5705 15.9341 5.14724 14.8759 4.30071L14.4974 3.99788C12.7138 2.57101 11.822 1.85757 10.833 1.58397C9.96061 1.34262 9.03907 1.34262 8.16668 1.58397C7.17766 1.85757 6.28587 2.57101 4.50228 3.99788Z"  stroke-width="1.25" stroke-linecap="round" stroke-linejoin="round"/>
</svg>
