<svg width="271" height="270" viewBox="0 0 271 270" fill="none" xmlns="http://www.w3.org/2000/svg">
<rect x="45.2002" y="206.4" width="180.3" height="9.6" rx="4.8" fill="white" stroke="#1C1C1C" stroke-width="1.8"/>
<path d="M86.8445 54H179.039C208.581 54 215.966 61.3846 215.966 90.8402V143.362C215.966 172.901 208.581 180.203 179.122 180.203H86.8445C57.3855 180.286 50 172.901 50 143.445V90.8402C50 61.3846 57.3855 54 86.8445 54Z" fill="white" stroke="#1C1C1C" stroke-width="1.8" stroke-linecap="round"/>
<path d="M123.647 180.203L123.647 196.8" stroke="#1C1C1C" stroke-width="1.8" stroke-linecap="round"/>
<path d="M141.973 180.203L141.973 196.8" stroke="#1C1C1C" stroke-width="1.8" stroke-linecap="round"/>
<path d="M52.4204 161.532H213.546" stroke="#1C1C1C" stroke-width="1.8" stroke-linecap="round"/>
<rect x="92" y="196.8" width="86.7" height="9.6" rx="4.8" fill="white" stroke="#1C1C1C" stroke-width="1.8"/>
<path d="M171.395 73.3012H187.984" stroke="#1C1C1C" stroke-width="1.8" stroke-linecap="round" stroke-linejoin="round"/>
<path d="M171.395 81.5961H199.044" stroke="#1C1C1C" stroke-width="1.8" stroke-linecap="round" stroke-linejoin="round"/>
<path d="M171.395 92.4934H187.984" stroke="#1C1C1C" stroke-width="1.8" stroke-linecap="round" stroke-linejoin="round"/>
<path d="M171.395 100.788H199.044" stroke="#1C1C1C" stroke-width="1.8" stroke-linecap="round" stroke-linejoin="round"/>
<path d="M199.044 119.981H171.395" stroke="#1C1C1C" stroke-width="1.8" stroke-linecap="round" stroke-linejoin="round"/>
<path d="M199.044 139.196H171.395" stroke="#1C1C1C" stroke-width="1.8" stroke-linecap="round" stroke-linejoin="round"/>
<path d="M199.044 111.848H171.395" stroke="#1C1C1C" stroke-width="1.8" stroke-linecap="round" stroke-linejoin="round"/>
<path d="M199.044 131.064H171.395" stroke="#1C1C1C" stroke-width="1.8" stroke-linecap="round" stroke-linejoin="round"/>
<path fill-rule="evenodd" clip-rule="evenodd" d="M155.13 122.745C158.184 122.745 160.66 120.27 160.66 117.215C160.66 114.161 158.184 111.686 155.13 111.686C152.076 111.686 149.6 114.161 149.6 117.215C149.6 120.27 152.076 122.745 155.13 122.745Z" stroke="#1C1C1C" stroke-width="1.8" stroke-linecap="round" stroke-linejoin="round"/>
<path fill-rule="evenodd" clip-rule="evenodd" d="M155.13 102.06C158.184 102.06 160.66 99.584 160.66 96.5299C160.66 93.4758 158.184 91 155.13 91C152.076 91 149.6 93.4758 149.6 96.5299C149.6 99.584 152.076 102.06 155.13 102.06Z" stroke="#1C1C1C" stroke-width="1.8" stroke-linecap="round" stroke-linejoin="round"/>
<path fill-rule="evenodd" clip-rule="evenodd" d="M155.13 83.0599C158.184 83.0599 160.66 80.584 160.66 77.5299C160.66 74.4758 158.184 72 155.13 72C152.076 72 149.6 74.4758 149.6 77.5299C149.6 80.584 152.076 83.0599 155.13 83.0599Z" stroke="#1C1C1C" stroke-width="1.8" stroke-linecap="round" stroke-linejoin="round"/>
<path fill-rule="evenodd" clip-rule="evenodd" d="M155.13 141.961C158.184 141.961 160.66 139.485 160.66 136.431C160.66 133.377 158.184 130.901 155.13 130.901C152.076 130.901 149.6 133.377 149.6 136.431C149.6 139.485 152.076 141.961 155.13 141.961Z" stroke="#1C1C1C" stroke-width="1.8" stroke-linecap="round" stroke-linejoin="round"/>
<rect x="62.8999" y="67.2" width="74.1" height="83.1" rx="9" fill="#1C1C1C"/>
<rect x="114.95" y="84.7501" width="13.8" height="41.4" rx="6.9" transform="rotate(90 114.95 84.7501)" fill="white"/>
<rect x="126.05" y="104.25" width="13.2" height="52.5" rx="6.6" transform="rotate(90 126.05 104.25)" fill="white"/>
<rect x="117.35" y="123.15" width="13.8" height="43.8" rx="6.9" transform="rotate(90 117.35 123.15)" fill="white"/>
<path fill-rule="evenodd" clip-rule="evenodd" d="M199.197 188.926L189.704 158.617C188.703 155.42 191.986 152.557 195.03 153.975L223.387 167.199C226.748 168.765 226.179 173.698 222.548 174.46L217.44 175.535C213.358 176.394 210.014 179.312 208.611 183.241L206.53 189.066C205.28 192.554 200.306 192.455 199.197 188.926Z" fill="white" stroke="#1C1C1C" stroke-width="1.8"/>
</svg>
