<svg width="20" height="20" viewBox="0 0 20 20" fill="none" xmlns="http://www.w3.org/2000/svg">
<path fill-rule="evenodd" clip-rule="evenodd" d="M3.77204 1.58663C4.8416 1.04166 6.24173 1.04166 9.04199 1.04166L10.9587 1.04166C13.7589 1.04166 15.1591 1.04166 16.2286 1.58662C17.1694 2.06599 17.9343 2.83089 18.4137 3.7717C18.9587 4.84126 18.9587 6.24139 18.9587 9.04165V10.9583V10.9583C18.9587 13.7586 18.9587 15.1587 18.4137 16.2283C17.9343 17.1691 17.1694 17.934 16.2286 18.4134C15.1591 18.9583 13.7589 18.9583 10.9587 18.9583H9.042C6.24173 18.9583 4.8416 18.9583 3.77204 18.4134C2.83123 17.934 2.06633 17.1691 1.58696 16.2283C1.04199 15.1587 1.04199 13.7586 1.04199 10.9583L1.04199 9.04166C1.04199 6.2414 1.04199 4.84126 1.58696 3.77171C2.06633 2.8309 2.83123 2.06599 3.77204 1.58663ZM10.7503 5.83352C10.7503 5.41931 10.4145 5.08352 10.0003 5.08352C9.58608 5.08352 9.2503 5.41931 9.2503 5.83352L9.2503 14.1669C9.2503 14.5811 9.58608 14.9169 10.0003 14.9169C10.4145 14.9169 10.7503 14.5811 10.7503 14.1669L10.7503 5.83352ZM8.2503 7.50019C8.2503 7.08597 7.91451 6.75019 7.5003 6.75019C7.08608 6.75019 6.7503 7.08597 6.7503 7.50019L6.7503 12.5002C6.7503 12.9144 7.08608 13.2502 7.5003 13.2502C7.91451 13.2502 8.2503 12.9144 8.2503 12.5002L8.2503 7.50019ZM13.2503 7.50019C13.2503 7.08597 12.9145 6.75019 12.5003 6.75019C12.0861 6.75019 11.7503 7.08597 11.7503 7.50019L11.7503 12.5002C11.7503 12.9144 12.0861 13.2502 12.5003 13.2502C12.9145 13.2502 13.2503 12.9144 13.2503 12.5002L13.2503 7.50019ZM5.7503 9.16685C5.7503 8.75264 5.41451 8.41685 5.0003 8.41686C4.58608 8.41686 4.2503 8.75264 4.2503 9.16686L4.2503 10.8335C4.2503 11.2477 4.58608 11.5835 5.0003 11.5835C5.41451 11.5835 5.7503 11.2477 5.7503 10.8335V9.16685ZM15.7503 9.16685C15.7503 8.75264 15.4145 8.41685 15.0003 8.41685C14.5861 8.41685 14.2503 8.75264 14.2503 9.16685L14.2503 10.8335C14.2503 11.2477 14.5861 11.5835 15.0003 11.5835C15.4145 11.5835 15.7503 11.2477 15.7503 10.8335L15.7503 9.16685Z" fill="black" fill-opacity="0.8"/>
</svg>
