<svg width="58" height="24" fill="none" xmlns="http://www.w3.org/2000/svg">
  <path
    d="M0 23.75h5.321v-8.821h.5c.715 0 1.036.285 1.036 1.321v7.5h5.322v-7.107c0-2.036-.536-3.286-2.429-3.822v-.035c1.929-.679 2.429-2.393 2.429-5.536 0-4.821-1.215-7-6.143-7H0v23.5zm5.321-12V5.214h.5c.893 0 1.036.429 1.036 3.5 0 2.715-.214 3.036-1.071 3.036H5.32zM20.279 24c4.464 0 6.071-2.929 6.071-12.107C26.35 3.107 24.708 0 20.28 0s-6.071 3.107-6.071 11.893C14.208 21.214 15.85 24 20.279 24zm0-4.964c-.571 0-.75-.5-.75-7.143 0-6.322.179-6.929.75-6.929.536 0 .75.607.75 6.929 0 6.643-.214 7.143-.75 7.143zM34.351 24c4.465 0 6.072-2.929 6.072-12.107C40.423 3.107 38.78 0 34.35 0c-4.428 0-6.071 3.107-6.071 11.893C28.28 21.214 29.923 24 34.35 24zm0-4.964c-.571 0-.75-.5-.75-7.143 0-6.322.179-6.929.75-6.929.536 0 .75.607.75 6.929 0 6.643-.214 7.143-.75 7.143zM42.53 23.75h4.286l-.285-15.464h.107l1.607 15.464h2.786l1.607-15.464h.143l-.322 15.464h5.322V.25h-6.536l-.893 12.429h-.107L49.423.25h-6.892v23.5z"
    fill="#1C1C1C" />
</svg>