<svg width="19" height="18" viewBox="0 0 19 18" fill="none" xmlns="http://www.w3.org/2000/svg" stroke="currentColor">
<path d="M1.16675 3.86667C1.16675 2.74657 1.16675 2.18651 1.38473 1.75869C1.57648 1.38237 1.88244 1.07641 2.25877 0.884659C2.68659 0.666672 3.24664 0.666672 4.36675 0.666672L4.63342 0.666672C5.75352 0.666673 6.31357 0.666673 6.7414 0.88466C7.11772 1.07641 7.42368 1.38237 7.61543 1.75869C7.83341 2.18652 7.83341 2.74657 7.83341 3.86667L7.83341 5.80001C7.83341 6.92011 7.83341 7.48016 7.61543 7.90799C7.42368 8.28431 7.11772 8.59027 6.74139 8.78202C6.31357 9.00001 5.75352 9.00001 4.63341 9.00001L4.36675 9.00001C3.24664 9.00001 2.68659 9.00001 2.25877 8.78202C1.88244 8.59027 1.57648 8.28431 1.38473 7.90799C1.16675 7.48016 1.16675 6.92011 1.16675 5.80001L1.16675 3.86667Z"  stroke-width="1.25" stroke-linecap="round" stroke-linejoin="round"/>
<path d="M1.16675 14.8333C1.16675 14.3687 1.16675 14.1364 1.20518 13.9432C1.36299 13.1498 1.98318 12.5296 2.77657 12.3718C2.96976 12.3333 3.20209 12.3333 3.66675 12.3333L5.33341 12.3333C5.79807 12.3333 6.0304 12.3333 6.22359 12.3718C7.01697 12.5296 7.63717 13.1498 7.79498 13.9432C7.83341 14.1364 7.83341 14.3687 7.83341 14.8333V14.8333C7.83341 15.298 7.83341 15.5303 7.79498 15.7235C7.63717 16.5169 7.01697 17.1371 6.22359 17.2949C6.03039 17.3333 5.79807 17.3333 5.33341 17.3333L3.66674 17.3333C3.20209 17.3333 2.96976 17.3333 2.77656 17.2949C1.98318 17.1371 1.36299 16.5169 1.20517 15.7235C1.16675 15.5303 1.16675 15.298 1.16675 14.8333V14.8333Z"  stroke-width="1.25" stroke-linecap="round" stroke-linejoin="round"/>
<path d="M11.1667 3.16667C11.1667 2.70202 11.1667 2.46969 11.2052 2.27649C11.363 1.48311 11.9832 0.862916 12.7766 0.705103C12.9698 0.666674 13.2021 0.666674 13.6667 0.666674L15.3334 0.666674C15.7981 0.666674 16.0304 0.666674 16.2236 0.705104C17.017 0.862917 17.6372 1.48311 17.795 2.27649C17.8334 2.46969 17.8334 2.70202 17.8334 3.16667V3.16667C17.8334 3.63133 17.8334 3.86366 17.795 4.05686C17.6372 4.85024 17.017 5.47043 16.2236 5.62825C16.0304 5.66667 15.7981 5.66667 15.3334 5.66667L13.6667 5.66667C13.2021 5.66667 12.9698 5.66667 12.7766 5.62824C11.9832 5.47043 11.363 4.85024 11.2052 4.05685C11.1667 3.86366 11.1667 3.63133 11.1667 3.16667V3.16667Z"  stroke-width="1.25" stroke-linecap="round" stroke-linejoin="round"/>
<path d="M11.1667 12.2C11.1667 11.0799 11.1667 10.5198 11.3847 10.092C11.5765 9.7157 11.8824 9.40974 12.2588 9.21799C12.6866 9.00001 13.2466 9.00001 14.3667 9.00001L14.6334 9.00001C15.7535 9.00001 16.3136 9.00001 16.7414 9.218C17.1177 9.40974 17.4237 9.7157 17.6154 10.092C17.8334 10.5199 17.8334 11.0799 17.8334 12.2L17.8334 14.1333C17.8334 15.2534 17.8334 15.8135 17.6154 16.2413C17.4237 16.6176 17.1177 16.9236 16.7414 17.1154C16.3136 17.3333 15.7535 17.3333 14.6334 17.3333L14.3667 17.3333C13.2466 17.3333 12.6866 17.3333 12.2588 17.1154C11.8824 16.9236 11.5765 16.6176 11.3847 16.2413C11.1667 15.8135 11.1667 15.2534 11.1667 14.1333L11.1667 12.2Z"  stroke-width="1.25" stroke-linecap="round" stroke-linejoin="round"/>
</svg>
