<svg width="32" height="32" viewBox="0 0 32 32" fill="none" xmlns="http://www.w3.org/2000/svg">
<rect width="32" height="32" rx="12" fill="#FAE76C"/>
<path d="M13.3385 18.788C14.2345 18.0413 14.9485 17.4207 15.4805 16.926C16.0125 16.422 16.4558 15.8993 16.8105 15.358C17.1651 14.8167 17.3425 14.2847 17.3425 13.762C17.3425 13.286 17.2305 12.9127 17.0065 12.642C16.7825 12.3713 16.4371 12.236 15.9705 12.236C15.5038 12.236 15.1445 12.3947 14.8925 12.712C14.6405 13.02 14.5098 13.4447 14.5005 13.986H12.5965C12.6338 12.866 12.9651 12.0167 13.5905 11.438C14.2251 10.8593 15.0278 10.57 15.9985 10.57C17.0625 10.57 17.8791 10.8547 18.4485 11.424C19.0178 11.984 19.3025 12.726 19.3025 13.65C19.3025 14.378 19.1065 15.0733 18.7145 15.736C18.3225 16.3987 17.8745 16.9773 17.3705 17.472C16.8665 17.9573 16.2085 18.5453 15.3965 19.236H19.5265V20.86H12.6105V19.404L13.3385 18.788Z" fill="#1C1C1C"/>
</svg>
