<svg width="100" height="100" viewBox="0 0 100 100" fill="none" xmlns="http://www.w3.org/2000/svg">
<g clip-path="url(#clip0_760_11886)">
<path d="M85.5 51.5L80.5 48.5L82.5 46.5L86.5 43.5L91 39.5L94.5 35.5L97 32L97.5 29.5L97 27.5L96 26L92.5 24.5L88 24L83 24.5L76 26L70 27.5L71.5 16V10L71 6.5L70 3.5L68 1L66 0.5L62.5 2L58 5.5L54.5 10L51 15.5L48.5 20L39.5 9L34.5 4.5L30.5 2.5H28.5L26 4L24.5 8V13L25.5 21L26.5 26.5L27.5 30L16.5 28.5H9.5L4 30L1.5 31.5L0.5 33.5L1.5 37L4 40L9 44.5L14 48L20 51.5L9.5 60L5 65L3 69L2.5 71.5L3.5 73.5L6.5 75L11 75.5L18 75L24 74L28 73L30 72.5L29 78L28.5 83.5V88L29 92L29.5 96L31.5 98.5L34.5 99.5L37 98.5L40 96L43 93L45.5 89.5L48 86L50 82.5L51.5 80L53.5 82.5L56.5 86.5L59.5 90L63 93L67 96L69.5 97L72 97.5L74 96L75 93.5L75.5 90V87.3852V84.5L75 82L74.5 79L74 76L73 73L72.5 70L76 70.5L85.5 71.5H91L95.5 70.5L98.5 68.5L99.5 66.5L99 64L97 61L94 57.5L89.5 54L85.5 51.5Z" fill="#FAE76C"/>
<path d="M80.7853 48.277C92.9108 39.7319 99.6349 31.71 97.4605 27.1828C95.8124 23.7494 89.2961 22.9648 79.1052 24.957C76.4208 25.4841 73.5536 26.198 70.5662 27.0583C73.1066 12.4227 72.1926 1.97804 67.4513 0.315856C63.846 -0.953142 58.6866 3.10689 52.8977 11.7205C51.3733 13.99 49.8505 16.5217 48.3472 19.2426C39.7959 7.09613 31.7638 0.355518 27.2331 2.53927C23.7997 4.18896 23.0111 10.7067 25.0073 20.8946C25.5367 23.5892 26.2537 26.4681 27.1203 29.4686C24.0421 28.9384 21.1016 28.5422 18.3657 28.3133C8.01836 27.4491 1.62752 28.9524 0.367734 32.5493C-0.894249 36.1429 3.15717 41.3132 11.7724 47.1029C14.0504 48.6343 16.5953 50.1632 19.328 51.6721C16.7767 53.4736 14.417 55.2727 12.3197 57.0463C4.39344 63.7487 0.936941 69.3329 2.58896 72.7671C3.92257 75.5442 8.43948 76.5913 15.5062 75.8346C17.1784 75.6563 18.9931 75.3745 20.9425 74.9937C23.6253 74.4667 26.4927 73.7535 29.4806 72.8925C26.9403 87.5281 27.8543 97.9707 32.5955 99.6349C33.1771 99.8389 33.7999 99.9051 34.4593 99.835C37.8794 99.4691 42.2951 95.4535 47.1493 88.231C48.6807 85.9522 50.2096 83.4073 51.7201 80.6738C53.5216 83.2251 55.3215 85.5856 57.0943 87.6829C62.9861 94.6483 68.0115 98.161 71.473 97.7905C71.951 97.7392 72.3979 97.6138 72.8144 97.4145C76.2478 95.7648 77.0386 89.2455 75.0418 79.0592C74.5147 76.3748 73.8008 73.5052 72.939 70.5165C80.2282 71.7808 86.4891 72.1981 91.1299 71.7006C95.8041 71.1992 98.8475 69.7831 99.6828 67.4046C101.346 62.665 93.7776 55.4333 80.7849 48.2762L80.7853 48.277ZM79.2461 25.6761C81.1636 25.3009 82.9504 25.0253 84.5978 24.8493C91.272 24.1339 95.6224 25.0471 96.8019 27.5032C98.8206 31.7065 91.9945 39.5393 80.0637 47.8819C76.2108 45.7924 71.9016 43.7145 67.2296 41.7113C68.5827 36.823 69.6501 32.1713 70.427 27.8675C73.517 26.9652 76.4824 26.2186 79.2461 25.6768V25.6761ZM62.5942 43.9372C61.9146 42.5234 61.2256 41.1392 60.5326 39.7744C62.5202 40.5443 64.4649 41.3314 66.3483 42.1325C65.7971 44.1061 65.1953 46.117 64.5538 48.1512C63.9185 46.7507 63.2708 45.3455 62.5942 43.937L62.5942 43.9372ZM64.226 49.1938C63.6795 50.8972 63.1018 52.6178 62.493 54.3515C61.8857 56.0814 61.2583 57.7849 60.6183 59.4664C59.027 60.2831 57.403 61.0912 55.7478 61.887C54.0957 62.6803 52.4475 63.4417 50.8057 64.1773C49.1022 63.6308 47.3824 63.0532 45.6495 62.4451C43.922 61.8394 42.2201 61.2127 40.5408 60.572C39.7194 58.9729 38.9082 57.3489 38.1141 55.6969C37.3208 54.0448 36.5594 52.3966 35.8237 50.7548C36.3702 49.0513 36.9479 47.3331 37.5559 45.5994C38.1616 43.8719 38.7891 42.1684 39.4298 40.4891C41.0281 39.6677 42.6521 38.8573 44.3026 38.064C45.953 37.2707 47.6004 36.51 49.2415 35.7752C50.9527 36.3241 52.6733 36.8994 54.4016 37.5066C56.1362 38.1147 57.8388 38.7398 59.5119 39.3774C60.331 40.9711 61.1406 42.5966 61.937 44.255C62.7304 45.9062 63.4902 47.5536 64.2258 49.1939L64.226 49.1938ZM60.0353 38.7958C58.9414 36.6704 57.8344 34.6136 56.7179 32.626C61.1842 30.8494 65.5191 29.3321 69.6321 28.1058C68.8676 32.2622 67.8329 36.7374 66.5453 41.4186C64.4424 40.5264 62.2712 39.6506 60.0353 38.7958ZM59.0084 38.4081C57.5751 37.8693 56.1231 37.3376 54.6433 36.8175C53.1734 36.3022 51.7089 35.8132 50.25 35.3376C52.1932 34.4804 54.1193 33.6715 56.0306 32.9023C57.0318 34.6836 58.026 36.5208 59.0084 38.408V38.4081ZM49.1989 34.999C46.9335 34.275 44.6951 33.6148 42.481 32.9942C44.3861 28.5721 46.3814 24.4274 48.425 20.6468C50.8268 24.1322 53.2643 28.0334 55.6661 32.2616C53.529 33.1234 51.3749 34.0273 49.1989 34.9988V34.999ZM48.19 35.4521C46.7917 36.085 45.3896 36.732 43.9843 37.4078C42.5806 38.082 41.1994 38.7717 39.8324 39.4677C40.5977 37.4926 41.3864 35.5626 42.1922 33.6732C44.1704 34.2252 46.168 34.8153 48.19 35.4522V35.4521ZM38.8493 39.9707C36.7356 41.0614 34.6872 42.1762 32.6826 43.3036C30.9084 38.8426 29.3925 34.5126 28.1648 30.405C32.3829 31.1726 36.8524 32.2018 41.4822 33.4738C40.5823 35.5898 39.6994 37.7487 38.8493 39.9707ZM38.4577 41.003C37.9166 42.4394 37.3825 43.8883 36.8671 45.3582C36.3494 46.8335 35.8582 48.2947 35.3848 49.7444C34.5308 47.8082 33.7242 45.8883 32.9581 43.9856C34.7487 42.9774 36.579 41.9824 38.4577 41.003ZM35.0446 50.7937C34.3143 53.074 33.6417 55.3155 33.0243 57.5124C28.6209 55.6152 24.4947 53.6284 20.7291 51.5941C24.2536 49.1543 28.143 46.7214 32.3176 44.3477C33.1755 46.4771 34.077 48.6249 35.0448 50.7939L35.0446 50.7937ZM35.4954 51.798C36.1306 53.2002 36.7792 54.6062 37.4565 56.0145C38.1314 57.4197 38.8212 58.8001 39.5181 60.1688C37.5359 59.4011 35.6006 58.6094 33.7056 57.8028C34.2568 55.8339 34.8562 53.8285 35.4954 51.798H35.4954ZM40.0209 61.1535C41.1101 63.2671 42.225 65.3139 43.3523 67.3187C38.8781 69.0992 34.5355 70.619 30.4171 71.8483C31.1824 67.6862 32.2187 63.2027 33.5103 58.5145C35.6303 59.4153 37.7945 60.3005 40.0211 61.1537L40.0209 61.1535ZM41.0533 61.5451C42.4888 62.0854 43.9362 62.6187 45.406 63.1341C46.8837 63.6534 48.3449 64.1407 49.7969 64.6141C47.8591 65.4689 45.9394 66.2746 44.0358 67.0416C43.0276 65.2541 42.0326 63.423 41.0533 61.5452V61.5451ZM50.8502 64.9536C53.1274 65.6823 55.3656 66.3565 57.5611 66.9723C55.6638 71.3757 53.6763 75.5026 51.6428 79.2707C49.2029 75.7462 46.7701 71.8576 44.3972 67.683C46.5295 66.8251 48.6798 65.922 50.8504 64.9536H50.8502ZM51.8475 64.5059C53.2496 63.8706 54.6556 63.2221 56.0655 62.5448C57.4754 61.8675 58.8549 61.1824 60.215 60.491C59.4481 62.47 58.6579 64.4031 57.8514 66.2957C55.8818 65.746 53.8764 65.145 51.8475 64.5059V64.5059ZM61.1951 59.9913C63.3237 58.8967 65.3837 57.7858 67.3751 56.6685C69.1517 61.1365 70.6676 65.4713 71.8953 69.5827C67.7325 68.8175 63.249 67.7812 58.56 66.4896C59.4615 64.3744 60.3443 62.2147 61.1953 59.9913H61.1951ZM61.586 58.9613C62.1286 57.5218 62.6626 56.0682 63.1812 54.5938C63.6989 53.1169 64.1901 51.6565 64.6635 50.2052C65.5206 52.1484 66.3287 54.0736 67.0979 55.9817C65.3175 56.9845 63.4746 57.9788 61.586 58.9611L61.586 58.9613ZM65.006 49.1574C65.7378 46.874 66.4112 44.6279 67.0293 42.4264C71.5026 44.3517 75.6545 46.3487 79.3869 48.354C75.8937 50.7628 71.9808 53.2081 67.7394 55.6176C66.8784 53.4837 65.9761 51.3318 65.006 49.1574ZM53.5056 12.129C59.0122 3.93591 64.0103 -0.113322 67.2101 1.00616C71.6151 2.55309 72.3226 12.9394 69.7745 27.3001C65.5112 28.559 61.0028 30.134 56.3583 31.9845C53.8546 27.564 51.3165 23.511 48.819 19.9128C50.366 17.0923 51.9339 14.4678 53.5058 12.1298L53.5056 12.129ZM25.7249 20.7528C23.8261 11.0663 24.4901 4.66775 27.5505 3.1963C27.9156 3.02113 28.3065 2.91291 28.7222 2.86854C33.1208 2.39753 40.3276 9.0509 47.9573 19.9711C45.8287 23.8832 43.751 28.1923 41.7719 32.795C36.9536 31.4676 32.3027 30.3988 27.9282 29.6163C27.022 26.5108 26.2699 23.5314 25.7249 20.7527L25.7249 20.7528ZM12.1793 46.4948C3.98615 40.989 -0.0676627 35.9933 1.0564 32.7903C1.76642 30.7716 4.52387 29.4823 8.92965 29.0097C11.5144 28.7326 14.6674 28.7365 18.3046 29.0401C21.126 29.2752 24.1717 29.6956 27.3581 30.253C28.6186 34.5139 30.192 39.02 32.0426 43.6631C27.6968 46.1319 23.6515 48.6652 20.0057 51.2047C17.168 49.65 14.5281 48.0743 12.1791 46.4946L12.1793 46.4948ZM20.8031 74.2755C11.1144 76.1666 4.71799 75.5103 3.24654 72.4499C1.7759 69.3896 5.25511 63.9779 12.7913 57.6034C14.9534 55.7754 17.4034 53.9179 20.0503 52.0596C23.9477 54.1788 28.2405 56.2482 32.8228 58.2201C31.4682 63.1161 30.3961 67.7756 29.62 72.0863C26.5324 72.9855 23.567 73.7329 20.8033 74.2755L20.8031 74.2755ZM46.545 87.8203C41.0393 96.0126 36.0489 100.06 32.839 98.9432C28.434 97.3962 27.7265 87.0107 30.2745 72.6492C34.5448 71.388 39.0618 69.81 43.7143 67.9562C46.1823 72.3012 48.7156 76.3457 51.2543 79.9923C49.6996 82.83 48.1239 85.4707 46.545 87.8195V87.8203ZM74.3238 79.1973C76.2242 88.8838 75.5593 95.2824 72.4981 96.7538C69.4378 98.2136 64.0262 94.7453 57.6533 87.2069C55.8253 85.0448 53.9678 82.5948 52.1095 79.9463C54.2287 76.0475 56.2994 71.7539 58.2715 67.1706C63.1676 68.5252 67.8263 69.5981 72.1354 70.375C73.0346 73.465 73.7812 76.432 74.3237 79.1973H74.3238ZM98.9934 67.1598C97.4457 71.564 87.0602 72.2723 72.6995 69.7258C71.4406 65.4626 69.8656 60.9541 68.0151 56.3096C72.4471 53.7996 76.5071 51.2563 80.1125 48.7517C92.8896 55.7272 100.537 62.7596 98.9924 67.1598H98.9934Z" fill="#131313"/>
<circle cx="50" cy="50" r="11" fill="#EAECF0"/>
<path d="M57.2158 41.058C52.2917 37.0867 45.0793 37.859 41.1082 42.7832C37.1369 47.7074 37.9092 54.9198 42.8334 58.8909C47.7576 62.862 54.9699 62.0899 58.941 57.1657C62.9123 52.2407 62.14 45.0299 57.2158 41.058ZM51.0919 59.931C45.5931 60.5203 40.6574 56.5404 40.068 51.0411C39.4787 45.5423 43.4586 40.6066 48.9579 40.0173C54.4567 39.4279 59.3924 43.4078 59.9818 48.9072C60.5703 54.4059 56.5904 59.3424 51.0919 59.931Z" fill="#131313"/>
</g>
<defs>
<clipPath id="clip0_760_11886">
<rect width="100" height="100" fill="white"/>
</clipPath>
</defs>
</svg>
