<svg width="61" height="60" viewBox="0 0 61 60" fill="none" xmlns="http://www.w3.org/2000/svg">
<g filter="url(#filter0_d_575_12319)">
<path d="M20.333 12.5C20.333 16.6421 16.9751 20 12.833 20C8.69087 20 5.33301 16.6421 5.33301 12.5C5.33301 8.35786 8.69087 5 12.833 5C16.9751 5 20.333 8.35786 20.333 12.5Z" fill="#F8DA1B"/>
<path d="M55.333 12.5C55.333 16.6421 51.9751 20 47.833 20C43.6909 20 40.333 16.6421 40.333 12.5C40.333 8.35786 43.6909 4.99999 47.833 4.99999C51.9751 4.99999 55.333 8.35786 55.333 12.5Z" fill="#F8DA1B"/>
<path d="M55.333 47.5C55.333 51.6421 51.9751 55 47.833 55C43.6909 55 40.333 51.6421 40.333 47.5C40.333 43.3579 43.6909 40 47.833 40C51.9751 40 55.333 43.3579 55.333 47.5Z" fill="#F8DA1B"/>
<path d="M20.333 47.5C20.333 51.6421 16.9752 55 12.833 55C8.69088 55 5.33302 51.6421 5.33302 47.5C5.33301 43.3579 8.69088 40 12.833 40C16.9752 40 20.333 43.3579 20.333 47.5Z" fill="#F8DA1B"/>
<path d="M20.333 12.5C20.333 16.6421 16.9751 20 12.833 20M20.333 12.5C20.333 8.35786 16.9751 5 12.833 5C8.69087 5 5.33301 8.35786 5.33301 12.5C5.33301 16.6421 8.69087 20 12.833 20M20.333 12.5L40.333 12.5M12.833 20L12.833 40M40.333 12.5C40.333 16.6421 43.6909 20 47.833 20M40.333 12.5C40.333 8.35786 43.6909 4.99999 47.833 4.99999C51.9751 4.99999 55.333 8.35786 55.333 12.5C55.333 16.6421 51.9751 20 47.833 20M12.833 40C8.69088 40 5.33301 43.3579 5.33302 47.5C5.33302 51.6421 8.69088 55 12.833 55C16.9752 55 20.333 51.6421 20.333 47.5M12.833 40C16.9752 40 20.333 43.3579 20.333 47.5M20.333 47.5L40.333 47.5M40.333 47.5C40.333 51.6421 43.6909 55 47.833 55C51.9751 55 55.333 51.6421 55.333 47.5C55.333 43.3579 51.9751 40 47.833 40M40.333 47.5C40.333 43.3579 43.6909 40 47.833 40M47.833 40L47.833 20" stroke="#0A0517" stroke-width="2" stroke-linecap="round" stroke-linejoin="round"/>
</g>
<defs>
<filter id="filter0_d_575_12319" x="4.33301" y="4" width="54" height="54" filterUnits="userSpaceOnUse" color-interpolation-filters="sRGB">
<feFlood flood-opacity="0" result="BackgroundImageFix"/>
<feColorMatrix in="SourceAlpha" type="matrix" values="0 0 0 0 0 0 0 0 0 0 0 0 0 0 0 0 0 0 127 0" result="hardAlpha"/>
<feOffset dx="2" dy="2"/>
<feColorMatrix type="matrix" values="0 0 0 0 0.0392157 0 0 0 0 0.0196078 0 0 0 0 0.0901961 0 0 0 1 0"/>
<feBlend mode="normal" in2="BackgroundImageFix" result="effect1_dropShadow_575_12319"/>
<feBlend mode="normal" in="SourceGraphic" in2="effect1_dropShadow_575_12319" result="shape"/>
</filter>
</defs>
</svg>
