<svg width="20" height="20" viewBox="0 0 20 20" fill="none" xmlns="http://www.w3.org/2000/svg">
<g clip-path="url(#clip0_1622_40085)">
<path d="M18.3332 4.83089C17.72 5.10311 17.0609 5.28644 16.3693 5.36908C17.0755 4.94617 17.6179 4.27603 17.8728 3.47742C17.2123 3.86908 16.4804 4.15381 15.7012 4.30728C15.0783 3.64269 14.1887 3.22742 13.2054 3.22742C10.9978 3.22742 9.37553 5.28714 9.87414 7.42533C7.03317 7.28297 4.51373 5.92186 2.82692 3.85311C1.93109 5.38992 2.36234 7.40033 3.88456 8.41839C3.32484 8.40033 2.79706 8.24686 2.33664 7.99061C2.29914 9.57464 3.43456 11.0566 5.079 11.3864C4.59775 11.517 4.07067 11.5476 3.53456 11.4448C3.96928 12.8031 5.23178 13.7913 6.729 13.8191C5.2915 14.9462 3.48039 15.4496 1.6665 15.2358C3.1797 16.2059 4.97761 16.7719 6.90817 16.7719C13.2568 16.7719 16.8436 11.4101 16.6269 6.60103C17.295 6.11839 17.8748 5.51631 18.3332 4.83089Z" fill="#1C1C1C"/>
</g>
<defs>
<clipPath id="clip0_1622_40085">
<rect width="16.6667" height="16.6667" fill="white" transform="translate(1.6665 1.66663)"/>
</clipPath>
</defs>
</svg>
