<svg width="40" height="40" viewBox="0 0 40 40" fill="none" xmlns="http://www.w3.org/2000/svg">
<rect width="40" height="40" rx="20" fill="black" fill-opacity="0.05"/>
<path d="M17.5303 11.5862C18.4282 11.0475 18.8771 10.7781 19.3564 10.6729C19.7803 10.5798 20.2194 10.5798 20.6433 10.6729C21.1226 10.7781 21.5715 11.0475 22.4694 11.5862L26.8973 14.2429C27.2769 14.4707 27.4667 14.5846 27.5306 14.7315C27.5863 14.8598 27.5858 15.0055 27.5292 15.1334C27.4644 15.2799 27.2738 15.3925 26.8927 15.6177L20.4068 19.4502C20.2587 19.5377 20.1847 19.5815 20.1058 19.5986C20.036 19.6137 19.9637 19.6137 19.8939 19.5986C19.815 19.5815 19.7409 19.5377 19.5929 19.4502L13.107 15.6177C12.7259 15.3925 12.5353 15.2799 12.4704 15.1334C12.4138 15.0055 12.4133 14.8598 12.4691 14.7315C12.533 14.5846 12.7228 14.4707 13.1024 14.2429L17.5303 11.5862Z" fill="black" fill-opacity="0.4"/>
<path d="M12.2485 16.5623C11.853 16.3286 11.6553 16.2118 11.4928 16.2277C11.351 16.2416 11.2219 16.3152 11.1379 16.4302C11.0415 16.562 11.0415 16.7917 11.0415 17.251V21.8029C11.0415 22.7939 11.0415 23.2894 11.1837 23.7346C11.3095 24.1286 11.5155 24.4924 11.7886 24.803C12.0972 25.154 12.5221 25.4089 13.3719 25.9188L18.1632 28.7936C18.5598 29.0315 18.7581 29.1505 18.9212 29.1353C19.0635 29.1221 19.1933 29.0486 19.2779 28.9334C19.3748 28.8013 19.3748 28.5701 19.3748 28.1076V21.2298C19.3748 21.0634 19.3748 20.9802 19.3508 20.9056C19.3296 20.8395 19.2948 20.7786 19.2488 20.7267C19.1967 20.6681 19.1251 20.6257 18.9818 20.5411L12.2485 16.5623Z" fill="black" fill-opacity="0.4"/>
<path d="M20.6248 28.1076C20.6248 28.5701 20.6248 28.8013 20.7218 28.9334C20.8064 29.0486 20.9362 29.1221 21.0784 29.1353C21.2416 29.1505 21.4399 29.0315 21.8364 28.7936L26.6278 25.9188C27.4775 25.4089 27.9024 25.154 28.2111 24.803C28.4842 24.4924 28.6902 24.1286 28.816 23.7346C28.9582 23.2894 28.9582 22.7939 28.9582 21.8029V17.251C28.9582 16.7917 28.9582 16.562 28.8618 16.4302C28.7777 16.3152 28.6486 16.2416 28.5069 16.2277C28.3444 16.2118 28.1467 16.3286 27.7512 16.5623L21.0179 20.5411C20.8746 20.6257 20.803 20.6681 20.7509 20.7267C20.7048 20.7786 20.6701 20.8395 20.6488 20.9056C20.6248 20.9802 20.6248 21.0634 20.6248 21.2298V28.1076Z" fill="black" fill-opacity="0.4"/>
</svg>
