<svg width="40" height="40" viewBox="0 0 40 40" fill="none" xmlns="http://www.w3.org/2000/svg">
<rect width="40" height="40" rx="20" fill="black" fill-opacity="0.05"/>
<path d="M22.6863 10.2084C22.4012 10.2084 22.1277 10.3217 21.926 10.5233L18.0199 14.4294C16.9822 15.4671 16.4634 15.9859 16.0923 16.5914C15.7634 17.1283 15.5209 17.7135 15.374 18.3258C15.2082 19.0163 15.2082 19.7501 15.2082 21.2176V23.325C15.2082 25.0052 15.2082 25.8453 15.5352 26.487C15.8228 27.0515 16.2817 27.5104 16.8462 27.7981C17.4879 28.125 18.328 28.125 20.0082 28.125H23.918C25.3795 28.125 26.1102 28.125 26.7005 27.8576C27.2206 27.6219 27.6627 27.2426 27.9748 26.7643C28.3289 26.2216 28.44 25.4994 28.6622 24.0549L29.0518 21.5227C29.1745 20.7253 29.2358 20.3266 29.2323 19.9995C29.2118 18.0573 27.799 16.4104 25.8825 16.0949C25.5597 16.0417 25.1563 16.0417 24.3496 16.0417H24.1528C23.819 16.0417 23.594 15.7004 23.7255 15.3936L24.663 13.206C25.2711 11.787 24.2302 10.2084 22.6863 10.2084Z" fill="black" fill-opacity="0.4"/>
<path d="M14.1665 18.2292C14.1665 17.3663 13.4669 16.6667 12.604 16.6667C11.7411 16.6667 11.0415 17.3663 11.0415 18.2292V26.5624C11.0415 27.4253 11.7411 28.1249 12.604 28.1249C13.4669 28.1249 14.1665 27.4253 14.1665 26.5624V18.2292Z" fill="black" fill-opacity="0.4"/>
</svg>
