<svg width="24" height="24" viewBox="0 0 24 24" fill="none" xmlns="http://www.w3.org/2000/svg">
<path fill-rule="evenodd" clip-rule="evenodd" d="M3.25 7.65V19.5C3.25 21.2949 4.70507 22.75 6.5 22.75H15L15.0953 22.75H15.0953C15.9334 22.7501 16.4668 22.7502 16.9267 22.6587C18.811 22.2839 20.2839 20.811 20.6587 18.9267C20.7502 18.4668 20.7501 17.9334 20.75 17.0953L20.75 17V7.65C20.75 5.40979 20.75 4.28969 20.314 3.43404C19.9305 2.68139 19.3186 2.06947 18.566 1.68597C17.7103 1.25 16.5902 1.25 14.35 1.25H9.65C7.40979 1.25 6.28969 1.25 5.43404 1.68597C4.68139 2.06947 4.06947 2.68139 3.68597 3.43404C3.25 4.28969 3.25 5.40979 3.25 7.65ZM4.75 19.5C4.75 20.4665 5.5335 21.25 6.5 21.25H15C15.9653 21.25 16.3384 21.2464 16.634 21.1876C17.9233 20.9311 18.9311 19.9233 19.1876 18.634C19.2279 18.4312 19.2423 18.1919 19.2473 17.75H6.5C5.5335 17.75 4.75 18.5335 4.75 19.5ZM14.75 7.75C15.1642 7.75 15.5 7.41421 15.5 7C15.5 6.58579 15.1642 6.25 14.75 6.25H9.25C8.83579 6.25 8.5 6.58579 8.5 7C8.5 7.41421 8.83579 7.75 9.25 7.75H14.75Z" fill="#1C1C1C"/>
</svg>
