<svg viewBox="0 0 24 24" fill="none" xmlns="http://www.w3.org/2000/svg">
  <path fill-rule="evenodd" clip-rule="evenodd"
    d="M10.9957 2.56593C11.6484 2.35384 12.3516 2.35384 13.0043 2.56593C13.3293 2.67152 13.6692 2.87508 14.1439 3.27807C14.6253 3.68675 15.1944 4.25503 15.9952 5.05582L16.9442 6.00486C17.745 6.80564 18.3133 7.37475 18.7219 7.85615C19.1249 8.33085 19.3285 8.67071 19.4341 8.9957C19.6462 9.64844 19.6462 10.3516 19.4341 11.0043C19.3285 11.3293 19.1249 11.6692 18.7219 12.1439C18.3242 12.6124 17.7753 13.164 17.0079 13.9314L16.9442 13.9952L16.4697 14.4697L16.4697 14.4697C15.995 14.9444 15.5491 15.1675 15.1318 15.2491C14.7089 15.3318 14.2493 15.2818 13.7316 15.102C12.6578 14.729 11.5088 13.8673 10.2132 12.8606L10.0166 12.7076C8.82587 11.7811 7.52402 10.768 6.19669 10.1825C5.31104 9.79188 4.37339 9.57415 3.41867 9.69409C3.81445 9.24688 4.34303 8.71765 5.05582 8.00485L8.00485 5.05582C8.80564 4.25504 9.37474 3.68675 9.85614 3.27807C10.3309 2.87508 10.6707 2.67152 10.9957 2.56593ZM19.8654 13.1146C19.6478 13.371 19.3935 13.6454 19.1024 13.947C19.0807 13.9761 19.0567 14.0039 19.0303 14.0303L18.0764 14.9842L18.0282 15.0325L18.0049 15.0558L17.5303 15.5303L15.0558 18.0049L15.0325 18.0282L15.0325 18.0282C14.2602 18.8005 13.6482 19.4125 13.1146 19.8654C12.569 20.3287 12.0562 20.6695 11.4678 20.8607C10.5138 21.1706 9.48618 21.1706 8.53218 20.8607C7.94385 20.6695 7.43104 20.3287 6.88538 19.8654C6.35181 19.4125 5.73985 18.8005 4.96765 18.0283L4.96754 18.0282L4.94419 18.0049L3.99515 17.0558L3.97184 17.0325L3.97181 17.0325C3.19955 16.2602 2.58755 15.6482 2.13456 15.1146C1.67134 14.569 1.3305 14.0562 1.13934 13.4678C0.829367 12.5138 0.829367 11.4862 1.13934 10.5322C1.3305 9.94385 1.67134 9.43104 2.13456 8.88538C2.58756 8.35178 3.19956 7.73978 3.97184 6.96752L3.99516 6.94419L6.94419 3.99516L6.96753 3.97183L6.96754 3.97182C7.73979 3.19955 8.35178 2.58755 8.88538 2.13457C9.43104 1.67134 9.94385 1.3305 10.5322 1.13934C11.4862 0.829367 12.5138 0.829367 13.4678 1.13934C14.0562 1.3305 14.569 1.67134 15.1146 2.13456C15.6482 2.58756 16.2603 3.19958 17.0325 3.97187L17.0558 3.99516L18.0049 4.9442L18.0282 4.96753C18.8005 5.73979 19.4125 6.35179 19.8654 6.88538C20.3287 7.43104 20.6695 7.94385 20.8607 8.53218C21.1706 9.48618 21.1706 10.5138 20.8607 11.4678C20.6695 12.0562 20.3287 12.569 19.8654 13.1146ZM20.5913 15.7164C20.3892 15.6438 20.1581 15.6289 19.9999 15.6289C19.8418 15.6289 19.6107 15.6438 19.4086 15.7164C19.2163 15.7854 19.0518 15.8734 18.8983 16.0012C18.7731 16.1053 18.6695 16.2263 18.5936 16.315L18.579 16.3321C17.9866 17.0226 17.25 18.1538 17.25 19.5556C17.25 20.5271 17.5509 21.3295 18.0732 21.8968C18.5927 22.4613 19.2941 22.75 20 22.75C20.7059 22.75 21.4073 22.4613 21.9268 21.8968C22.4491 21.3295 22.75 20.5271 22.75 19.5556C22.75 18.1538 22.0133 17.0226 21.4209 16.3321L21.4063 16.315C21.3304 16.2263 21.2268 16.1053 21.1016 16.0012C20.9481 15.8734 20.7835 15.7854 20.5913 15.7164Z"
    fill="#1C1C1C" />
</svg>