<svg width="24" height="24" viewBox="0 0 24 24" fill="none" xmlns="http://www.w3.org/2000/svg">
<path d="M12.55 1.25C13.6701 1.25 14.2302 1.25 14.658 1.46799C15.0343 1.65973 15.3403 1.96569 15.532 2.34202C15.75 2.76984 15.75 3.32989 15.75 4.45V5.98518C15.75 6.47436 15.75 6.71895 15.6947 6.94913C15.6457 7.1532 15.5649 7.34829 15.4553 7.52723C15.3316 7.72906 15.1586 7.90202 14.8127 8.24792L13.1314 9.92929C12.7354 10.3253 12.5373 10.5233 12.309 10.5975C12.1082 10.6628 11.8918 10.6628 11.691 10.5975C11.4627 10.5233 11.2646 10.3253 10.8686 9.92929L9.18726 8.24792C8.84136 7.90202 8.66841 7.72906 8.54472 7.52723C8.43506 7.34829 8.35426 7.1532 8.30526 6.94913C8.25 6.71895 8.25 6.47436 8.25 5.98518V4.45C8.25 3.3299 8.25 2.76984 8.46799 2.34202C8.65974 1.96569 8.9657 1.65973 9.34202 1.46799C9.76984 1.25 10.3299 1.25 11.45 1.25H12.55Z" fill="#1C1C1C"/>
<path d="M1.25 11.45C1.25 10.3299 1.25 9.76984 1.46799 9.34202C1.65973 8.9657 1.96569 8.65973 2.34202 8.46799C2.76984 8.25 3.32989 8.25 4.45 8.25H5.98518C6.47436 8.25 6.71895 8.25 6.94912 8.30526C7.1532 8.35425 7.34829 8.43506 7.52723 8.54472C7.72906 8.6684 7.90202 8.84136 8.24792 9.18726L9.92929 10.8686C10.3253 11.2646 10.5233 11.4627 10.5975 11.691C10.6628 11.8918 10.6628 12.1082 10.5975 12.309C10.5233 12.5373 10.3253 12.7354 9.92929 13.1314L8.24792 14.8127C7.90202 15.1586 7.72906 15.3316 7.52723 15.4553C7.34829 15.5649 7.1532 15.6457 6.94912 15.6947C6.71895 15.75 6.47436 15.75 5.98518 15.75H4.45C3.3299 15.75 2.76984 15.75 2.34202 15.532C1.96569 15.3403 1.65973 15.0343 1.46799 14.658C1.25 14.2302 1.25 13.6701 1.25 12.55V11.45Z" fill="#1C1C1C"/>
<path d="M18.0148 8.25C17.5256 8.25 17.2811 8.25 17.0509 8.30526C16.8468 8.35425 16.6517 8.43506 16.4728 8.54472C16.2709 8.6684 16.098 8.84136 15.7521 9.18726L14.0707 10.8686C13.6747 11.2646 13.4767 11.4627 13.4025 11.691C13.3372 11.8918 13.3372 12.1082 13.4025 12.309C13.4767 12.5373 13.6747 12.7354 14.0707 13.1314L15.7521 14.8127C16.098 15.1586 16.2709 15.3316 16.4728 15.4553C16.6517 15.5649 16.8468 15.6457 17.0509 15.6947C17.2811 15.75 17.5256 15.75 18.0148 15.75H19.55C20.6701 15.75 21.2302 15.75 21.658 15.532C22.0343 15.3403 22.3403 15.0343 22.532 14.658C22.75 14.2302 22.75 13.6701 22.75 12.55V11.45C22.75 10.3299 22.75 9.76984 22.532 9.34202C22.3403 8.9657 22.0343 8.65973 21.658 8.46799C21.2302 8.25 20.6701 8.25 19.55 8.25H18.0148Z" fill="#1C1C1C"/>
<path d="M13.1314 14.0707C12.7354 13.6747 12.5373 13.4767 12.309 13.4025C12.1082 13.3372 11.8918 13.3372 11.691 13.4025C11.4627 13.4767 11.2646 13.6747 10.8686 14.0707L9.18726 15.7521C8.84136 16.098 8.66841 16.2709 8.54472 16.4728C8.43506 16.6517 8.35426 16.8468 8.30526 17.0509C8.25 17.2811 8.25 17.5256 8.25 18.0148V19.55C8.25 20.6701 8.25 21.2302 8.46799 21.658C8.65974 22.0343 8.9657 22.3403 9.34202 22.532C9.76984 22.75 10.3299 22.75 11.45 22.75H12.55C13.6701 22.75 14.2302 22.75 14.658 22.532C15.0343 22.3403 15.3403 22.0343 15.532 21.658C15.75 21.2302 15.75 20.6701 15.75 19.55V18.0148C15.75 17.5256 15.75 17.2811 15.6947 17.0509C15.6457 16.8468 15.5649 16.6517 15.4553 16.4728C15.3316 16.2709 15.1586 16.098 14.8127 15.7521L13.1314 14.0707Z" fill="#1C1C1C"/>
</svg>
