<svg width="24" height="24" viewBox="0 0 24 24" fill="none" xmlns="http://www.w3.org/2000/svg">
<path fill-rule="evenodd" clip-rule="evenodd" d="M9.56821 1.26915C9.77005 1.42513 9.94812 1.655 10.3043 2.11472L10.7271 2.66047C11.0286 3.04969 11.5077 3.24996 12.0001 3.24996C12.4925 3.24996 12.9717 3.04966 13.2733 2.66038L13.696 2.11478C14.052 1.65517 14.2301 1.42536 14.4319 1.26939C14.9303 0.88414 15.5811 0.756247 16.1883 0.924242C16.4341 0.992252 16.6858 1.1376 17.1893 1.42831L18.5626 2.22116C19.0644 2.51087 19.3153 2.65573 19.4966 2.83382C19.9469 3.2761 20.162 3.905 20.0769 4.53042C20.0427 4.78225 19.933 5.05042 19.7138 5.58674L19.7138 5.58676L19.4523 6.22632C19.2658 6.68269 19.3315 7.19671 19.5785 7.62344C19.8251 8.04961 20.2388 8.36648 20.7266 8.433L21.4105 8.52626C21.985 8.60461 22.2723 8.64378 22.5077 8.74014C23.0916 8.97914 23.5285 9.47964 23.6864 10.0905C23.7501 10.3367 23.7501 10.6267 23.7501 11.2065V12.7934C23.7501 13.3733 23.7501 13.6632 23.6864 13.9095C23.5285 14.5203 23.0916 15.0208 22.5077 15.2598C22.2723 15.3561 21.985 15.3953 21.4105 15.4737L21.4105 15.4737L20.7266 15.5669C20.2387 15.6334 19.8251 15.9503 19.5785 16.3765C19.3316 16.8032 19.2658 17.3172 19.4523 17.7735L19.7138 18.4131L19.7138 18.4131C19.933 18.9494 20.0427 19.2176 20.0769 19.4694C20.1621 20.0948 19.947 20.7237 19.4966 21.166C19.3153 21.3441 19.0644 21.489 18.5627 21.7787L18.5626 21.7787L17.1893 22.5716C16.6858 22.8622 16.4341 23.0076 16.1883 23.0756C15.5812 23.2436 14.9303 23.1157 14.4318 22.7304C14.2301 22.5745 14.0521 22.3447 13.696 21.8851L13.2734 21.3396C12.9718 20.9503 12.4925 20.75 12.0001 20.75C11.5077 20.75 11.0285 20.9502 10.727 21.3395L10.3042 21.8852C9.9481 22.3448 9.77004 22.5747 9.56823 22.7307C9.06981 23.1159 8.41904 23.2438 7.81192 23.0758C7.56609 23.0078 7.31431 22.8624 6.81073 22.5717L6.81072 22.5717L5.43756 21.7789C4.93573 21.4891 4.68481 21.3443 4.50348 21.1662C4.05319 20.7239 3.83809 20.095 3.9232 19.4696C3.95747 19.2178 4.06711 18.9496 4.28638 18.4132L4.54785 17.7736C4.73441 17.3173 4.66863 16.8032 4.4217 16.3765C4.1751 15.9503 3.76139 15.6334 3.27353 15.5669L2.58968 15.4737C2.01511 15.3953 1.72783 15.3561 1.49243 15.2598C0.908543 15.0208 0.471665 14.5203 0.313744 13.9095C0.250076 13.6632 0.250076 13.3733 0.250076 12.7934V11.2065C0.250076 10.6267 0.250076 10.3367 0.313743 10.0905C0.471664 9.47964 0.908543 8.97914 1.49243 8.74014C1.72783 8.64378 2.01511 8.6046 2.58967 8.52626L3.2735 8.43301C3.76138 8.36648 4.1751 8.0496 4.42171 7.62341C4.66865 7.19665 4.73444 6.6826 4.54786 6.22621L4.28641 5.58664C4.06713 5.05025 3.95749 4.78206 3.92322 4.5302C3.83812 3.90481 4.05321 3.27595 4.50349 2.83368C4.68483 2.65557 4.93575 2.5107 5.4376 2.22096L6.81069 1.4282C7.31432 1.13743 7.56613 0.992046 7.81199 0.924035C8.41908 0.756098 9.06981 0.883972 9.56821 1.26915ZM12 15C13.6568 15 15 13.6568 15 12C15 10.3431 13.6568 8.99998 12 8.99998C10.3431 8.99998 8.99999 10.3431 8.99999 12C8.99999 13.6568 10.3431 15 12 15Z" fill="#1C1C1C"/>
</svg>
