<svg width="24" height="24" viewBox="0 0 24 24" fill="none" xmlns="http://www.w3.org/2000/svg">
<path fill-rule="evenodd" clip-rule="evenodd" d="M3.98005 1.79497C5.04961 1.25 6.44974 1.25 9.25 1.25H14.75C17.5503 1.25 18.9504 1.25 20.02 1.79497C20.9608 2.27433 21.7257 3.03924 22.205 3.98005C22.75 5.04961 22.75 6.44974 22.75 9.25V20.0858C22.75 21.4732 22.75 22.1669 22.4591 22.5631C22.2054 22.9086 21.816 23.1291 21.3892 23.1689C20.8998 23.2145 20.3049 22.8576 19.1152 22.1438L18.6924 21.8901L18.6923 21.89C17.9851 21.4657 17.6315 21.2535 17.254 21.1035C16.9189 20.9703 16.5703 20.8738 16.2144 20.8156C15.8135 20.75 15.4012 20.75 14.5764 20.75H9.25C6.44974 20.75 5.04961 20.75 3.98005 20.205C3.03924 19.7257 2.27433 18.9608 1.79497 18.02C1.25 16.9504 1.25 15.5503 1.25 12.75V9.25C1.25 6.44974 1.25 5.04961 1.79497 3.98005C2.27433 3.03924 3.03924 2.27433 3.98005 1.79497ZM7.5 9.75C6.80964 9.75 6.25 10.3096 6.25 11C6.25 11.6904 6.80964 12.25 7.5 12.25C8.19036 12.25 8.75 11.6904 8.75 11C8.75 10.3096 8.19036 9.75 7.5 9.75ZM12 9.75C11.3096 9.75 10.75 10.3096 10.75 11C10.75 11.6904 11.3096 12.25 12 12.25C12.6904 12.25 13.25 11.6904 13.25 11C13.25 10.3096 12.6904 9.75 12 9.75ZM16.5 9.75C15.8096 9.75 15.25 10.3096 15.25 11C15.25 11.6904 15.8096 12.25 16.5 12.25C17.1904 12.25 17.75 11.6904 17.75 11C17.75 10.3096 17.1904 9.75 16.5 9.75Z" fill="#1C1C1C"/>
</svg>
