<svg viewBox="0 0 24 24" fill="none" xmlns="http://www.w3.org/2000/svg">
  <path fill-rule="evenodd" clip-rule="evenodd"
    d="M17.2389 3.65546C17.9236 3.49435 18.3894 3.38544 18.7507 3.33337C19.1062 3.28214 19.2745 3.30065 19.3807 3.3346C19.6699 3.42706 19.9155 3.62162 20.0718 3.88194C20.1291 3.9775 20.1857 4.13714 20.2173 4.49488C20.2493 4.8585 20.25 5.33689 20.25 6.04034V12.9997C19.6233 12.529 18.8442 12.25 18 12.25C15.9289 12.25 14.25 13.9289 14.25 16C14.25 18.0711 15.9289 19.75 18 19.75C20.0711 19.75 21.75 18.0711 21.75 16V6.04034V6.00604C21.75 5.34544 21.75 4.8005 21.7115 4.36313C21.6717 3.91235 21.5857 3.48956 21.3579 3.11C21.0142 2.5373 20.4737 2.10928 19.8375 1.90586C19.4159 1.77104 18.9846 1.78416 18.5367 1.84871C18.1022 1.91135 17.5717 2.03617 16.9286 2.18749L16.8953 2.19534L11.2953 3.51299L11.2698 3.51899C10.8509 3.61754 10.4979 3.70059 10.2103 3.79079C9.90781 3.88565 9.62957 4.00225 9.37319 4.19036C8.97475 4.48271 8.66245 4.87702 8.46913 5.33182C8.34474 5.62448 8.29496 5.92203 8.27191 6.23819C8.24998 6.53884 8.24999 6.90146 8.25 7.33174V7.35798V15.9997C7.62325 15.529 6.8442 15.25 6 15.25C3.92893 15.25 2.25 16.9289 2.25 19C2.25 21.0711 3.92893 22.75 6 22.75C8.07107 22.75 9.75 21.0711 9.75 19V7.35798C9.75 6.89456 9.75046 6.5869 9.76793 6.34729C9.78472 6.11712 9.81463 6.00088 9.84961 5.91859C9.93748 5.71186 10.0794 5.53263 10.2605 5.39975C10.3326 5.34685 10.4389 5.29112 10.6591 5.22206C10.8884 5.15017 11.1878 5.07925 11.6389 4.97311L17.2389 3.65546Z"
    fill="#1C1C1C" />
</svg>