<svg viewBox="0 0 24 24" fill="none" xmlns="http://www.w3.org/2000/svg">
  <path fill-rule="evenodd" clip-rule="evenodd"
    d="M3.98005 1.79497C5.04961 1.25 6.44974 1.25 9.25 1.25L14.75 1.25C17.5503 1.25 18.9504 1.25 20.02 1.79497C20.9608 2.27433 21.7257 3.03924 22.205 3.98005C22.75 5.04961 22.75 6.44974 22.75 9.25L22.75 14.75L22.75 14.75C22.75 17.5503 22.75 18.9504 22.205 20.02C21.7257 20.9608 20.9608 21.7257 20.02 22.205C18.9504 22.75 17.5503 22.75 14.75 22.75L9.25 22.75C6.44974 22.75 5.04961 22.75 3.98005 22.205C3.03924 21.7257 2.27433 20.9608 1.79497 20.02C1.25 18.9504 1.25 17.5503 1.25 14.75L1.25 9.25C1.25 6.44974 1.25 5.04961 1.79497 3.98005C2.27433 3.03924 3.03924 2.27433 3.98005 1.79497ZM12.75 7.00024C12.75 6.58602 12.4142 6.25024 12 6.25024C11.5858 6.25024 11.25 6.58602 11.25 7.00024L11.25 17.0002C11.25 17.4145 11.5858 17.7502 12 17.7502C12.4142 17.7502 12.75 17.4144 12.75 17.0002L12.75 7.00024ZM9.74997 9.00024C9.74997 8.58602 9.41418 8.25024 8.99997 8.25024C8.58575 8.25024 8.24997 8.58602 8.24997 9.00024L8.24997 15.0002C8.24997 15.4145 8.58575 15.7502 8.99997 15.7502C9.41418 15.7502 9.74997 15.4145 9.74997 15.0002L9.74997 9.00024ZM15.75 9.00024C15.75 8.58602 15.4142 8.25024 15 8.25024C14.5858 8.25024 14.25 8.58602 14.25 9.00024L14.25 15.0002C14.25 15.4145 14.5858 15.7502 15 15.7502C15.4142 15.7502 15.75 15.4145 15.75 15.0002L15.75 9.00024ZM6.74997 11.0002C6.74997 10.586 6.41418 10.2502 5.99997 10.2502C5.58575 10.2502 5.24997 10.586 5.24997 11.0002L5.24997 13.0002C5.24997 13.4145 5.58575 13.7502 5.99997 13.7502C6.41418 13.7502 6.74997 13.4145 6.74997 13.0002L6.74997 11.0002ZM18.75 11.0002C18.75 10.586 18.4142 10.2502 18 10.2502C17.5858 10.2502 17.25 10.586 17.25 11.0002L17.25 13.0002C17.25 13.4145 17.5858 13.7502 18 13.7502C18.4142 13.7502 18.75 13.4145 18.75 13.0002L18.75 11.0002Z"
    fill="#1C1C1C" />
</svg>