<svg width="60" height="16" viewBox="0 0 60 16" fill="none" xmlns="http://www.w3.org/2000/svg">
<path d="M1 8C1 4.13401 4.13401 1 8 1C11.866 1 15 4.13401 15 8C15 11.866 11.866 15 8 15C4.13401 15 1 11.866 1 8Z" stroke="white" stroke-width="2"/>
<path d="M23 8C23 4.13401 26.134 1 30 1C33.866 1 37 4.13401 37 8C37 11.866 33.866 15 30 15C26.134 15 23 11.866 23 8Z" stroke="white" stroke-width="2"/>
<path d="M45 8C45 4.13401 48.134 1 52 1C55.866 1 59 4.13401 59 8C59 11.866 55.866 15 52 15C48.134 15 45 11.866 45 8Z" stroke="white" stroke-width="2"/>
</svg>
