<svg width="644" height="404" viewBox="0 0 644 404" fill="none" xmlns="http://www.w3.org/2000/svg">
<g filter="url(#filter0_b_1761_54877)">
<path d="M626.419 340.878C635.79 337.368 642 328.411 642 318.403L642 26C642 12.7452 631.255 2 618 2L25.9999 2C12.7451 2 1.99994 12.7452 1.99994 26L1.99994 378C1.99994 391.255 12.7451 402 25.9999 402L458.905 402C461.78 402 464.632 401.483 467.324 400.475L626.419 340.878Z" fill="url(#paint0_linear_1761_54877)" fill-opacity="0.15"/>
<path d="M626.419 340.878C635.79 337.368 642 328.411 642 318.403L642 26C642 12.7452 631.255 2 618 2L25.9999 2C12.7451 2 1.99994 12.7452 1.99994 26L1.99994 378C1.99994 391.255 12.7451 402 25.9999 402L458.905 402C461.78 402 464.632 401.483 467.324 400.475L626.419 340.878Z" stroke="url(#paint1_linear_1761_54877)" stroke-width="3"/>
</g>
<defs>
<filter id="filter0_b_1761_54877" x="-9.5" y="-9.5" width="663" height="423" filterUnits="userSpaceOnUse" color-interpolation-filters="sRGB">
<feFlood flood-opacity="0" result="BackgroundImageFix"/>
<feGaussianBlur in="BackgroundImageFix" stdDeviation="5"/>
<feComposite in2="SourceAlpha" operator="in" result="effect1_backgroundBlur_1761_54877"/>
<feBlend mode="normal" in="SourceGraphic" in2="effect1_backgroundBlur_1761_54877" result="shape"/>
</filter>
<linearGradient id="paint0_linear_1761_54877" x1="642" y1="414.461" x2="425.031" y2="-334.63" gradientUnits="userSpaceOnUse">
<stop stop-color="white" stop-opacity="0"/>
<stop offset="1" stop-color="white"/>
</linearGradient>
<linearGradient id="paint1_linear_1761_54877" x1="642" y1="202" x2="2" y2="202" gradientUnits="userSpaceOnUse">
<stop stop-color="#69EACB"/>
<stop offset="0.48" stop-color="#EACCF8"/>
<stop offset="1" stop-color="#6654F1"/>
</linearGradient>
</defs>
</svg>
