<svg width="21" height="20" viewBox="0 0 21 20" fill="none" xmlns="http://www.w3.org/2000/svg">
<path opacity="0.12" d="M14.2498 3.75L11.7533 6.24651C11.2868 6.71308 11.0535 6.94636 10.8638 7.21022C10.6954 7.44448 10.5528 7.69626 10.4386 7.96119C10.3099 8.25959 10.2299 8.57965 10.0699 9.21977L9.6665 10.8333L11.2801 10.4299L11.2801 10.4299C11.9202 10.2699 12.2402 10.1899 12.5386 10.0612C12.8036 9.947 13.0554 9.80443 13.2896 9.63604C13.5535 9.44636 13.7868 9.21308 14.2533 8.74651L16.7498 6.25C16.7498 6.25 15.4998 5.83333 15.0832 5.41667C14.6665 5 14.2498 3.75 14.2498 3.75Z" fill="white" fill-opacity="0.8"/>
<path d="M14.6665 3.33366C14.4582 4.79199 15.7082 6.04199 17.1665 5.83366M10.4998 1.66699H10.0832V1.66699C7.3615 1.66699 6.00067 1.66699 4.95506 2.18263C3.9679 2.66944 3.16896 3.46839 2.68214 4.45555C2.1665 5.50115 2.1665 6.86199 2.1665 9.58366V10.3337C2.1665 13.1339 2.1665 14.5341 2.71147 15.6036C3.19084 16.5444 3.95574 17.3093 4.89655 17.7887C5.96611 18.3337 7.36624 18.3337 10.1665 18.3337H10.9165C13.6382 18.3337 14.999 18.3337 16.0446 17.818C17.0318 17.3312 17.8307 16.5323 18.3175 15.5451C18.8332 14.4995 18.8332 13.1387 18.8332 10.417V10.417V10.0003M9.6665 10.8337L10.0699 9.2201C10.2299 8.57998 10.3099 8.25992 10.4386 7.96152C10.5528 7.69659 10.6954 7.4448 10.8638 7.21054C11.0535 6.94668 11.2868 6.7134 11.7533 6.24684L15.0832 2.91699C15.7735 2.22664 16.8928 2.22664 17.5832 2.91699V2.91699C18.2735 3.60735 18.2735 4.72664 17.5832 5.41699L14.2533 8.74684C13.7868 9.2134 13.5535 9.44668 13.2896 9.63636C13.0554 9.80476 12.8036 9.94732 12.5386 10.0616C12.2402 10.1902 11.9202 10.2702 11.2801 10.4303L9.6665 10.8337Z" stroke="white" stroke-opacity="0.8" stroke-width="1.5" stroke-linecap="round" stroke-linejoin="round"/>
</svg>
