<svg width="21" height="20" viewBox="0 0 21 20" fill="none" xmlns="http://www.w3.org/2000/svg">
  <path
    d="M8.83333 2.5H8.41667V2.5C8.02977 2.5 7.83632 2.5 7.67298 2.51071C5.1692 2.67481 3.17481 4.6692 3.01071 7.17298C3 7.33632 3 7.52977 3 7.91667V10C3 12.3297 3 13.4946 3.3806 14.4134C3.88807 15.6386 4.86144 16.6119 6.08658 17.1194C7.00544 17.5 8.17029 17.5 10.5 17.5H12.5833C12.9702 17.5 13.1637 17.5 13.327 17.4893C15.8308 17.3252 17.8252 15.3308 17.9893 12.827C18 12.6637 18 12.4702 18 12.0833V12.0833V11.6667M10.5 10L18 2.5M18 2.5H13M18 2.5V7.5"
    stroke="currentColor" stroke-width="1.5" stroke-linecap="round" stroke-linejoin="round" />
</svg>