<svg width="17" height="16" viewBox="0 0 17 16" fill="none" xmlns="http://www.w3.org/2000/svg">
<path fill-rule="evenodd" clip-rule="evenodd" d="M8.86282 7.96263C10.4672 7.72196 11.6975 6.33782 11.6975 4.66634C11.6975 2.82539 10.2051 1.33301 8.36418 1.33301C6.52323 1.33301 5.03084 2.82539 5.03084 4.66634C5.03084 6.33782 6.26111 7.72196 7.86553 7.96263C7.86463 7.97486 7.86418 7.98721 7.86418 7.99967V11.9997C7.86418 12.2758 8.08803 12.4997 8.36418 12.4997C8.64032 12.4997 8.86418 12.2758 8.86418 11.9997V7.99967C8.86418 7.98721 8.86372 7.97486 8.86282 7.96263ZM5.13345 9.82237C5.40372 9.7657 5.57687 9.50066 5.5202 9.2304C5.46353 8.96013 5.1985 8.78698 4.92823 8.84365C3.78697 9.08295 2.87371 9.45972 2.23412 9.95694C1.58734 10.4598 1.19751 11.1084 1.19751 11.8535C1.19751 12.4137 1.46874 12.9038 1.86829 13.3024C2.2659 13.699 2.81598 14.0332 3.45576 14.3031C4.73731 14.8439 6.47302 15.1663 8.36418 15.1663C10.2553 15.1663 11.991 14.8439 13.2726 14.3031C13.9124 14.0332 14.4625 13.699 14.8601 13.3024C15.2596 12.9038 15.5308 12.4137 15.5308 11.8535C15.5308 11.1084 15.141 10.4598 14.4942 9.95694C13.8546 9.45972 12.9414 9.08295 11.8001 8.84365C11.5299 8.78698 11.2648 8.96013 11.2082 9.2304C11.1515 9.50066 11.3246 9.7657 11.5949 9.82237C12.6488 10.0433 13.4022 10.3746 13.8805 10.7464C14.3516 11.1127 14.5308 11.4941 14.5308 11.8535C14.5308 12.07 14.429 12.3199 14.1538 12.5944C13.8767 12.8708 13.4505 13.1427 12.8839 13.3818C11.7525 13.8591 10.1549 14.1663 8.36418 14.1663C6.57344 14.1663 4.97581 13.8591 3.8445 13.3818C3.27785 13.1427 2.85162 12.8708 2.57453 12.5944C2.29937 12.3199 2.19751 12.07 2.19751 11.8535C2.19751 11.4941 2.37678 11.1127 2.84788 10.7464C3.32617 10.3746 4.07958 10.0433 5.13345 9.82237Z" fill="#7B61FF"/>
</svg>
