<svg width="20" height="20" viewBox="0 0 20 20" fill="none" xmlns="http://www.w3.org/2000/svg">
  <path
    d="M14.9998 5.00033V8.33366M14.9998 5.00033H11.6665M14.9998 5.00033L4.99984 15.0003M4.99984 15.0003V11.667M4.99984 15.0003H8.33317M9.66651 18.3337H10.3332C13.1334 18.3337 14.5336 18.3337 15.6031 17.7887C16.5439 17.3093 17.3088 16.5444 17.7882 15.6036C18.3332 14.5341 18.3332 13.1339 18.3332 10.3337V9.66699C18.3332 6.86673 18.3332 5.4666 17.7882 4.39704C17.3088 3.45623 16.5439 2.69133 15.6031 2.21196C14.5336 1.66699 13.1334 1.66699 10.3332 1.66699H9.6665C6.86624 1.66699 5.46611 1.66699 4.39655 2.21196C3.45574 2.69133 2.69084 3.45623 2.21147 4.39704C1.6665 5.4666 1.6665 6.86673 1.6665 9.667V10.3337C1.6665 13.1339 1.6665 14.5341 2.21147 15.6036C2.69084 16.5444 3.45574 17.3093 4.39655 17.7887C5.46611 18.3337 6.86624 18.3337 9.66651 18.3337Z"
    stroke="currentColor" stroke-opacity="0.4" stroke-width="1.5" stroke-linecap="round" stroke-linejoin="round" />
</svg>