<svg width="16" height="16" viewBox="0 0 16 16" fill="none" xmlns="http://www.w3.org/2000/svg">
<path opacity="0.12" d="M4 11.5298V4.47085C4 3.22738 4 2.60565 4.26054 2.25264C4.48769 1.94486 4.83608 1.74947 5.21714 1.71614C5.65422 1.67791 6.18473 2.00211 7.24576 2.65051L13.0213 6.17999C14.0061 6.78185 14.4986 7.08278 14.6664 7.47019C14.813 7.80842 14.813 8.19223 14.6664 8.53046C14.4986 8.91787 14.0061 9.2188 13.0213 9.82066L7.24576 13.3501C6.18474 13.9985 5.65422 14.3227 5.21714 14.2845C4.83608 14.2512 4.48769 14.0558 4.26054 13.748C4 13.395 4 12.7733 4 11.5298Z" fill="#7B61FF"/>
<path d="M4 11.5298V4.47085C4 3.22738 4 2.60565 4.26054 2.25264C4.48769 1.94486 4.83608 1.74947 5.21714 1.71614C5.65422 1.67791 6.18473 2.00211 7.24576 2.65051L13.0213 6.17999C14.0061 6.78185 14.4986 7.08278 14.6664 7.47019C14.813 7.80842 14.813 8.19223 14.6664 8.53046C14.4986 8.91787 14.0061 9.2188 13.0213 9.82066L7.24576 13.3501C6.18474 13.9985 5.65422 14.3227 5.21714 14.2845C4.83608 14.2512 4.48769 14.0558 4.26054 13.748C4 13.395 4 12.7733 4 11.5298Z" stroke="#7B61FF" stroke-linecap="round" stroke-linejoin="round"/>
</svg>
