<svg width="12" height="12" viewBox="0 0 12 12" fill="none" xmlns="http://www.w3.org/2000/svg">
<path opacity="0.12" d="M6.27245 0.727548L4.42226 2.57774C3.82796 3.17204 3.53081 3.46919 3.29968 3.80318C2.93524 4.32979 2.6874 4.92812 2.57273 5.55819C2.5 5.95779 2.5 6.37802 2.5 7.21849C2.5 8.17917 2.5 8.65951 2.64428 9.04275C2.87252 9.64901 3.35099 10.1275 3.95725 10.3557C4.34049 10.5 4.82083 10.5 5.78151 10.5H7.71176C8.52204 10.5 8.92718 10.5 9.26708 10.3892C9.83625 10.2036 10.308 9.7989 10.578 9.26456C10.7392 8.94547 10.8008 8.54504 10.924 7.74419L11.0394 6.9941C11.0959 6.62691 11.1241 6.44332 11.127 6.29279C11.1487 5.14991 10.31 4.17236 9.17715 4.02006C9.02793 4 8.84218 4 8.47068 4H8.13195C7.3594 4 6.83853 3.21009 7.14286 2.5L7.53589 1.58293C7.75559 1.07028 7.37955 0.5 6.8218 0.5C6.61576 0.5 6.41815 0.581851 6.27245 0.727548Z" fill="white" fill-opacity="0.8"/>
<path d="M1 4L1 10M5.78151 10.5H7.71176C8.52204 10.5 8.92718 10.5 9.26708 10.3892C9.83625 10.2036 10.308 9.7989 10.578 9.26456C10.7392 8.94547 10.8008 8.54504 10.924 7.74419L11.0394 6.9941C11.0959 6.62691 11.1241 6.44332 11.127 6.29279C11.1487 5.14991 10.31 4.17236 9.17715 4.02006C9.02793 4 8.84218 4 8.47068 4H8.13195C7.3594 4 6.83853 3.21009 7.14286 2.5L7.48012 1.71306C7.72623 1.13881 7.305 0.5 6.68023 0.5V0.5C6.56483 0.5 6.45416 0.545843 6.37256 0.627445L4.42226 2.57774C3.82796 3.17204 3.53081 3.46919 3.29968 3.80318C2.93524 4.32979 2.6874 4.92812 2.57273 5.55819C2.5 5.95779 2.5 6.37802 2.5 7.21849V7.21849C2.5 8.17917 2.5 8.65951 2.64428 9.04275C2.87252 9.64901 3.35099 10.1275 3.95725 10.3557C4.34049 10.5 4.82083 10.5 5.78151 10.5Z" stroke="white" stroke-opacity="0.8" stroke-width="0.75" stroke-linecap="round" stroke-linejoin="round"/>
</svg>
