<svg width="21" height="20" viewBox="0 0 21 20" fill="none" xmlns="http://www.w3.org/2000/svg">
  <path fill-rule="evenodd" clip-rule="evenodd"
    d="M12.9999 0.916992C12.5857 0.916992 12.2499 1.25278 12.2499 1.66699C12.2499 2.08121 12.5857 2.41699 12.9999 2.41699C14.4267 2.41699 15.5833 3.57359 15.5833 5.00033C15.5833 6.42706 14.4267 7.58366 12.9999 7.58366C12.5857 7.58366 12.2499 7.91945 12.2499 8.33366C12.2499 8.74787 12.5857 9.08366 12.9999 9.08366C15.2551 9.08366 17.0833 7.25549 17.0833 5.00033C17.0833 2.74516 15.2551 0.916992 12.9999 0.916992ZM14.6666 10.917C14.2524 10.917 13.9166 11.2528 13.9166 11.667C13.9166 12.0812 14.2524 12.417 14.6666 12.417H15.6666C17.4615 12.417 18.9166 13.8721 18.9166 15.667C18.9166 16.7255 18.0585 17.5837 16.9999 17.5837H14.6666C14.2524 17.5837 13.9166 17.9194 13.9166 18.3337C13.9166 18.7479 14.2524 19.0837 14.6666 19.0837H16.9999C18.8869 19.0837 20.4166 17.554 20.4166 15.667C20.4166 13.0436 18.2899 10.917 15.6666 10.917H14.6666ZM7.16659 1.04199C4.98046 1.04199 3.20825 2.8142 3.20825 5.00033C3.20825 7.18645 4.98046 8.95866 7.16659 8.95866C9.35271 8.95866 11.1249 7.18645 11.1249 5.00033C11.1249 2.8142 9.35271 1.04199 7.16659 1.04199ZM0.708252 15.792C0.708252 13.1686 2.8349 11.042 5.45825 11.042H8.87491C11.4983 11.042 13.6249 13.1686 13.6249 15.792C13.6249 17.5409 12.2072 18.9587 10.4583 18.9587H3.87492C2.12602 18.9587 0.708252 17.5409 0.708252 15.792Z"
    fill="currentColor" />
</svg>